<?xml version="1.0" standalone="no"?>
<!DOCTYPE svg PUBLIC "-//W3C//DTD SVG 1.1//EN" "http://www.w3.org/Graphics/SVG/1.1/DTD/svg11.dtd" >
<svg xmlns="http://www.w3.org/2000/svg" xmlns:xlink="http://www.w3.org/1999/xlink" version="1.1">
<metadata>
Created by FontForge 20170731 at Mon Aug  2 07:04:08 2021
 By Aleksey,,,
Copyright 2004 Monotype Imaging Inc. All Rights Reserved. Neo Sans is designed by Sebastian Lester.
</metadata>
<defs>
<font id="SVN-NeoSansBold" horiz-adv-x="1320" >
  <font-face 
    font-family="SVN-Neo Sans"
    font-weight="700"
    font-stretch="normal"
    units-per-em="2048"
    panose-1="2 11 8 4 3 5 4 4 2 4"
    ascent="1567"
    descent="-481"
    x-height="1174"
    cap-height="1522"
    bbox="-190 -442 3140 2324"
    underline-thickness="163"
    underline-position="-324"
    unicode-range="U+0020-FB04"
  />
<missing-glyph horiz-adv-x="1024" 
d="M25 0v1362h972v-1362h-972zM180 1266l332 -498l330 498h-662zM123 1178v-992q0 -1 82.5 123t164.5 249l83 124zM901 1178l-332 -496l332 -498v994zM842 98l-330 496l-332 -496h662z" />
    <glyph glyph-name="f_f" unicode="ff" horiz-adv-x="1579" 
d="M1518 1372q0 -35 -43 -35h-101q-45 0 -56 -16.5t-11 -79.5v-67h168q17 0 29 -12t12 -29v-166q0 -17 -12 -29t-29 -12h-168v-885q0 -17 -12 -29t-29 -12h-252q-17 0 -29 12t-12 29v885h-377v-885q0 -17 -12 -29t-29 -12h-252q-17 0 -29 12t-12 29v885l-164 26
q-18 3 -30.5 14.5t-12.5 28.5v135q0 17 13 30.5t30 13.5h164v65q0 107 21 177t67.5 107.5t106 51.5t149.5 14q64 0 162 -16q18 -3 28.5 -14.5t10.5 -26.5v-160q0 -35 -43 -35h-100q-45 0 -56.5 -17t-11.5 -79v-67h377v65q0 107 21 177t67.5 107.5t106 51.5t149.5 14
q64 0 162 -16q18 -3 28.5 -14.5t10.5 -26.5v-160z" />
    <glyph glyph-name="f_i" unicode="fi" horiz-adv-x="1437" 
d="M807 1372q0 -35 -43 -35h-100q-45 0 -56.5 -17t-11.5 -79v-67h670q17 0 29 -13t12 -31v-1087q0 -17 -12 -30t-29 -13h-248q-17 0 -30 13t-13 30v883h-379v-885q0 -17 -12 -29t-29 -12h-252q-17 0 -29 12t-12 29v885l-164 26q-18 3 -30.5 14.5t-12.5 28.5v135
q0 17 13 30.5t30 13.5h164v65q0 107 21 177t67.5 107.5t106 51.5t149.5 14q64 0 162 -16q18 -3 28.5 -14.5t10.5 -26.5v-160zM1307 1366q0 -16 -11 -27.5t-28 -11.5h-254q-15 0 -27 12t-12 27v182q0 15 12 27t27 12h254q17 0 28 -11.5t11 -27.5v-182z" />
    <glyph glyph-name="f_l" unicode="fl" horiz-adv-x="1429" 
d="M1307 43q0 -18 -11 -30.5t-28 -12.5h-250q-17 0 -30 13t-13 30v1294h-273q-72 0 -89 -16.5t-17 -79.5v-67h168q17 0 29 -12t12 -29v-166q0 -17 -12 -29t-29 -12h-168v-885q0 -17 -12 -29t-29 -12h-252q-17 0 -29 12t-12 29v885l-164 26q-18 3 -30.5 14.5t-12.5 28.5v135
q0 17 13 30.5t30 13.5h164v86q0 87 16.5 146.5t45 95.5t80.5 55.5t108 25.5t143 6q64 0 613 -18q17 0 28 -12t11 -29v-1487z" />
    <glyph glyph-name="f_f_i" unicode="ffi" horiz-adv-x="2148" 
d="M973 1174v65q0 107 21 177t67.5 107.5t106 51.5t149.5 14q64 0 162 -16q18 -3 28.5 -14.5t10.5 -26.5v-160q0 -35 -43 -35h-101q-45 0 -56 -16.5t-11 -79.5v-67h669q17 0 29 -13t12 -31v-1087q0 -17 -12 -30t-29 -13h-247q-17 0 -30 13t-13 30v883h-379v-885
q0 -17 -12 -29t-29 -12h-252q-17 0 -29 12t-12 29v885h-377v-885q0 -17 -12 -29t-29 -12h-252q-17 0 -29 12t-12 29v885l-164 26q-18 3 -30.5 14.5t-12.5 28.5v135q0 17 13 30.5t30 13.5h164v65q0 107 21 177t67.5 107.5t106 51.5t149.5 14q64 0 162 -16q18 -3 28.5 -14.5
t10.5 -26.5v-160q0 -35 -43 -35h-100q-45 0 -56.5 -17t-11.5 -79v-67h377zM2017 1366q0 -16 -11 -27.5t-28 -11.5h-254q-15 0 -26.5 12t-11.5 27v182q0 15 11.5 27t26.5 12h254q17 0 28 -11.5t11 -27.5v-182z" />
    <glyph glyph-name="f_f_l" unicode="ffl" horiz-adv-x="2140" 
d="M807 1372q0 -35 -43 -35h-100q-45 0 -56.5 -17t-11.5 -79v-67h377v86q0 87 16.5 146.5t45 95.5t80.5 55.5t108 25.5t143 6q63 0 612 -18q17 0 28 -12t11 -29v-1487q0 -18 -11 -30.5t-28 -12.5h-249q-17 0 -30 13t-13 30v1294h-273q-72 0 -89 -16.5t-17 -79.5v-67h168
q17 0 29 -12t12 -29v-166q0 -17 -12 -29t-29 -12h-168v-885q0 -17 -12 -29t-29 -12h-252q-17 0 -29 12t-12 29v885h-377v-885q0 -17 -12 -29t-29 -12h-252q-17 0 -29 12t-12 29v885l-164 26q-18 3 -30.5 14.5t-12.5 28.5v135q0 17 13 30.5t30 13.5h164v65q0 107 21 177
t67.5 107.5t106 51.5t149.5 14q64 0 162 -16q18 -3 28.5 -14.5t10.5 -26.5v-160z" />
    <glyph glyph-name="f_b" unicode="fb" horiz-adv-x="2091" 
d="M975 1337h-273q-72 0 -89 -16.5t-17 -79.5v-67h168q17 0 29 -12t12 -29v-166q0 -17 -12 -29t-29 -12h-168v-885q0 -17 -12 -29t-29 -12h-252q-17 0 -29 12t-12 29v885l-164 26q-18 3 -30.5 14.5t-12.5 28.5v135q0 17 13 30.5t30 13.5h164v86q0 87 16.5 146.5t45 95.5
t80.5 55.5t108 25.5t143 6q64 0 613 -18q17 0 28 -12t11 -29v-354q103 14 168 14q254 0 384 -138.5t130 -385.5v-160q0 -250 -133 -387t-381 -137q-223 0 -437 53q-39 9 -51 21t-12 38v1243zM1657 506v160q0 57 -8.5 100t-28 78t-56 53t-89.5 18q-86 0 -168 -10v-639
q78 -12 168 -12q102 0 142 66t40 186z" />
    <glyph glyph-name="f_f_b" unicode="ffb" horiz-adv-x="2801" 
d="M807 1372q0 -35 -43 -35h-100q-45 0 -56.5 -17t-11.5 -79v-67h377v86q0 87 16.5 146.5t45 95.5t80.5 55.5t108 25.5t143 6q63 0 612 -18q17 0 28 -12t11 -29v-354q103 14 168 14q254 0 384 -138.5t130 -385.5v-160q0 -250 -133 -387t-381 -137q-222 0 -436 53
q-39 9 -51 21t-12 38v1243h-273q-72 0 -89 -16.5t-17 -79.5v-67h168q17 0 29 -12t12 -29v-166q0 -17 -12 -29t-29 -12h-168v-885q0 -17 -12 -29t-29 -12h-252q-17 0 -29 12t-12 29v885h-377v-885q0 -17 -12 -29t-29 -12h-252q-17 0 -29 12t-12 29v885l-164 26
q-18 3 -30.5 14.5t-12.5 28.5v135q0 17 13 30.5t30 13.5h164v65q0 107 21 177t67.5 107.5t106 51.5t149.5 14q64 0 162 -16q18 -3 28.5 -14.5t10.5 -26.5v-160zM2367 506v160q0 57 -8.5 100t-28 78t-56 53t-89.5 18q-86 0 -168 -10v-639q78 -12 168 -12q102 0 142 66t40 186
z" />
    <glyph glyph-name="f_f_h" unicode="ffh" horiz-adv-x="2813" 
d="M596 1174h375v86q0 87 16.5 146.5t45 95.5t80.5 55.5t108 25.5t143 6q63 0 612 -18q17 0 28 -12t11 -29v-432q77 50 149 71t165 21q87 0 151.5 -24t104.5 -64.5t64 -102t33 -126.5t9 -148v-682q0 -17 -13 -30t-30 -13h-248q-17 0 -29 13t-12 30v682q0 110 -30 150
t-121 40q-70 0 -193 -65v-807q0 -17 -12 -30t-29 -13h-248q-17 0 -30 13t-13 30v1294h-272q-71 0 -87.5 -16.5t-16.5 -79.5v-67h168q17 0 29 -12t12 -29v-166q0 -17 -12 -29t-29 -12h-168v-885q0 -17 -12 -29t-29 -12h-252q-17 0 -29 12t-12 29v885h-377v-885q0 -17 -12 -29
t-29 -12h-252q-17 0 -29 12t-12 29v885l-164 26q-18 3 -30.5 14.5t-12.5 28.5v135q0 17 13 30.5t30 13.5h164v65q0 107 21 177t67.5 107.5t106 51.5t149.5 14q64 0 162 -16q18 -3 28.5 -14.5t10.5 -26.5v-160q0 -35 -43 -35h-100q-45 0 -56.5 -17t-11.5 -79v-67z" />
    <glyph glyph-name="f_f_k" unicode="ffk" horiz-adv-x="2764" 
d="M973 1174v86q0 87 16.5 146.5t45 95.5t80.5 55.5t108 25.5t143 6q63 0 612 -18q17 0 27 -11.5t10 -29.5v-856l312 469q20 31 53 31h293q13 0 21.5 -7t8.5 -16q0 -10 -8 -21l-381 -518l379 -569q4 -4 4 -16q0 -11 -7 -19t-19 -8h-310q-18 0 -29 5.5t-22 23.5l-295 481
v-467q0 -17 -12 -30t-29 -13h-248q-17 0 -30 13t-13 30v1294h-270q-71 0 -87.5 -16.5t-16.5 -79.5v-67h168q17 0 29 -12t12 -29v-166q0 -17 -12 -29t-29 -12h-168v-885q0 -17 -12 -29t-29 -12h-252q-17 0 -30 12t-13 29v885h-377v-885q0 -17 -12 -29t-29 -12h-252
q-17 0 -29 12t-12 29v885l-164 26q-18 3 -30.5 14.5t-12.5 28.5v135q0 17 13 30.5t30 13.5h164v65q0 107 21 177t67.5 107.5t106 51.5t149.5 14q64 0 162 -16q18 -3 28.5 -14.5t10.5 -26.5v-160q0 -35 -43 -35h-100q-45 0 -56.5 -17t-11.5 -79v-67h377z" />
    <glyph glyph-name="f_h" unicode="fh" horiz-adv-x="2103" 
d="M973 1337h-273q-72 0 -88 -16.5t-16 -79.5v-67h168q17 0 29 -12t12 -29v-166q0 -17 -12 -29t-29 -12h-168v-885q0 -17 -12 -29t-29 -12h-252q-17 0 -29 12t-12 29v885l-164 26q-18 3 -30.5 14.5t-12.5 28.5v135q0 17 13 30.5t30 13.5h162v86q0 87 16.5 146.5t45 95.5
t80.5 55.5t108 25.5t143 6q64 0 613 -18q17 0 28 -12t11 -29v-432q77 51 148.5 71.5t164.5 20.5q87 0 151.5 -24t104.5 -64.5t64 -102t33 -126.5t9 -148v-682q0 -17 -13 -30t-30 -13h-247q-17 0 -29 13t-12 30v682q0 110 -30 150t-122 40q-69 0 -192 -65v-807q0 -17 -12 -30
t-29 -13h-248q-17 0 -30 13t-13 30v1294z" />
    <glyph glyph-name="f_j" unicode="fj" horiz-adv-x="1462" 
d="M1331 -66q0 -194 -81.5 -272t-241.5 -78q-76 0 -164 15q-41 6 -41 41v161q0 37 43 37h90q41 0 52 20t11 76v992h-403v-885q0 -17 -12 -29t-29 -12h-252q-17 0 -29 12t-12 29v885l-164 26q-18 3 -30.5 14.5t-12.5 28.5v135q0 17 13 30.5t30 13.5h164v65q0 107 21 177
t67.5 107.5t106 51.5t149.5 14q64 0 162 -16q18 -3 28.5 -14.5t10.5 -26.5v-160q0 -35 -43 -35h-100q-45 0 -56.5 -17t-11.5 -79v-67h696q17 0 28 -13t11 -31v-1196zM1331 1366q0 -16 -11 -27.5t-28 -11.5h-254q-15 0 -27 12t-12 27v182q0 15 12 27t27 12h254q17 0 28 -11.5
t11 -27.5v-182z" />
    <glyph glyph-name="f_f_j" unicode="ffj" horiz-adv-x="2172" 
d="M2042 -66q0 -194 -82 -272t-242 -78q-76 0 -164 15q-41 6 -41 41v161q0 37 43 37h91q41 0 52 20t11 76v992h-403v-885q0 -17 -12 -29t-29 -12h-252q-17 0 -29 12t-12 29v885h-377v-885q0 -17 -12 -29t-29 -12h-252q-17 0 -29 12t-12 29v885l-164 26q-18 3 -30.5 14.5
t-12.5 28.5v135q0 17 13 30.5t30 13.5h164v65q0 107 21 177t67.5 107.5t106 51.5t149.5 14q64 0 162 -16q18 -3 28.5 -14.5t10.5 -26.5v-160q0 -35 -43 -35h-100q-45 0 -56.5 -17t-11.5 -79v-67h377v65q0 107 21 177t67.5 107.5t106 51.5t149.5 14q64 0 162 -16
q18 -3 28.5 -14.5t10.5 -26.5v-160q0 -35 -43 -35h-101q-45 0 -56 -16.5t-11 -79.5v-67h696q17 0 28 -13t11 -31v-1196zM2042 1366q0 -16 -11 -27.5t-28 -11.5h-254q-15 0 -27 12t-12 27v182q0 15 12 27t27 12h254q17 0 28 -11.5t11 -27.5v-182z" />
    <glyph glyph-name="f_k" unicode="fk" horiz-adv-x="2052" 
d="M1303 1530v-856l311 469q20 31 53 31h293q13 0 22 -7t9 -16t-9 -21l-380 -518l378 -569q5 -5 5 -16t-7.5 -19t-19.5 -8h-309q-19 0 -30 5.5t-22 23.5l-294 481v-467q0 -17 -12 -30t-29 -13h-248q-17 0 -30 13t-13 30v1294h-271q-72 0 -88 -16.5t-16 -79.5v-67h168
q17 0 29 -12t12 -29v-166q0 -17 -12 -29t-29 -12h-168v-885q0 -17 -12 -29t-29 -12h-252q-17 0 -29 12t-12 29v885l-164 26q-18 3 -30.5 14.5t-12.5 28.5v135q0 17 13 30.5t30 13.5h162v86q0 87 16.5 146.5t45 95.5t80.5 55.5t108 25.5t143 6q64 0 613 -18q17 0 27 -11.5
t10 -29.5z" />
    <glyph glyph-name=".notdef" horiz-adv-x="1024" 
d="M25 0v1362h972v-1362h-972zM180 1266l332 -498l330 498h-662zM123 1178v-992q0 -1 82.5 123t164.5 249l83 124zM901 1178l-332 -496l332 -498v994zM842 98l-330 496l-332 -496h662z" />
    <glyph glyph-name=".null" horiz-adv-x="0" 
 />
    <glyph glyph-name="nonmarkingreturn" horiz-adv-x="682" 
 />
    <glyph glyph-name="space" unicode=" " horiz-adv-x="532" 
 />
    <glyph glyph-name="exclam" unicode="!" horiz-adv-x="559" 
d="M451 1532v-2l-41 -1022q0 -17 -12 -30t-29 -13h-174q-17 0 -31 13t-14 30l-41 1022v2q0 15 14 27t31 12h256q17 0 29 -12t12 -27zM440 41q0 -17 -11 -29t-28 -12h-241q-17 0 -29 12t-12 29v258q0 17 12 28t29 11h241q17 0 28 -11t11 -28v-258z" />
    <glyph glyph-name="quotedbl" unicode="&#x22;" horiz-adv-x="966" 
d="M920 1548q0 -1 -5 -16l-153 -449q-8 -21 -16.5 -30t-22.5 -9h-207q-18 0 -18 21q0 12 2 18l110 449q8 39 41 39h244q11 0 18 -6.5t7 -16.5zM471 1548q0 -4 -4 -16l-154 -449q-8 -21 -16.5 -30t-22.5 -9h-206q-19 0 -19 21q0 12 2 18l111 449q8 39 41 39h243q11 0 18 -6.5
t7 -16.5z" />
    <glyph glyph-name="numbersign" unicode="#" horiz-adv-x="1431" 
d="M1333 1104v-4l-24 -156q-1 -10 -10.5 -16t-20.5 -6h-174l-31 -330h172q13 0 25 -9t12 -20v-4l-22 -145q-2 -11 -12.5 -21t-20.5 -10h-172l-29 -344q-2 -16 -11.5 -27.5t-25.5 -11.5h-209q-14 0 -23 10.5t-9 24.5v4l28 344h-231l-31 -344q-2 -16 -12.5 -27.5t-24.5 -11.5
h-211q-13 0 -23 10.5t-10 24.5v4l29 344h-174q-12 0 -20.5 7.5t-8.5 19.5v4l25 153q1 10 9.5 17.5t19.5 7.5h170l28 330h-174q-28 0 -28 24v4l24 158q1 10 11.5 16t21.5 6h164l30 353q2 15 13 27t26 12h211q13 0 22 -10.5t9 -24.5v-4l-31 -353h232l32 353q2 16 12.5 27.5
t26.5 11.5h209q14 0 22.5 -10.5t8.5 -24.5v-4l-33 -353h178q13 0 24 -7.5t11 -18.5zM825 922h-231l-31 -330h232z" />
    <glyph glyph-name="dollar" unicode="$" 
d="M1178 430q0 -71 -20.5 -136.5t-64 -125.5t-119.5 -104.5t-177 -65.5v-193q0 -17 -12 -29t-29 -12h-226q-17 0 -29 12t-12 29v183q-131 8 -260 39q-39 12 -39 41v200q0 17 11.5 28t27.5 11h4q66 -8 192.5 -16t195.5 -8q102 0 143 34.5t41 108.5q0 44 -28 76.5t-107 79.5
l-283 168q-135 80 -189.5 175t-54.5 216q0 325 346 385v176q0 17 12 29t29 12h226q17 0 29 -12t12 -29v-168q197 -13 299 -39q39 -12 39 -39v-203q0 -15 -11 -25.5t-26 -10.5h-4q-233 22 -435 22q-84 0 -120.5 -26t-36.5 -83q0 -39 28 -69.5t109 -73.5l260 -141
q152 -83 215.5 -184t63.5 -232z" />
    <glyph glyph-name="percent" unicode="%" horiz-adv-x="1718" 
d="M1640 340q0 -176 -77 -264t-224 -88t-225 88t-78 264v154q0 176 78 264t225 88t224 -88t77 -264v-154zM1430 1505q0 -12 -9 -24l-852 -1438q-14 -25 -22.5 -34t-24.5 -9h-211q-22 0 -22 23q0 8 6 20l852 1438q14 24 24 32.5t27 8.5h211q21 0 21 -17zM684 1028
q0 -176 -78 -264t-225 -88t-225 88t-78 264v154q0 176 78 263t225 87t225 -87t78 -263v-154zM1436 340v154q0 98 -24.5 136t-72.5 38t-73 -38t-25 -136v-154q0 -98 25 -136t73 -38t72.5 38t24.5 136zM477 1028v154q0 98 -24 136t-72 38t-73 -38t-25 -136v-154q0 -98 25 -137
t73 -39t72 38.5t24 137.5z" />
    <glyph glyph-name="ampersand" unicode="&#x26;" horiz-adv-x="1499" 
d="M1462 25q0 -11 -7 -18t-17 -7h-291q-19 0 -35 16l-61 66q-162 -100 -381 -100q-125 0 -225.5 22t-178.5 68.5t-121 125.5t-43 185v18q0 126 69.5 220.5t203.5 177.5l-17 18q-106 119 -144 197t-38 153v19q0 159 121.5 256.5t364.5 97.5q222 0 344 -96.5t122 -257.5v-19
q0 -68 -20.5 -124.5t-61.5 -103.5t-83 -80.5t-105 -74.5l-63 -41l266 -280q35 81 35 254v16q0 18 10 29.5t27 11.5h190q17 0 28 -12t11 -29v-16q0 -265 -119 -447l209 -221q10 -10 10 -24zM823 1167v19q0 59 -40.5 92t-120.5 33q-88 0 -135.5 -33.5t-47.5 -91.5v-19
q0 -50 21 -94t94 -117l16 -16l54 33q95 59 127 97.5t32 96.5zM874 266l-313 334q-69 -42 -94 -88.5t-25 -110.5v-18q0 -80 61.5 -122t166.5 -42q121 0 204 47z" />
    <glyph glyph-name="quotesingle" unicode="'" horiz-adv-x="518" 
d="M471 1548q0 -4 -4 -16l-154 -449q-8 -21 -16.5 -30t-22.5 -9h-206q-19 0 -19 21q0 12 2 18l111 449q8 39 41 39h243q11 0 18 -6.5t7 -16.5z" />
    <glyph glyph-name="parenleft" unicode="(" horiz-adv-x="739" 
d="M672 -377q0 -20 -25 -20h-205q-50 0 -69 28q-136 190 -202.5 407t-66.5 505v37q0 288 66.5 505.5t202.5 407.5q20 29 69 29h205q25 0 25 -21q0 -13 -10 -33q-222 -411 -222 -888v-37q0 -476 222 -887q10 -20 10 -33z" />
    <glyph glyph-name="parenright" unicode=")" horiz-adv-x="739" 
d="M635 543q0 -289 -66.5 -505.5t-201.5 -406.5q-19 -28 -70 -28h-205q-24 0 -24 20q0 13 10 33q221 409 221 887v37q0 479 -221 888q-10 20 -10 33q0 21 24 21h205q50 0 70 -29q135 -190 201.5 -407t66.5 -506v-37z" />
    <glyph glyph-name="asterisk" unicode="*" horiz-adv-x="980" 
d="M911 1167q0 -20 -30 -30l-236 -70l148 -201q10 -17 10 -28q0 -18 -12 -25l-107 -78q-9 -6 -18 -6q-19 0 -33 21l-141 204l-142 -204q-14 -21 -33 -21q-9 0 -18 6l-109 78q-14 8 -14 25q0 8 12 28l148 201l-234 70q-32 11 -32 32q0 7 2 11l41 129q6 20 26 20q7 0 23 -4
l235 -78l-6 244q0 43 33 43h135q31 0 31 -43l-2 -244l231 78q16 4 23 4q20 0 26 -20l41 -129q2 -4 2 -13z" />
    <glyph glyph-name="plus" unicode="+" 
d="M1174 709q0 -33 -41 -33h-349v-346q0 -41 -32 -41h-185q-32 0 -32 41v346h-347q-41 0 -41 33v184q0 33 41 33h347v348q0 41 32 41h185q32 0 32 -41v-348h349q41 0 41 -33v-184z" />
    <glyph glyph-name="comma" unicode="," horiz-adv-x="561" 
d="M473 313q0 -6 -4 -14l-197 -459q-14 -32 -24 -37q-6 -4 -15 -4h-180q-14 0 -24.5 9.5t-10.5 21.5q0 2 1 5t1 5l132 459q9 39 41 39h249q13 0 22 -7t9 -18z" />
    <glyph glyph-name="hyphen" unicode="-" horiz-adv-x="618" 
d="M549 541q0 -17 -11.5 -27t-29.5 -10h-397q-18 0 -29.5 10t-11.5 27v164q0 17 11.5 27.5t29.5 10.5h397q18 0 29.5 -10.5t11.5 -27.5v-164z" />
    <glyph glyph-name="period" unicode="." horiz-adv-x="561" 
d="M442 41q0 -17 -12 -29t-29 -12h-239q-17 0 -30 12t-13 29v258q0 17 12.5 28t30.5 11h239q17 0 29 -11t12 -28v-258z" />
    <glyph glyph-name="slash" unicode="/" horiz-adv-x="829" 
d="M801 1489q0 -1 -1 -3.5t-1 -4.5l-432 -1438q-11 -43 -41 -43h-260q-15 0 -27 11t-12 24q0 1 1 4t1 4l434 1438q11 41 41 41h260q14 0 25.5 -10t11.5 -23z" />
    <glyph glyph-name="zero" unicode="0" 
d="M1212 672q0 -358 -141.5 -524t-411.5 -166t-410 165.5t-140 524.5v176q0 359 140.5 525.5t409.5 166.5q270 0 411.5 -166.5t141.5 -525.5v-176zM862 672v176q0 118 -15 199t-44 124t-63.5 60.5t-80.5 17.5t-80 -17.5t-62.5 -60.5t-43 -124t-14.5 -199v-176q0 -95 10 -166
t27 -115t43 -71t54.5 -37.5t65.5 -10.5t65.5 10.5t55 37.5t44 71t28 115t10.5 166z" />
    <glyph glyph-name="one" unicode="1" 
d="M248 291h272v880l-266 -114q-15 -6 -25 -6q-22 0 -22 26v234q0 19 20 28l371 174q21 9 47 9h184q17 0 28 -11t11 -28v-1192h273q17 0 29 -11t12 -28v-211q0 -17 -12 -29t-29 -12h-893q-17 0 -29 12t-12 29v211q0 17 12 28t29 11z" />
    <glyph glyph-name="two" unicode="2" 
d="M1167 1149q0 -121 -58.5 -213.5t-176.5 -171.5l-174 -117q-63 -43 -99 -68.5t-79.5 -62.5t-65.5 -67t-37.5 -69t-15.5 -81v-8h647q17 0 29 -11t12 -28v-211q0 -17 -12 -29t-29 -12h-911q-17 0 -29 12t-12 29v209q0 161 77 296.5t201 223.5l189 133l1 1h1l1 1l1 1l1 1h1
l1 1l1 1h1l1 1l1 1l1 1h1l1 1l1 1h1l1 1l1 1l1 1l2 1q123 86 150 115q34 37 37 93v15q0 67 -47.5 95t-169.5 28t-403 -27h-4q-17 0 -27 11.5t-10 29.5v160q0 27 39 39q207 63 436 63q278 0 400 -95.5t122 -295.5z" />
    <glyph glyph-name="three" unicode="3" 
d="M1159 434q0 -115 -38.5 -202.5t-110 -141.5t-168 -81t-217.5 -27q-241 0 -424 57q-39 12 -39 39v164q0 17 10.5 27t26.5 10h4q226 -19 407 -19q106 0 154.5 43.5t48.5 130.5v37q0 176 -166 176h-360q-17 0 -28 12t-11 29v174q0 17 11 28t28 11h352q92 0 133 50.5
t41 127.5v29q0 75 -45 114.5t-158 39.5q-124 0 -403 -25h-4q-16 0 -26.5 10t-10.5 27v164q0 27 41 39q202 63 418 63q262 0 398 -99t136 -321v-28q0 -91 -50.5 -180t-131.5 -134q85 -44 133.5 -126t48.5 -181v-37z" />
    <glyph glyph-name="four" unicode="4" 
d="M1241 383q0 -17 -12 -29t-29 -12h-135v-301q0 -17 -11 -29t-28 -12h-272q-17 0 -28 12t-11 29v301h-592q-17 0 -29 12t-12 29v199q0 32 22 63l648 848q23 29 53 29h219q17 0 29 -12t12 -29v-869h135q17 0 29 -12t12 -29v-188zM725 612v451q0 12 -8 12q-2 0 -6 -4
l-322 -438q-4 -4 -4 -12q0 -9 12 -9h328z" />
    <glyph glyph-name="five" unicode="5" 
d="M1159 483q0 -243 -142.5 -372t-410.5 -129q-213 0 -403 59q-41 12 -41 45v162q0 17 10.5 27t26.5 10h4q230 -25 368 -25q72 0 119 14.5t72.5 45t35 68.5t9.5 95v17q0 105 -62 146.5t-229 41.5h-317q-12 0 -20.5 9t-8.5 20v2l63 764q2 15 14 27t27 12h797q17 0 29 -11
t12 -28v-205q0 -17 -12 -28t-29 -11h-557l-25 -283h60q111 0 200 -13t167 -45t130.5 -83.5t82.5 -131t30 -183.5v-17z" />
    <glyph glyph-name="six" unicode="6" 
d="M1206 502q0 -238 -140.5 -379t-399.5 -141q-255 0 -402 152t-147 450v313q0 643 569 643q232 0 404 -41q25 -6 35 -16t10 -29v-178q0 -43 -37 -43h-11q-178 29 -372 29q-138 0 -197 -66t-59 -233v-15q132 25 241 25q86 0 159 -14.5t138 -48.5t110.5 -86t72 -130.5
t26.5 -177.5v-14zM864 502v14q0 117 -59 165t-160 48q-69 0 -186 -20v-125q0 -82 10.5 -142t28 -97t44.5 -59t56.5 -30t67.5 -8q94 0 146 56.5t52 197.5z" />
    <glyph glyph-name="seven" unicode="7" 
d="M1159 1305q0 -23 -33 -95l-538 -1171q-17 -39 -51 -39h-281q-37 0 -37 25q0 10 6 22l557 1170q2 4 2 10q0 12 -14 12h-567q-18 0 -30.5 11t-12.5 28v205q0 17 12.5 28t30.5 11h887q28 0 48.5 -20t20.5 -48v-149z" />
    <glyph glyph-name="eight" unicode="8" 
d="M1214 436q0 -218 -147 -336t-395 -118h-23q-248 0 -395.5 118t-147.5 336v27q0 98 47 183.5t128 144.5q-166 114 -166 307v22q0 209 141.5 314.5t392.5 105.5h23q251 0 393.5 -105.5t142.5 -314.5v-22q0 -192 -168 -307q80 -59 127 -144t47 -184v-27zM879 1087v11
q0 87 -50 136.5t-157 49.5h-23q-107 0 -157 -49.5t-50 -136.5v-11q0 -81 47.5 -129.5t139.5 -48.5h63q92 0 139.5 48.5t47.5 129.5zM877 446v21q0 80 -45.5 138.5t-139.5 58.5h-63q-94 0 -139.5 -58.5t-45.5 -138.5v-21q0 -92 53.5 -149t151.5 -57h23q98 0 151.5 57
t53.5 149z" />
    <glyph glyph-name="nine" unicode="9" 
d="M1206 625q0 -643 -569 -643q-232 0 -404 41q-25 6 -35 16t-10 29v178q0 43 37 43h11q178 -29 372 -29q138 0 197 66t59 233v14q-127 -24 -241 -24q-86 0 -159 14.5t-138 48.5t-110.5 86t-72 130.5t-26.5 177.5v14q0 238 140.5 379t399.5 141q255 0 402 -152t147 -450
v-313zM864 813v125q0 82 -10.5 142t-28 97t-44.5 59t-56.5 30t-67.5 8q-94 0 -146 -56.5t-52 -197.5v-14q0 -117 59 -165t160 -48q68 0 186 20z" />
    <glyph glyph-name="colon" unicode=":" horiz-adv-x="563" 
d="M442 823q0 -17 -12 -28t-29 -11h-239q-18 0 -30.5 11t-12.5 28v258q0 17 13 29t30 12h239q17 0 29 -12t12 -29v-258zM442 41q0 -17 -12 -29t-29 -12h-239q-17 0 -30 12t-13 29v258q0 17 12.5 28t30.5 11h239q17 0 29 -11t12 -28v-258z" />
    <glyph glyph-name="semicolon" unicode=";" horiz-adv-x="563" 
d="M442 823q0 -17 -12.5 -28t-30.5 -11h-239q-17 0 -29 11t-12 28v258q0 17 12 29t29 12h239q17 0 30 -12t13 -29v-258zM442 309q0 -6 -4 -14l-194 -459q-9 -22 -17 -31.5t-24 -9.5h-180q-14 0 -24.5 9.5t-10.5 21.5q0 2 1 5t1 5l131 459q9 39 41 39h250q13 0 21.5 -7
t8.5 -18z" />
    <glyph glyph-name="less" unicode="&#x3c;" 
d="M1098 307q0 -11 -7.5 -18.5t-17.5 -7.5h-285q-23 0 -49 22l-477 424q-41 35 -41 74q0 38 41 73l477 424q27 23 49 23h285q10 0 17.5 -8t7.5 -19t-13 -24l-530 -469l530 -469q13 -13 13 -25z" />
    <glyph glyph-name="equal" unicode="=" 
d="M1130 971q0 -33 -40 -33h-859q-41 0 -41 33v184q0 33 41 33h859q40 0 40 -33v-184zM1130 446q0 -32 -40 -32h-859q-41 0 -41 32v185q0 33 41 33h859q40 0 40 -33v-185z" />
    <glyph glyph-name="greater" unicode="&#x3e;" 
d="M1098 801q0 -37 -43 -74l-475 -424q-26 -22 -50 -22h-284q-10 0 -17.5 7.5t-7.5 18.5q0 13 12 25l531 469l-531 469q-12 12 -12 24q0 11 7.5 19t17.5 8h284q23 0 50 -23l475 -424q43 -37 43 -73z" />
    <glyph glyph-name="question" unicode="?" horiz-adv-x="980" 
d="M883 1188q0 -68 -35.5 -139t-122.5 -183l-92 -118q-90 -116 -102 -138q-13 -25 -13 -49v-57q0 -18 -15 -28.5t-34 -10.5h-205q-17 0 -28 12t-11 29v55q0 88 15.5 143t70.5 127l99 130q55 73 74.5 116.5t19.5 89.5v21q0 76 -101 76q-104 0 -292 -23h-7q-34 0 -34 43v182
q0 24 7 36t29 18q140 43 328 43q223 0 336 -78t113 -262v-35zM537 39q0 -17 -12 -28t-29 -11h-242q-17 0 -29 11t-12 28v258q0 17 12 29t29 12h242q17 0 29 -12t12 -29v-258z" />
    <glyph glyph-name="at" unicode="@" horiz-adv-x="1585" 
d="M1518 739q0 -145 -37 -256t-102 -184t-162 -119.5t-209 -66t-250 -19.5q-161 0 -259 76t-98 221q0 6 1 18.5t1 18.5l19 238q13 174 120 258t285 84q125 0 273 -31q49 -9 49 -55v-9l-57 -612q260 44 260 438q0 95 -29.5 177.5t-87.5 148.5t-154 104.5t-219 38.5
q-267 0 -418 -129.5t-174 -373.5l-30 -328q-4 -50 -4 -70q0 -186 129 -295.5t380 -109.5q68 0 170 8t132 8h2h8q10 0 13 -4t3 -16v-80q0 -24 -24 -27q-175 -20 -304 -20q-198 0 -349 61t-238.5 184.5t-87.5 294.5v6q0 40 2 60l32 338q30 297 228 468t532 171
q159 0 286.5 -51.5t206.5 -138.5t120 -195.5t41 -229.5zM905 803q-58 10 -104 10q-73 0 -105 -34t-41 -122l-22 -227q-2 -12 -2 -35q0 -59 32 -82.5t109 -23.5q59 0 86 2z" />
    <glyph glyph-name="A" unicode="A" horiz-adv-x="1370" 
d="M1331 33q0 -15 -10 -24t-25 -9h-286q-15 0 -26.5 11t-14.5 26l-74 336h-420l-74 -336q-3 -15 -14.5 -26t-26.5 -11h-286q-15 0 -25 9t-10 24q0 1 1 4.5t1 5.5l305 1270q17 71 52 118t84 69.5t96.5 31t107.5 8.5t107 -8.5t96 -31t83.5 -69.5t51.5 -118l305 -1270
q0 -2 1 -5.5t1 -4.5zM838 653l-125 566q-3 16 -8.5 23t-18.5 7q-23 0 -29 -30l-125 -566h306z" />
    <glyph glyph-name="B" unicode="B" horiz-adv-x="1370" 
d="M1276 440q0 -105 -33.5 -185.5t-91 -131.5t-141.5 -83t-175.5 -45t-203.5 -13q-238 0 -375 24q-63 11 -88 38.5t-25 94.5v1245q0 68 24 96.5t85 37.5q154 22 366 22q151 0 265.5 -21.5t202.5 -70t134 -133t46 -203.5v-37q0 -101 -45.5 -181.5t-126.5 -119.5
q84 -41 133 -120t49 -183v-31zM928 1059v31q0 86 -64 124.5t-219 38.5q-127 0 -156 -2v-354h230q209 0 209 162zM936 449v22q0 81 -51 131.5t-166 50.5h-230v-383q17 0 85.5 -1t82.5 -1q152 0 215.5 45t63.5 136z" />
    <glyph glyph-name="C" unicode="C" horiz-adv-x="1148" 
d="M1065 63q0 -21 -10.5 -30.5t-34.5 -16.5q-38 -12 -122.5 -23t-182.5 -11q-97 0 -183 20.5t-164.5 69t-135 121.5t-90 185.5t-33.5 254.5v258q0 142 33.5 254t90 185t135.5 121t164.5 68.5t182.5 20.5t181.5 -11t123.5 -24q24 -7 34.5 -16t10.5 -29v-198q0 -41 -39 -41h-6
q-208 16 -303 16q-56 0 -99.5 -16.5t-79.5 -54t-55.5 -107t-19.5 -168.5v-258q0 -99 19.5 -168.5t55.5 -107t79.5 -54t99.5 -16.5q95 0 303 16h6q39 0 39 -41v-199z" />
    <glyph glyph-name="D" unicode="D" horiz-adv-x="1396" 
d="M1292 629q0 -319 -171 -483t-482 -164q-256 0 -436 30q-60 9 -60 72v1354q0 34 14.5 50t45.5 21q186 31 436 31q311 0 482 -164t171 -483v-264zM942 629v264q0 81 -14 142t-39 100.5t-64 63.5t-83.5 34t-102.5 10q-87 0 -145 -4v-956q58 -4 145 -4q58 0 102.5 10t83.5 34
t64 63.5t39 100.5t14 142z" />
    <glyph glyph-name="E" unicode="E" horiz-adv-x="1187" 
d="M1073 51q0 -20 -9.5 -30t-31.5 -13q-187 -26 -397 -26q-61 0 -111.5 4.5t-102.5 17.5t-93 33.5t-78 54.5t-61 79.5t-38 109t-14 141.5v680q0 91 18 162t53.5 118t79 79t103 48.5t117.5 23.5t129 7q201 0 395 -27q22 -3 31.5 -11.5t9.5 -28.5v-191q0 -17 -12 -29t-29 -12
h-416q-73 0 -102 -30t-29 -109v-187h531q17 0 29 -12t12 -29v-194q0 -17 -12 -29t-29 -12h-531v-217q0 -79 29 -109t102 -30h416q17 0 29 -12t12 -29v-191z" />
    <glyph glyph-name="F" unicode="F" horiz-adv-x="1189" 
d="M1073 1280q0 -17 -12 -29t-29 -12h-416q-73 0 -102 -30t-29 -109v-185h531q17 0 29 -12t12 -29v-194q0 -17 -12 -29t-29 -12h-531v-598q0 -17 -12 -29t-29 -12h-266q-17 0 -29 12t-12 29v1059q0 91 18 162t53.5 118t79 79t103 48.5t117.5 23.5t129 7q201 0 395 -27
q22 -3 31.5 -12t9.5 -29v-190z" />
    <glyph glyph-name="G" unicode="G" 
d="M1188 1245q0 -16 -7.5 -21t-23.5 -5h-6q-24 1 -106.5 5.5t-162 7.5t-157.5 3q-133 0 -200.5 -78t-67.5 -270v-256q0 -101 21 -173t56.5 -108t72.5 -51.5t79 -15.5q84 0 158 6v471q0 17 11 29t28 12h262q17 0 29 -12t12 -29v-688q0 -22 -9 -32.5t-32 -14.5
q-208 -43 -459 -43q-76 0 -151 17.5t-155 63.5t-140 116.5t-99 187.5t-39 266v254q0 151 37 268t96.5 188t142.5 117t167.5 63t179.5 17q205 0 428 -47q35 -7 35 -31v-217z" />
    <glyph glyph-name="H" unicode="H" horiz-adv-x="1492" 
d="M1350 41q0 -17 -12 -29t-29 -12h-269q-17 0 -29 12t-12 29v592h-505v-592q0 -17 -12 -29t-29 -12h-269q-17 0 -29 12t-12 29v1442q0 17 12 28t29 11h269q17 0 29 -11t12 -28v-545h505v545q0 17 12 28t29 11h269q17 0 29 -11t12 -28v-1442z" />
    <glyph glyph-name="I" unicode="I" horiz-adv-x="636" 
d="M494 41q0 -17 -11 -29t-28 -12h-275q-17 0 -27 11.5t-10 29.5v1442q0 17 10 28t27 11h275q17 0 28 -11t11 -28v-1442z" />
    <glyph glyph-name="J" unicode="J" horiz-adv-x="636" 
d="M494 -12q0 -101 -27.5 -172.5t-79 -110t-115 -55.5t-145.5 -17q-48 0 -131 9q-14 2 -22.5 11.5t-8.5 22.5v209q0 11 6.5 20t16.5 9h102q33 0 43 16t10 58v1495q0 17 12 28t29 11h269q17 0 29 -11t12 -28v-1495z" />
    <glyph glyph-name="K" unicode="K" horiz-adv-x="1388" 
d="M1335 1499q0 -12 -10 -29l-487 -692l489 -735q8 -11 8 -23q0 -20 -28 -20h-353q-27 0 -45 29l-415 676v-664q0 -17 -12 -29t-29 -12h-269q-17 0 -29 12t-12 29v1442q0 17 12 28t29 11h269q17 0 29 -11t12 -28v-652l450 666q16 25 45 25h314q32 0 32 -23z" />
    <glyph glyph-name="L" unicode="L" horiz-adv-x="1062" 
d="M1018 51q0 -20 -9.5 -29t-31.5 -14q-51 -10 -151.5 -18t-182.5 -8q-61 0 -111.5 4.5t-103 17.5t-93.5 33.5t-78 54.5t-61.5 79.5t-38.5 109t-14 141.5v1059q0 17 12 29t29 12h269q17 0 29 -12t12 -29v-1059q0 -79 29 -109t102 -30h352q17 0 29 -12t12 -29v-191z" />
    <glyph glyph-name="M" unicode="M" horiz-adv-x="1671" 
d="M1528 29q0 -29 -35 -29h-270q-14 0 -23.5 12t-9.5 29v854q0 16 -10 16q-9 0 -17 -14l-184 -338q-20 -35 -61 -35h-164q-42 0 -62 35l-184 338q-8 14 -16 14q-11 0 -11 -16v-854q0 -17 -9.5 -29t-22.5 -12h-271q-35 0 -35 29v1423q0 32 20.5 51t53.5 19h193q61 0 90 -56
l313 -583q13 -27 23 -27q8 0 22 27l313 583q29 56 91 56h192q32 0 53 -20t21 -52v-1421z" />
    <glyph glyph-name="N" unicode="N" horiz-adv-x="1492" 
d="M1350 78q0 -32 -24 -55t-56 -23h-201q-36 0 -59.5 12.5t-46.5 50.5l-467 807q-11 17 -19 17q-10 0 -10 -17v-829q0 -17 -12 -29t-29 -12h-242q-17 0 -29 12t-12 29v1403q0 32 23 55t55 23h207q29 0 47.5 -14.5t38.5 -49.5l485 -844q11 -16 17 -16q10 0 10 18v867
q0 17 12 28t29 11h242q17 0 29 -11t12 -28v-1405z" />
    <glyph glyph-name="O" unicode="O" horiz-adv-x="1429" 
d="M1321 639q0 -173 -46.5 -302t-130.5 -205.5t-191 -113t-238 -36.5t-238 36.5t-191 113t-130.5 205.5t-46.5 302v244q0 173 46.5 302t130.5 205.5t191 113t238 36.5t238 -36.5t191 -113t130.5 -205.5t46.5 -302v-244zM969 639v244q0 183 -62 266.5t-192 83.5t-191 -83.5
t-61 -266.5v-244q0 -183 61 -266.5t191 -83.5t192 83.5t62 266.5z" />
    <glyph glyph-name="P" unicode="P" horiz-adv-x="1333" 
d="M1266 1028q0 -111 -34.5 -198t-92 -142t-138 -91t-165.5 -50.5t-181 -14.5q-29 0 -94 3.5t-72 3.5v-498q0 -17 -11.5 -29t-28.5 -12h-265q-17 0 -29 11t-12 28v1376q0 50 21 70t72 28q176 27 415 27q98 0 183 -14t166.5 -49t138.5 -89.5t92 -141.5t35 -199v-19zM918 1028
v19q0 106 -65.5 154t-197.5 48q-91 0 -166 -6v-418q46 -4 166 -4q135 0 199 51t64 156z" />
    <glyph glyph-name="Q" unicode="Q" horiz-adv-x="1429" 
d="M1321 639q0 -282 -118.5 -440.5t-321.5 -200.5v-41q0 -30 12.5 -40.5t38.5 -10.5h184q22 0 35.5 -9t13.5 -24v-168q0 -33 -47 -45q-110 -27 -227 -27q-74 0 -133 17t-107 53t-74 100t-26 152v43q-204 42 -323 200t-119 441v244q0 173 46.5 302t130.5 205.5t191 113
t238 36.5t238 -36.5t191 -113t130.5 -205.5t46.5 -302v-244zM969 639v244q0 183 -62 266.5t-192 83.5t-191 -83.5t-61 -266.5v-244q0 -183 61 -266.5t191 -83.5t192 83.5t62 266.5z" />
    <glyph glyph-name="R" unicode="R" horiz-adv-x="1392" 
d="M1319 25q0 -25 -31 -25h-313q-4 0 -7 0.5t-6 2.5t-5.5 3t-5 4.5t-4 5t-3.5 6t-3 6t-3.5 6.5l-3.5 7l-275 518l-22 -2q-22 0 -74 2t-71 2v-520q0 -17 -12 -29t-29 -12h-267q-17 0 -29 12t-12 29v1374q0 50 21 70t72 28q181 27 415 27q617 0 617 -479v-27
q0 -155 -72 -258.5t-192 -150.5l309 -578q6 -12 6 -22zM920 1034v27q0 182 -269 182q-84 0 -159 -6v-393q46 -4 145 -4q159 0 221 44t62 150z" />
    <glyph glyph-name="S" unicode="S" horiz-adv-x="1204" 
d="M1118 430q0 -68 -17.5 -130t-59.5 -121t-105 -102t-159.5 -69t-217.5 -26q-214 0 -387 45q-41 12 -41 41v200q0 39 37 39h6q252 -24 389 -24q103 0 142.5 33.5t39.5 109.5q0 44 -28 76.5t-107 79.5l-282 168q-135 80 -188.5 174.5t-53.5 216.5q0 399 524 399
q107 0 239 -14.5t195 -30.5q31 -8 31 -37v-207q0 -34 -35 -34h-4q-313 22 -434 22q-86 0 -123 -26t-37 -83q0 -43 27 -71t111 -72l262 -141q152 -82 214 -182.5t62 -233.5z" />
    <glyph glyph-name="T" unicode="T" horiz-adv-x="1202" 
d="M1151 1272q0 -17 -12.5 -28t-30.5 -11h-332v-1192q0 -17 -12 -29t-29 -12h-268q-17 0 -29 12t-12 29v1192h-334q-17 0 -29 11t-12 28v211q0 17 12 28t29 11h1016q18 0 30.5 -11t12.5 -28v-211z" />
    <glyph glyph-name="U" unicode="U" horiz-adv-x="1456" 
d="M1319 571q0 -136 -31 -240t-83 -169.5t-129.5 -106.5t-161.5 -57t-187 -16t-187 16t-161 57t-129 106.5t-82.5 169.5t-30.5 240v912q0 17 12 28t29 11h268q17 0 29 -11t12 -28v-912q0 -161 52.5 -229t187.5 -68t188.5 68.5t53.5 228.5v912q0 17 12 28t29 11h266
q18 0 30.5 -11t12.5 -28v-912z" />
    <glyph glyph-name="V" unicode="V" horiz-adv-x="1404" 
d="M1348 1489q0 -1 -1 -4.5t-1 -5.5l-306 -1270q-17 -71 -51.5 -118t-83.5 -69.5t-96 -31t-107 -8.5t-107.5 8.5t-96.5 31t-84 69.5t-52 118l-305 1270q0 2 -1 5t-1 5q0 13 11 23t26 10h285q15 0 26.5 -11t14.5 -26l256 -1182q3 -18 9 -24.5t19 -6.5t19.5 7t9.5 24l256 1182
q3 16 14 26.5t25 10.5h287q15 0 25 -9t10 -24z" />
    <glyph glyph-name="W" unicode="W" horiz-adv-x="1820" 
d="M1786 1495v-4l-191 -1341q-12 -86 -57.5 -121t-130.5 -35h-117q-152 0 -188 139l-162 612q-3 11 -6.5 14t-11.5 3t-11 -3t-6 -14l-162 -612q-36 -139 -188 -139h-117q-85 0 -130.5 35t-57.5 121l-191 1341v4q0 27 33 27h279q12 0 21.5 -11t10.5 -28l117 -1098
q3 -27 12 -27t15 27l147 563q25 99 127 99h203q102 0 127 -99l147 -563q6 -27 15 -27t12 27l117 1098q1 17 11 28t22 11h278q33 0 33 -27z" />
    <glyph glyph-name="X" unicode="X" horiz-adv-x="1439" 
d="M1374 20q0 -20 -26 -20h-326q-20 0 -31 6.5t-22 24.5l-267 432l-239 -422q-23 -41 -51 -41h-303q-14 0 -22.5 8t-8.5 19q0 6 4 14l428 739l-432 703q-4 8 -4 12q0 11 9 19t21 8h330q25 0 51 -39l254 -414l230 414q22 39 51 39h303q12 0 21.5 -8.5t9.5 -18.5q0 -4 -4 -12
l-422 -723l440 -719q6 -12 6 -21z" />
    <glyph glyph-name="Y" unicode="Y" horiz-adv-x="1325" 
d="M1282 1491q0 -10 -2 -14l-309 -709q-55 -126 -133 -158v-569q0 -17 -12 -29t-29 -12h-269q-17 0 -29 12t-12 29v569q-80 33 -135 158l-309 709q-2 4 -2 14q0 13 9.5 22t23.5 9h295q29 0 41 -35l221 -578q7 -19 13.5 -24.5t17.5 -5.5t17 5.5t13 24.5l221 578q12 35 41 35
h295q15 0 24 -9t9 -22z" />
    <glyph glyph-name="Z" unicode="Z" horiz-adv-x="1259" 
d="M1157 41q0 -17 -12 -29t-29 -12h-930q-84 0 -84 63v164q0 44 31 90l572 865q8 11 8 20q0 17 -23 17h-510q-18 0 -29.5 10.5t-11.5 27.5v226q0 17 12 28t29 11h883q35 0 58.5 -15t23.5 -43q2 -20 2 -49l-2 -137q0 -26 -17 -53l-577 -885q-10 -13 -10 -23q0 -14 22 -14h553
q18 0 29.5 -10t11.5 -27v-225z" />
    <glyph glyph-name="bracketleft" unicode="[" horiz-adv-x="765" 
d="M705 -356q0 -17 -12 -29t-29 -12h-500q-15 0 -25 12t-10 27v1841q0 15 10 27t25 12h498q17 0 28.5 -12t11.5 -29v-178q0 -17 -11.5 -29t-28.5 -12h-197v-1399h199q17 0 29 -12t12 -29v-178z" />
    <glyph glyph-name="backslash" unicode="\" horiz-adv-x="829" 
d="M803 25q0 -13 -12 -24t-27 -11h-260q-28 0 -39 43l-436 1448q0 1 -1 4t-1 4q0 13 12 23t27 10h258q32 0 43 -41l434 -1448q0 -1 1 -4t1 -4z" />
    <glyph glyph-name="bracketright" unicode="]" horiz-adv-x="765" 
d="M637 -358q0 -15 -10 -27t-25 -12h-500q-17 0 -29 12t-12 29v178q0 17 12 29t29 12h199v1399h-197q-17 0 -29 12t-12 29v178q0 17 12 29t29 12h498q15 0 25 -12t10 -27v-1841z" />
    <glyph glyph-name="asciicircum" unicode="^" 
d="M1180 1176q0 -19 -25 -19h-266q-25 0 -36.5 6t-27.5 25l-163 182l-164 -182q-16 -19 -27.5 -25t-36.5 -6h-266q-25 0 -25 19q0 9 11 24l227 303q18 23 30.5 30t39.5 7h421q27 0 39.5 -7t30.5 -30l227 -303q11 -15 11 -24z" />
    <glyph glyph-name="underscore" unicode="_" horiz-adv-x="1107" 
d="M1174 -211q0 -33 -41 -33h-1156q-40 0 -40 33v98q0 33 40 33h1156q41 0 41 -33v-98z" />
    <glyph glyph-name="grave" unicode="`" horiz-adv-x="907" 
d="M600 1305q0 -15 -18 -15h-220q-5 0 -9.5 0.5t-7.5 1t-6.5 2.5t-5 2.5t-5 3.5t-4.5 4l-5.5 5.5l-5.5 5.5l-250 250q-8 8 -8 16q0 14 23 14h270q21 0 31 -6t24 -24l189 -240q8 -11 8 -20z" />
    <glyph glyph-name="a" unicode="a" horiz-adv-x="1150" 
d="M1028 41q0 -17 -12 -29t-29 -12h-229q-17 0 -29 12t-12 29v33q-65 -46 -131.5 -69t-153.5 -23q-71 0 -130.5 18t-110.5 57.5t-80 110t-29 166.5v18q0 180 121 263t383 83h110v74q0 83 -37 112t-116 29q-193 0 -340 -14h-10q-37 0 -37 37v166q0 36 39 45q182 43 354 43
q479 0 479 -418v-731zM702 276v226h-116q-103 0 -141.5 -35.5t-38.5 -114.5v-18q0 -61 30 -82t99 -21q79 0 167 45z" />
    <glyph glyph-name="b" unicode="b" horiz-adv-x="1222" 
d="M1137 506q0 -250 -133 -387t-381 -137q-223 0 -437 53q-39 9 -51 21t-12 38v1436q0 17 13 29t30 12h248q17 0 29 -12t12 -29v-354q103 14 168 14q254 0 384 -138.5t130 -385.5v-160zM805 506v160q0 57 -8.5 100t-28 78t-56 53t-89.5 18q-86 0 -168 -10v-639
q78 -12 168 -12q102 0 142 66t40 186z" />
    <glyph glyph-name="c" unicode="c" horiz-adv-x="970" 
d="M885 59q0 -22 -9 -31.5t-34 -15.5q-122 -30 -273 -30q-220 0 -348.5 135.5t-128.5 382.5v172q0 247 128.5 382.5t348.5 135.5q147 0 273 -31q25 -6 34 -15.5t9 -31.5v-182q0 -15 -12 -25t-27 -10h-4q-133 14 -250 14q-168 0 -168 -237v-172q0 -238 168 -238q117 0 250 14
h4q16 0 27.5 -9.5t11.5 -24.5v-183z" />
    <glyph glyph-name="d" unicode="d" horiz-adv-x="1222" 
d="M1100 94q0 -26 -12 -38t-52 -21q-214 -53 -436 -53q-248 0 -381 137t-133 387v160q0 247 130 385.5t384 138.5q65 0 168 -14v354q0 17 12 29t29 12h248q17 0 30 -12t13 -29v-1436zM768 266v639q-82 10 -168 10q-53 0 -89.5 -18t-56 -53t-28 -78t-8.5 -100v-160
q0 -120 40 -186t142 -66q90 0 168 12z" />
    <glyph glyph-name="e" unicode="e" horiz-adv-x="1208" 
d="M1116 532q0 -49 -43 -49h-653v-4q0 -46 10.5 -84.5t34 -70.5t65.5 -50t101 -18q209 0 393 18h6q39 0 39 -32v-156q0 -26 -8.5 -37.5t-34.5 -17.5q-195 -49 -420 -49q-78 0 -149 16.5t-138.5 55.5t-117 98t-79.5 150.5t-30 205.5v143q0 249 137.5 394t380.5 145
q163 0 279 -71t171.5 -191t55.5 -277v-119zM793 688v8q0 112 -48.5 170t-136.5 58q-87 0 -137.5 -59t-50.5 -169v-8h373z" />
    <glyph glyph-name="f" unicode="f" horiz-adv-x="868" 
d="M807 1372q0 -35 -43 -35h-100q-45 0 -56.5 -17t-11.5 -79v-67h168q17 0 29 -12t12 -29v-166q0 -17 -12 -29t-29 -12h-168v-885q0 -17 -12 -29t-29 -12h-252q-17 0 -29 12t-12 29v885l-164 26q-18 3 -30.5 14.5t-12.5 28.5v135q0 17 13 30.5t30 13.5h164v65q0 107 21 177
t67.5 107.5t106 51.5t149.5 14q64 0 162 -16q18 -3 28.5 -14.5t10.5 -26.5v-160z" />
    <glyph glyph-name="g" unicode="g" horiz-adv-x="1226" 
d="M1182 1004q0 -21 -8.5 -30.5t-28.5 -15.5l-64 -20q19 -28 32 -72t13 -80v-16q0 -383 -505 -383q-134 0 -213 31q-29 -18 -29 -47q0 -25 12.5 -38t48.5 -20l232 -51q96 -21 160 -38t122 -38.5t92 -44t59.5 -53.5t35.5 -68.5t10 -87.5v-16q0 -169 -133.5 -251.5
t-403.5 -82.5q-254 0 -387 86t-133 248v16q0 135 123 230q-52 29 -78 81.5t-26 108.5q0 102 90 174q-46 40 -70 108t-24 136v16q0 181 126.5 284.5t385.5 103.5h509q22 0 37 -16t15 -38v-116zM803 770v16q0 70 -40.5 109t-141.5 39q-187 0 -187 -148v-16q0 -143 187 -143
q102 0 142 36t40 107zM813 -84v16q0 22 -13.5 36.5t-61 32.5t-136.5 38l-151 33q-41 -57 -41 -140v-16q0 -55 44.5 -79.5t159.5 -24.5q117 0 158 26t41 78z" />
    <glyph glyph-name="h" unicode="h" horiz-adv-x="1253" 
d="M1130 43q0 -17 -13 -30t-30 -13h-247q-17 0 -29 13t-12 30v682q0 110 -30 150t-122 40q-69 0 -192 -65v-807q0 -17 -12 -30t-29 -13h-248q-17 0 -30 13t-13 30v1487q0 17 12 29t29 12h250q17 0 29 -12t12 -29v-432q77 51 148.5 71.5t164.5 20.5q87 0 151.5 -24
t104.5 -64.5t64 -102t33 -126.5t9 -148v-682z" />
    <glyph glyph-name="i" unicode="i" horiz-adv-x="593" 
d="M463 41q0 -17 -12 -29t-29 -12h-250q-17 0 -29 12t-12 29v1092q0 17 12 29t29 12h250q17 0 29 -12t12 -29v-1092zM463 1366q0 -16 -11 -27.5t-28 -11.5h-254q-15 0 -27 12t-12 27v182q0 15 12 27t27 12h254q17 0 28 -11.5t11 -27.5v-182z" />
    <glyph glyph-name="j" unicode="j" horiz-adv-x="593" 
d="M463 -66q0 -194 -82 -272t-242 -78q-75 0 -164 15q-41 6 -41 41v161q0 37 43 37h91q41 0 52 20t11 76v1196q0 18 11 31t28 13h254q17 0 28 -13t11 -31v-1196zM463 1366q0 -16 -11 -27.5t-28 -11.5h-254q-15 0 -27 12t-12 27v182q0 15 12 27t27 12h254q17 0 28 -11.5
t11 -27.5v-182z" />
    <glyph glyph-name="k" unicode="k" horiz-adv-x="1204" 
d="M1143 1151q0 -10 -8 -21l-381 -518l379 -569q4 -4 4 -16q0 -11 -7.5 -19t-19.5 -8h-309q-18 0 -29 5.5t-22 23.5l-295 481v-467q0 -17 -12 -30t-29 -13h-248q-17 0 -30 13t-13 30v1487q0 17 13 29t30 12h248q17 0 29 -12t12 -29v-856l311 469q20 31 53 31h293q13 0 22 -7
t9 -16z" />
    <glyph glyph-name="l" unicode="l" horiz-adv-x="577" 
d="M455 43q0 -18 -11 -30.5t-28 -12.5h-250q-17 0 -30 13t-13 30v1487q0 17 13 29t30 12h250q17 0 28 -12t11 -29v-1487z" />
    <glyph glyph-name="m" unicode="m" horiz-adv-x="1792" 
d="M1669 43q0 -17 -13 -30t-30 -13h-248q-17 0 -29 13t-12 30v698q0 98 -27 134t-98 36q-79 0 -157 -37q6 -62 6 -133v-698q0 -17 -12 -30t-29 -13h-248q-17 0 -30 13t-13 30v698q0 99 -24.5 134.5t-94.5 35.5q-54 0 -155 -53v-815q0 -17 -12 -30t-29 -13h-248q-17 0 -30 13
t-13 30v1090q0 17 12 29t29 12h233q17 0 29 -12t12 -29v-46q155 103 303 103q161 0 242 -100q95 54 167 77t167 23q99 0 168.5 -31.5t109 -93t57 -140.5t17.5 -184v-698z" />
    <glyph glyph-name="n" unicode="n" horiz-adv-x="1253" 
d="M1130 43q0 -17 -13 -30t-30 -13h-247q-17 0 -29 13t-12 30v682q0 110 -30 150t-122 40q-69 0 -192 -65v-807q0 -17 -12 -30t-29 -13h-248q-17 0 -30 13t-13 30v1090q0 17 12 29t29 12h229q17 0 29 -12t12 -29v-50q84 59 159.5 83t174.5 24q87 0 151.5 -24t104.5 -64.5
t64 -102t33 -126.5t9 -148v-682z" />
    <glyph glyph-name="o" unicode="o" horiz-adv-x="1206" 
d="M1116 514q0 -248 -133 -390t-379 -142t-380 142t-134 390v143q0 248 134 390.5t380 142.5t379 -142.5t133 -390.5v-143zM786 514v143q0 250 -182 250q-90 0 -137 -63t-47 -187v-143q0 -124 47 -188t137 -64q89 0 135.5 64t46.5 188z" />
    <glyph glyph-name="p" unicode="p" horiz-adv-x="1222" 
d="M1137 506q0 -247 -130 -385.5t-384 -138.5q-65 0 -168 14v-354q0 -17 -12 -29t-29 -12h-248q-17 0 -30 12t-13 29v1435q0 26 12 38.5t51 21.5q214 53 437 53q248 0 381 -137t133 -387v-160zM805 506v160q0 120 -40 184.5t-142 64.5q-103 0 -168 -10v-639q98 -12 168 -12
q101 0 141.5 66.5t40.5 185.5z" />
    <glyph glyph-name="q" unicode="q" horiz-adv-x="1222" 
d="M1100 -358q0 -17 -13 -29t-30 -12h-248q-17 0 -29 12t-12 29v354q-103 -14 -168 -14q-254 0 -384 138.5t-130 385.5v160q0 250 133 387t381 137q222 0 436 -53q39 -9 51.5 -21.5t12.5 -38.5v-1435zM768 266v639q-65 10 -168 10q-102 0 -142 -64.5t-40 -184.5v-160
q0 -119 40.5 -185.5t141.5 -66.5q70 0 168 12z" />
    <glyph glyph-name="r" unicode="r" horiz-adv-x="811" 
d="M766 954q0 -14 -9 -26.5t-22 -12.5h-16q-132 0 -264 -71v-801q0 -17 -12 -30t-29 -13h-248q-17 0 -30 13t-13 30v1090q0 17 12 29t29 12h244q17 0 29 -12t12 -29v-41q118 98 276 98q17 0 29 -12t12 -29v-195z" />
    <glyph glyph-name="s" unicode="s" horiz-adv-x="1030" 
d="M944 326q0 -153 -111.5 -248.5t-326.5 -95.5q-212 0 -373 45q-39 9 -39 47v166q0 16 10.5 27.5t28.5 11.5h8q230 -29 348 -29q70 0 95.5 19t25.5 61q0 24 -16.5 43t-58.5 43l-267 153q-88 50 -135 127.5t-47 175.5q0 318 420 318q183 0 364 -47q39 -9 39 -47v-166
q0 -18 -10 -28.5t-25 -10.5h-6q-199 27 -340 27q-61 0 -84.5 -12.5t-23.5 -47.5q0 -22 14 -36.5t49 -35.5l254 -145q118 -68 162.5 -144.5t44.5 -170.5z" />
    <glyph glyph-name="t" unicode="t" horiz-adv-x="862" 
d="M799 39q0 -15 -10.5 -26.5t-28.5 -14.5q-98 -16 -162 -16q-90 0 -149.5 14t-106 51.5t-67.5 107.5t-21 177v594l-164 26q-18 3 -30.5 14.5t-12.5 28.5v135q0 17 13 30.5t30 13.5h164v167q0 34 41 41l250 43h6q15 0 26 -9.5t11 -24.5v-217h168q17 0 29 -12t12 -29v-166
q0 -17 -12 -29t-29 -12h-168v-596q0 -63 11 -80t56 -17h101q43 0 43 -34v-160z" />
    <glyph glyph-name="u" unicode="u" horiz-adv-x="1253" 
d="M1130 41q0 -17 -11.5 -29t-28.5 -12h-230q-17 0 -29 12t-12 29v49q-83 -59 -158.5 -82.5t-175.5 -23.5q-87 0 -151.5 24t-104.5 64.5t-64 102t-33 126.5t-9 148v681q0 17 13 30.5t30 13.5h248q17 0 29 -13t12 -31v-681q0 -110 30 -150.5t121 -40.5q68 0 193 66v806
q0 18 12 31t29 13h247q17 0 30 -13.5t13 -30.5v-1089z" />
    <glyph glyph-name="v" unicode="v" horiz-adv-x="1198" 
d="M1155 1139q0 -9 -2 -13l-258 -929q-18 -65 -50 -109.5t-73.5 -66.5t-82.5 -30.5t-91 -8.5t-90.5 8.5t-82 30.5t-73 66.5t-49.5 109.5l-256 929q-2 4 -2 13q0 15 9.5 25t23.5 10h270q15 0 26.5 -12.5t16.5 -31.5l176 -802q8 -43 31 -43q25 0 33 43l176 802q5 19 16.5 31.5
t26.5 12.5h270q14 0 24.5 -10t10.5 -25z" />
    <glyph glyph-name="w" unicode="w" horiz-adv-x="1730" 
d="M1671 1139v-9l-182 -987q-16 -81 -61.5 -112t-118.5 -31h-125q-138 0 -172 131l-138 535q-1 7 -3 8.5t-7 1.5h-4t-2.5 -1t-2 -3l-1.5 -6l-137 -535q-34 -131 -172 -131h-125q-73 0 -118.5 31t-61.5 112l-183 987v9q0 14 9 24.5t22 10.5h248q21 0 30.5 -6.5t12.5 -28.5
l121 -779q3 -26 12 -26q10 0 16 26l138 541q13 53 38 72.5t76 19.5h168q51 0 76.5 -19.5t38.5 -72.5l137 -541q6 -26 17 -26q9 0 12 26l121 779q3 22 12.5 28.5t30.5 6.5h247q13 0 22 -10.5t9 -24.5z" />
    <glyph glyph-name="x" unicode="x" horiz-adv-x="1263" 
d="M1198 29q0 -11 -8.5 -20t-20.5 -9h-309q-17 0 -28 9.5t-25 33.5l-203 317l-190 -319q-14 -23 -25.5 -32t-28.5 -9h-274q-10 0 -16.5 7t-6.5 18q0 9 5 16l358 569l-348 520q-4 8 -4 13q0 12 9 21.5t21 9.5h306q16 0 26.5 -10t26.5 -34l182 -282l168 282q14 25 25 34.5
t28 9.5h275q10 0 17 -8t7 -19t-4 -17l-338 -536l371 -551q4 -8 4 -14z" />
    <glyph glyph-name="y" unicode="y" horiz-adv-x="1212" 
d="M1167 1137q0 -2 -1 -5.5t-1 -5.5l-344 -1206q-20 -71 -42 -120t-56 -92.5t-80.5 -68.5t-113.5 -39t-156 -14q-56 0 -132.5 10.5t-115.5 22.5q-16 6 -22.5 8.5t-13.5 10t-7 18.5v166q0 17 12 28t29 11h4q10 -1 113 -9t143 -8q56 0 86.5 23t48.5 84l19 63h-31q-34 0 -56 5
t-48 23t-47.5 58.5t-39.5 104.5l-270 921q-2 6 -2 15q0 33 41 33h272q14 0 25 -11.5t14 -27.5l185 -770q8 -39 24 -39h2h8h9l190 809q3 16 15 27.5t28 11.5h272q15 0 27 -11t12 -26z" />
    <glyph glyph-name="z" unicode="z" horiz-adv-x="1054" 
d="M967 41q0 -17 -12 -29t-29 -12h-768q-28 0 -49 20t-21 48v131q0 35 29 77l444 607q6 9 6 14q0 10 -14 10h-412q-15 0 -25 9t-10 24v193q0 17 12 29t29 12h748q28 0 48 -21t20 -49v-152q0 -37 -23 -71l-424 -580q-6 -9 -6 -14q0 -8 14 -8h406q15 0 26 -9t11 -24v-205z" />
    <glyph glyph-name="braceleft" unicode="{" horiz-adv-x="833" 
d="M772 -356q0 -17 -12 -29t-29 -12h-119q-231 0 -322 81t-91 298v268q0 136 -117 211v194q115 74 115 211v277q0 217 91 298t322 81h119q17 0 29 -12t12 -29v-178q0 -17 -12 -29t-29 -12h-119q-49 0 -63.5 -22t-14.5 -97v-277q0 -220 -170 -307q170 -87 170 -309v-268
q0 -75 15 -97t65 -22h119q17 0 29 -12t12 -29v-178z" />
    <glyph glyph-name="bar" unicode="|" horiz-adv-x="593" 
d="M465 -354q0 -17 -12 -30t-29 -13h-252q-17 0 -30 13t-13 30v1835q0 17 13 29t30 12h252q17 0 29 -12t12 -29v-1835z" />
    <glyph glyph-name="braceright" unicode="}" horiz-adv-x="833" 
d="M752 461q-117 -75 -117 -211v-268q0 -217 -91.5 -298t-322.5 -81h-119q-17 0 -29 12t-12 29v178q0 17 12 29t29 12h119q50 0 65 22t15 97v268q0 222 170 309q-170 87 -170 307v277q0 75 -14.5 97t-63.5 22h-119q-17 0 -29 12t-12 29v178q0 17 12 29t29 12h119
q231 0 322.5 -81t91.5 -298v-277q0 -137 115 -211v-194z" />
    <glyph glyph-name="asciitilde" unicode="~" 
d="M1180 983q0 -160 -72 -234.5t-221 -74.5q-91 0 -187 59l-145 88q-43 27 -88 27q-39 0 -51.5 -21.5t-12.5 -60.5v-37q0 -18 -9.5 -29.5t-26.5 -11.5h-183q-41 0 -41 41v37q0 175 76 249.5t217 74.5q35 0 79 -9t71 -26l184 -111q47 -29 88 -29q33 0 46.5 15t13.5 53v51
q0 41 38 41h183q41 0 41 -41v-51z" />
    <glyph glyph-name="uni00A0" unicode="&#xa0;" horiz-adv-x="532" 
 />
    <glyph glyph-name="exclamdown" unicode="&#xa1;" horiz-adv-x="559" 
d="M440 874q0 -17 -11.5 -27.5t-29.5 -10.5h-241q-17 0 -28 10.5t-11 27.5v259q0 17 11 29t28 12h241q17 0 29 -12t12 -29v-259zM451 -358q0 -15 -14 -27t-31 -12h-256q-17 0 -29 12t-12 27v2l41 1022q2 18 12.5 30.5t27.5 12.5h175q17 0 31 -13t14 -30l41 -1022v-2z" />
    <glyph glyph-name="cent" unicode="&#xa2;" 
d="M1057 59q0 -22 -9 -31.5t-34 -15.5q-71 -18 -162 -26v-150q0 -17 -12 -29t-29 -12h-207q-17 0 -29 12t-12 29v172q-142 48 -220.5 174.5t-78.5 317.5v172q0 191 78.5 317t220.5 174v168q0 17 12 29t29 12h207q17 0 29 -12t12 -29v-145q85 -7 162 -27q25 -6 34 -15.5
t9 -31.5v-182q0 -15 -12 -25t-27 -10h-4q-133 14 -250 14q-168 0 -168 -237v-172q0 -238 168 -238q117 0 250 14h4q16 0 27.5 -9.5t11.5 -24.5v-183z" />
    <glyph glyph-name="sterling" unicode="&#xa3;" 
d="M1182 1257q0 -36 -33 -36h-6q-206 24 -338 24q-104 0 -145.5 -33.5t-41.5 -128.5v-172h347q17 0 29 -11t12 -28v-198q0 -17 -11 -28t-28 -11h-349v-205q0 -88 -40 -156h561q18 0 29.5 -9.5t11.5 -26.5v-199q0 -17 -12 -28t-29 -11h-906q-38 0 -38 49v144q0 22 18 49
q25 32 46.5 86t21.5 102v205h-103q-17 0 -28 11t-11 28v198q0 17 12 28t29 11h101v170q0 241 121 350t403 109q79 0 178.5 -13t159.5 -26q26 -6 32.5 -14t6.5 -27v-203z" />
    <glyph glyph-name="currency" unicode="&#xa4;" 
d="M1194 1141q0 -17 -14 -31l-176 -174q47 -83 47 -176q0 -99 -50 -185l173 -172q14 -14 14 -30q0 -13 -10 -23l-117 -117q-10 -10 -23 -10q-15 0 -30 15l-177 178q-76 -43 -167 -43q-97 0 -177 45l-174 -174q-17 -17 -32 -17q-10 0 -21 11l-117 116q-10 10 -10 25
q0 17 14 31l175 172q-48 85 -48 178q0 96 41 168l-174 176q-14 14 -14 31q0 12 10 22l117 117q10 10 22 10q17 0 31 -14l170 -170q81 47 187 47q96 0 176 -45l174 174q14 14 30 14q13 0 23 -10l117 -117q10 -10 10 -22zM840 766q0 70 -50.5 120t-121.5 50t-122.5 -50
t-51.5 -120t51.5 -121t122.5 -51q70 0 121 51t51 121z" />
    <glyph glyph-name="yen" unicode="&#xa5;" 
d="M1276 1495q0 -12 -4 -18l-228 -459h179q17 0 29 -11t12 -28v-152q0 -17 -11 -28t-28 -11h-291l-94 -188l-4 -22h387q18 0 29.5 -10t11.5 -27v-154q0 -17 -11 -27t-28 -10h-389v-309q0 -17 -12 -29t-29 -12h-273q-17 0 -28 12t-11 29v309h-387q-18 0 -29.5 10t-11.5 27
v154q0 17 11.5 27t29.5 10h387l-2 22l-92 188h-293q-17 0 -29 11t-12 28v152q0 17 12 28t29 11h180l-227 459q-4 6 -4 18t8.5 19.5t22.5 7.5h301q23 0 39 -35l243 -553l246 553q16 35 39 35h301q14 0 22.5 -7.5t8.5 -19.5z" />
    <glyph glyph-name="brokenbar" unicode="&#xa6;" horiz-adv-x="593" 
d="M465 743q0 -17 -12 -30t-29 -13h-252q-17 0 -30 13t-13 30v707q0 17 13 29t30 12h252q17 0 29 -12t12 -29v-707zM465 -389q0 -17 -12 -30t-29 -13h-252q-17 0 -30 13t-13 30v706q0 17 13 29t30 12h252q17 0 29 -12t12 -29v-706z" />
    <glyph glyph-name="section" unicode="&#xa7;" horiz-adv-x="1206" 
d="M1124 2q0 -67 -17.5 -128.5t-59 -120t-103.5 -101t-159 -68.5t-218 -26q-226 0 -399 45q-41 12 -41 41v206q0 15 13 27t28 12h4q25 -2 92.5 -9t102 -10t89 -6t99.5 -3h12q106 2 149.5 33.5t43.5 107.5q0 44 -31.5 76.5t-114.5 77.5l-272 149q-151 82 -205.5 178
t-54.5 242q0 42 18 107t43 104q-26 30 -42.5 83t-16.5 111q0 89 26.5 160t85 129t162.5 89.5t248 31.5q107 0 239 -14.5t195 -30.5q41 -12 41 -39v-209q0 -12 -7.5 -20t-18.5 -8h-2q-290 16 -447 16q-96 0 -133 -20.5t-37 -84.5q0 -38 31.5 -68t116.5 -75l262 -141
q153 -83 215.5 -181t62.5 -229q0 -54 -15.5 -115t-37.5 -102q53 -86 53 -217zM834 451q0 66 -39 108t-158 107l-148 79q-78 44 -100 64q-35 -35 -35 -104q0 -60 31.5 -95.5t144.5 -95.5l144 -76q66 -34 135 -90q25 45 25 103z" />
    <glyph glyph-name="dieresis" unicode="&#xa8;" horiz-adv-x="907" 
d="M817 1348q0 -17 -13.5 -29t-31.5 -12h-192q-17 0 -30 12t-13 29v190q0 17 13 29t30 12h192q18 0 31.5 -12t13.5 -29v-190zM373 1348q0 -17 -13 -29t-30 -12h-193q-18 0 -31.5 12t-13.5 29v190q0 17 13.5 29t31.5 12h193q17 0 30 -12t13 -29v-190z" />
    <glyph glyph-name="copyright" unicode="&#xa9;" horiz-adv-x="1536" 
d="M1450 766q0 -139 -54.5 -265t-146 -217t-218 -144.5t-265.5 -53.5t-265 53.5t-217 144.5t-144.5 217t-53.5 265t53.5 266t144.5 219t217 146.5t265 54.5t265.5 -54.5t218 -146.5t146 -219t54.5 -266zM1343 766q0 156 -77.5 289.5t-210.5 212t-289 78.5t-288.5 -78.5
t-210 -212t-77.5 -289.5t77.5 -288t210 -208.5t288.5 -76.5q117 0 223.5 45.5t184 122t123.5 182.5t46 223zM977 375q0 -23 -27 -29q-63 -18 -168 -18q-168 0 -258 96.5t-90 290.5v114q0 196 90 292t258 96q81 0 168 -21q27 -6 27 -25v-129q0 -24 -25 -24h-4q-78 10 -166 10
q-62 0 -99.5 -43.5t-37.5 -155.5v-114q0 -114 37 -157.5t100 -43.5q88 0 166 10h6q23 0 23 -22v-127z" />
    <glyph glyph-name="ordfeminine" unicode="&#xaa;" horiz-adv-x="731" 
d="M655 856q0 -28 -16 -33q-117 -32 -262 -32q-159 0 -234 55t-75 172v14q0 108 84 155.5t241 47.5h45v27q0 55 -17.5 73.5t-68.5 18.5q-92 0 -205 -11h-2q-11 0 -18.5 8.5t-7.5 20.5v103q0 23 28 30q106 31 205 31q145 0 224 -62.5t79 -211.5v-406zM438 950v164h-45
q-61 0 -90 -19t-29 -63v-14q0 -41 24.5 -57.5t78.5 -16.5q13 0 61 6z" />
    <glyph glyph-name="guillemotleft" unicode="&#xab;" horiz-adv-x="1470" 
d="M1403 152q0 -9 -8 -16t-21 -7h-250q-37 0 -59 25l-328 378q-20 23 -20 54q0 30 20 53l328 379q21 24 59 24h250q13 0 21 -6.5t8 -15.5q0 -7 -8 -19l-361 -415l361 -416q8 -12 8 -18zM778 152q0 -10 -7.5 -16.5t-20.5 -6.5h-248q-40 0 -62 25l-327 378q-21 24 -21 54
q0 29 21 53l327 379q21 24 62 24h248q28 0 28 -22q0 -7 -8 -19l-360 -415l360 -416q8 -12 8 -18z" />
    <glyph glyph-name="logicalnot" unicode="&#xac;" 
d="M1130 406q0 -18 -10.5 -29.5t-27.5 -11.5h-174q-17 0 -27 11.5t-10 29.5v534h-650q-41 0 -41 33v182q0 33 41 33h861q17 0 27.5 -9t10.5 -24v-749z" />
    <glyph glyph-name="uni00AD" unicode="&#xad;" horiz-adv-x="618" 
d="M549 541q0 -17 -11.5 -27t-29.5 -10h-397q-18 0 -29.5 10t-11.5 27v164q0 17 11.5 27.5t29.5 10.5h397q18 0 29.5 -10.5t11.5 -27.5v-164z" />
    <glyph glyph-name="registered" unicode="&#xae;" horiz-adv-x="1224" 
d="M1186 991q0 -155 -77.5 -286.5t-209.5 -208t-287 -76.5t-286.5 76.5t-208 208t-76.5 286.5q0 116 45.5 222t121.5 182.5t182 122t222 45.5t222 -45.5t183.5 -122t123 -182.5t45.5 -222zM1081 991q0 127 -63 235t-171 171t-235 63t-234.5 -63t-170 -171t-62.5 -235
t62.5 -235t170 -171t234.5 -63t235 63t171 171t63 235zM895 676q0 -8 -6 -14.5t-15 -6.5h-137q-11 0 -20 17l-129 227q-2 0 -8.5 6t-8.5 6h-53v-233q0 -9 -6.5 -16t-15.5 -7h-123q-9 0 -16 7t-7 16v602q0 32 10.5 44t40.5 17q85 11 183 11q141 0 213.5 -51.5t72.5 -170.5
v-14q0 -128 -120 -178l141 -248q4 -8 4 -14zM709 1116v14q0 42 -26 61t-85 19h-84v-174q5 0 42.5 -1t41.5 -1q111 0 111 82z" />
    <glyph glyph-name="macron" unicode="&#xaf;" horiz-adv-x="907" 
d="M827 1376q0 -17 -12 -28t-29 -11h-663q-17 0 -29 11t-12 28v148q0 17 12 28t29 11h663q17 0 29 -11t12 -28v-148z" />
    <glyph glyph-name="degree" unicode="&#xb0;" horiz-adv-x="739" 
d="M684 1225q0 -131 -91.5 -223.5t-221.5 -92.5q-129 0 -222.5 93t-93.5 223t93.5 222.5t222.5 92.5q130 0 221.5 -92t91.5 -223zM518 1225q0 61 -43.5 105t-103.5 44t-104 -44t-44 -105q0 -60 43.5 -104t104.5 -44t104 44t43 104z" />
    <glyph glyph-name="plusminus" unicode="&#xb1;" 
d="M1143 709q0 -33 -41 -33h-318v-316q0 -41 -32 -41h-185q-32 0 -32 41v316h-316q-41 0 -41 33v184q0 33 41 33h316v317q0 41 32 41h185q32 0 32 -41v-317h318q41 0 41 -33v-184zM1143 -8q0 -33 -41 -33h-883q-41 0 -41 33v145q0 33 41 33h883q41 0 41 -33v-145z" />
    <glyph glyph-name="two.superior" unicode="&#xb2;" horiz-adv-x="727" 
d="M233 1124l103 74q9 7 24 17.5t21 14.5t16.5 12t14 11.5t10 9t8.5 9t5.5 9t4 10.5t1.5 11t1 13q0 30 -22 41.5t-82 11.5q-94 0 -217 -14q-15 0 -25 10.5t-10 24.5v86q0 22 29 34q123 35 239 35q155 0 226 -55.5t71 -167.5q0 -69 -33.5 -120.5t-101.5 -98.5l-92 -64
q-46 -32 -66 -46.5t-45 -37.5t-34.5 -43t-10.5 -45h338q14 0 24.5 -8t10.5 -22v-115q0 -13 -10.5 -24t-24.5 -11h-493q-13 0 -24 11t-11 24v113q0 91 42.5 165.5t112.5 124.5z" />
    <glyph glyph-name="three.superior" unicode="&#xb3;" horiz-adv-x="727" 
d="M645 934q0 -130 -80 -194t-221 -64q-119 0 -233 31q-31 12 -31 34v88q0 33 35 33q130 -10 221 -10q53 0 74.5 19.5t21.5 62.5v20q0 82 -76 82h-194q-14 0 -23.5 10.5t-9.5 24.5v94q0 15 9 24t24 9h190q42 0 61 23.5t19 60.5v16q0 34 -20.5 52t-75.5 18q-113 0 -199 -12
q-20 -6 -36.5 -0.5t-16.5 30.5v89q0 22 31 34q125 35 229 35q301 0 301 -239v-17q0 -46 -24.5 -93.5t-63.5 -76.5q42 -26 65 -69t23 -95v-20z" />
    <glyph glyph-name="acute" unicode="&#xb4;" horiz-adv-x="907" 
d="M852 1581q0 -8 -8 -16l-250 -250q-2 -2 -4.5 -5t-4 -4t-4 -3.5t-4 -3.5t-4 -2.5t-4.5 -2.5t-4.5 -2t-5.5 -1t-6.5 -0.5t-7.5 -0.5h-219q-19 0 -19 15q0 9 8 20l191 240q14 18 24 24t31 6h268q23 0 23 -14z" />
    <glyph glyph-name="mu" unicode="&#xb5;" horiz-adv-x="1253" 
d="M1130 100q0 -23 -13.5 -37t-49.5 -26q-163 -55 -432 -55q-103 0 -182 18v-350q0 -17 -12 -29t-29 -12h-250q-17 0 -29 12t-12 29v1478q0 18 13 32t30 14h248q17 0 30 -14t13 -32v-679q0 -105 42 -150t138 -45q107 0 164 14v860q0 18 12 32t29 14h247q17 0 30 -14t13 -32
v-1028z" />
    <glyph glyph-name="paragraph" unicode="&#xb6;" horiz-adv-x="1349" 
d="M1233 -360q0 -15 -10 -27t-25 -12h-88q-15 0 -25 12t-10 27v1726h-129v-1726q0 -15 -10 -27t-25 -12h-88q-15 0 -25 12t-10 27v856h-196q-143 0 -255 51.5t-178.5 156t-66.5 248.5v113q0 144 66.5 248.5t178.5 156.5t255 52h608q33 0 33 -39v-1843z" />
    <glyph glyph-name="periodcentered" unicode="&#xb7;" horiz-adv-x="561" 
d="M442 653q0 -17 -12 -29t-29 -12h-239q-17 0 -30 12t-13 29v258q0 17 12.5 28t30.5 11h239q17 0 29 -11t12 -28v-258z" />
    <glyph glyph-name="cedilla" unicode="&#xb8;" horiz-adv-x="872" 
d="M664 -92q0 -8 -9 -17l-260 -266l-3 -3q-9 -9 -13 -12.5t-12.5 -6t-20.5 -2.5h-219q-18 0 -18 14q0 9 8 20l198 256q14 18 24.5 24.5t31.5 6.5h270q23 0 23 -14z" />
    <glyph glyph-name="one.superior" unicode="&#xb9;" horiz-adv-x="493" 
d="M53 1446l180 82q12 6 29 6h100q31 0 31 -35v-778q0 -35 -31 -35h-145q-35 0 -35 35v594l-108 -47q-41 -14 -41 24v127q0 18 20 27z" />
    <glyph glyph-name="ordmasculine" unicode="&#xba;" horiz-adv-x="778" 
d="M711 1128q0 -168 -82.5 -252.5t-237.5 -84.5t-238 84.5t-83 252.5v68q0 168 83.5 254t237.5 86t237 -86t83 -254v-68zM492 1128v68q0 84 -24 120t-77 36q-54 0 -79 -36.5t-25 -119.5v-68q0 -83 25 -119t79 -36q53 0 77 35.5t24 119.5z" />
    <glyph glyph-name="guillemotright" unicode="&#xbb;" horiz-adv-x="1470" 
d="M1399 586q0 -28 -23 -54l-327 -378q-22 -25 -60 -25h-248q-13 0 -20.5 6.5t-7.5 16.5q0 6 8 18l360 416l-360 415q-8 12 -8 19q0 22 28 22h248q39 0 60 -24l327 -379q23 -26 23 -53zM774 586q0 -31 -20 -54l-328 -378q-22 -25 -61 -25h-248q-13 0 -21 7t-8 16q0 6 8 18
l361 416l-361 415q-8 12 -8 19q0 9 8 15.5t21 6.5h248q40 0 61 -24l328 -379q20 -23 20 -53z" />
    <glyph glyph-name="onequarter" unicode="&#xbc;" horiz-adv-x="1581" 
d="M82 1446l180 82q12 6 29 6h100q31 0 31 -35v-778q0 -35 -31 -35h-145q-35 0 -35 35v594l-109 -47q-41 -14 -41 24v127q0 18 21 27zM1303 1505q0 -12 -9 -24l-852 -1438q-14 -25 -22.5 -34t-24.5 -9h-211q-22 0 -22 23q0 8 6 20l852 1438q14 24 24 32.5t27 8.5h211
q21 0 21 -17zM1520 219q0 -13 -10.5 -24t-22.5 -11h-62v-149q0 -14 -9 -24.5t-23 -10.5h-148q-14 0 -23.5 10.5t-9.5 24.5v149h-309q-12 0 -22.5 11t-10.5 24v107q0 20 15 43l350 458q17 21 37 21h119q13 0 23.5 -10.5t10.5 -24.5v-459h62q13 0 23 -9.5t10 -25.5v-100z
M1219 354v211l-156 -211h156z" />
    <glyph glyph-name="onehalf" unicode="&#xbd;" horiz-adv-x="1646" 
d="M82 1446l180 82q12 6 29 6h100q31 0 31 -35v-778q0 -35 -31 -35h-145q-35 0 -35 35v594l-109 -47q-41 -14 -41 24v127q0 18 21 27zM1303 1505q0 -12 -9 -24l-852 -1438q-14 -25 -22.5 -34t-24.5 -9h-211q-22 0 -22 23q0 8 6 20l852 1438q14 24 24 32.5t27 8.5h211
q21 0 21 -17zM1167 438l103 74q9 7 24 17.5t21 14.5t16.5 12t14 11.5t10 9t8.5 9t5.5 9t4 10.5t1.5 11t1 13q0 30 -22 41.5t-82 11.5q-94 0 -217 -14q-15 0 -25 10t-10 24v86q0 23 29 35q123 35 239 35q155 0 226 -55.5t71 -167.5q0 -69 -33.5 -120.5t-101.5 -98.5l-92 -64
q-46 -32 -66 -46.5t-45 -37.5t-34.5 -43t-10.5 -45h338q15 0 25 -8t10 -22v-115q0 -13 -10.5 -24t-24.5 -11h-493q-13 0 -24 11t-11 24v112q0 91 42.5 166t112.5 125z" />
    <glyph glyph-name="threequarters" unicode="&#xbe;" horiz-adv-x="1710" 
d="M1432 1505q0 -12 -9 -24l-852 -1438q-14 -25 -22.5 -34t-24.5 -9h-211q-22 0 -22 23q0 8 6 20l852 1438q14 24 24 32.5t27 8.5h211q21 0 21 -17zM1649 219q0 -13 -10.5 -24t-22.5 -11h-62v-149q0 -14 -9 -24.5t-23 -10.5h-148q-14 0 -23.5 10.5t-9.5 24.5v149h-309
q-12 0 -22.5 11t-10.5 24v107q0 20 15 43l350 458q18 21 37 21h119q13 0 23.5 -10.5t10.5 -24.5v-459h62q13 0 23 -9.5t10 -25.5v-100zM1348 354v211l-156 -211h156zM627 934q0 -130 -80 -194t-221 -64q-120 0 -234 31q-31 12 -31 34v88q0 33 35 33q130 -10 221 -10
q53 0 75 20t22 62v20q0 82 -76 82h-195q-14 0 -23 10.5t-9 24.5v94q0 33 32 33h191q42 0 61 23.5t19 60.5v16q0 34 -21 52t-76 18q-112 0 -198 -12q-20 -6 -36.5 -0.5t-16.5 30.5v89q0 23 30 34q125 35 230 35q301 0 301 -239v-17q0 -46 -24.5 -93.5t-63.5 -76.5
q42 -26 65 -69t23 -95v-20z" />
    <glyph glyph-name="questiondown" unicode="&#xbf;" horiz-adv-x="980" 
d="M768 877q0 -17 -12 -29t-29 -12h-242q-17 0 -29 12t-12 29v258q0 17 12 28t29 11h242q17 0 29 -11t12 -28v-258zM911 -293q0 -23 -7.5 -35t-29.5 -18q-140 -43 -327 -43q-223 0 -336 78t-113 262v35q0 68 35 138.5t123 182.5l92 119q89 116 101 136q14 26 14 50v58
q0 18 15 28.5t34 10.5h205q17 0 28 -12t11 -29v-56q0 -88 -15.5 -143t-70.5 -127l-99 -129q-55 -73 -74.5 -117t-19.5 -90v-20q0 -76 101 -76q112 0 292 22h7q34 0 34 -43v-182z" />
    <glyph glyph-name="Agrave" unicode="&#xc0;" horiz-adv-x="1370" 
d="M1331 33q0 -15 -10 -24t-25 -9h-286q-15 0 -26.5 11t-14.5 26l-74 336h-420l-74 -336q-3 -15 -14.5 -26t-26.5 -11h-286q-15 0 -25 9t-10 24q0 1 1 4.5t1 5.5l305 1270q17 71 52 118t84 69.5t96.5 31t107.5 8.5t107 -8.5t96 -31t83.5 -69.5t51.5 -118l305 -1270
q0 -2 1 -5.5t1 -4.5zM838 653l-125 566q-3 16 -8.5 23t-18.5 7q-23 0 -29 -30l-125 -566h306zM858 1663q0 -14 -18 -14h-213q-6 0 -10.5 1t-7.5 2t-8 5t-6.5 5.5l-8 8l-8.5 8.5l-209 240q-9 9 -9 16q0 15 23 15h258q19 0 28.5 -6t24.5 -25l156 -236q8 -8 8 -20z" />
    <glyph glyph-name="Aacute" unicode="&#xc1;" horiz-adv-x="1370" 
d="M1331 33q0 -15 -10 -24t-25 -9h-286q-15 0 -26.5 11t-14.5 26l-74 336h-420l-74 -336q-3 -15 -14.5 -26t-26.5 -11h-286q-15 0 -25 9t-10 24q0 1 1 4.5t1 5.5l305 1270q17 71 52 118t84 69.5t96.5 31t107.5 8.5t107 -8.5t96 -31t83.5 -69.5t51.5 -118l305 -1270
q0 -2 1 -5.5t1 -4.5zM838 653l-125 566q-3 16 -8.5 23t-18.5 7q-23 0 -29 -30l-125 -566h306zM508 1663q0 12 8 20l156 236q15 19 24.5 25t28.5 6h258q23 0 23 -15q0 -7 -9 -16l-209 -240l-8.5 -8.5l-8 -8t-6.5 -5.5t-8 -5t-7.5 -2t-10.5 -1h-213q-18 0 -18 14z" />
    <glyph glyph-name="Acircumflex" unicode="&#xc2;" horiz-adv-x="1370" 
d="M1331 33q0 -15 -10 -24t-25 -9h-286q-15 0 -26.5 11t-14.5 26l-74 336h-420l-74 -336q-3 -15 -14.5 -26t-26.5 -11h-286q-15 0 -25 9t-10 24q0 1 1 4.5t1 5.5l305 1270q17 71 52 118t84 69.5t96.5 31t107.5 8.5t107 -8.5t96 -31t83.5 -69.5t51.5 -118l305 -1270
q0 -2 1 -5.5t1 -4.5zM838 653l-125 566q-3 16 -8.5 23t-18.5 7q-23 0 -29 -30l-125 -566h306zM322 1640q0 13 8 21l184 242q15 16 23 21t24 5h252q16 0 24 -5t23 -21l184 -242q9 -9 9 -21t-17 -12h-205q-4 0 -7.5 0.5t-7 2.5t-5.5 3t-6 4.5t-5 4.5t-6 6.5t-6 7.5l-102 135
l-100 -135q-2 -2 -4.5 -5t-4 -5t-4 -4.5t-4 -3.5t-3.5 -3t-4 -3l-4 -2t-4.5 -1.5l-5 -1t-5.5 -0.5h-205q-16 0 -16 12z" />
    <glyph glyph-name="Atilde" unicode="&#xc3;" horiz-adv-x="1370" 
d="M1331 33q0 -15 -10 -24t-25 -9h-286q-15 0 -26.5 11t-14.5 26l-74 336h-420l-74 -336q-3 -15 -14.5 -26t-26.5 -11h-286q-15 0 -25 9t-10 24q0 1 1 4.5t1 5.5l305 1270q17 71 52 118t84 69.5t96.5 31t107.5 8.5t107 -8.5t96 -31t83.5 -69.5t51.5 -118l305 -1270
q0 -2 1 -5.5t1 -4.5zM838 653l-125 566q-3 16 -8.5 23t-18.5 7q-23 0 -29 -30l-125 -566h306zM1047 1872q0 -223 -222 -223q-28 0 -64.5 11t-62.5 30q-17 10 -40 24t-40.5 24t-35.5 19q-15 8 -28 -7t-13 -44v-14q0 -33 -27 -33h-162q-28 0 -28 33v34q0 222 223 222
q72 0 125 -39q60 -40 114 -66q20 -9 31.5 6t11.5 45v15q0 28 29 28h160q29 0 29 -28v-37z" />
    <glyph glyph-name="Adieresis" unicode="&#xc4;" horiz-adv-x="1370" 
d="M1331 33q0 -15 -10 -24t-25 -9h-286q-15 0 -26.5 11t-14.5 26l-74 336h-420l-74 -336q-3 -15 -14.5 -26t-26.5 -11h-286q-15 0 -25 9t-10 24q0 1 1 4.5t1 5.5l305 1270q17 71 52 118t84 69.5t96.5 31t107.5 8.5t107 -8.5t96 -31t83.5 -69.5t51.5 -118l305 -1270
q0 -2 1 -5.5t1 -4.5zM838 653l-125 566q-3 16 -8.5 23t-18.5 7q-23 0 -29 -30l-125 -566h306zM1047 1681q0 -17 -14 -29t-32 -12h-192q-17 0 -30 12t-13 29v191q0 17 13 29t30 12h192q18 0 32 -12t14 -29v-191zM602 1681q0 -17 -13 -29t-30 -12h-192q-18 0 -31.5 12
t-13.5 29v191q0 17 13.5 29t31.5 12h192q17 0 30 -12t13 -29v-191z" />
    <glyph glyph-name="Aring" unicode="&#xc5;" horiz-adv-x="1370" 
d="M1331 33q0 -15 -10 -24t-25 -9h-286q-15 0 -26.5 11t-14.5 26l-74 336h-420l-74 -336q-3 -15 -14.5 -26t-26.5 -11h-286q-15 0 -25 9t-10 24q0 1 1 4.5t1 5.5l305 1270q17 71 52 118t84 69.5t96.5 31t107.5 8.5t107 -8.5t96 -31t83.5 -69.5t51.5 -118l305 -1270
q0 -2 1 -5.5t1 -4.5zM838 653l-125 566q-3 16 -8.5 23t-18.5 7q-23 0 -29 -30l-125 -566h306zM924 1833q0 -100 -70 -170t-170 -70t-170 70t-70 170t70 170t170 70t170 -70t70 -170zM774 1833q0 37 -26.5 63.5t-63.5 26.5t-63.5 -26.5t-26.5 -63.5t26.5 -63.5t63.5 -26.5
t63.5 26.5t26.5 63.5z" />
    <glyph glyph-name="AE" unicode="&#xc6;" horiz-adv-x="1890" 
d="M1776 51q0 -20 -9.5 -30t-31.5 -13q-4 -1 -50 -8t-69.5 -9.5t-86 -5.5t-140.5 -3q-82 0 -147 8.5t-130 34t-109 68t-74 113.5t-36 167h-418l-74 -336q-3 -15 -14.5 -26t-26.5 -11h-286q-15 0 -25 9t-10 24q0 1 1 4.5t1 5.5l305 1270q14 57 41 97.5t57.5 61.5t75.5 33
t80 14.5t86 2.5h1049q41 0 41 -41v-199q0 -17 -12 -29t-29 -12h-496v-326h479q17 0 29 -12t12 -29v-194q0 -17 -12 -29t-29 -12h-479v-217q0 -79 29 -109t102 -30h365q17 0 29 -12t12 -29v-191zM891 653v596h-205q-23 0 -29 -30l-125 -566h359z" />
    <glyph glyph-name="Ccedilla" unicode="&#xc7;" horiz-adv-x="1148" 
d="M1065 63q0 -21 -10.5 -30.5t-34.5 -16.5q-38 -12 -122.5 -23t-182.5 -11q-97 0 -183 20.5t-164.5 69t-135 121.5t-90 185.5t-33.5 254.5v258q0 142 33.5 254t90 185t135.5 121t164.5 68.5t182.5 20.5t181.5 -11t123.5 -24q24 -7 34.5 -16t10.5 -29v-198q0 -41 -39 -41h-6
q-208 16 -303 16q-56 0 -99.5 -16.5t-79.5 -54t-55.5 -107t-19.5 -168.5v-258q0 -99 19.5 -168.5t55.5 -107t79.5 -54t99.5 -16.5q95 0 303 16h6q39 0 39 -41v-199zM881 -86q0 -7 -9 -16l-251 -250l-11 -11t-9 -7t-13.5 -6t-16.5 -1h-219q-18 0 -18 15q0 9 8 20l190 240
q14 18 24.5 24t31.5 6h270q23 0 23 -14z" />
    <glyph glyph-name="Egrave" unicode="&#xc8;" horiz-adv-x="1187" 
d="M1073 51q0 -20 -9.5 -30t-31.5 -13q-187 -26 -397 -26q-61 0 -111.5 4.5t-102.5 17.5t-93 33.5t-78 54.5t-61 79.5t-38 109t-14 141.5v680q0 91 18 162t53.5 118t79 79t103 48.5t117.5 23.5t129 7q201 0 395 -27q22 -3 31.5 -11.5t9.5 -28.5v-191q0 -17 -12 -29t-29 -12
h-416q-73 0 -102 -30t-29 -109v-187h531q17 0 29 -12t12 -29v-194q0 -17 -12 -29t-29 -12h-531v-217q0 -79 29 -109t102 -30h416q17 0 29 -12t12 -29v-191zM840 1663q0 -14 -19 -14h-213q-6 0 -10.5 1t-7.5 2t-8 5t-6.5 5.5l-8 8l-8.5 8.5l-209 240q-8 8 -8 16q0 15 23 15
h258q19 0 28.5 -6t24.5 -25l155 -236q9 -9 9 -20z" />
    <glyph glyph-name="Eacute" unicode="&#xc9;" horiz-adv-x="1187" 
d="M1073 51q0 -20 -9.5 -30t-31.5 -13q-187 -26 -397 -26q-61 0 -111.5 4.5t-102.5 17.5t-93 33.5t-78 54.5t-61 79.5t-38 109t-14 141.5v680q0 91 18 162t53.5 118t79 79t103 48.5t117.5 23.5t129 7q201 0 395 -27q22 -3 31.5 -11.5t9.5 -28.5v-191q0 -17 -12 -29t-29 -12
h-416q-73 0 -102 -30t-29 -109v-187h531q17 0 29 -12t12 -29v-194q0 -17 -12 -29t-29 -12h-531v-217q0 -79 29 -109t102 -30h416q17 0 29 -12t12 -29v-191zM530 1663q0 11 9 20l155 236q14 18 24.5 24.5t29.5 6.5h258q22 0 22 -15q0 -8 -8 -16l-209 -240l-8.5 -8.5l-8 -8
t-6.5 -5.5t-8 -5t-7.5 -2t-10.5 -1h-213q-19 0 -19 14z" />
    <glyph glyph-name="Ecircumflex" unicode="&#xca;" horiz-adv-x="1187" 
d="M1073 51q0 -20 -9.5 -30t-31.5 -13q-187 -26 -397 -26q-61 0 -111.5 4.5t-102.5 17.5t-93 33.5t-78 54.5t-61 79.5t-38 109t-14 141.5v680q0 91 18 162t53.5 118t79 79t103 48.5t117.5 23.5t129 7q201 0 395 -27q22 -3 31.5 -11.5t9.5 -28.5v-191q0 -17 -12 -29t-29 -12
h-416q-73 0 -102 -30t-29 -109v-187h531q17 0 29 -12t12 -29v-194q0 -17 -12 -29t-29 -12h-531v-217q0 -79 29 -109t102 -30h416q17 0 29 -12t12 -29v-191zM291 1640q0 13 8 21l184 242q15 16 23 21t24 5h252q16 0 24 -5t23 -21l185 -242q8 -8 8 -21q0 -12 -16 -12h-205
q-4 0 -7.5 0.5t-7 2.5t-5.5 3t-6 4.5t-5 4.5t-6 6.5t-6 7.5l-103 135l-100 -135q-2 -2 -4.5 -5t-4 -5t-4 -4.5t-4 -3.5t-3.5 -3t-4 -3l-4 -2t-4.5 -1.5l-5 -1t-5.5 -0.5h-205q-16 0 -16 12z" />
    <glyph glyph-name="Edieresis" unicode="&#xcb;" horiz-adv-x="1187" 
d="M1073 51q0 -20 -9.5 -30t-31.5 -13q-187 -26 -397 -26q-61 0 -111.5 4.5t-102.5 17.5t-93 33.5t-78 54.5t-61 79.5t-38 109t-14 141.5v680q0 91 18 162t53.5 118t79 79t103 48.5t117.5 23.5t129 7q201 0 395 -27q22 -3 31.5 -11.5t9.5 -28.5v-191q0 -17 -12 -29t-29 -12
h-416q-73 0 -102 -30t-29 -109v-187h531q17 0 29 -12t12 -29v-194q0 -17 -12 -29t-29 -12h-531v-217q0 -79 29 -109t102 -30h416q17 0 29 -12t12 -29v-191zM963 1681q0 -17 -13.5 -29t-31.5 -12h-193q-17 0 -30 12t-13 29v191q0 17 13 29t30 12h193q18 0 31.5 -12t13.5 -29
v-191zM518 1681q0 -17 -13 -29t-30 -12h-192q-18 0 -31.5 12t-13.5 29v191q0 17 13.5 29t31.5 12h192q17 0 30 -12t13 -29v-191z" />
    <glyph glyph-name="Igrave" unicode="&#xcc;" horiz-adv-x="636" 
d="M494 41q0 -17 -11 -29t-28 -12h-275q-17 0 -27 11.5t-10 29.5v1442q0 17 10 28t27 11h275q17 0 28 -11t11 -28v-1442zM471 1663q0 -14 -18 -14h-213q-4 0 -8 0.5t-6.5 1t-6 2.5t-5.5 3t-5.5 4.5l-5 5l-6.5 6.5l-7 7l-208 240q-9 9 -9 16q0 15 23 15h258q19 0 28.5 -6
t24.5 -25l156 -236q8 -8 8 -20z" />
    <glyph glyph-name="Iacute" unicode="&#xcd;" horiz-adv-x="636" 
d="M494 41q0 -17 -11 -29t-28 -12h-275q-17 0 -27 11.5t-10 29.5v1442q0 17 10 28t27 11h275q17 0 28 -11t11 -28v-1442zM152 1663q0 12 8 20l155 236q14 18 24.5 24.5t29.5 6.5h258q22 0 22 -15q0 -8 -8 -16l-209 -240l-8.5 -8.5l-8 -8t-6.5 -5.5t-8 -5t-7.5 -2t-10.5 -1
h-213q-18 0 -18 14z" />
    <glyph glyph-name="Icircumflex" unicode="&#xce;" horiz-adv-x="636" 
d="M494 41q0 -17 -11 -29t-28 -12h-275q-17 0 -27 11.5t-10 29.5v1442q0 17 10 28t27 11h275q17 0 28 -11t11 -28v-1442zM729 1640q0 -14 -18 -14h-211q-19 0 -27 5t-22 20l-129 143l-132 -143q-10 -11 -14.5 -15t-13 -7t-21.5 -3h-211q-18 0 -18 14q0 10 8 21l182 240
q14 18 24.5 24t31.5 6h327q22 0 32 -5.5t24 -24.5l180 -240q8 -11 8 -21z" />
    <glyph glyph-name="Idieresis" unicode="&#xcf;" horiz-adv-x="636" 
d="M494 41q0 -17 -11 -29t-28 -12h-275q-17 0 -27 11.5t-10 29.5v1442q0 17 10 28t27 11h275q17 0 28 -11t11 -28v-1442zM680 1681q0 -17 -13.5 -29t-31.5 -12h-193q-17 0 -30 12t-13 29v191q0 17 13 29t30 12h193q18 0 31.5 -12t13.5 -29v-191zM236 1681q0 -17 -13 -29
t-30 -12h-193q-18 0 -31.5 12t-13.5 29v191q0 17 13.5 29t31.5 12h193q17 0 30 -12t13 -29v-191z" />
    <glyph glyph-name="Eth" unicode="&#xd0;" horiz-adv-x="1396" 
d="M1292 657q0 -177 -47 -308.5t-135 -211t-205 -117.5t-266 -38q-259 0 -444 32q-60 9 -60 72v553h-112q-17 0 -28 11t-11 28v199q0 17 11 27.5t28 10.5h112v521q0 34 14.5 50t45.5 21q194 33 444 33q149 0 266 -38t205 -117.5t135 -211t47 -309.5v-207zM936 657v207
q0 107 -19 180.5t-58.5 115.5t-92.5 59.5t-127 17.5q-90 0 -152 -4v-318h125q17 0 28 -10.5t11 -27.5v-199q0 -17 -11 -28t-28 -11h-125v-352q31 -2 152 -2q74 0 127 18t92.5 59.5t58.5 114.5t19 180z" />
    <glyph glyph-name="Ntilde" unicode="&#xd1;" horiz-adv-x="1492" 
d="M1350 78q0 -32 -24 -55t-56 -23h-201q-36 0 -59.5 12.5t-46.5 50.5l-467 807q-11 17 -19 17q-10 0 -10 -17v-829q0 -17 -12 -29t-29 -12h-242q-17 0 -29 12t-12 29v1403q0 32 23 55t55 23h207q29 0 47.5 -14.5t38.5 -49.5l485 -844q11 -16 17 -16q10 0 10 18v867
q0 17 12 28t29 11h242q17 0 29 -11t12 -28v-1405zM1143 1858q0 -130 -64.5 -188t-185.5 -58q-78 0 -145 45l-86 59q-52 37 -84 37q-48 0 -48 -55v-39q0 -35 -30 -35h-146q-30 0 -30 35v39q0 244 251 244q79 0 144 -44l88 -57q56 -37 82 -37q24 0 35.5 12.5t11.5 43.5v38
q0 33 33 33h143q31 0 31 -33v-40z" />
    <glyph glyph-name="Ograve" unicode="&#xd2;" horiz-adv-x="1429" 
d="M1321 639q0 -173 -46.5 -302t-130.5 -205.5t-191 -113t-238 -36.5t-238 36.5t-191 113t-130.5 205.5t-46.5 302v244q0 173 46.5 302t130.5 205.5t191 113t238 36.5t238 -36.5t191 -113t130.5 -205.5t46.5 -302v-244zM969 639v244q0 183 -62 266.5t-192 83.5t-191 -83.5
t-61 -266.5v-244q0 -183 61 -266.5t191 -83.5t192 83.5t62 266.5zM901 1663q0 -14 -18 -14h-213q-6 0 -10.5 1t-7.5 2t-8 5t-6.5 5.5l-8 8l-8.5 8.5l-209 240q-9 9 -9 16q0 15 23 15h258q19 0 28.5 -6t24.5 -25l156 -236q8 -8 8 -20z" />
    <glyph glyph-name="Oacute" unicode="&#xd3;" horiz-adv-x="1429" 
d="M1321 639q0 -173 -46.5 -302t-130.5 -205.5t-191 -113t-238 -36.5t-238 36.5t-191 113t-130.5 205.5t-46.5 302v244q0 173 46.5 302t130.5 205.5t191 113t238 36.5t238 -36.5t191 -113t130.5 -205.5t46.5 -302v-244zM969 639v244q0 183 -62 266.5t-192 83.5t-191 -83.5
t-61 -266.5v-244q0 -183 61 -266.5t191 -83.5t192 83.5t62 266.5zM559 1663q0 12 8 20l156 236q15 19 24.5 25t28.5 6h258q23 0 23 -15q0 -8 -8 -16l-209 -240l-8.5 -8.5l-8 -8t-6.5 -5.5t-8 -5t-7.5 -2t-10.5 -1h-213q-19 0 -19 14z" />
    <glyph glyph-name="Ocircumflex" unicode="&#xd4;" horiz-adv-x="1429" 
d="M1321 639q0 -173 -46.5 -302t-130.5 -205.5t-191 -113t-238 -36.5t-238 36.5t-191 113t-130.5 205.5t-46.5 302v244q0 173 46.5 302t130.5 205.5t191 113t238 36.5t238 -36.5t191 -113t130.5 -205.5t46.5 -302v-244zM969 639v244q0 183 -62 266.5t-192 83.5t-191 -83.5
t-61 -266.5v-244q0 -183 61 -266.5t191 -83.5t192 83.5t62 266.5zM342 1640q0 13 8 21l185 242q15 16 23 21t24 5h252q16 0 24 -5t23 -21l184 -242q8 -8 8 -21q0 -12 -16 -12h-205q-4 0 -7.5 0.5t-7 2.5t-5.5 3t-6 4.5t-5 4.5t-6 6.5t-6 7.5l-102 135l-101 -135
q-2 -2 -4.5 -5t-4 -5t-4 -4.5t-4 -3.5t-3.5 -3t-4 -3l-4 -2t-4.5 -1.5l-5 -1t-5.5 -0.5h-205q-16 0 -16 12z" />
    <glyph glyph-name="Otilde" unicode="&#xd5;" horiz-adv-x="1429" 
d="M1321 639q0 -173 -46.5 -302t-130.5 -205.5t-191 -113t-238 -36.5t-238 36.5t-191 113t-130.5 205.5t-46.5 302v244q0 173 46.5 302t130.5 205.5t191 113t238 36.5t238 -36.5t191 -113t130.5 -205.5t46.5 -302v-244zM969 639v244q0 183 -62 266.5t-192 83.5t-191 -83.5
t-61 -266.5v-244q0 -183 61 -266.5t191 -83.5t192 83.5t62 266.5zM1079 1872q0 -118 -57 -170.5t-164 -52.5q-28 0 -64.5 11t-62.5 30q-115 66 -117 67q-15 8 -28 -7t-13 -44v-14q0 -33 -26 -33h-162q-29 0 -29 33v34q0 222 224 222q72 0 125 -39q60 -40 114 -66
q20 -9 31.5 6t11.5 45v15q0 28 29 28h160q28 0 28 -28v-37z" />
    <glyph glyph-name="Odieresis" unicode="&#xd6;" horiz-adv-x="1429" 
d="M1321 639q0 -173 -46.5 -302t-130.5 -205.5t-191 -113t-238 -36.5t-238 36.5t-191 113t-130.5 205.5t-46.5 302v244q0 173 46.5 302t130.5 205.5t191 113t238 36.5t238 -36.5t191 -113t130.5 -205.5t46.5 -302v-244zM969 639v244q0 183 -62 266.5t-192 83.5t-191 -83.5
t-61 -266.5v-244q0 -183 61 -266.5t191 -83.5t192 83.5t62 266.5zM1077 1681q0 -17 -13.5 -29t-31.5 -12h-192q-17 0 -30 12t-13 29v191q0 17 13 29t30 12h192q18 0 31.5 -12t13.5 -29v-191zM633 1681q0 -17 -13 -29t-30 -12h-193q-18 0 -31.5 12t-13.5 29v191q0 17 13.5 29
t31.5 12h193q17 0 30 -12t13 -29v-191z" />
    <glyph glyph-name="multiply" unicode="&#xd7;" 
d="M1100 522q0 -10 -10 -20l-129 -129q-11 -11 -21 -11q-16 0 -33 17l-245 246l-246 -246q-17 -17 -31 -17q-9 0 -20 11l-132 131q-10 10 -10 20q0 14 17 31l245 246l-245 246q-17 17 -17 30q0 11 10 21l132 131q10 10 20 10q15 0 31 -16l246 -246l245 246q16 16 33 16
q11 0 21 -10l129 -129q10 -10 10 -21q0 -15 -17 -32l-245 -246l245 -246q17 -17 17 -33z" />
    <glyph glyph-name="Oslash" unicode="&#xd8;" horiz-adv-x="1429" 
d="M1386 1513q0 -7 -6 -16l-153 -211q94 -159 94 -403v-244q0 -173 -46.5 -302t-130.5 -205.5t-191 -113t-238 -36.5q-208 0 -357 94l-39 -56q-29 -38 -53 -38h-198q-10 0 -16.5 6.5t-6.5 15.5q0 7 6 16l154 213q-96 163 -96 406v244q0 173 46.5 302t130.5 205.5t191 113
t238 36.5q218 0 360 -94l37 51q29 39 53 39h199q10 0 16 -7t6 -16zM883 1178q-61 55 -168 55q-130 0 -191 -83.5t-61 -266.5v-244q0 -7 1 -21.5t1 -21.5zM969 909v15l-418 -582q59 -53 164 -53q130 0 192 83.5t62 266.5v244v26z" />
    <glyph glyph-name="Ugrave" unicode="&#xd9;" horiz-adv-x="1456" 
d="M1319 571q0 -136 -31 -240t-83 -169.5t-129.5 -106.5t-161.5 -57t-187 -16t-187 16t-161 57t-129 106.5t-82.5 169.5t-30.5 240v912q0 17 12 28t29 11h268q17 0 29 -11t12 -28v-912q0 -161 52.5 -229t187.5 -68t188.5 68.5t53.5 228.5v912q0 17 12 28t29 11h266
q18 0 30.5 -11t12.5 -28v-912zM879 1663q0 -14 -19 -14h-213q-6 0 -10.5 1t-7.5 2t-8 5t-6.5 5.5l-8 8l-8.5 8.5l-209 240q-8 8 -8 16q0 15 22 15h259q19 0 28.5 -6t24.5 -25l155 -236q9 -9 9 -20z" />
    <glyph glyph-name="Uacute" unicode="&#xda;" horiz-adv-x="1456" 
d="M1319 571q0 -136 -31 -240t-83 -169.5t-129.5 -106.5t-161.5 -57t-187 -16t-187 16t-161 57t-129 106.5t-82.5 169.5t-30.5 240v912q0 17 12 28t29 11h268q17 0 29 -11t12 -28v-912q0 -161 52.5 -229t187.5 -68t188.5 68.5t53.5 228.5v912q0 17 12 28t29 11h266
q18 0 30.5 -11t12.5 -28v-912zM584 1663q0 12 8 20l156 236q15 19 24.5 25t28.5 6h258q22 0 22 -15q0 -8 -8 -16l-209 -240l-8.5 -8.5l-8 -8t-6.5 -5.5t-8 -5t-7.5 -2t-10.5 -1h-213q-18 0 -18 14z" />
    <glyph glyph-name="Ucircumflex" unicode="&#xdb;" horiz-adv-x="1456" 
d="M1319 571q0 -136 -31 -240t-83 -169.5t-129.5 -106.5t-161.5 -57t-187 -16t-187 16t-161 57t-129 106.5t-82.5 169.5t-30.5 240v912q0 17 12 28t29 11h268q17 0 29 -11t12 -28v-912q0 -161 52.5 -229t187.5 -68t188.5 68.5t53.5 228.5v912q0 17 12 28t29 11h266
q18 0 30.5 -11t12.5 -28v-912zM1135 1642q0 -14 -19 -14h-211q-19 0 -27 5t-22 20l-129 143l-131 -143q-10 -11 -14.5 -15t-13 -7t-21.5 -3h-211q-19 0 -19 14q0 9 9 21l182 240q14 18 24 24t31 6h328q21 0 31 -5.5t24 -24.5l180 -240q9 -12 9 -21z" />
    <glyph glyph-name="Udieresis" unicode="&#xdc;" horiz-adv-x="1456" 
d="M1319 571q0 -136 -31 -240t-83 -169.5t-129.5 -106.5t-161.5 -57t-187 -16t-187 16t-161 57t-129 106.5t-82.5 169.5t-30.5 240v912q0 17 12 28t29 11h268q17 0 29 -11t12 -28v-912q0 -161 52.5 -229t187.5 -68t188.5 68.5t53.5 228.5v912q0 17 12 28t29 11h266
q18 0 30.5 -11t12.5 -28v-912zM1090 1681q0 -17 -14 -29t-32 -12h-192q-17 0 -30 12t-13 29v191q0 17 13 29t30 12h192q18 0 32 -12t14 -29v-191zM645 1681q0 -17 -13 -29t-30 -12h-192q-18 0 -31.5 12t-13.5 29v191q0 17 13.5 29t31.5 12h192q17 0 30 -12t13 -29v-191z" />
    <glyph glyph-name="Yacute" unicode="&#xdd;" horiz-adv-x="1325" 
d="M1282 1491q0 -10 -2 -14l-309 -709q-55 -126 -133 -158v-569q0 -17 -12 -29t-29 -12h-269q-17 0 -29 12t-12 29v569q-80 33 -135 158l-309 709q-2 4 -2 14q0 13 9.5 22t23.5 9h295q29 0 41 -35l221 -578q7 -19 13.5 -24.5t17.5 -5.5t17 5.5t13 24.5l221 578q12 35 41 35
h295q15 0 24 -9t9 -22zM510 1663q0 12 8 20l156 236q15 19 24.5 25t28.5 6h258q23 0 23 -15q0 -7 -9 -16l-208 -240l-6 -6t-5.5 -6t-5 -5t-5 -4l-4.5 -3t-5.5 -2.5t-5.5 -1.5t-6 -1.5t-7 -0.5h-213q-18 0 -18 14z" />
    <glyph glyph-name="Thorn" unicode="&#xde;" horiz-adv-x="1333" 
d="M1266 848q0 -113 -35 -201.5t-93 -144.5t-139.5 -91.5t-167 -50t-182.5 -14.5q-46 0 -160 4v-309q0 -18 -10.5 -29.5t-27.5 -11.5h-269q-17 0 -28 12t-11 29v1442q0 17 11 28t28 11h269q17 0 27.5 -11t10.5 -28v-121q23 2 152 2q100 0 186.5 -14t169 -49.5t140.5 -90
t93.5 -141.5t35.5 -199v-22zM915 848v22q0 106 -66.5 152.5t-199.5 46.5q-140 0 -160 -2v-424q20 -2 160 -2q134 0 200 50t66 157z" />
    <glyph glyph-name="germandbls" unicode="&#xdf;" horiz-adv-x="1335" 
d="M1225 461q0 -118 -40.5 -211.5t-110.5 -151t-158.5 -87t-188.5 -29.5q-61 0 -125 12q-41 7 -41 39v196q0 12 6 22.5t17 10.5h2q25 -2 76 -2q106 0 167.5 45t61.5 156v43q0 83 -53.5 131.5t-165.5 48.5h-64q-17 0 -29 11t-12 28v162q0 17 12 28t29 11h64q106 0 153 48
t47 122v39q0 76 -48 121.5t-150 45.5q-125 0 -174 -64t-49 -181v-1012q0 -18 -11 -30.5t-28 -12.5h-254q-17 0 -29 13t-12 30v1012q0 530 557 530q255 0 392.5 -117.5t137.5 -334.5v-39q0 -90 -55 -168.5t-131 -112.5q98 -41 152.5 -122.5t54.5 -186.5v-43z" />
    <glyph glyph-name="agrave" unicode="&#xe0;" horiz-adv-x="1150" 
d="M1028 41q0 -17 -12 -29t-29 -12h-229q-17 0 -29 12t-12 29v33q-65 -46 -131.5 -69t-153.5 -23q-71 0 -130.5 18t-110.5 57.5t-80 110t-29 166.5v18q0 180 121 263t383 83h110v74q0 83 -37 112t-116 29q-193 0 -340 -14h-10q-37 0 -37 37v166q0 36 39 45q182 43 354 43
q479 0 479 -418v-731zM702 276v226h-116q-103 0 -141.5 -35.5t-38.5 -114.5v-18q0 -61 30 -82t99 -21q79 0 167 45zM717 1331q0 -14 -19 -14h-213q-7 0 -11.5 1t-10 4.5t-8 5.5t-9.5 9.5t-10 10.5l-209 239q-8 8 -8 17q0 14 23 14h258q19 0 28.5 -6t24.5 -25l156 -235
q8 -8 8 -21z" />
    <glyph glyph-name="aacute" unicode="&#xe1;" horiz-adv-x="1150" 
d="M1028 41q0 -17 -12 -29t-29 -12h-229q-17 0 -29 12t-12 29v33q-65 -46 -131.5 -69t-153.5 -23q-71 0 -130.5 18t-110.5 57.5t-80 110t-29 166.5v18q0 180 121 263t383 83h110v74q0 83 -37 112t-116 29q-193 0 -340 -14h-10q-37 0 -37 37v166q0 36 39 45q182 43 354 43
q479 0 479 -418v-731zM702 276v226h-116q-103 0 -141.5 -35.5t-38.5 -114.5v-18q0 -61 30 -82t99 -21q79 0 167 45zM422 1331q0 13 8 21l156 235q15 19 24.5 25t28.5 6h258q23 0 23 -14q0 -8 -9 -17l-209 -239q-3 -3 -10 -10.5t-9.5 -9.5t-8 -5.5t-10 -4.5t-11.5 -1h-213
q-18 0 -18 14z" />
    <glyph glyph-name="acircumflex" unicode="&#xe2;" horiz-adv-x="1150" 
d="M1028 41q0 -17 -12 -29t-29 -12h-229q-17 0 -29 12t-12 29v33q-65 -46 -131.5 -69t-153.5 -23q-71 0 -130.5 18t-110.5 57.5t-80 110t-29 166.5v18q0 180 121 263t383 83h110v74q0 83 -37 112t-116 29q-193 0 -340 -14h-10q-37 0 -37 37v166q0 36 39 45q182 43 354 43
q479 0 479 -418v-731zM702 276v226h-116q-103 0 -141.5 -35.5t-38.5 -114.5v-18q0 -61 30 -82t99 -21q79 0 167 45zM205 1303q0 12 8 20l184 242q15 16 23 21t24 5h252q16 0 24 -5t23 -21l185 -242q8 -8 8 -20q0 -13 -16 -13h-205q-4 0 -7.5 0.5t-7 2.5t-5.5 3t-6 4.5
t-5 4.5t-6 6.5t-6 7.5l-103 135l-100 -135q-2 -2 -4.5 -5t-4 -5t-4 -4.5t-4 -3.5t-3.5 -3t-4 -3l-4 -2t-4.5 -1.5l-5 -1t-5.5 -0.5h-205q-16 0 -16 13z" />
    <glyph glyph-name="atilde" unicode="&#xe3;" horiz-adv-x="1150" 
d="M1028 41q0 -17 -12 -29t-29 -12h-229q-17 0 -29 12t-12 29v33q-65 -46 -131.5 -69t-153.5 -23q-71 0 -130.5 18t-110.5 57.5t-80 110t-29 166.5v18q0 180 121 263t383 83h110v74q0 83 -37 112t-116 29q-193 0 -340 -14h-10q-37 0 -37 37v166q0 36 39 45q182 43 354 43
q479 0 479 -418v-731zM702 276v226h-116q-103 0 -141.5 -35.5t-38.5 -114.5v-18q0 -61 30 -82t99 -21q79 0 167 45zM924 1534q0 -223 -222 -223q-28 0 -64.5 11t-62.5 30q-17 10 -40 24t-40.5 24t-35.5 19q-15 8 -28 -7t-13 -44v-14q0 -33 -27 -33h-162q-28 0 -28 33v35
q0 221 223 221q72 0 125 -39q58 -38 115 -66q20 -9 31.5 6t11.5 45v15q0 28 28 28h160q29 0 29 -28v-37z" />
    <glyph glyph-name="adieresis" unicode="&#xe4;" horiz-adv-x="1150" 
d="M1028 41q0 -17 -12 -29t-29 -12h-229q-17 0 -29 12t-12 29v33q-65 -46 -131.5 -69t-153.5 -23q-71 0 -130.5 18t-110.5 57.5t-80 110t-29 166.5v18q0 180 121 263t383 83h110v74q0 83 -37 112t-116 29q-193 0 -340 -14h-10q-37 0 -37 37v166q0 36 39 45q182 43 354 43
q479 0 479 -418v-731zM702 276v226h-116q-103 0 -141.5 -35.5t-38.5 -114.5v-18q0 -61 30 -82t99 -21q79 0 167 45zM950 1352q0 -17 -13.5 -29t-31.5 -12h-192q-17 0 -30 12t-13 29v190q0 17 13 29t30 12h192q18 0 31.5 -12t13.5 -29v-190zM506 1352q0 -17 -13 -29t-30 -12
h-193q-18 0 -31.5 12t-13.5 29v190q0 17 13.5 29t31.5 12h193q17 0 30 -12t13 -29v-190z" />
    <glyph glyph-name="aring" unicode="&#xe5;" horiz-adv-x="1150" 
d="M1028 41q0 -17 -12 -29t-29 -12h-229q-17 0 -29 12t-12 29v33q-65 -46 -131.5 -69t-153.5 -23q-71 0 -130.5 18t-110.5 57.5t-80 110t-29 166.5v18q0 180 121 263t383 83h110v74q0 83 -37 112t-116 29q-193 0 -340 -14h-10q-37 0 -37 37v166q0 36 39 45q182 43 354 43
q479 0 479 -418v-731zM702 276v226h-116q-103 0 -141.5 -35.5t-38.5 -114.5v-18q0 -61 30 -82t99 -21q79 0 167 45zM819 1518q0 -100 -69.5 -170t-169.5 -70t-170 70t-70 170t70 169.5t170 69.5t169.5 -69.5t69.5 -169.5zM670 1518q0 37 -26.5 63.5t-63.5 26.5t-64 -26.5
t-27 -63.5t27 -64t64 -27t63.5 27t26.5 64z" />
    <glyph glyph-name="ae" unicode="&#xe6;" horiz-adv-x="1804" 
d="M1710 543q0 -17 -13 -30t-30 -13h-635v-84q0 -85 60 -121.5t178 -36.5q198 0 354 16h10q33 0 33 -32v-148q0 -23 -8 -34.5t-31 -18.5q-174 -59 -405 -59q-178 0 -289 94q-174 -94 -399 -94q-72 0 -136 12.5t-122 40.5t-100 70t-66.5 105t-24.5 142v23q0 173 135 248
t395 75h86v19q0 112 -35 154t-124 42q-206 0 -334 -14h-6q-15 0 -25 10t-10 27v162q0 17 11 31t30 18q167 43 334 43q225 0 348 -123q129 123 323 123q127 0 223 -37.5t155 -107t88.5 -162.5t29.5 -209v-131zM1393 680v37q0 217 -181 217q-91 0 -135.5 -57t-44.5 -160v-37
h361zM713 244v274h-97q-111 0 -163 -33t-52 -110v-23q0 -70 46 -102.5t116 -32.5q89 0 150 27z" />
    <glyph glyph-name="ccedilla" unicode="&#xe7;" horiz-adv-x="970" 
d="M885 59q0 -22 -9 -31.5t-34 -15.5q-122 -30 -273 -30q-220 0 -348.5 135.5t-128.5 382.5v172q0 247 128.5 382.5t348.5 135.5q147 0 273 -31q25 -6 34 -15.5t9 -31.5v-182q0 -15 -12 -25t-27 -10h-4q-133 14 -250 14q-168 0 -168 -237v-172q0 -238 168 -238q117 0 250 14
h4q16 0 27.5 -9.5t11.5 -24.5v-183zM707 -86q0 -7 -9 -16l-252 -250q-3 -2 -9 -8t-8.5 -8t-7.5 -4.5t-10.5 -3.5t-13.5 -1h-219q-20 0 -20 15q0 7 10 20l190 240q12 18 23.5 24t32.5 6h270q23 0 23 -14z" />
    <glyph glyph-name="egrave" unicode="&#xe8;" horiz-adv-x="1208" 
d="M1116 532q0 -49 -43 -49h-653v-4q0 -46 10.5 -84.5t34 -70.5t65.5 -50t101 -18q209 0 393 18h6q39 0 39 -32v-156q0 -26 -8.5 -37.5t-34.5 -17.5q-195 -49 -420 -49q-78 0 -149 16.5t-138.5 55.5t-117 98t-79.5 150.5t-30 205.5v143q0 249 137.5 394t380.5 145
q163 0 279 -71t171.5 -191t55.5 -277v-119zM793 688v8q0 112 -48.5 170t-136.5 58q-87 0 -137.5 -59t-50.5 -169v-8h373zM786 1331q0 -14 -18 -14h-213q-7 0 -11.5 1t-10 4.5t-8 5.5t-9.5 9.5t-10 10.5l-209 239q-8 8 -8 17q0 14 22 14h258q19 0 29.5 -6.5t24.5 -24.5
l155 -235q8 -8 8 -21z" />
    <glyph glyph-name="eacute" unicode="&#xe9;" horiz-adv-x="1208" 
d="M1116 532q0 -49 -43 -49h-653v-4q0 -46 10.5 -84.5t34 -70.5t65.5 -50t101 -18q209 0 393 18h6q39 0 39 -32v-156q0 -26 -8.5 -37.5t-34.5 -17.5q-195 -49 -420 -49q-78 0 -149 16.5t-138.5 55.5t-117 98t-79.5 150.5t-30 205.5v143q0 249 137.5 394t380.5 145
q163 0 279 -71t171.5 -191t55.5 -277v-119zM793 688v8q0 112 -48.5 170t-136.5 58q-87 0 -137.5 -59t-50.5 -169v-8h373zM483 1331q0 12 9 21l155 235q15 19 24.5 25t28.5 6h258q23 0 23 -14q0 -9 -8 -17l-209 -239q-3 -3 -10 -10.5t-9.5 -9.5t-8 -5.5t-10 -4.5t-11.5 -1
h-213q-19 0 -19 14z" />
    <glyph glyph-name="ecircumflex" unicode="&#xea;" horiz-adv-x="1208" 
d="M1116 532q0 -49 -43 -49h-653v-4q0 -46 10.5 -84.5t34 -70.5t65.5 -50t101 -18q209 0 393 18h6q39 0 39 -32v-156q0 -26 -8.5 -37.5t-34.5 -17.5q-195 -49 -420 -49q-78 0 -149 16.5t-138.5 55.5t-117 98t-79.5 150.5t-30 205.5v143q0 249 137.5 394t380.5 145
q163 0 279 -71t171.5 -191t55.5 -277v-119zM793 688v8q0 112 -48.5 170t-136.5 58q-87 0 -137.5 -59t-50.5 -169v-8h373zM244 1303q0 12 8 20l184 242q15 16 23 21t24 5h252q16 0 24 -5t23 -21l185 -242q8 -8 8 -20q0 -5 -5 -9t-12 -4h-204q-4 0 -7.5 0.5t-7 2.5t-5.5 3
t-6 4.5t-5 4.5t-6 6.5t-6 7.5l-103 135l-100 -135q-2 -2 -4.5 -5t-4 -5t-4 -4.5t-4 -3.5t-3.5 -3t-4 -3l-4 -2t-4.5 -1.5l-5 -1t-5.5 -0.5h-205q-16 0 -16 13z" />
    <glyph glyph-name="edieresis" unicode="&#xeb;" horiz-adv-x="1208" 
d="M1116 532q0 -49 -43 -49h-653v-4q0 -46 10.5 -84.5t34 -70.5t65.5 -50t101 -18q209 0 393 18h6q39 0 39 -32v-156q0 -26 -8.5 -37.5t-34.5 -17.5q-195 -49 -420 -49q-78 0 -149 16.5t-138.5 55.5t-117 98t-79.5 150.5t-30 205.5v143q0 249 137.5 394t380.5 145
q163 0 279 -71t171.5 -191t55.5 -277v-119zM793 688v8q0 112 -48.5 170t-136.5 58q-87 0 -137.5 -59t-50.5 -169v-8h373zM963 1348q0 -17 -13.5 -29t-31.5 -12h-193q-17 0 -30 12t-13 29v190q0 17 13 29t30 12h193q18 0 31.5 -12t13.5 -29v-190zM518 1348q0 -17 -13 -29
t-30 -12h-192q-18 0 -31.5 12t-13.5 29v190q0 17 13.5 29t31.5 12h192q17 0 30 -12t13 -29v-190z" />
    <glyph glyph-name="igrave" unicode="&#xec;" horiz-adv-x="593" 
d="M463 43q0 -17 -13 -30t-30 -13h-246q-17 0 -30 13t-13 30v1087q0 17 13 30.5t30 13.5h246q17 0 30 -13.5t13 -30.5v-1087zM459 1331q0 -14 -19 -14h-213q-7 0 -11.5 1t-10 4.5t-8 5.5t-9.5 9.5t-10 10.5l-209 239q-8 8 -8 17q0 14 23 14h258q19 0 28.5 -6t24.5 -25
l156 -235q8 -8 8 -21z" />
    <glyph glyph-name="iacute" unicode="&#xed;" horiz-adv-x="593" 
d="M463 43q0 -17 -13 -30t-30 -13h-246q-17 0 -30 13t-13 30v1087q0 17 13 30.5t30 13.5h246q17 0 30 -13.5t13 -30.5v-1087zM135 1331q0 13 8 21l156 235q15 19 24.5 25t28.5 6h258q23 0 23 -14q0 -9 -8 -17l-209 -239q-3 -3 -10 -10.5t-9.5 -9.5t-8 -5.5t-10 -4.5
t-11.5 -1h-213q-19 0 -19 14z" />
    <glyph glyph-name="icircumflex" unicode="&#xee;" horiz-adv-x="593" 
d="M463 43q0 -17 -13 -30t-30 -13h-246q-17 0 -30 13t-13 30v1087q0 17 13 30.5t30 13.5h246q17 0 30 -13.5t13 -30.5v-1087zM707 1305q0 -15 -19 -15h-211q-19 0 -27 5t-22 20l-129 143l-131 -143q-10 -11 -14.5 -15t-13 -7t-21.5 -3h-211q-19 0 -19 15q0 8 9 20l182 240
q14 18 24 24t31 6h328q21 0 31 -5.5t24 -24.5l180 -240q9 -12 9 -20z" />
    <glyph glyph-name="idieresis" unicode="&#xef;" horiz-adv-x="593" 
d="M463 43q0 -17 -13 -30t-30 -13h-246q-17 0 -30 13t-13 30v1087q0 17 13 30.5t30 13.5h246q17 0 30 -13.5t13 -30.5v-1087zM662 1348q0 -17 -14 -29t-32 -12h-192q-17 0 -30 12t-13 29v190q0 17 13 29t30 12h192q18 0 32 -12t14 -29v-190zM217 1348q0 -17 -13 -29t-30 -12
h-192q-18 0 -31.5 12t-13.5 29v190q0 17 13.5 29t31.5 12h192q17 0 30 -12t13 -29v-190z" />
    <glyph glyph-name="eth" unicode="&#xf0;" horiz-adv-x="1206" 
d="M1116 530q0 -273 -130.5 -410.5t-379.5 -137.5q-255 0 -385.5 141.5t-130.5 406.5v64q0 272 132.5 409.5t381.5 137.5q66 0 103 -19q-69 87 -230 166l-145 -110q-16 -13 -27 -13q-12 0 -22 13l-56 61q-6 6 -6 16q0 19 21 33l84 64q-91 28 -101 30q-32 8 -32 29q0 8 2 12
l51 140q7 22 28 22q11 0 17 -2q106 -25 237 -76l162 123q11 8 27 8q17 0 24 -10l56 -59q8 -8 8 -17q0 -10 -21 -28l-108 -84q149 -82 245 -194t145.5 -274t49.5 -378v-64zM786 530v64q0 142 -43.5 206t-138.5 64q-96 0 -140 -64t-44 -206v-64q0 -141 45 -205.5t141 -64.5
q95 0 137.5 63.5t42.5 206.5z" />
    <glyph glyph-name="ntilde" unicode="&#xf1;" horiz-adv-x="1253" 
d="M1130 43q0 -17 -13 -30t-30 -13h-247q-17 0 -29 13t-12 30v682q0 110 -30 150t-122 40q-69 0 -192 -65v-807q0 -17 -12 -30t-29 -13h-248q-17 0 -30 13t-13 30v1090q0 17 12 29t29 12h229q17 0 29 -12t12 -29v-50q84 59 159.5 83t174.5 24q87 0 151.5 -24t104.5 -64.5
t64 -102t33 -126.5t9 -148v-682zM1030 1528q0 -130 -64.5 -188t-185.5 -58q-78 0 -145 45l-86 59q-52 37 -84 37q-47 0 -47 -55v-39q0 -35 -31 -35h-145q-31 0 -31 35v39q0 244 252 244q79 0 143 -43l88 -58q55 -36 82 -36q24 0 35.5 12t11.5 43v39q0 33 33 33h143
q31 0 31 -33v-41z" />
    <glyph glyph-name="ograve" unicode="&#xf2;" horiz-adv-x="1206" 
d="M1116 514q0 -248 -133 -390t-379 -142t-380 142t-134 390v143q0 248 134 390.5t380 142.5t379 -142.5t133 -390.5v-143zM786 514v143q0 250 -182 250q-90 0 -137 -63t-47 -187v-143q0 -124 47 -188t137 -64q89 0 135.5 64t46.5 188zM795 1331q0 -14 -19 -14h-213
q-7 0 -11.5 1t-10 4.5t-8 5.5t-9.5 9.5t-10 10.5l-209 239q-8 8 -8 17q0 14 22 14h259q19 0 28.5 -6t24.5 -25l155 -235q9 -9 9 -21z" />
    <glyph glyph-name="oacute" unicode="&#xf3;" horiz-adv-x="1206" 
d="M1116 514q0 -248 -133 -390t-379 -142t-380 142t-134 390v143q0 248 134 390.5t380 142.5t379 -142.5t133 -390.5v-143zM786 514v143q0 250 -182 250q-90 0 -137 -63t-47 -187v-143q0 -124 47 -188t137 -64q89 0 135.5 64t46.5 188zM455 1331q0 13 8 21l155 235
q14 18 24.5 24.5t29.5 6.5h258q22 0 22 -14q0 -9 -8 -17l-209 -239q-3 -3 -10 -10.5t-9.5 -9.5t-8 -5.5t-10 -4.5t-11.5 -1h-213q-18 0 -18 14z" />
    <glyph glyph-name="ocircumflex" unicode="&#xf4;" horiz-adv-x="1206" 
d="M1116 514q0 -248 -133 -390t-379 -142t-380 142t-134 390v143q0 248 134 390.5t380 142.5t379 -142.5t133 -390.5v-143zM786 514v143q0 250 -182 250q-90 0 -137 -63t-47 -187v-143q0 -124 47 -188t137 -64q89 0 135.5 64t46.5 188zM238 1303q0 12 8 20l184 242
q15 16 23 21t24 5h252q16 0 24 -5t23 -21l185 -242q8 -8 8 -20q0 -5 -5 -9t-12 -4h-204q-4 0 -7.5 0.5t-7 2.5t-5.5 3t-6 4.5t-5 4.5t-6 6.5t-6 7.5l-103 135l-100 -135q-2 -2 -4.5 -5t-4 -5t-4 -4.5t-4 -3.5t-3.5 -3t-4 -3l-4 -2t-4.5 -1.5l-5 -1t-5.5 -0.5h-205
q-16 0 -16 13z" />
    <glyph glyph-name="otilde" unicode="&#xf5;" horiz-adv-x="1206" 
d="M1116 514q0 -248 -133 -390t-379 -142t-380 142t-134 390v143q0 248 134 390.5t380 142.5t379 -142.5t133 -390.5v-143zM786 514v143q0 250 -182 250q-90 0 -137 -63t-47 -187v-143q0 -124 47 -188t137 -64q89 0 135.5 64t46.5 188zM965 1534q0 -223 -222 -223
q-28 0 -64.5 11t-62.5 30q-17 10 -40 24t-40.5 24t-35.5 19q-15 8 -28 -7t-13 -44v-14q0 -33 -27 -33h-162q-28 0 -28 33v35q0 221 223 221q72 0 125 -39q58 -38 115 -66q20 -9 31.5 6t11.5 45v15q0 28 28 28h160q29 0 29 -28v-37z" />
    <glyph glyph-name="odieresis" unicode="&#xf6;" horiz-adv-x="1206" 
d="M1116 514q0 -248 -133 -390t-379 -142t-380 142t-134 390v143q0 248 134 390.5t380 142.5t379 -142.5t133 -390.5v-143zM786 514v143q0 250 -182 250q-90 0 -137 -63t-47 -187v-143q0 -124 47 -188t137 -64q89 0 135.5 64t46.5 188zM963 1348q0 -17 -13.5 -29t-31.5 -12
h-193q-17 0 -30 12t-13 29v190q0 17 13 29t30 12h193q18 0 31.5 -12t13.5 -29v-190zM518 1348q0 -17 -13 -29t-30 -12h-192q-18 0 -31.5 12t-13.5 29v190q0 17 13.5 29t31.5 12h192q17 0 30 -12t13 -29v-190z" />
    <glyph glyph-name="divide" unicode="&#xf7;" 
d="M821 1130q0 -17 -12 -28.5t-29 -11.5h-241q-17 0 -29 11.5t-12 28.5v230q0 17 12 29t29 12h241q17 0 29 -12t12 -29v-230zM1130 709q0 -33 -40 -33h-859q-41 0 -41 33v184q0 33 41 33h859q40 0 40 -33v-184zM821 213q0 -17 -12 -28t-29 -11h-241q-17 0 -29 11t-12 28v229
q0 17 12 29t29 12h241q17 0 29 -12t12 -29v-229z" />
    <glyph glyph-name="oslash" unicode="&#xf8;" horiz-adv-x="1206" 
d="M1145 1225q0 -15 -8 -23l-133 -178q112 -136 112 -367v-143q0 -248 -133 -390t-379 -142q-185 0 -307 81l-86 -114q-16 -21 -33 -21h-102q-17 0 -17 17q0 10 9 22l135 183q-113 137 -113 364v143q0 248 134 390.5t380 142.5q183 0 307 -82l82 113q16 20 33 20h102
q17 0 17 -16zM727 860q-47 47 -123 47q-90 0 -137 -63t-47 -187v-143q0 -25 4 -65zM786 514v143q0 26 -4 66l-303 -412q46 -49 125 -49q89 0 135.5 64t46.5 188z" />
    <glyph glyph-name="ugrave" unicode="&#xf9;" horiz-adv-x="1253" 
d="M1130 41q0 -17 -11.5 -29t-28.5 -12h-230q-17 0 -29 12t-12 29v49q-83 -59 -158.5 -82.5t-175.5 -23.5q-87 0 -151.5 24t-104.5 64.5t-64 102t-33 126.5t-9 148v681q0 17 13 30.5t30 13.5h248q17 0 29 -13t12 -31v-681q0 -110 30 -150.5t121 -40.5q68 0 193 66v806
q0 18 12 31t29 13h247q17 0 30 -13.5t13 -30.5v-1089zM774 1331q0 -14 -18 -14h-213q-7 0 -11.5 1t-10 4.5t-8 5.5t-9.5 9.5t-10 10.5l-209 239q-9 9 -9 17q0 14 23 14h258q19 0 28.5 -6t24.5 -25l156 -235q8 -8 8 -21z" />
    <glyph glyph-name="uacute" unicode="&#xfa;" horiz-adv-x="1253" 
d="M1130 41q0 -17 -11.5 -29t-28.5 -12h-230q-17 0 -29 12t-12 29v49q-83 -59 -158.5 -82.5t-175.5 -23.5q-87 0 -151.5 24t-104.5 64.5t-64 102t-33 126.5t-9 148v681q0 17 13 30.5t30 13.5h248q17 0 29 -13t12 -31v-681q0 -110 30 -150.5t121 -40.5q68 0 193 66v806
q0 18 12 31t29 13h247q17 0 30 -13.5t13 -30.5v-1089zM485 1331q0 12 9 21l155 235q15 19 24.5 25t28.5 6h259q22 0 22 -14q0 -9 -8 -17l-209 -239q-3 -3 -10 -10.5t-9.5 -9.5t-8 -5.5t-10 -4.5t-11.5 -1h-213q-19 0 -19 14z" />
    <glyph glyph-name="ucircumflex" unicode="&#xfb;" horiz-adv-x="1253" 
d="M1130 41q0 -17 -11.5 -29t-28.5 -12h-230q-17 0 -29 12t-12 29v49q-83 -59 -158.5 -82.5t-175.5 -23.5q-87 0 -151.5 24t-104.5 64.5t-64 102t-33 126.5t-9 148v681q0 17 13 30.5t30 13.5h248q17 0 29 -13t12 -31v-681q0 -110 30 -150.5t121 -40.5q68 0 193 66v806
q0 18 12 31t29 13h247q17 0 30 -13.5t13 -30.5v-1089zM1032 1305q0 -15 -18 -15h-211q-19 0 -27 5t-22 20l-129 143l-131 -143q-13 -15 -22 -20t-28 -5h-211q-18 0 -18 15q0 9 8 20l183 240q14 18 24 24t31 6h327q22 0 32 -5.5t24 -24.5l180 -240q8 -11 8 -20z" />
    <glyph glyph-name="udieresis" unicode="&#xfc;" horiz-adv-x="1253" 
d="M1130 41q0 -17 -11.5 -29t-28.5 -12h-230q-17 0 -29 12t-12 29v49q-83 -59 -158.5 -82.5t-175.5 -23.5q-87 0 -151.5 24t-104.5 64.5t-64 102t-33 126.5t-9 148v681q0 17 13 30.5t30 13.5h248q17 0 29 -13t12 -31v-681q0 -110 30 -150.5t121 -40.5q68 0 193 66v806
q0 18 12 31t29 13h247q17 0 30 -13.5t13 -30.5v-1089zM989 1348q0 -17 -13.5 -29t-31.5 -12h-192q-17 0 -30 12t-13 29v190q0 17 13 29t30 12h192q18 0 31.5 -12t13.5 -29v-190zM545 1348q0 -17 -13 -29t-30 -12h-193q-18 0 -31.5 12t-13.5 29v190q0 17 13.5 29t31.5 12h193
q17 0 30 -12t13 -29v-190z" />
    <glyph glyph-name="yacute" unicode="&#xfd;" horiz-adv-x="1212" 
d="M1167 1137q0 -2 -1 -5.5t-1 -5.5l-344 -1206q-20 -71 -42 -120t-56 -92.5t-80.5 -68.5t-113.5 -39t-156 -14q-56 0 -132.5 10.5t-115.5 22.5q-16 6 -22.5 8.5t-13.5 10t-7 18.5v166q0 17 12 28t29 11h4q10 -1 113 -9t143 -8q56 0 86.5 23t48.5 84l19 63h-31q-34 0 -56 5
t-48 23t-47.5 58.5t-39.5 104.5l-270 921q-2 6 -2 15q0 33 41 33h272q14 0 25 -11.5t14 -27.5l185 -770q8 -39 24 -39h2h8h9l190 809q3 16 15 27.5t28 11.5h272q15 0 27 -11t12 -26zM467 1331q0 13 8 21l156 235q15 19 24.5 25t28.5 6h258q23 0 23 -14q0 -8 -9 -17
l-208 -239q-2 -2 -8.5 -9t-8.5 -8.5t-6.5 -5.5t-8 -5t-8 -2t-10.5 -1h-213q-18 0 -18 14z" />
    <glyph glyph-name="thorn" unicode="&#xfe;" horiz-adv-x="1222" 
d="M1137 510q0 -250 -130 -389t-382 -139q-80 0 -170 20v-360q0 -17 -11 -29t-28 -12h-250q-17 0 -30 12t-13 29v1888q0 17 11 29t28 12h254q17 0 28 -12t11 -29v-350q85 10 170 10q241 0 376.5 -138t135.5 -390v-152zM805 510v152q0 253 -180 253q-68 0 -170 -12v-637
q94 -12 170 -12q180 0 180 256z" />
    <glyph glyph-name="ydieresis" unicode="&#xff;" horiz-adv-x="1212" 
d="M1167 1137q0 -2 -1 -5.5t-1 -5.5l-344 -1206q-20 -71 -42 -120t-56 -92.5t-80.5 -68.5t-113.5 -39t-156 -14q-56 0 -132.5 10.5t-115.5 22.5q-16 6 -22.5 8.5t-13.5 10t-7 18.5v166q0 17 12 28t29 11h4q10 -1 113 -9t143 -8q56 0 86.5 23t48.5 84l19 63h-31q-34 0 -56 5
t-48 23t-47.5 58.5t-39.5 104.5l-270 921q-2 6 -2 15q0 33 41 33h272q14 0 25 -11.5t14 -27.5l185 -770q8 -39 24 -39h2h8h9l190 809q3 16 15 27.5t28 11.5h272q15 0 27 -11t12 -26zM975 1348q0 -17 -13.5 -29t-31.5 -12h-193q-17 0 -30 12t-13 29v190q0 17 13 29t30 12h193
q18 0 31.5 -12t13.5 -29v-190zM530 1348q0 -17 -13 -29t-30 -12h-192q-18 0 -31.5 12t-13.5 29v190q0 17 13.5 29t31.5 12h192q17 0 30 -12t13 -29v-190z" />
    <glyph glyph-name="Amacron" unicode="&#x100;" horiz-adv-x="1370" 
d="M1331 33q0 -15 -10 -24t-25 -9h-286q-15 0 -26.5 11t-14.5 26l-74 336h-420l-74 -336q-3 -15 -14.5 -26t-26.5 -11h-286q-15 0 -25 9t-10 24q0 1 1 4.5t1 5.5l305 1270q17 71 52 118t84 69.5t96.5 31t107.5 8.5t107 -8.5t96 -31t83.5 -69.5t51.5 -118l305 -1270
q0 -2 1 -5.5t1 -4.5zM838 653l-125 566q-3 16 -8.5 23t-18.5 7q-23 0 -29 -30l-125 -566h306zM1053 1712q0 -17 -12 -28t-29 -11h-664q-17 0 -29 11t-12 28v148q0 17 11.5 27.5t29.5 10.5h664q18 0 29.5 -10.5t11.5 -27.5v-148z" />
    <glyph glyph-name="amacron" unicode="&#x101;" horiz-adv-x="1150" 
d="M1028 41q0 -17 -12 -29t-29 -12h-229q-17 0 -29 12t-12 29v33q-65 -46 -131.5 -69t-153.5 -23q-71 0 -130.5 18t-110.5 57.5t-80 110t-29 166.5v18q0 180 121 263t383 83h110v74q0 83 -37 112t-116 29q-193 0 -340 -14h-10q-37 0 -37 37v166q0 36 39 45q182 43 354 43
q479 0 479 -418v-731zM702 276v226h-116q-103 0 -141.5 -35.5t-38.5 -114.5v-18q0 -61 30 -82t99 -21q79 0 167 45zM948 1376q0 -17 -12 -28t-29 -11h-663q-17 0 -29 11t-12 28v148q0 17 12 28t29 11h663q17 0 29 -11t12 -28v-148z" />
    <glyph glyph-name="Abreve" unicode="&#x102;" horiz-adv-x="1370" 
d="M1331 33q0 -15 -10 -24t-25 -9h-286q-15 0 -26.5 11t-14.5 26l-74 336h-420l-74 -336q-3 -15 -14.5 -26t-26.5 -11h-286q-15 0 -25 9t-10 24q0 1 1 4.5t1 5.5l305 1270q17 71 52 118t84 69.5t96.5 31t107.5 8.5t107 -8.5t96 -31t83.5 -69.5t51.5 -118l305 -1270
q0 -2 1 -5.5t1 -4.5zM838 653l-125 566q-3 16 -8.5 23t-18.5 7q-23 0 -29 -30l-125 -566h306zM1030 1892v-10q-17 -254 -346 -254q-158 0 -252.5 61.5t-103.5 192.5v10q0 11 8 19t20 8h179q16 0 22 -8.5t6 -26.5q13 -80 121 -80q106 0 119 80q0 18 6 26.5t22 8.5h179
q20 0 20 -27z" />
    <glyph glyph-name="abreve" unicode="&#x103;" horiz-adv-x="1150" 
d="M1028 41q0 -17 -12 -29t-29 -12h-229q-17 0 -29 12t-12 29v33q-65 -46 -131.5 -69t-153.5 -23q-71 0 -130.5 18t-110.5 57.5t-80 110t-29 166.5v18q0 180 121 263t383 83h110v74q0 83 -37 112t-116 29q-193 0 -340 -14h-10q-37 0 -37 37v166q0 36 39 45q182 43 354 43
q479 0 479 -418v-731zM702 276v226h-116q-103 0 -141.5 -35.5t-38.5 -114.5v-18q0 -61 30 -82t99 -21q79 0 167 45zM924 1550v-10q-17 -254 -346 -254q-158 0 -253 61.5t-104 192.5v10q0 11 8.5 19t20.5 8h178q17 0 23 -8.5t6 -26.5q13 -80 121 -80q105 0 118 80
q0 18 6 26.5t23 8.5h178q21 0 21 -27z" />
    <glyph glyph-name="Aogonek" unicode="&#x104;" horiz-adv-x="1370" 
d="M895 373h-420l-74 -336q-3 -15 -14.5 -26t-26.5 -11h-286q-15 0 -25 9t-10 24q0 1 1 4.5t1 5.5l305 1270q17 71 52 118t84 69.5t96.5 31t107.5 8.5t107 -8.5t96 -31t83.5 -69.5t51.5 -118l305 -1270q2 -8 2 -18q0 -13 -20 -23l-172 -78q-54 -24 -54 -61q0 -30 19.5 -43
t64.5 -13q29 0 79.5 9.5t58.5 9.5q13 0 16.5 -4.5t3.5 -20.5v-155q0 -11 -4 -17.5t-18 -13.5q-32 -13 -100 -27t-142 -14q-55 0 -102.5 10t-88 32t-63.5 62t-23 95q0 72 33.5 121.5t112.5 95.5l41 24zM838 653l-125 566q-3 16 -8.5 23t-18.5 7q-23 0 -29 -30l-125 -566h306z
" />
    <glyph glyph-name="aogonek" unicode="&#x105;" horiz-adv-x="1150" 
d="M1006 4l-99 -65q-30 -19 -41.5 -35t-11.5 -39q0 -43 57 -43q17 0 49 5t44 5q14 0 19 -5t5 -20v-153q0 -22 -22 -33q-68 -33 -183 -33q-55 0 -101 10t-84.5 32t-60.5 62t-22 95q0 71 33 119t112 98l17 10v60q-65 -46 -131.5 -69t-153.5 -23q-71 0 -130.5 18t-110.5 57.5
t-80 110t-29 166.5v18q0 180 121 263t383 83h110v74q0 83 -37 112t-116 29q-193 0 -340 -14h-10q-37 0 -37 37v166q0 36 39 45q182 43 354 43q479 0 479 -418v-731q0 -14 -4.5 -21t-17.5 -16zM702 276v226h-116q-103 0 -141.5 -35.5t-38.5 -114.5v-18q0 -61 30 -82t99 -21
q79 0 167 45z" />
    <glyph glyph-name="Cacute" unicode="&#x106;" horiz-adv-x="1148" 
d="M1065 63q0 -21 -10.5 -30.5t-34.5 -16.5q-38 -12 -122.5 -23t-182.5 -11q-97 0 -183 20.5t-164.5 69t-135 121.5t-90 185.5t-33.5 254.5v258q0 142 33.5 254t90 185t135.5 121t164.5 68.5t182.5 20.5t181.5 -11t123.5 -24q24 -7 34.5 -16t10.5 -29v-198q0 -41 -39 -41h-6
q-208 16 -303 16q-56 0 -99.5 -16.5t-79.5 -54t-55.5 -107t-19.5 -168.5v-258q0 -99 19.5 -168.5t55.5 -107t79.5 -54t99.5 -16.5q95 0 303 16h6q39 0 39 -41v-199zM987 1917q0 -8 -8 -16l-250 -250q-2 -2 -4.5 -5t-4 -4t-4 -3.5t-4 -3.5t-4 -2.5t-4.5 -2.5t-4.5 -2t-5.5 -1
t-6.5 -0.5t-7.5 -0.5h-219q-19 0 -19 14q0 9 9 21l190 240q14 18 24 24t31 6h269q22 0 22 -14z" />
    <glyph glyph-name="cacute" unicode="&#x107;" horiz-adv-x="970" 
d="M885 59q0 -22 -9 -31.5t-34 -15.5q-122 -30 -273 -30q-220 0 -348.5 135.5t-128.5 382.5v172q0 247 128.5 382.5t348.5 135.5q147 0 273 -31q25 -6 34 -15.5t9 -31.5v-182q0 -15 -12 -25t-27 -10h-4q-133 14 -250 14q-168 0 -168 -237v-172q0 -238 168 -238q117 0 250 14
h4q16 0 27.5 -9.5t11.5 -24.5v-183zM874 1581q0 -8 -8 -16l-250 -250q-2 -2 -4.5 -5t-4 -4t-4 -3.5t-4 -3.5t-4 -2.5t-4.5 -2.5t-4.5 -2t-5.5 -1t-6.5 -0.5t-7.5 -0.5h-219q-18 0 -18 15q0 9 8 20l190 240q14 18 24.5 24t31.5 6h268q22 0 22 -14z" />
    <glyph glyph-name="Ccircumflex" unicode="&#x108;" horiz-adv-x="1148" 
d="M1065 63q0 -21 -10.5 -30.5t-34.5 -16.5q-38 -12 -122.5 -23t-182.5 -11q-97 0 -183 20.5t-164.5 69t-135 121.5t-90 185.5t-33.5 254.5v258q0 142 33.5 254t90 185t135.5 121t164.5 68.5t182.5 20.5t181.5 -11t123.5 -24q24 -7 34.5 -16t10.5 -29v-198q0 -41 -39 -41h-6
q-208 16 -303 16q-56 0 -99.5 -16.5t-79.5 -54t-55.5 -107t-19.5 -168.5v-258q0 -99 19.5 -168.5t55.5 -107t79.5 -54t99.5 -16.5q95 0 303 16h6q39 0 39 -41v-199zM1020 1642q0 -14 -19 -14h-210q-19 0 -28 5t-22 20l-129 143l-131 -143q-10 -11 -14.5 -15t-13 -7t-21.5 -3
h-211q-18 0 -18 14q0 10 8 21l182 240q14 18 24.5 24t31.5 6h327q22 0 31.5 -5.5t23.5 -24.5l181 -240q8 -11 8 -21z" />
    <glyph glyph-name="ccircumflex" unicode="&#x109;" horiz-adv-x="970" 
d="M885 59q0 -22 -9 -31.5t-34 -15.5q-122 -30 -273 -30q-220 0 -348.5 135.5t-128.5 382.5v172q0 247 128.5 382.5t348.5 135.5q147 0 273 -31q25 -6 34 -15.5t9 -31.5v-182q0 -15 -12 -25t-27 -10h-4q-133 14 -250 14q-168 0 -168 -237v-172q0 -238 168 -238q117 0 250 14
h4q16 0 27.5 -9.5t11.5 -24.5v-183zM911 1305q0 -15 -18 -15h-211q-19 0 -27 5t-22 20l-129 143l-131 -143q-10 -11 -14.5 -15t-13 -7t-21.5 -3h-211q-19 0 -19 15q0 9 8 20l183 240q14 18 24 24t31 6h328q22 0 31.5 -5.5t23.5 -24.5l180 -240q8 -11 8 -20z" />
    <glyph glyph-name="Cdotaccent" unicode="&#x10a;" horiz-adv-x="1148" 
d="M1065 63q0 -21 -10.5 -30.5t-34.5 -16.5q-38 -12 -122.5 -23t-182.5 -11q-97 0 -183 20.5t-164.5 69t-135 121.5t-90 185.5t-33.5 254.5v258q0 142 33.5 254t90 185t135.5 121t164.5 68.5t182.5 20.5t181.5 -11t123.5 -24q24 -7 34.5 -16t10.5 -29v-198q0 -41 -39 -41h-6
q-208 16 -303 16q-56 0 -99.5 -16.5t-79.5 -54t-55.5 -107t-19.5 -168.5v-258q0 -99 19.5 -168.5t55.5 -107t79.5 -54t99.5 -16.5q95 0 303 16h6q39 0 39 -41v-199zM823 1681q0 -17 -12 -29t-29 -12h-266q-17 0 -29 12t-12 29v191q0 17 12 29t29 12h266q17 0 29 -12t12 -29
v-191z" />
    <glyph glyph-name="cdotaccent" unicode="&#x10b;" horiz-adv-x="970" 
d="M885 59q0 -22 -9 -31.5t-34 -15.5q-122 -30 -273 -30q-220 0 -348.5 135.5t-128.5 382.5v172q0 247 128.5 382.5t348.5 135.5q147 0 273 -31q25 -6 34 -15.5t9 -31.5v-182q0 -15 -12 -25t-27 -10h-4q-133 14 -250 14q-168 0 -168 -237v-172q0 -238 168 -238q117 0 250 14
h4q16 0 27.5 -9.5t11.5 -24.5v-183zM715 1348q0 -17 -12 -29t-29 -12h-266q-17 0 -29 12t-12 29v190q0 17 12 29t29 12h266q17 0 29 -12t12 -29v-190z" />
    <glyph glyph-name="Ccaron" unicode="&#x10c;" horiz-adv-x="1148" 
d="M1065 63q0 -21 -10.5 -30.5t-34.5 -16.5q-38 -12 -122.5 -23t-182.5 -11q-97 0 -183 20.5t-164.5 69t-135 121.5t-90 185.5t-33.5 254.5v258q0 142 33.5 254t90 185t135.5 121t164.5 68.5t182.5 20.5t181.5 -11t123.5 -24q24 -7 34.5 -16t10.5 -29v-198q0 -41 -39 -41h-6
q-208 16 -303 16q-56 0 -99.5 -16.5t-79.5 -54t-55.5 -107t-19.5 -168.5v-258q0 -99 19.5 -168.5t55.5 -107t79.5 -54t99.5 -16.5q95 0 303 16h6q39 0 39 -41v-199zM1053 1917q0 -9 -9 -21l-182 -239q-15 -19 -24.5 -25t-30.5 -6h-328q-21 0 -31 6t-24 25l-180 239
q-8 11 -8 21q0 14 18 14h211q19 0 27.5 -4.5t21.5 -19.5l129 -144l131 144q13 15 21.5 19.5t27.5 4.5h211q19 0 19 -14z" />
    <glyph glyph-name="ccaron" unicode="&#x10d;" horiz-adv-x="970" 
d="M885 59q0 -22 -9 -31.5t-34 -15.5q-122 -30 -273 -30q-220 0 -348.5 135.5t-128.5 382.5v172q0 247 128.5 382.5t348.5 135.5q147 0 273 -31q25 -6 34 -15.5t9 -31.5v-182q0 -15 -12 -25t-27 -10h-4q-133 14 -250 14q-168 0 -168 -237v-172q0 -238 168 -238q117 0 250 14
h4q16 0 27.5 -9.5t11.5 -24.5v-183zM940 1581q0 -9 -8 -20l-182 -240q-14 -18 -24.5 -24.5t-31.5 -6.5h-327q-21 0 -31.5 6t-24.5 25l-180 240q-8 11 -8 20q0 14 18 14h211q19 0 27.5 -4.5t21.5 -19.5l129 -144l132 144q13 15 21.5 19.5t27.5 4.5h211q18 0 18 -14z" />
    <glyph glyph-name="Dcaron" unicode="&#x10e;" horiz-adv-x="1396" 
d="M1292 629q0 -319 -171 -483t-482 -164q-256 0 -436 30q-60 9 -60 72v1354q0 34 14.5 50t45.5 21q186 31 436 31q311 0 482 -164t171 -483v-264zM942 629v264q0 81 -14 142t-39 100.5t-64 63.5t-83.5 34t-102.5 10q-87 0 -145 -4v-956q58 -4 145 -4q58 0 102.5 10t83.5 34
t64 63.5t39 100.5t14 142zM1108 1917q0 -10 -8 -21l-182 -239q-14 -18 -24.5 -24.5t-31.5 -6.5h-327q-21 0 -31.5 6t-24.5 25l-180 239q-8 11 -8 21q0 14 18 14h211q19 0 27.5 -4.5t21.5 -19.5l129 -144l131 144q13 15 22 19.5t28 4.5h211q18 0 18 -14z" />
    <glyph glyph-name="dcaron" unicode="&#x10f;" horiz-adv-x="1548" 
d="M1599 1548q0 -4 -4 -16l-153 -449q-8 -21 -16.5 -30t-22.5 -9h-207q-18 0 -18 21q0 12 2 18l110 449q8 39 41 39h244q24 0 24 -23zM1100 94q0 -26 -12 -38t-52 -21q-214 -53 -436 -53q-248 0 -381 137t-133 387v160q0 247 130 385.5t384 138.5q65 0 168 -14v354
q0 17 12 29t29 12h248q17 0 30 -12t13 -29v-1436zM768 266v639q-82 10 -168 10q-53 0 -89.5 -18t-56 -53t-28 -78t-8.5 -100v-160q0 -120 40 -186t142 -66q90 0 168 12z" />
    <glyph glyph-name="Dcroat" unicode="&#x110;" horiz-adv-x="1396" 
d="M1292 657q0 -177 -47 -308.5t-135 -211t-205 -117.5t-266 -38q-259 0 -444 32q-60 9 -60 72v539h-72q-17 0 -27.5 11t-10.5 28v194q0 17 10.5 28t27.5 11h72v539q0 34 14.5 50t45.5 21q194 33 444 33q149 0 266 -38t205 -117.5t135 -211t47 -309.5v-207zM936 657v207
q0 107 -19 180.5t-58.5 115.5t-92.5 59.5t-127 17.5q-90 0 -152 -4v-336h187q17 0 28 -11t11 -28v-194q0 -17 -11 -28t-28 -11h-187v-338q31 -2 152 -2q74 0 127 18t92.5 59.5t58.5 114.5t19 180z" />
    <glyph glyph-name="dcroat" unicode="&#x111;" horiz-adv-x="1222" 
d="M492 1470h276v60q0 17 12 29t29 12h248q17 0 30 -12t13 -29v-60h84q17 0 28 -10.5t11 -27.5v-127q0 -17 -11 -28t-28 -11h-84v-1172q0 -26 -12 -38t-52 -21q-214 -53 -436 -53q-248 0 -381 137t-133 387v160q0 247 130 385.5t384 138.5q65 0 168 -14v90h-276
q-17 0 -28 11t-11 28v127q0 17 11 27.5t28 10.5zM768 266v639q-82 10 -168 10q-53 0 -89.5 -18t-56 -53t-28 -78t-8.5 -100v-160q0 -120 40 -186t142 -66q90 0 168 12z" />
    <glyph glyph-name="Emacron" unicode="&#x112;" horiz-adv-x="1187" 
d="M1073 51q0 -20 -9.5 -30t-31.5 -13q-187 -26 -397 -26q-61 0 -111.5 4.5t-102.5 17.5t-93 33.5t-78 54.5t-61 79.5t-38 109t-14 141.5v680q0 91 18 162t53.5 118t79 79t103 48.5t117.5 23.5t129 7q201 0 395 -27q22 -3 31.5 -11.5t9.5 -28.5v-191q0 -17 -12 -29t-29 -12
h-416q-73 0 -102 -30t-29 -109v-187h531q17 0 29 -12t12 -29v-194q0 -17 -12 -29t-29 -12h-531v-217q0 -79 29 -109t102 -30h416q17 0 29 -12t12 -29v-191zM995 1712q0 -17 -12 -28t-29 -11h-663q-17 0 -29 11t-12 28v148q0 17 11.5 27.5t29.5 10.5h663q18 0 29.5 -10.5
t11.5 -27.5v-148z" />
    <glyph glyph-name="emacron" unicode="&#x113;" horiz-adv-x="1208" 
d="M1116 532q0 -49 -43 -49h-653v-4q0 -46 10.5 -84.5t34 -70.5t65.5 -50t101 -18q209 0 393 18h6q39 0 39 -32v-156q0 -26 -8.5 -37.5t-34.5 -17.5q-195 -49 -420 -49q-78 0 -149 16.5t-138.5 55.5t-117 98t-79.5 150.5t-30 205.5v143q0 249 137.5 394t380.5 145
q163 0 279 -71t171.5 -191t55.5 -277v-119zM793 688v8q0 112 -48.5 170t-136.5 58q-87 0 -137.5 -59t-50.5 -169v-8h373zM977 1376q0 -17 -12 -28t-29 -11h-664q-17 0 -29 11t-12 28v148q0 17 12 28t29 11h664q17 0 29 -11t12 -28v-148z" />
    <glyph glyph-name="Ebreve" unicode="&#x114;" horiz-adv-x="1187" 
d="M1073 51q0 -20 -9.5 -30t-31.5 -13q-187 -26 -397 -26q-61 0 -111.5 4.5t-102.5 17.5t-93 33.5t-78 54.5t-61 79.5t-38 109t-14 141.5v680q0 91 18 162t53.5 118t79 79t103 48.5t117.5 23.5t129 7q201 0 395 -27q22 -3 31.5 -11.5t9.5 -28.5v-191q0 -17 -12 -29t-29 -12
h-416q-73 0 -102 -30t-29 -109v-187h531q17 0 29 -12t12 -29v-194q0 -17 -12 -29t-29 -12h-531v-217q0 -79 29 -109t102 -30h416q17 0 29 -12t12 -29v-191zM1028 1935q0 -1 -1 -3.5t-1 -4.5q-32 -133 -127 -215t-252 -82t-252 82t-127 215q0 2 -1 4.5t-1 3.5q0 15 21 15h178
q21 0 27 -25q31 -117 155 -117q125 0 156 117q3 10 4.5 14t6.5 7.5t15 3.5h179q20 0 20 -15z" />
    <glyph glyph-name="ebreve" unicode="&#x115;" horiz-adv-x="1208" 
d="M1116 532q0 -49 -43 -49h-653v-4q0 -46 10.5 -84.5t34 -70.5t65.5 -50t101 -18q209 0 393 18h6q39 0 39 -32v-156q0 -26 -8.5 -37.5t-34.5 -17.5q-195 -49 -420 -49q-78 0 -149 16.5t-138.5 55.5t-117 98t-79.5 150.5t-30 205.5v143q0 249 137.5 394t380.5 145
q163 0 279 -71t171.5 -191t55.5 -277v-119zM793 688v8q0 112 -48.5 170t-136.5 58q-87 0 -137.5 -59t-50.5 -169v-8h373zM989 1581q0 -1 -1 -3.5t-1 -4.5q-32 -133 -127 -215t-252 -82t-252 82t-127 215q0 2 -1 4.5t-1 3.5q0 14 21 14h178q21 0 27 -24q31 -117 155 -117
q125 0 156 117q3 14 8 19t19 5h178q20 0 20 -14z" />
    <glyph glyph-name="Edotaccent" unicode="&#x116;" horiz-adv-x="1187" 
d="M1073 51q0 -20 -9.5 -30t-31.5 -13q-187 -26 -397 -26q-61 0 -111.5 4.5t-102.5 17.5t-93 33.5t-78 54.5t-61 79.5t-38 109t-14 141.5v680q0 91 18 162t53.5 118t79 79t103 48.5t117.5 23.5t129 7q201 0 395 -27q22 -3 31.5 -11.5t9.5 -28.5v-191q0 -17 -12 -29t-29 -12
h-416q-73 0 -102 -30t-29 -109v-187h531q17 0 29 -12t12 -29v-194q0 -17 -12 -29t-29 -12h-531v-217q0 -79 29 -109t102 -30h416q17 0 29 -12t12 -29v-191zM795 1683q0 -17 -12 -29t-29 -12h-267q-17 0 -29 12t-12 29v191q0 17 12 29t29 12h267q17 0 29 -12t12 -29v-191z
" />
    <glyph glyph-name="edotaccent" unicode="&#x117;" horiz-adv-x="1208" 
d="M1116 532q0 -49 -43 -49h-653v-4q0 -46 10.5 -84.5t34 -70.5t65.5 -50t101 -18q209 0 393 18h6q39 0 39 -32v-156q0 -26 -8.5 -37.5t-34.5 -17.5q-195 -49 -420 -49q-78 0 -149 16.5t-138.5 55.5t-117 98t-79.5 150.5t-30 205.5v143q0 249 137.5 394t380.5 145
q163 0 279 -71t171.5 -191t55.5 -277v-119zM793 688v8q0 112 -48.5 170t-136.5 58q-87 0 -137.5 -59t-50.5 -169v-8h373zM776 1348q0 -17 -12 -29t-29 -12h-266q-17 0 -29 12t-12 29v190q0 17 12 29t29 12h266q17 0 29 -12t12 -29v-190z" />
    <glyph glyph-name="Eogonek" unicode="&#x118;" horiz-adv-x="1187" 
d="M1073 51q0 -20 -9.5 -30t-31.5 -13q-6 -1 -25 -4t-30 -4l-92 -61q-18 -11 -27.5 -18.5t-18 -19t-8.5 -24.5q0 -30 19.5 -42.5t64.5 -12.5q29 0 79.5 9t58.5 9q13 0 16.5 -4.5t3.5 -19.5v-156q0 -11 -4 -17.5t-18 -13.5q-32 -13 -100 -27t-142 -14q-55 0 -102.5 10t-88 32
t-63.5 62t-23 95q0 64 25 110t84 85h-6q-61 0 -111.5 4.5t-102.5 17.5t-93 33.5t-78 54.5t-61 79.5t-38 109t-14 141.5v680q0 91 18 162t53.5 118t79 79t103 48.5t117.5 23.5t129 7q201 0 395 -27q22 -3 31.5 -11.5t9.5 -28.5v-191q0 -17 -12 -29t-29 -12h-416
q-73 0 -102 -30t-29 -109v-187h531q17 0 29 -12t12 -29v-194q0 -17 -12 -29t-29 -12h-531v-217q0 -79 29 -109t102 -30h416q17 0 29 -12t12 -29v-191z" />
    <glyph glyph-name="eogonek" unicode="&#x119;" horiz-adv-x="1208" 
d="M1069 -340q0 -11 -4 -17.5t-18 -13.5q-32 -13 -100 -27t-142 -14q-55 0 -102.5 10t-88 32t-63.5 62t-23 95q0 62 28 108.5t89 86.5h-39q-78 0 -149 16.5t-138.5 55.5t-117 98t-79.5 150.5t-30 205.5v143q0 249 137.5 394t380.5 145q163 0 279 -71t171.5 -191t55.5 -277
v-119q0 -49 -43 -49h-653v-4q0 -46 10.5 -84.5t34 -70.5t65.5 -50t101 -18q209 0 393 18h6q39 0 39 -32v-156q0 -35 -18 -45l-170 -102q-18 -11 -27.5 -18.5t-18 -19t-8.5 -24.5q0 -55 70 -55q38 0 92 9t60 9q13 0 16.5 -4.5t3.5 -19.5v-156zM793 688v8q0 112 -48.5 170
t-136.5 58q-87 0 -137.5 -59t-50.5 -169v-8h373z" />
    <glyph glyph-name="Ecaron" unicode="&#x11a;" horiz-adv-x="1187" 
d="M1073 51q0 -20 -9.5 -30t-31.5 -13q-187 -26 -397 -26q-61 0 -111.5 4.5t-102.5 17.5t-93 33.5t-78 54.5t-61 79.5t-38 109t-14 141.5v680q0 91 18 162t53.5 118t79 79t103 48.5t117.5 23.5t129 7q201 0 395 -27q22 -3 31.5 -11.5t9.5 -28.5v-191q0 -17 -12 -29t-29 -12
h-416q-73 0 -102 -30t-29 -109v-187h531q17 0 29 -12t12 -29v-194q0 -17 -12 -29t-29 -12h-531v-217q0 -79 29 -109t102 -30h416q17 0 29 -12t12 -29v-191zM1004 1917q0 -9 -9 -21l-182 -239q-15 -19 -24.5 -25t-30.5 -6h-328q-21 0 -31 6t-24 25l-180 239q-9 12 -9 21
q0 14 19 14h211q19 0 27.5 -4.5t21.5 -19.5l129 -144l131 144q13 15 21.5 19.5t27.5 4.5h211q19 0 19 -14z" />
    <glyph glyph-name="ecaron" unicode="&#x11b;" horiz-adv-x="1208" 
d="M1116 532q0 -49 -43 -49h-653v-4q0 -46 10.5 -84.5t34 -70.5t65.5 -50t101 -18q209 0 393 18h6q39 0 39 -32v-156q0 -26 -8.5 -37.5t-34.5 -17.5q-195 -49 -420 -49q-78 0 -149 16.5t-138.5 55.5t-117 98t-79.5 150.5t-30 205.5v143q0 249 137.5 394t380.5 145
q163 0 279 -71t171.5 -191t55.5 -277v-119zM793 688v8q0 112 -48.5 170t-136.5 58q-87 0 -137.5 -59t-50.5 -169v-8h373zM1014 1581q0 -9 -8 -20l-183 -240q-15 -19 -24.5 -25t-30.5 -6h-328q-21 0 -31 6t-24 25l-180 240q-8 11 -8 20q0 14 18 14h211q19 0 27.5 -4.5
t21.5 -19.5l129 -144l131 144q13 15 21.5 19.5t27.5 4.5h211q19 0 19 -14z" />
    <glyph glyph-name="Gcircumflex" unicode="&#x11c;" 
d="M1188 1245q0 -16 -7.5 -21t-23.5 -5h-6q-24 1 -106.5 5.5t-162 7.5t-157.5 3q-133 0 -200.5 -78t-67.5 -270v-256q0 -101 21 -173t56.5 -108t72.5 -51.5t79 -15.5q84 0 158 6v471q0 17 11 29t28 12h262q17 0 29 -12t12 -29v-688q0 -22 -9 -32.5t-32 -14.5
q-208 -43 -459 -43q-76 0 -151 17.5t-155 63.5t-140 116.5t-99 187.5t-39 266v254q0 151 37 268t96.5 188t142.5 117t167.5 63t179.5 17q205 0 428 -47q35 -7 35 -31v-217zM1094 1642q0 -14 -19 -14h-211q-19 0 -27 5t-22 20l-129 143l-131 -143q-10 -11 -14.5 -15t-13 -7
t-21.5 -3h-211q-19 0 -19 14q0 9 9 21l182 240q14 18 24 24t31 6h328q22 0 31.5 -5.5t23.5 -24.5l180 -240q9 -12 9 -21z" />
    <glyph glyph-name="gcircumflex" unicode="&#x11d;" horiz-adv-x="1226" 
d="M1182 1004q0 -21 -8.5 -30.5t-28.5 -15.5l-64 -20q19 -28 32 -72t13 -80v-16q0 -383 -505 -383q-134 0 -213 31q-29 -18 -29 -47q0 -25 12.5 -38t48.5 -20l232 -51q96 -21 160 -38t122 -38.5t92 -44t59.5 -53.5t35.5 -68.5t10 -87.5v-16q0 -169 -133.5 -251.5
t-403.5 -82.5q-254 0 -387 86t-133 248v16q0 135 123 230q-52 29 -78 81.5t-26 108.5q0 102 90 174q-46 40 -70 108t-24 136v16q0 181 126.5 284.5t385.5 103.5h509q22 0 37 -16t15 -38v-116zM803 770v16q0 70 -40.5 109t-141.5 39q-187 0 -187 -148v-16q0 -143 187 -143
q102 0 142 36t40 107zM813 -84v16q0 22 -13.5 36.5t-61 32.5t-136.5 38l-151 33q-41 -57 -41 -140v-16q0 -55 44.5 -79.5t159.5 -24.5q117 0 158 26t41 78zM1026 1305q0 -15 -18 -15h-211q-19 0 -27 5t-22 20l-130 143l-131 -143q-10 -11 -14.5 -15t-13 -7t-21.5 -3h-211
q-18 0 -18 15q0 9 8 20l182 240q14 18 24.5 24t31.5 6h327q22 0 32 -5.5t24 -24.5l180 -240q8 -11 8 -20z" />
    <glyph glyph-name="Gbreve" unicode="&#x11e;" 
d="M1188 1245q0 -16 -7.5 -21t-23.5 -5h-6q-24 1 -106.5 5.5t-162 7.5t-157.5 3q-133 0 -200.5 -78t-67.5 -270v-256q0 -101 21 -173t56.5 -108t72.5 -51.5t79 -15.5q84 0 158 6v471q0 17 11 29t28 12h262q17 0 29 -12t12 -29v-688q0 -22 -9 -32.5t-32 -14.5
q-208 -43 -459 -43q-76 0 -151 17.5t-155 63.5t-140 116.5t-99 187.5t-39 266v254q0 151 37 268t96.5 188t142.5 117t167.5 63t179.5 17q205 0 428 -47q35 -7 35 -31v-217zM1042 1917q0 -1 -1 -3.5t-1 -4.5q-32 -133 -126.5 -215t-251.5 -82t-252 82t-127 215q0 2 -1 4.5
t-1 3.5q0 14 20 14h178q21 0 27 -24q31 -117 156 -117q124 0 155 117q3 14 8 19t19 5h178q20 0 20 -14z" />
    <glyph glyph-name="gbreve" unicode="&#x11f;" horiz-adv-x="1226" 
d="M1182 1004q0 -21 -8.5 -30.5t-28.5 -15.5l-64 -20q19 -28 32 -72t13 -80v-16q0 -383 -505 -383q-134 0 -213 31q-29 -18 -29 -47q0 -25 12.5 -38t48.5 -20l232 -51q96 -21 160 -38t122 -38.5t92 -44t59.5 -53.5t35.5 -68.5t10 -87.5v-16q0 -169 -133.5 -251.5
t-403.5 -82.5q-254 0 -387 86t-133 248v16q0 135 123 230q-52 29 -78 81.5t-26 108.5q0 102 90 174q-46 40 -70 108t-24 136v16q0 181 126.5 284.5t385.5 103.5h509q22 0 37 -16t15 -38v-116zM803 770v16q0 70 -40.5 109t-141.5 39q-187 0 -187 -148v-16q0 -143 187 -143
q102 0 142 36t40 107zM813 -84v16q0 22 -13.5 36.5t-61 32.5t-136.5 38l-151 33q-41 -57 -41 -140v-16q0 -55 44.5 -79.5t159.5 -24.5q117 0 158 26t41 78zM995 1581q0 -1 -1 -3.5t-1 -4.5q-32 -133 -127 -215t-252 -82t-251.5 82t-126.5 215q0 2 -1.5 4.5t-1.5 3.5
q0 14 21 14h178q21 0 27 -24q31 -117 155 -117q125 0 156 117q3 14 8 19t19 5h178q20 0 20 -14z" />
    <glyph glyph-name="Gdotaccent" unicode="&#x120;" 
d="M1188 1245q0 -16 -7.5 -21t-23.5 -5h-6q-24 1 -106.5 5.5t-162 7.5t-157.5 3q-133 0 -200.5 -78t-67.5 -270v-256q0 -101 21 -173t56.5 -108t72.5 -51.5t79 -15.5q84 0 158 6v471q0 17 11 29t28 12h262q17 0 29 -12t12 -29v-688q0 -22 -9 -32.5t-32 -14.5
q-208 -43 -459 -43q-76 0 -151 17.5t-155 63.5t-140 116.5t-99 187.5t-39 266v254q0 151 37 268t96.5 188t142.5 117t167.5 63t179.5 17q205 0 428 -47q35 -7 35 -31v-217zM877 1681q0 -17 -12 -29t-29 -12h-267q-17 0 -29 12t-12 29v191q0 17 12 29t29 12h267q17 0 29 -12
t12 -29v-191z" />
    <glyph glyph-name="gdotaccent" unicode="&#x121;" horiz-adv-x="1226" 
d="M1182 1004q0 -21 -8.5 -30.5t-28.5 -15.5l-64 -20q19 -28 32 -72t13 -80v-16q0 -383 -505 -383q-134 0 -213 31q-29 -18 -29 -47q0 -25 12.5 -38t48.5 -20l232 -51q96 -21 160 -38t122 -38.5t92 -44t59.5 -53.5t35.5 -68.5t10 -87.5v-16q0 -169 -133.5 -251.5
t-403.5 -82.5q-254 0 -387 86t-133 248v16q0 135 123 230q-52 29 -78 81.5t-26 108.5q0 102 90 174q-46 40 -70 108t-24 136v16q0 181 126.5 284.5t385.5 103.5h509q22 0 37 -16t15 -38v-116zM803 770v16q0 70 -40.5 109t-141.5 39q-187 0 -187 -148v-16q0 -143 187 -143
q102 0 142 36t40 107zM813 -84v16q0 22 -13.5 36.5t-61 32.5t-136.5 38l-151 33q-41 -57 -41 -140v-16q0 -55 44.5 -79.5t159.5 -24.5q117 0 158 26t41 78zM791 1348q0 -17 -12 -29t-29 -12h-267q-17 0 -29 12t-12 29v190q0 17 12 29t29 12h267q17 0 29 -12t12 -29v-190z
" />
    <glyph glyph-name="Gcommaaccent" unicode="&#x122;" 
d="M1188 1245q0 -16 -7.5 -21t-23.5 -5h-6q-24 1 -106.5 5.5t-162 7.5t-157.5 3q-133 0 -200.5 -78t-67.5 -270v-256q0 -101 21 -173t56.5 -108t72.5 -51.5t79 -15.5q84 0 158 6v471q0 17 11 29t28 12h262q17 0 29 -12t12 -29v-688q0 -22 -9 -32.5t-32 -14.5
q-208 -43 -459 -43q-76 0 -151 17.5t-155 63.5t-140 116.5t-99 187.5t-39 266v254q0 151 37 268t96.5 188t142.5 117t167.5 63t179.5 17q205 0 428 -47q35 -7 35 -31v-217zM780 -78q46 0 27 -39l-141 -241q-16 -26 -25 -33.5t-27 -7.5h-153q-14 0 -21.5 10t-1.5 31l62 241
q9 39 41 39h239z" />
    <glyph glyph-name="gcommaaccent" unicode="&#x123;" horiz-adv-x="1226" 
d="M1182 1004q0 -21 -8.5 -30.5t-28.5 -15.5l-64 -20q19 -28 32 -72t13 -80v-16q0 -383 -505 -383q-134 0 -213 31q-29 -18 -29 -47q0 -25 12.5 -38t48.5 -20l232 -51q96 -21 160 -38t122 -38.5t92 -44t59.5 -53.5t35.5 -68.5t10 -87.5v-16q0 -169 -133.5 -251.5
t-403.5 -82.5q-254 0 -387 86t-133 248v16q0 135 123 230q-52 29 -78 81.5t-26 108.5q0 102 90 174q-46 40 -70 108t-24 136v16q0 181 126.5 284.5t385.5 103.5h509q22 0 37 -16t15 -38v-116zM803 770v16q0 70 -40.5 109t-141.5 39q-187 0 -187 -148v-16q0 -143 187 -143
q102 0 142 36t40 107zM813 -84v16q0 22 -13.5 36.5t-61 32.5t-136.5 38l-151 33q-41 -57 -41 -140v-16q0 -55 44.5 -79.5t159.5 -24.5q117 0 158 26t41 78zM446 1315q0 4 5 14l133 221q16 26 24.5 33.5t26.5 7.5h153q25 0 25 -24q0 -11 -2 -17l-53 -221q-9 -39 -41 -39h-240
q-13 0 -22 7t-9 18z" />
    <glyph glyph-name="Hcircumflex" unicode="&#x124;" horiz-adv-x="1492" 
d="M1350 41q0 -17 -12 -29t-29 -12h-269q-17 0 -29 12t-12 29v592h-505v-592q0 -17 -12 -29t-29 -12h-269q-17 0 -29 12t-12 29v1442q0 17 12 28t29 11h269q17 0 29 -11t12 -28v-545h505v545q0 17 12 28t29 11h269q17 0 29 -11t12 -28v-1442zM1151 1642q0 -14 -18 -14h-211
q-19 0 -28 5t-22 20l-129 143l-131 -143q-10 -11 -14.5 -15t-13 -7t-21.5 -3h-211q-18 0 -18 14q0 10 8 21l182 240q14 18 24.5 24t31.5 6h327q22 0 32 -5.5t24 -24.5l180 -240q8 -11 8 -21z" />
    <glyph glyph-name="hcircumflex" unicode="&#x125;" horiz-adv-x="1253" 
d="M1130 43q0 -17 -13 -30t-30 -13h-247q-17 0 -29 13t-12 30v682q0 110 -30 150t-122 40q-69 0 -192 -65v-807q0 -17 -12 -30t-29 -13h-248q-17 0 -30 13t-13 30v1487q0 17 12 29t29 12h250q17 0 29 -12t12 -29v-432q77 51 148.5 71.5t164.5 20.5q87 0 151.5 -24
t104.5 -64.5t64 -102t33 -126.5t9 -148v-682zM1061 1642q0 -14 -19 -14h-211q-19 0 -27 5t-22 20l-129 143l-131 -143q-10 -11 -14.5 -15t-13 -7t-21.5 -3h-211q-18 0 -18 14q0 10 8 21l182 240q14 18 24 24t31 6h328q21 0 31 -5.5t24 -24.5l181 -240q8 -11 8 -21z" />
    <glyph glyph-name="Hbar" unicode="&#x126;" horiz-adv-x="1492" 
d="M1350 41q0 -17 -12 -29t-29 -12h-269q-17 0 -29 12t-12 29v592h-505v-592q0 -17 -12 -29t-29 -12h-269q-17 0 -29 12t-12 29v1046h-102q-17 0 -29 12t-12 29v195q0 17 12 29t29 12h102v119q0 17 12 28t29 11h269q17 0 29 -11t12 -28v-119h505v119q0 17 12 28t29 11h269
q17 0 29 -11t12 -28v-119h102q17 0 29 -12t12 -29v-195q0 -17 -12 -29t-29 -12h-102v-1046zM494 938h505v149h-505v-149z" />
    <glyph glyph-name="hbar" unicode="&#x127;" horiz-adv-x="1253" 
d="M731 1307h-276v-209q77 51 148.5 71.5t164.5 20.5q87 0 151.5 -24t104.5 -64.5t64 -102t33 -126.5t9 -148v-682q0 -17 -13 -30t-30 -13h-247q-17 0 -29 13t-12 30v682q0 110 -30 150t-122 40q-69 0 -192 -65v-807q0 -17 -12 -30t-29 -13h-248q-17 0 -30 13t-13 30v1264
h-84q-17 0 -28 11t-11 28v75q0 17 11 28t28 11h84v70q0 17 12 29t29 12h250q17 0 29 -12t12 -29v-70h276q17 0 28 -11t11 -28v-75q0 -17 -11 -28t-28 -11z" />
    <glyph glyph-name="Itilde" unicode="&#x128;" horiz-adv-x="636" 
d="M494 41q0 -17 -11 -29t-28 -12h-275q-17 0 -27 11.5t-10 29.5v1442q0 17 10 28t27 11h275q17 0 28 -11t11 -28v-1442zM680 1872q0 -118 -57 -170.5t-164 -52.5q-28 0 -64.5 11t-62.5 30q-115 66 -117 67q-15 8 -28 -7t-13 -44v-14q0 -33 -27 -33h-161q-29 0 -29 33v34
q0 222 223 222q72 0 125 -39q58 -38 115 -66q20 -9 31.5 6t11.5 45v15q0 28 29 28h159q29 0 29 -28v-37z" />
    <glyph glyph-name="itilde" unicode="&#x129;" horiz-adv-x="593" 
d="M463 43q0 -17 -13 -30t-30 -13h-246q-17 0 -30 13t-13 30v1087q0 17 13 30.5t30 13.5h246q17 0 30 -13.5t13 -30.5v-1087zM659 1534q0 -118 -57 -170.5t-164 -52.5q-28 0 -64.5 11t-62.5 30q-17 10 -40 24t-40.5 24t-35.5 19q-15 8 -28 -7t-13 -44v-14q0 -33 -27 -33
h-162q-28 0 -28 33v35q0 221 223 221q72 0 125 -39q60 -40 114 -66q20 -9 31.5 6t11.5 45v15q0 28 29 28h160q28 0 28 -28v-37z" />
    <glyph glyph-name="Imacron" unicode="&#x12a;" horiz-adv-x="636" 
d="M494 41q0 -17 -11 -29t-28 -12h-275q-17 0 -27 11.5t-10 29.5v1442q0 17 10 28t27 11h275q17 0 28 -11t11 -28v-1442zM690 1712q0 -17 -12 -28t-29 -11h-663q-17 0 -29 11t-12 28v148q0 17 11.5 27.5t29.5 10.5h663q18 0 29.5 -10.5t11.5 -27.5v-148z" />
    <glyph glyph-name="imacron" unicode="&#x12b;" horiz-adv-x="593" 
d="M463 43q0 -17 -13 -30t-30 -13h-246q-17 0 -30 13t-13 30v1087q0 17 13 30.5t30 13.5h246q17 0 30 -13.5t13 -30.5v-1087zM670 1376q0 -17 -12 -28t-29 -11h-664q-17 0 -29 11t-12 28v148q0 17 12 28t29 11h664q17 0 29 -11t12 -28v-148z" />
    <glyph glyph-name="Ibreve" unicode="&#x12c;" horiz-adv-x="636" 
d="M494 41q0 -17 -11 -29t-28 -12h-275q-17 0 -27 11.5t-10 29.5v1442q0 17 10 28t27 11h275q17 0 28 -11t11 -28v-1442zM692 1931q0 -1 -1 -3.5t-1 -4.5q-32 -133 -127 -215t-252 -82t-252 82t-127 215q0 2 -1 4.5t-1 3.5q0 15 21 15h178q21 0 27 -25q31 -117 155 -117
q125 0 156 117q3 14 8 19.5t19 5.5h178q20 0 20 -15z" />
    <glyph glyph-name="ibreve" unicode="&#x12d;" horiz-adv-x="593" 
d="M463 43q0 -17 -13 -30t-30 -13h-246q-17 0 -30 13t-13 30v1087q0 17 13 30.5t30 13.5h246q17 0 30 -13.5t13 -30.5v-1087zM676 1581q0 -1 -1 -3.5t-1 -4.5q-32 -133 -127 -215t-252 -82t-252 82t-127 215q0 2 -1 4.5t-1 3.5q0 14 20 14h179q20 0 26 -24q31 -117 156 -117
t156 117q3 14 7.5 19t18.5 5h178q21 0 21 -14z" />
    <glyph glyph-name="Iogonek" unicode="&#x12e;" horiz-adv-x="636" 
d="M494 41q0 -25 -19 -37l-92 -65q-21 -16 -30 -24.5t-16 -20.5t-7 -27q0 -27 19 -36t65 -9q29 0 79 9t58 9q13 0 16.5 -4.5t3.5 -19.5v-156q0 -11 -4 -17.5t-18 -13.5q-32 -13 -100 -27t-142 -14q-55 0 -102 10t-87.5 32t-63.5 62t-23 95q0 136 112 209v1487q0 17 10 28
t27 11h275q17 0 28 -11t11 -28v-1442z" />
    <glyph glyph-name="iogonek" unicode="&#x12f;" horiz-adv-x="593" 
d="M463 41q0 -23 -19 -37l-79 -57q-43 -32 -43 -68q0 -57 77 -57q31 0 83 9t59 9q13 0 16.5 -4.5t3.5 -19.5v-156q0 -11 -4 -17.5t-18 -13.5q-32 -13 -100 -27t-142 -14q-55 0 -102.5 10t-88 32t-63.5 62t-23 95q0 136 111 209v1134q0 17 13 30.5t30 13.5h246q17 0 30 -13.5
t13 -30.5v-1089zM471 1348q0 -17 -12 -29t-29 -12h-266q-17 0 -29 12t-12 29v190q0 17 12 29t29 12h266q17 0 29 -12t12 -29v-190z" />
    <glyph glyph-name="Idotaccent" unicode="&#x130;" horiz-adv-x="636" 
d="M494 41q0 -17 -11 -29t-28 -12h-275q-17 0 -27 11.5t-10 29.5v1442q0 17 10 28t27 11h275q17 0 28 -11t11 -28v-1442zM489 1683q0 -17 -11.5 -29t-28.5 -12h-267q-17 0 -29 12t-12 29v191q0 17 12 29t29 12h267q17 0 28.5 -12t11.5 -29v-191z" />
    <glyph glyph-name="dotlessi" unicode="&#x131;" horiz-adv-x="593" 
d="M463 43q0 -17 -13 -30t-30 -13h-246q-17 0 -30 13t-13 30v1087q0 17 13 30.5t30 13.5h246q17 0 30 -13.5t13 -30.5v-1087z" />
    <glyph glyph-name="IJ" unicode="&#x132;" horiz-adv-x="1273" 
d="M494 41q0 -17 -11 -29t-28 -12h-275q-17 0 -27 11.5t-10 29.5v1442q0 17 10 28t27 11h275q17 0 28 -11t11 -28v-1442zM1130 -12q0 -82 -18.5 -144t-50.5 -101.5t-79 -64.5t-100 -35t-118 -10q-48 0 -131 9q-14 2 -22.5 11.5t-8.5 22.5v209q0 11 6.5 20t16.5 9h102
q33 0 43 16t10 58v1495q0 17 12 28t29 11h269q17 0 28.5 -11t11.5 -28v-1495z" />
    <glyph glyph-name="ij" unicode="&#x133;" horiz-adv-x="1187" 
d="M471 1348q0 -17 -12 -29t-29 -12h-266q-17 0 -29 12t-12 29v190q0 17 12 29t29 12h266q17 0 29 -12t12 -29v-190zM463 41q0 -17 -12 -29t-29 -12h-250q-17 0 -29 12t-12 29v1092q0 17 12 29t29 12h250q17 0 29 -12t12 -29v-1092zM1065 1348q0 -17 -13 -29t-30 -12h-264
q-17 0 -29 12t-12 29v190q0 17 12 29t29 12h264q17 0 30 -12t13 -29v-190zM1057 -66q0 -194 -82 -272t-242 -78q-75 0 -164 15q-41 6 -41 41v161q0 37 43 37h91q41 0 52 20t11 76v1196q0 18 11 31t28 13h254q17 0 28 -13t11 -31v-1196z" />
    <glyph glyph-name="Jcircumflex" unicode="&#x134;" horiz-adv-x="636" 
d="M494 -12q0 -101 -27.5 -172.5t-79 -110t-115 -55.5t-145.5 -17q-48 0 -131 9q-14 2 -22.5 11.5t-8.5 22.5v209q0 11 6.5 20t16.5 9h102q33 0 43 16t10 58v1495q0 17 12 28t29 11h269q17 0 29 -11t12 -28v-1495zM725 1642q0 -14 -18 -14h-211q-19 0 -28 5t-22 20l-129 143
l-131 -143q-10 -11 -14.5 -15t-13 -7t-21.5 -3h-211q-18 0 -18 14q0 10 8 21l182 240q14 18 24.5 24t31.5 6h327q22 0 32 -5.5t24 -24.5l180 -240q8 -11 8 -21z" />
    <glyph glyph-name="jcircumflex" unicode="&#x135;" horiz-adv-x="593" 
d="M463 -66q0 -194 -82 -272t-242 -78q-75 0 -164 15q-41 6 -41 41v161q0 37 43 37h91q41 0 52 20t11 76v1196q0 18 11 31t28 13h254q17 0 28 -13t11 -31v-1196zM700 1305q0 -15 -18 -15h-211q-19 0 -27 5t-22 20l-129 143l-131 -143q-10 -11 -14.5 -15t-13 -7t-21.5 -3
h-211q-19 0 -19 15q0 9 8 20l183 240q14 18 24 24t31 6h328q22 0 31.5 -5.5t23.5 -24.5l180 -240q8 -11 8 -20z" />
    <glyph glyph-name="Kcommaaccent" unicode="&#x136;" horiz-adv-x="1388" 
d="M1335 1499q0 -12 -10 -29l-487 -692l489 -735q8 -11 8 -23q0 -20 -28 -20h-353q-27 0 -45 29l-415 676v-664q0 -17 -12 -29t-29 -12h-269q-17 0 -29 12t-12 29v1442q0 17 12 28t29 11h269q17 0 29 -11t12 -28v-652l450 666q16 25 45 25h314q32 0 32 -23zM803 -78
q45 0 26 -39l-141 -241q-16 -26 -24.5 -33.5t-26.5 -7.5h-154q-33 0 -22 41l61 241q9 39 41 39h240z" />
    <glyph glyph-name="kcommaaccent" unicode="&#x137;" horiz-adv-x="1204" 
d="M1143 1151q0 -10 -8 -21l-381 -518l379 -569q4 -4 4 -16q0 -11 -7.5 -19t-19.5 -8h-309q-18 0 -29 5.5t-22 23.5l-295 481v-467q0 -17 -12 -30t-29 -13h-248q-17 0 -30 13t-13 30v1487q0 17 13 29t30 12h248q17 0 29 -12t12 -29v-856l311 469q20 31 53 31h293q13 0 22 -7
t9 -16zM700 -78q46 0 27 -39l-141 -241q-16 -26 -24.5 -33.5t-26.5 -7.5h-154q-14 0 -21.5 10t-1.5 31l62 241q9 39 41 39h239z" />
    <glyph glyph-name="kgreenlandic" unicode="&#x138;" horiz-adv-x="1204" 
d="M1112 1174q22 0 28.5 -14.5t-5.5 -29.5l-381 -518l379 -569q11 -15 3.5 -29t-26.5 -14h-309q-18 0 -29 5.5t-22 23.5l-295 481v-467q0 -17 -12 -30t-29 -13h-248q-17 0 -30 13t-13 30v1090q0 17 13 29t30 12h248q17 0 29 -12t12 -29v-459l311 469q20 31 53 31h293z" />
    <glyph glyph-name="Lacute" unicode="&#x139;" horiz-adv-x="1062" 
d="M1018 51q0 -20 -9.5 -29t-31.5 -14q-51 -10 -151.5 -18t-182.5 -8q-61 0 -111.5 4.5t-103 17.5t-93.5 33.5t-78 54.5t-61.5 79.5t-38.5 109t-14 141.5v1059q0 17 12 29t29 12h269q17 0 29 -12t12 -29v-1059q0 -79 29 -109t102 -30h352q17 0 29 -12t12 -29v-191zM874 1917
q0 -8 -8 -16l-250 -250q-2 -2 -4.5 -5t-4 -4t-4 -3.5t-4 -3.5t-4 -2.5t-4.5 -2.5t-4.5 -2t-5.5 -1t-6.5 -0.5t-7.5 -0.5h-219q-18 0 -18 14q0 10 8 21l190 240q14 18 24.5 24t31.5 6h268q22 0 22 -14z" />
    <glyph glyph-name="lacute" unicode="&#x13a;" horiz-adv-x="577" 
d="M455 43q0 -18 -11 -30.5t-28 -12.5h-250q-17 0 -30 13t-13 30v1487q0 17 13 29t30 12h250q17 0 28 -12t11 -29v-1487zM633 1948q0 -9 -8 -17l-250 -250l-3 -3q-9 -9 -13 -12.5t-12.5 -6t-20.5 -2.5h-220q-18 0 -18 14q0 10 8 21l191 239q15 19 24.5 25t30.5 6h268
q23 0 23 -14z" />
    <glyph glyph-name="Lcommaaccent" unicode="&#x13b;" horiz-adv-x="1062" 
d="M1018 51q0 -20 -9.5 -29t-31.5 -14q-51 -10 -151.5 -18t-182.5 -8q-61 0 -111.5 4.5t-103 17.5t-93.5 33.5t-78 54.5t-61.5 79.5t-38.5 109t-14 141.5v1059q0 17 12 29t29 12h269q17 0 29 -12t12 -29v-1059q0 -79 29 -109t102 -30h352q17 0 29 -12t12 -29v-191zM651 -78
q47 0 27 -39l-141 -241q-16 -26 -25 -33.5t-27 -7.5h-153q-14 0 -21.5 10t-1.5 31l62 241q9 39 41 39h239z" />
    <glyph glyph-name="lcommaaccent" unicode="&#x13c;" horiz-adv-x="577" 
d="M455 43q0 -18 -11 -30.5t-28 -12.5h-250q-17 0 -30 13t-13 30v1487q0 17 13 29t30 12h250q17 0 28 -12t11 -29v-1487zM408 -78q46 0 26 -39l-141 -241q-16 -26 -24.5 -33.5t-26.5 -7.5h-154q-33 0 -22 41l61 241q9 39 41 39h240z" />
    <glyph glyph-name="Lcaron" unicode="&#x13d;" horiz-adv-x="1062" 
d="M1018 51q0 -20 -9.5 -29t-31.5 -14q-51 -10 -151.5 -18t-182.5 -8q-61 0 -111.5 4.5t-103 17.5t-93.5 33.5t-78 54.5t-61.5 79.5t-38.5 109t-14 141.5v1059q0 17 12 29t29 12h269q17 0 29 -12t12 -29v-1059q0 -79 29 -109t102 -30h352q17 0 29 -12t12 -29v-191z
M1006 1548q0 -1 -5 -16l-153 -449q-8 -21 -16.5 -30t-22.5 -9h-207q-18 0 -18 21q0 12 2 18l110 449q8 39 41 39h244q11 0 18 -6.5t7 -16.5z" />
    <glyph glyph-name="lcaron" unicode="&#x13e;" horiz-adv-x="911" 
d="M455 43q0 -18 -11 -30.5t-28 -12.5h-250q-17 0 -30 13t-13 30v1487q0 17 13 29t30 12h250q17 0 28 -12t11 -29v-1487zM963 1548q0 -1 -5 -16l-153 -449q-8 -21 -16.5 -30t-22.5 -9h-207q-18 0 -18 21q0 12 2 18l110 449q8 39 41 39h244q11 0 18 -6.5t7 -16.5z" />
    <glyph glyph-name="Ldot" unicode="&#x13f;" horiz-adv-x="1062" 
d="M1018 51q0 -20 -9.5 -29t-31.5 -14q-51 -10 -151.5 -18t-182.5 -8q-61 0 -111.5 4.5t-103 17.5t-93.5 33.5t-78 54.5t-61.5 79.5t-38.5 109t-14 141.5v1059q0 17 12 29t29 12h269q17 0 29 -12t12 -29v-1059q0 -79 29 -109t102 -30h352q17 0 29 -12t12 -29v-191zM981 741
q0 -17 -12 -29t-29 -12h-266q-17 0 -29 12t-12 29v191q0 17 12 29t29 12h266q17 0 29 -12t12 -29v-191z" />
    <glyph glyph-name="ldot" unicode="&#x140;" horiz-adv-x="956" 
d="M455 43q0 -18 -11 -30.5t-28 -12.5h-250q-17 0 -30 13t-13 30v1487q0 17 13 29t30 12h250q17 0 28 -12t11 -29v-1487zM895 741q0 -17 -12 -29t-29 -12h-266q-17 0 -29 12t-12 29v191q0 17 12 29t29 12h266q17 0 29 -12t12 -29v-191z" />
    <glyph glyph-name="Lslash" unicode="&#x141;" horiz-adv-x="1062" 
d="M1018 51q0 -20 -9.5 -29t-31.5 -14q-51 -10 -151.5 -18t-182.5 -8q-61 0 -111.5 4.5t-103 17.5t-93.5 33.5t-78 54.5t-61.5 79.5t-38.5 109t-14 141.5v22l-77 -77q-9 -9 -15 -9q-10 0 -10 13v284v7q0 13 2.5 19t15.5 19l84 84v697q0 17 12 29t29 12h267q17 0 29 -12
t12 -29v-355l143 140q6 6 16 6q6 0 11.5 -5t5.5 -12v-276q0 -24 -15 -37l-161 -158v-362q0 -79 29 -109t102 -30h354q17 0 29 -12t12 -29v-191z" />
    <glyph glyph-name="lslash" unicode="&#x142;" horiz-adv-x="577" 
d="M602 979q0 -25 -14 -37l-131 -129v-770q0 -17 -12 -30t-29 -13h-250q-17 0 -30 13t-13 30v442l-121 -118q-9 -9 -14 -9q-11 0 -11 13v284v7q0 12 3 18.5t16 19.5l127 127v703q0 17 13 29t30 12h250q17 0 29 -12t12 -29v-375l112 111q6 6 15 6q18 0 18 -17v-276z" />
    <glyph glyph-name="Nacute" unicode="&#x143;" horiz-adv-x="1492" 
d="M1350 78q0 -32 -24 -55t-56 -23h-201q-36 0 -59.5 12.5t-46.5 50.5l-467 807q-11 17 -19 17q-10 0 -10 -17v-829q0 -17 -12 -29t-29 -12h-242q-17 0 -29 12t-12 29v1403q0 32 23 55t55 23h207q29 0 47.5 -14.5t38.5 -49.5l485 -844q11 -16 17 -16q10 0 10 18v867
q0 17 12 28t29 11h242q17 0 29 -11t12 -28v-1405zM1092 1917q0 -7 -9 -16l-249 -250l-11 -11t-9 -7t-13.5 -6t-16.5 -1h-219q-18 0 -18 14q0 10 8 21l190 240q14 18 24.5 24t31.5 6h268q23 0 23 -14z" />
    <glyph glyph-name="nacute" unicode="&#x144;" horiz-adv-x="1253" 
d="M1130 43q0 -17 -13 -30t-30 -13h-247q-17 0 -29 13t-12 30v682q0 110 -30 150t-122 40q-69 0 -192 -65v-807q0 -17 -12 -30t-29 -13h-248q-17 0 -30 13t-13 30v1090q0 17 12 29t29 12h229q17 0 29 -12t12 -29v-50q84 59 159.5 83t174.5 24q87 0 151.5 -24t104.5 -64.5
t64 -102t33 -126.5t9 -148v-682zM971 1581q0 -8 -8 -16l-250 -250q-2 -2 -4.5 -5t-4 -4t-4 -3.5t-4 -3.5t-4 -2.5t-4.5 -2.5t-4.5 -2t-5.5 -1t-6.5 -0.5t-7.5 -0.5h-220q-18 0 -18 15q0 9 8 20l191 240q14 18 24 24t31 6h268q23 0 23 -14z" />
    <glyph glyph-name="Ncommaaccent" unicode="&#x145;" horiz-adv-x="1492" 
d="M1350 78q0 -32 -24 -55t-56 -23h-201q-36 0 -59.5 12.5t-46.5 50.5l-467 807q-11 17 -19 17q-10 0 -10 -17v-829q0 -17 -12 -29t-29 -12h-242q-17 0 -29 12t-12 29v1403q0 32 23 55t55 23h207q29 0 47.5 -14.5t38.5 -49.5l485 -844q11 -16 17 -16q10 0 10 18v867
q0 17 12 28t29 11h242q17 0 29 -11t12 -28v-1405zM866 -78q46 0 27 -39l-141 -241q-16 -26 -25 -33.5t-27 -7.5h-153q-14 0 -21.5 10t-1.5 31l62 241q9 39 41 39h239z" />
    <glyph glyph-name="ncommaaccent" unicode="&#x146;" horiz-adv-x="1253" 
d="M1130 43q0 -17 -13 -30t-30 -13h-247q-17 0 -29 13t-12 30v682q0 110 -30 150t-122 40q-69 0 -192 -65v-807q0 -17 -12 -30t-29 -13h-248q-17 0 -30 13t-13 30v1090q0 17 12 29t29 12h229q17 0 29 -12t12 -29v-50q84 59 159.5 83t174.5 24q87 0 151.5 -24t104.5 -64.5
t64 -102t33 -126.5t9 -148v-682zM719 -78q45 0 26 -39l-141 -241q-16 -26 -24.5 -33.5t-26.5 -7.5h-154q-33 0 -22 41l61 241q9 39 41 39h240z" />
    <glyph glyph-name="Ncaron" unicode="&#x147;" horiz-adv-x="1492" 
d="M1350 78q0 -32 -24 -55t-56 -23h-201q-36 0 -59.5 12.5t-46.5 50.5l-467 807q-11 17 -19 17q-10 0 -10 -17v-829q0 -17 -12 -29t-29 -12h-242q-17 0 -29 12t-12 29v1403q0 32 23 55t55 23h207q29 0 47.5 -14.5t38.5 -49.5l485 -844q11 -16 17 -16q10 0 10 18v867
q0 17 12 28t29 11h242q17 0 29 -11t12 -28v-1405zM1155 1917q0 -10 -8 -21l-182 -239q-14 -18 -24.5 -24.5t-31.5 -6.5h-327q-21 0 -31.5 6t-24.5 25l-180 239q-8 11 -8 21q0 14 18 14h211q19 0 27.5 -4.5t21.5 -19.5l129 -144l132 144q13 15 21.5 19.5t27.5 4.5h211
q18 0 18 -14z" />
    <glyph glyph-name="ncaron" unicode="&#x148;" horiz-adv-x="1253" 
d="M1130 43q0 -17 -13 -30t-30 -13h-247q-17 0 -29 13t-12 30v682q0 110 -30 150t-122 40q-69 0 -192 -65v-807q0 -17 -12 -30t-29 -13h-248q-17 0 -30 13t-13 30v1090q0 17 12 29t29 12h229q17 0 29 -12t12 -29v-50q84 59 159.5 83t174.5 24q87 0 151.5 -24t104.5 -64.5
t64 -102t33 -126.5t9 -148v-682zM1036 1581q0 -9 -8 -20l-182 -240q-15 -19 -24.5 -25t-30.5 -6h-328q-21 0 -31 6t-24 25l-181 240q-8 11 -8 20q0 14 19 14h211q19 0 27.5 -4.5t21.5 -19.5l129 -144l131 144q13 15 21.5 19.5t27.5 4.5h211q18 0 18 -14z" />
    <glyph glyph-name="napostrophe" unicode="&#x149;" horiz-adv-x="1648" 
d="M471 1548q0 -4 -4 -16l-154 -449q-8 -21 -16.5 -30t-22.5 -9h-206q-19 0 -19 21q0 12 2 18l111 449q8 39 41 39h243q11 0 18 -6.5t7 -16.5zM1526 43q0 -17 -13 -30t-30 -13h-248q-17 0 -29 13t-12 30v682q0 110 -30 150t-122 40q-69 0 -192 -65v-807q0 -17 -12 -30
t-29 -13h-248q-17 0 -30 13t-13 30v1090q0 17 12 29t29 12h229q17 0 29 -12t12 -29v-50q84 59 159.5 83t174.5 24q87 0 151.5 -24t104.5 -64.5t64.5 -102t33.5 -126.5t9 -148v-682z" />
    <glyph glyph-name="Eng" unicode="&#x14a;" horiz-adv-x="1492" 
d="M1350 -12q0 -101 -27.5 -172.5t-79 -110t-115 -55.5t-145.5 -17q-49 0 -131 9q-14 2 -22.5 11.5t-8.5 22.5v209q0 11 6.5 20t16.5 9h102q33 0 43 16t10 58v30q-18 15 -36 45l-467 807q-11 17 -19 17q-10 0 -10 -17v-829q0 -17 -12 -29t-29 -12h-242q-17 0 -29 12t-12 29
v1403q0 32 23 55t55 23h207q29 0 47.5 -14.5t38.5 -49.5l485 -844q11 -16 17 -16q10 0 10 18v867q0 17 12 28t29 11h242q17 0 29 -11t12 -28v-1495z" />
    <glyph glyph-name="eng" unicode="&#x14b;" horiz-adv-x="1253" 
d="M1130 -66q0 -194 -81.5 -272t-241.5 -78q-75 0 -164 15q-41 6 -41 41v161q0 37 43 37h90q41 0 52.5 20t11.5 76v791q0 110 -30 150t-122 40q-69 0 -192 -65v-807q0 -17 -12 -30t-29 -13h-248q-17 0 -30 13t-13 30v1090q0 17 12 29t29 12h229q17 0 29 -12t12 -29v-50
q84 59 159.5 83t174.5 24q87 0 151.5 -24t104.5 -64.5t64 -102t33 -126.5t9 -148v-791z" />
    <glyph glyph-name="Omacron" unicode="&#x14c;" horiz-adv-x="1429" 
d="M1321 639q0 -173 -46.5 -302t-130.5 -205.5t-191 -113t-238 -36.5t-238 36.5t-191 113t-130.5 205.5t-46.5 302v244q0 173 46.5 302t130.5 205.5t191 113t238 36.5t238 -36.5t191 -113t130.5 -205.5t46.5 -302v-244zM969 639v244q0 183 -62 266.5t-192 83.5t-191 -83.5
t-61 -266.5v-244q0 -183 61 -266.5t191 -83.5t192 83.5t62 266.5zM1087 1712q0 -17 -11.5 -28t-28.5 -11h-664q-17 0 -29 11t-12 28v148q0 17 11.5 27.5t29.5 10.5h664q17 0 28.5 -10.5t11.5 -27.5v-148z" />
    <glyph glyph-name="omacron" unicode="&#x14d;" horiz-adv-x="1206" 
d="M1116 514q0 -248 -133 -390t-379 -142t-380 142t-134 390v143q0 248 134 390.5t380 142.5t379 -142.5t133 -390.5v-143zM786 514v143q0 250 -182 250q-90 0 -137 -63t-47 -187v-143q0 -124 47 -188t137 -64q89 0 135.5 64t46.5 188zM977 1376q0 -17 -12 -28t-29 -11h-664
q-17 0 -29 11t-12 28v148q0 17 12 28t29 11h664q17 0 29 -11t12 -28v-148z" />
    <glyph glyph-name="Obreve" unicode="&#x14e;" horiz-adv-x="1429" 
d="M1321 639q0 -173 -46.5 -302t-130.5 -205.5t-191 -113t-238 -36.5t-238 36.5t-191 113t-130.5 205.5t-46.5 302v244q0 173 46.5 302t130.5 205.5t191 113t238 36.5t238 -36.5t191 -113t130.5 -205.5t46.5 -302v-244zM969 639v244q0 183 -62 266.5t-192 83.5t-191 -83.5
t-61 -266.5v-244q0 -183 61 -266.5t191 -83.5t192 83.5t62 266.5zM1096 1933q0 -1 -1 -3.5t-1 -4.5q-32 -133 -127 -215t-252 -82t-252 82t-127 215q0 2 -1 4.5t-1 3.5q0 15 20 15h178q21 0 27 -25q31 -117 156 -117q124 0 155 117q3 14 8 19.5t19 5.5h178q21 0 21 -15z" />
    <glyph glyph-name="obreve" unicode="&#x14f;" horiz-adv-x="1206" 
d="M1116 514q0 -248 -133 -390t-379 -142t-380 142t-134 390v143q0 248 134 390.5t380 142.5t379 -142.5t133 -390.5v-143zM786 514v143q0 250 -182 250q-90 0 -137 -63t-47 -187v-143q0 -124 47 -188t137 -64q89 0 135.5 64t46.5 188zM989 1581q0 -1 -1 -3.5t-1 -4.5
q-32 -133 -127 -215t-252 -82t-252 82t-127 215q0 2 -1 4.5t-1 3.5q0 14 21 14h178q21 0 27 -24q31 -117 155 -117q125 0 156 117q3 14 8 19t19 5h178q20 0 20 -14z" />
    <glyph glyph-name="Ohungarumlaut" unicode="&#x150;" horiz-adv-x="1429" 
d="M1321 639q0 -173 -46.5 -302t-130.5 -205.5t-191 -113t-238 -36.5t-238 36.5t-191 113t-130.5 205.5t-46.5 302v244q0 173 46.5 302t130.5 205.5t191 113t238 36.5t238 -36.5t191 -113t130.5 -205.5t46.5 -302v-244zM969 639v244q0 183 -62 266.5t-192 83.5t-191 -83.5
t-61 -266.5v-244q0 -183 61 -266.5t191 -83.5t192 83.5t62 266.5zM1298 1917q0 -8 -8 -16l-250 -250q-10 -10 -14.5 -14t-14 -7.5t-22.5 -3.5h-219q-18 0 -18 14q0 10 8 21l190 240q14 18 24.5 24t31.5 6h270q22 0 22 -14zM821 1917q0 -8 -8 -16l-250 -250
q-10 -10 -14.5 -14t-14 -7.5t-22.5 -3.5h-219q-19 0 -19 14q0 9 9 21l190 240q14 18 24 24t31 6h271q22 0 22 -14z" />
    <glyph glyph-name="ohungarumlaut" unicode="&#x151;" horiz-adv-x="1206" 
d="M1116 514q0 -248 -133 -390t-379 -142t-380 142t-134 390v143q0 248 134 390.5t380 142.5t379 -142.5t133 -390.5v-143zM786 514v143q0 250 -182 250q-90 0 -137 -63t-47 -187v-143q0 -124 47 -188t137 -64q89 0 135.5 64t46.5 188zM1188 1581q0 -8 -8 -16l-250 -250
q-10 -10 -14.5 -14t-14 -7.5t-22.5 -3.5h-220q-18 0 -18 15q0 9 8 20l191 240q14 18 24 24t31 6h270q23 0 23 -14zM711 1581q0 -7 -9 -16l-249 -250q-10 -10 -15 -14t-14.5 -7.5t-22.5 -3.5h-219q-18 0 -18 15q0 9 8 20l190 240q14 18 24.5 24t31.5 6h270q23 0 23 -14z" />
    <glyph glyph-name="OE" unicode="&#x152;" horiz-adv-x="2021" 
d="M1907 51q0 -20 -9.5 -30t-31.5 -13q-187 -26 -398 -26q-264 0 -378 104q-143 -104 -375 -104q-131 0 -238 36.5t-191 113t-130.5 205.5t-46.5 302v244q0 173 46.5 302t130.5 205.5t191 113t238 36.5q229 0 375 -106q116 104 380 104q202 0 396 -27q22 -3 31.5 -12
t9.5 -29v-190q0 -17 -12 -29t-29 -12h-416q-73 0 -102 -30t-29 -109v-148q0 -6 1 -18.5t1 -18.5h528q17 0 29 -12t12 -29v-194q0 -17 -12 -29t-29 -12h-528q0 -13 -1 -36t-1 -34v-147q0 -79 29 -109t102 -30h416q17 0 29 -12t12 -29v-191zM969 639v244q0 183 -62 266.5
t-192 83.5t-191 -83.5t-61 -266.5v-244q0 -183 61 -266.5t191 -83.5t192 83.5t62 266.5z" />
    <glyph glyph-name="oe" unicode="&#x153;" horiz-adv-x="1908" 
d="M1817 532q0 -49 -43 -49h-654v-10v-6q3 -95 52.5 -153t158.5 -58q208 0 393 18h7q38 0 38 -32v-156q0 -26 -8.5 -37.5t-34.5 -17.5q-195 -49 -419 -49q-223 0 -351 133q-133 -133 -350 -133q-246 0 -380 142t-134 390v143q0 248 134 390.5t380 142.5q212 0 352 -137
q134 137 353 137q163 0 279 -71t171.5 -191t55.5 -277v-119zM1493 688v8q0 112 -48 170t-136 58q-86 0 -137.5 -58t-51.5 -164v-14h373zM788 514v143q0 250 -182 250t-182 -250v-143q0 -124 46.5 -188t135.5 -64t135.5 64t46.5 188z" />
    <glyph glyph-name="Racute" unicode="&#x154;" horiz-adv-x="1392" 
d="M1319 25q0 -25 -31 -25h-313q-4 0 -7 0.5t-6 2.5t-5.5 3t-5 4.5t-4 5t-3.5 6t-3 6t-3.5 6.5l-3.5 7l-275 518l-22 -2q-22 0 -74 2t-71 2v-520q0 -17 -12 -29t-29 -12h-267q-17 0 -29 12t-12 29v1374q0 50 21 70t72 28q181 27 415 27q617 0 617 -479v-27
q0 -155 -72 -258.5t-192 -150.5l309 -578q6 -12 6 -22zM920 1034v27q0 182 -269 182q-84 0 -159 -6v-393q46 -4 145 -4q159 0 221 44t62 150zM1040 1917q0 -8 -8 -16l-250 -250q-2 -2 -4.5 -5t-4 -4t-4 -3.5t-4 -3.5t-4 -2.5t-4.5 -2.5t-4.5 -2t-5.5 -1t-6.5 -0.5t-7.5 -0.5
h-219q-18 0 -18 14q0 10 8 21l190 240q14 18 24.5 24t31.5 6h268q22 0 22 -14z" />
    <glyph glyph-name="racute" unicode="&#x155;" horiz-adv-x="811" 
d="M766 954q0 -14 -9 -26.5t-22 -12.5h-16q-132 0 -264 -71v-801q0 -17 -12 -30t-29 -13h-248q-17 0 -30 13t-13 30v1090q0 17 12 29t29 12h244q17 0 29 -12t12 -29v-41q118 98 276 98q17 0 29 -12t12 -29v-195zM750 1581q0 -7 -9 -16l-249 -250l-11 -11t-9 -7t-13.5 -6
t-16.5 -1h-219q-18 0 -18 15q0 9 8 20l190 240q14 18 24.5 24t31.5 6h268q23 0 23 -14z" />
    <glyph glyph-name="Rcommaaccent" unicode="&#x156;" horiz-adv-x="1392" 
d="M1319 25q0 -25 -31 -25h-313q-4 0 -7 0.5t-6 2.5t-5.5 3t-5 4.5t-4 5t-3.5 6t-3 6t-3.5 6.5l-3.5 7l-275 518l-22 -2q-22 0 -74 2t-71 2v-520q0 -17 -12 -29t-29 -12h-267q-17 0 -29 12t-12 29v1374q0 50 21 70t72 28q181 27 415 27q617 0 617 -479v-27
q0 -155 -72 -258.5t-192 -150.5l309 -578q6 -12 6 -22zM920 1034v27q0 182 -269 182q-84 0 -159 -6v-393q46 -4 145 -4q159 0 221 44t62 150zM817 -78q47 0 27 -39l-142 -241q-16 -26 -24.5 -33.5t-26.5 -7.5h-153q-14 0 -21.5 10t-1.5 31l62 241q9 39 41 39h239z" />
    <glyph glyph-name="rcommaaccent" unicode="&#x157;" horiz-adv-x="811" 
d="M766 954q0 -14 -9 -26.5t-22 -12.5h-16q-132 0 -264 -71v-801q0 -17 -12 -30t-29 -13h-248q-17 0 -30 13t-13 30v1090q0 17 12 29t29 12h244q17 0 29 -12t12 -29v-41q118 98 276 98q17 0 29 -12t12 -29v-195zM524 -78q46 0 27 -39l-141 -241q-16 -26 -25 -33.5t-27 -7.5
h-153q-14 0 -21.5 10t-1.5 31l62 241q9 39 41 39h239z" />
    <glyph glyph-name="Rcaron" unicode="&#x158;" horiz-adv-x="1392" 
d="M1319 25q0 -25 -31 -25h-313q-4 0 -7 0.5t-6 2.5t-5.5 3t-5 4.5t-4 5t-3.5 6t-3 6t-3.5 6.5l-3.5 7l-275 518l-22 -2q-22 0 -74 2t-71 2v-520q0 -17 -12 -29t-29 -12h-267q-17 0 -29 12t-12 29v1374q0 50 21 70t72 28q181 27 415 27q617 0 617 -479v-27
q0 -155 -72 -258.5t-192 -150.5l309 -578q6 -12 6 -22zM920 1034v27q0 182 -269 182q-84 0 -159 -6v-393q46 -4 145 -4q159 0 221 44t62 150zM1106 1917q0 -10 -8 -21l-183 -239q-15 -19 -24.5 -25t-30.5 -6h-328q-21 0 -31 6t-24 25l-180 239q-8 11 -8 21q0 14 18 14h211
q19 0 27.5 -4.5t21.5 -19.5l129 -144l131 144q13 15 22 19.5t28 4.5h210q19 0 19 -14z" />
    <glyph glyph-name="rcaron" unicode="&#x159;" horiz-adv-x="811" 
d="M766 954q0 -14 -9 -26.5t-22 -12.5h-16q-132 0 -264 -71v-801q0 -17 -12 -30t-29 -13h-248q-17 0 -30 13t-13 30v1090q0 17 12 29t29 12h244q17 0 29 -12t12 -29v-41q118 98 276 98q17 0 29 -12t12 -29v-195zM813 1581q0 -9 -8 -20l-182 -240q-14 -18 -24.5 -24.5
t-31.5 -6.5h-327q-21 0 -31.5 6t-24.5 25l-180 240q-8 11 -8 20q0 14 18 14h211q19 0 27.5 -4.5t21.5 -19.5l129 -144l132 144q13 15 21.5 19.5t27.5 4.5h211q18 0 18 -14z" />
    <glyph glyph-name="Sacute" unicode="&#x15a;" horiz-adv-x="1204" 
d="M1118 430q0 -68 -17.5 -130t-59.5 -121t-105 -102t-159.5 -69t-217.5 -26q-214 0 -387 45q-41 12 -41 41v200q0 39 37 39h6q252 -24 389 -24q103 0 142.5 33.5t39.5 109.5q0 44 -28 76.5t-107 79.5l-282 168q-135 80 -188.5 174.5t-53.5 216.5q0 399 524 399
q107 0 239 -14.5t195 -30.5q31 -8 31 -37v-207q0 -34 -35 -34h-4q-313 22 -434 22q-86 0 -123 -26t-37 -83q0 -43 27 -71t111 -72l262 -141q152 -82 214 -182.5t62 -233.5zM946 1917q0 -8 -8 -16l-250 -250q-2 -2 -4.5 -5t-4 -4t-4 -3.5t-4 -3.5t-4 -2.5t-4.5 -2.5t-4.5 -2
t-5.5 -1t-6.5 -0.5t-7.5 -0.5h-219q-19 0 -19 14q0 9 9 21l190 240q14 18 24 24t31 6h269q22 0 22 -14z" />
    <glyph glyph-name="sacute" unicode="&#x15b;" horiz-adv-x="1030" 
d="M944 326q0 -153 -111.5 -248.5t-326.5 -95.5q-212 0 -373 45q-39 9 -39 47v166q0 16 10.5 27.5t28.5 11.5h8q230 -29 348 -29q70 0 95.5 19t25.5 61q0 24 -16.5 43t-58.5 43l-267 153q-88 50 -135 127.5t-47 175.5q0 318 420 318q183 0 364 -47q39 -9 39 -47v-166
q0 -18 -10 -28.5t-25 -10.5h-6q-199 27 -340 27q-61 0 -84.5 -12.5t-23.5 -47.5q0 -22 14 -36.5t49 -35.5l254 -145q118 -68 162.5 -144.5t44.5 -170.5zM858 1581q0 -8 -8 -16l-250 -250q-2 -2 -4.5 -5t-4 -4t-4 -3.5t-4 -3.5t-4 -2.5t-4.5 -2.5t-4.5 -2t-5.5 -1t-6.5 -0.5
t-7.5 -0.5h-219q-19 0 -19 15q0 8 9 20l190 240q14 18 24 24t31 6h269q22 0 22 -14z" />
    <glyph glyph-name="Scircumflex" unicode="&#x15c;" horiz-adv-x="1204" 
d="M1118 430q0 -68 -17.5 -130t-59.5 -121t-105 -102t-159.5 -69t-217.5 -26q-214 0 -387 45q-41 12 -41 41v200q0 39 37 39h6q252 -24 389 -24q103 0 142.5 33.5t39.5 109.5q0 44 -28 76.5t-107 79.5l-282 168q-135 80 -188.5 174.5t-53.5 216.5q0 399 524 399
q107 0 239 -14.5t195 -30.5q31 -8 31 -37v-207q0 -34 -35 -34h-4q-313 22 -434 22q-86 0 -123 -26t-37 -83q0 -43 27 -71t111 -72l262 -141q152 -82 214 -182.5t62 -233.5zM995 1642q0 -14 -18 -14h-211q-19 0 -27 5t-22 20l-129 143l-131 -143q-10 -11 -14.5 -15t-13 -7
t-21.5 -3h-211q-19 0 -19 14q0 10 8 21l183 240q14 18 24 24t31 6h328q22 0 31.5 -5.5t23.5 -24.5l180 -240q8 -11 8 -21z" />
    <glyph glyph-name="scircumflex" unicode="&#x15d;" horiz-adv-x="1030" 
d="M944 326q0 -153 -111.5 -248.5t-326.5 -95.5q-212 0 -373 45q-39 9 -39 47v166q0 16 10.5 27.5t28.5 11.5h8q230 -29 348 -29q70 0 95.5 19t25.5 61q0 24 -16.5 43t-58.5 43l-267 153q-88 50 -135 127.5t-47 175.5q0 318 420 318q183 0 364 -47q39 -9 39 -47v-166
q0 -18 -10 -28.5t-25 -10.5h-6q-199 27 -340 27q-61 0 -84.5 -12.5t-23.5 -47.5q0 -22 14 -36.5t49 -35.5l254 -145q118 -68 162.5 -144.5t44.5 -170.5zM901 1305q0 -15 -18 -15h-211q-19 0 -27 5t-22 20l-129 143l-132 -143q-10 -11 -14.5 -15t-13 -7t-21.5 -3h-211
q-18 0 -18 15q0 9 8 20l182 240q14 18 24.5 24t31.5 6h327q22 0 32 -5.5t24 -24.5l180 -240q8 -11 8 -20z" />
    <glyph glyph-name="uni015E" unicode="&#x15e;" horiz-adv-x="1204" 
d="M1118 430q0 -68 -17.5 -130t-59.5 -121t-105 -102t-159.5 -69t-217.5 -26q-214 0 -387 45q-41 12 -41 41v200q0 39 37 39h6q252 -24 389 -24q103 0 142.5 33.5t39.5 109.5q0 44 -28 76.5t-107 79.5l-282 168q-135 80 -188.5 174.5t-53.5 216.5q0 399 524 399
q107 0 239 -14.5t195 -30.5q31 -8 31 -37v-207q0 -34 -35 -34h-4q-313 22 -434 22q-86 0 -123 -26t-37 -83q0 -43 27 -71t111 -72l262 -141q152 -82 214 -182.5t62 -233.5zM809 -92q0 -9 -8 -17l-260 -266l-3 -3q-9 -9 -13 -12.5t-12.5 -6t-20.5 -2.5h-220q-18 0 -18 14
q0 9 8 20l199 256q15 19 24.5 25t30.5 6h270q23 0 23 -14z" />
    <glyph glyph-name="uni015F" unicode="&#x15f;" horiz-adv-x="1030" 
d="M944 326q0 -153 -111.5 -248.5t-326.5 -95.5q-212 0 -373 45q-39 9 -39 47v166q0 16 10.5 27.5t28.5 11.5h8q230 -29 348 -29q70 0 95.5 19t25.5 61q0 24 -16.5 43t-58.5 43l-267 153q-88 50 -135 127.5t-47 175.5q0 318 420 318q183 0 364 -47q39 -9 39 -47v-166
q0 -18 -10 -28.5t-25 -10.5h-6q-199 27 -340 27q-61 0 -84.5 -12.5t-23.5 -47.5q0 -22 14 -36.5t49 -35.5l254 -145q118 -68 162.5 -144.5t44.5 -170.5zM707 -92q0 -8 -9 -17l-260 -266l-3 -3q-9 -9 -13 -12.5t-12.5 -6t-20.5 -2.5h-219q-18 0 -18 14q0 9 8 20l198 256
q14 18 24.5 24.5t31.5 6.5h270q23 0 23 -14z" />
    <glyph glyph-name="Scaron" unicode="&#x160;" horiz-adv-x="1204" 
d="M1118 430q0 -68 -17.5 -130t-59.5 -121t-105 -102t-159.5 -69t-217.5 -26q-214 0 -387 45q-41 12 -41 41v200q0 39 37 39h6q252 -24 389 -24q103 0 142.5 33.5t39.5 109.5q0 44 -28 76.5t-107 79.5l-282 168q-135 80 -188.5 174.5t-53.5 216.5q0 399 524 399
q107 0 239 -14.5t195 -30.5q31 -8 31 -37v-207q0 -34 -35 -34h-4q-313 22 -434 22q-86 0 -123 -26t-37 -83q0 -43 27 -71t111 -72l262 -141q152 -82 214 -182.5t62 -233.5zM989 1919q0 -10 -8 -21l-182 -239q-14 -18 -24.5 -24.5t-31.5 -6.5h-327q-21 0 -31.5 6t-24.5 25
l-180 239q-8 11 -8 21q0 14 18 14h211q19 0 28 -4.5t22 -19.5l129 -144l131 144q13 15 21.5 19.5t27.5 4.5h211q18 0 18 -14z" />
    <glyph glyph-name="scaron" unicode="&#x161;" horiz-adv-x="1030" 
d="M944 326q0 -153 -111.5 -248.5t-326.5 -95.5q-212 0 -373 45q-39 9 -39 47v166q0 16 10.5 27.5t28.5 11.5h8q230 -29 348 -29q70 0 95.5 19t25.5 61q0 24 -16.5 43t-58.5 43l-267 153q-88 50 -135 127.5t-47 175.5q0 318 420 318q183 0 364 -47q39 -9 39 -47v-166
q0 -18 -10 -28.5t-25 -10.5h-6q-199 27 -340 27q-61 0 -84.5 -12.5t-23.5 -47.5q0 -22 14 -36.5t49 -35.5l254 -145q118 -68 162.5 -144.5t44.5 -170.5zM924 1581q0 -8 -9 -20l-182 -240q-15 -19 -24.5 -25t-30.5 -6h-328q-21 0 -31 6t-24 25l-180 240q-9 12 -9 20
q0 14 19 14h211q19 0 27.5 -4.5t21.5 -19.5l129 -144l131 144q13 15 21.5 19.5t27.5 4.5h211q19 0 19 -14z" />
    <glyph glyph-name="Tcommaaccent" unicode="&#x162;" horiz-adv-x="1202" 
d="M1151 1272q0 -17 -12.5 -28t-30.5 -11h-332v-1192q0 -17 -12 -29t-29 -12h-268q-17 0 -29 12t-12 29v1192h-334q-17 0 -29 11t-12 28v211q0 17 12 28t29 11h1016q18 0 30.5 -11t12.5 -28v-211zM684 -78q46 0 27 -39l-142 -241q-16 -26 -24.5 -33.5t-26.5 -7.5h-153
q-14 0 -21.5 10t-1.5 31l61 241q9 39 41 39h240z" />
    <glyph glyph-name="tcommaaccent" unicode="&#x163;" horiz-adv-x="862" 
d="M799 39q0 -15 -10.5 -26.5t-28.5 -14.5q-98 -16 -162 -16q-90 0 -149.5 14t-106 51.5t-67.5 107.5t-21 177v594l-164 26q-18 3 -30.5 14.5t-12.5 28.5v135q0 17 13 30.5t30 13.5h164v167q0 34 41 41l250 43h6q15 0 26 -9.5t11 -24.5v-217h168q17 0 29 -12t12 -29v-166
q0 -17 -12 -29t-29 -12h-168v-596q0 -63 11 -80t56 -17h101q43 0 43 -34v-160zM551 -78q47 0 27 -39l-142 -241q-16 -26 -24.5 -33.5t-26.5 -7.5h-154q-33 0 -22 41l61 241q9 39 41 39h240z" />
    <glyph glyph-name="Tcaron" unicode="&#x164;" horiz-adv-x="1202" 
d="M1151 1272q0 -17 -12.5 -28t-30.5 -11h-332v-1192q0 -17 -12 -29t-29 -12h-268q-17 0 -29 12t-12 29v1192h-334q-17 0 -29 11t-12 28v211q0 17 12 28t29 11h1016q18 0 30.5 -11t12.5 -28v-211zM1010 1917q0 -9 -9 -21l-182 -239q-15 -19 -24.5 -25t-30.5 -6h-328
q-21 0 -31 6t-24 25l-180 239q-8 11 -8 21q0 14 18 14h211q19 0 27.5 -4.5t21.5 -19.5l129 -144l131 144q13 15 21.5 19.5t27.5 4.5h211q19 0 19 -14z" />
    <glyph glyph-name="tcaron" unicode="&#x165;" horiz-adv-x="1253" 
d="M799 39q0 -15 -10.5 -26.5t-28.5 -14.5q-98 -16 -162 -16q-90 0 -149.5 14t-106 51.5t-67.5 107.5t-21 177v594l-164 26q-18 3 -30.5 14.5t-12.5 28.5v135q0 17 13 30.5t30 13.5h164v167q0 34 41 41l250 43h6q15 0 26 -9.5t11 -24.5v-217h168q17 0 29 -12t12 -29v-166
q0 -17 -12 -29t-29 -12h-168v-596q0 -63 11 -80t56 -17h101q43 0 43 -34v-160zM1305 1548q0 -1 -5 -16l-153 -449q-8 -21 -16.5 -30t-22.5 -9h-207q-18 0 -18 21q0 12 2 18l110 449q8 39 41 39h244q11 0 18 -6.5t7 -16.5z" />
    <glyph glyph-name="Tbar" unicode="&#x166;" horiz-adv-x="1202" 
d="M1108 680h-332v-639q0 -17 -12 -29t-29 -12h-268q-17 0 -29 12t-12 29v639h-334q-17 0 -29 11t-12 28v211q0 17 12 28t29 11h334v264h-334q-17 0 -29 11t-12 28v211q0 17 12 28t29 11h1016q18 0 30.5 -11t12.5 -28v-211q0 -17 -12.5 -28t-30.5 -11h-332v-264h332
q18 0 30.5 -11t12.5 -28v-211q0 -17 -12.5 -28t-30.5 -11z" />
    <glyph glyph-name="tbar" unicode="&#x167;" horiz-adv-x="862" 
d="M799 39q0 -15 -10.5 -26.5t-28.5 -14.5q-98 -16 -162 -16q-90 0 -149.5 14t-106 51.5t-67.5 107.5t-21 177v184l-164 27q-18 3 -30.5 14.5t-12.5 28.5v135q0 17 13 30t30 13h164v162l-164 26q-18 3 -30.5 14.5t-12.5 28.5v135q0 17 13 30.5t30 13.5h164v167q0 34 41 41
l250 43q21 3 32 -6.5t11 -27.5v-217h168q17 0 29 -12t12 -29v-166q0 -17 -12 -29t-29 -12h-168v-162h168q17 0 29 -12t12 -29v-166q0 -17 -12 -29t-29 -12h-168v-186q0 -63 11 -80t56 -17h101q43 0 43 -34v-160z" />
    <glyph glyph-name="Utilde" unicode="&#x168;" horiz-adv-x="1456" 
d="M1319 571q0 -136 -31 -240t-83 -169.5t-129.5 -106.5t-161.5 -57t-187 -16t-187 16t-161 57t-129 106.5t-82.5 169.5t-30.5 240v912q0 17 12 28t29 11h268q17 0 29 -11t12 -28v-912q0 -161 52.5 -229t187.5 -68t188.5 68.5t53.5 228.5v912q0 17 12 28t29 11h266
q18 0 30.5 -11t12.5 -28v-912zM1100 1872q0 -118 -57 -170.5t-164 -52.5q-28 0 -64.5 11t-62.5 30q-115 66 -117 67q-15 8 -28 -7t-13 -44v-14q0 -33 -27 -33h-161q-29 0 -29 33v34q0 222 223 222q72 0 125 -39q58 -38 115 -66q20 -9 31.5 6t11.5 45v15q0 28 28 28h160
q29 0 29 -28v-37z" />
    <glyph glyph-name="utilde" unicode="&#x169;" horiz-adv-x="1253" 
d="M1130 41q0 -17 -11.5 -29t-28.5 -12h-230q-17 0 -29 12t-12 29v49q-83 -59 -158.5 -82.5t-175.5 -23.5q-87 0 -151.5 24t-104.5 64.5t-64 102t-33 126.5t-9 148v681q0 17 13 30.5t30 13.5h248q17 0 29 -13t12 -31v-681q0 -110 30 -150.5t121 -40.5q68 0 193 66v806
q0 18 12 31t29 13h247q17 0 30 -13.5t13 -30.5v-1089zM991 1534q0 -118 -57 -170.5t-164 -52.5q-28 0 -64.5 11t-62.5 30q-115 66 -117 67q-15 8 -28 -7t-13 -44v-14q0 -33 -26 -33h-162q-29 0 -29 33v35q0 221 224 221q71 0 124 -39q58 -38 115 -66q20 -9 31.5 6t11.5 45
v15q0 28 29 28h160q28 0 28 -28v-37z" />
    <glyph glyph-name="Umacron" unicode="&#x16a;" horiz-adv-x="1456" 
d="M1319 571q0 -136 -31 -240t-83 -169.5t-129.5 -106.5t-161.5 -57t-187 -16t-187 16t-161 57t-129 106.5t-82.5 169.5t-30.5 240v912q0 17 12 28t29 11h268q17 0 29 -11t12 -28v-912q0 -161 52.5 -229t187.5 -68t188.5 68.5t53.5 228.5v912q0 17 12 28t29 11h266
q18 0 30.5 -11t12.5 -28v-912zM1102 1712q0 -17 -12 -28t-29 -11h-664q-17 0 -29 11t-12 28v148q0 17 11.5 27.5t29.5 10.5h664q18 0 29.5 -10.5t11.5 -27.5v-148z" />
    <glyph glyph-name="umacron" unicode="&#x16b;" horiz-adv-x="1253" 
d="M1130 41q0 -17 -11.5 -29t-28.5 -12h-230q-17 0 -29 12t-12 29v49q-83 -59 -158.5 -82.5t-175.5 -23.5q-87 0 -151.5 24t-104.5 64.5t-64 102t-33 126.5t-9 148v681q0 17 13 30.5t30 13.5h248q17 0 29 -13t12 -31v-681q0 -110 30 -150.5t121 -40.5q68 0 193 66v806
q0 18 12 31t29 13h247q17 0 30 -13.5t13 -30.5v-1089zM999 1376q0 -17 -12 -28t-29 -11h-663q-17 0 -29 11t-12 28v148q0 17 12 28t29 11h663q17 0 29 -11t12 -28v-148z" />
    <glyph glyph-name="Ubreve" unicode="&#x16c;" horiz-adv-x="1456" 
d="M1319 571q0 -136 -31 -240t-83 -169.5t-129.5 -106.5t-161.5 -57t-187 -16t-187 16t-161 57t-129 106.5t-82.5 169.5t-30.5 240v912q0 17 12 28t29 11h268q17 0 29 -11t12 -28v-912q0 -161 52.5 -229t187.5 -68t188.5 68.5t53.5 228.5v912q0 17 12 28t29 11h266
q18 0 30.5 -11t12.5 -28v-912zM1112 1931q0 -1 -1 -3.5t-1 -4.5q-32 -133 -127 -215t-252 -82t-252 82t-127 215q0 2 -1 4.5t-1 3.5q0 15 21 15h178q20 0 26 -25q31 -117 156 -117t156 117q3 10 4.5 14t6.5 7.5t15 3.5h179q20 0 20 -15z" />
    <glyph glyph-name="ubreve" unicode="&#x16d;" horiz-adv-x="1253" 
d="M1130 41q0 -17 -11.5 -29t-28.5 -12h-230q-17 0 -29 12t-12 29v49q-83 -59 -158.5 -82.5t-175.5 -23.5q-87 0 -151.5 24t-104.5 64.5t-64 102t-33 126.5t-9 148v681q0 17 13 30.5t30 13.5h248q17 0 29 -13t12 -31v-681q0 -110 30 -150.5t121 -40.5q68 0 193 66v806
q0 18 12 31t29 13h247q17 0 30 -13.5t13 -30.5v-1089zM1004 1581q0 -1 -1.5 -3.5t-1.5 -4.5q-32 -133 -126.5 -215t-251.5 -82t-252 82t-127 215q0 2 -1 4.5t-1 3.5q0 14 20 14h178q21 0 27 -24q31 -117 156 -117q124 0 155 117q3 14 8 19t19 5h178q21 0 21 -14z" />
    <glyph glyph-name="Uring" unicode="&#x16e;" horiz-adv-x="1456" 
d="M1319 571q0 -136 -31 -240t-83 -169.5t-129.5 -106.5t-161.5 -57t-187 -16t-187 16t-161 57t-129 106.5t-82.5 169.5t-30.5 240v912q0 17 12 28t29 11h268q17 0 29 -11t12 -28v-912q0 -161 52.5 -229t187.5 -68t188.5 68.5t53.5 228.5v912q0 17 12 28t29 11h266
q18 0 30.5 -11t12.5 -28v-912zM969 1804q0 -100 -70 -169.5t-170 -69.5t-170 69.5t-70 169.5t70 170t170 70t170 -70t70 -170zM819 1804q0 37 -26.5 63.5t-63.5 26.5t-63.5 -26.5t-26.5 -63.5t26.5 -63.5t63.5 -26.5t63.5 26.5t26.5 63.5z" />
    <glyph glyph-name="uring" unicode="&#x16f;" horiz-adv-x="1253" 
d="M1130 41q0 -17 -11.5 -29t-28.5 -12h-230q-17 0 -29 12t-12 29v49q-83 -59 -158.5 -82.5t-175.5 -23.5q-87 0 -151.5 24t-104.5 64.5t-64 102t-33 126.5t-9 148v681q0 17 13 30.5t30 13.5h248q17 0 29 -13t12 -31v-681q0 -110 30 -150.5t121 -40.5q68 0 193 66v806
q0 18 12 31t29 13h247q17 0 30 -13.5t13 -30.5v-1089zM866 1456q0 -100 -69.5 -169.5t-169.5 -69.5t-170 69.5t-70 169.5t70 170t170 70t169.5 -70t69.5 -170zM717 1456q0 37 -26.5 63.5t-63.5 26.5t-63.5 -26.5t-26.5 -63.5t26.5 -63.5t63.5 -26.5t63.5 26.5t26.5 63.5z
" />
    <glyph glyph-name="Uhungarumlaut" unicode="&#x170;" horiz-adv-x="1456" 
d="M1319 571q0 -136 -31 -240t-83 -169.5t-129.5 -106.5t-161.5 -57t-187 -16t-187 16t-161 57t-129 106.5t-82.5 169.5t-30.5 240v912q0 17 12 28t29 11h268q17 0 29 -11t12 -28v-912q0 -161 52.5 -229t187.5 -68t188.5 68.5t53.5 228.5v912q0 17 12 28t29 11h266
q18 0 30.5 -11t12.5 -28v-912zM1313 1917q0 -8 -8 -16l-250 -250q-10 -10 -14.5 -14t-14 -7.5t-22.5 -3.5h-220q-18 0 -18 14q0 10 8 21l191 240q14 18 24 24t31 6h270q23 0 23 -14zM836 1917q0 -7 -9 -16l-249 -250q-10 -10 -15 -14t-14.5 -7.5t-22.5 -3.5h-219
q-18 0 -18 14q0 10 8 21l190 240q14 18 24.5 24t31.5 6h270q23 0 23 -14z" />
    <glyph glyph-name="uhungarumlaut" unicode="&#x171;" horiz-adv-x="1253" 
d="M1130 41q0 -17 -11.5 -29t-28.5 -12h-230q-17 0 -29 12t-12 29v49q-83 -59 -158.5 -82.5t-175.5 -23.5q-87 0 -151.5 24t-104.5 64.5t-64 102t-33 126.5t-9 148v681q0 17 13 30.5t30 13.5h248q17 0 29 -13t12 -31v-681q0 -110 30 -150.5t121 -40.5q68 0 193 66v806
q0 18 12 31t29 13h247q17 0 30 -13.5t13 -30.5v-1089zM1210 1581q0 -8 -8 -16l-250 -250q-10 -10 -14.5 -14t-14 -7.5t-22.5 -3.5h-219q-18 0 -18 15q0 9 8 20l190 240q14 18 24.5 24t31.5 6h270q22 0 22 -14zM733 1581q0 -8 -8 -16l-250 -250q-10 -10 -14.5 -14t-14 -7.5
t-22.5 -3.5h-219q-19 0 -19 15q0 8 9 20l190 240q14 18 24 24t31 6h271q22 0 22 -14z" />
    <glyph glyph-name="Uogonek" unicode="&#x172;" horiz-adv-x="1456" 
d="M1319 571q0 -193 -53.5 -309.5t-186.5 -206.5l-172 -116q-26 -16 -39.5 -30t-13.5 -32q0 -30 19.5 -42.5t64.5 -12.5q29 0 79 9t58 9q13 0 17 -4.5t4 -19.5v-156q0 -20 -23 -31q-32 -13 -100 -27t-142 -14q-55 0 -102 10t-87.5 32t-63.5 62t-23 95q0 66 25.5 112t85.5 85
q-93 5 -169.5 25t-145 63t-114.5 107.5t-73 164t-27 227.5v912q0 17 12 28t29 11h268q17 0 29 -11t12 -28v-912q0 -161 52.5 -229t187.5 -68t188.5 68.5t53.5 228.5v912q0 17 12 28t29 11h266q18 0 30.5 -11t12.5 -28v-912z" />
    <glyph glyph-name="uogonek" unicode="&#x173;" horiz-adv-x="1253" 
d="M819 14v76q-83 -59 -158.5 -82.5t-175.5 -23.5q-87 0 -151.5 24t-104.5 64.5t-64 102t-33 126.5t-9 148v681q0 17 13 30.5t30 13.5h248q17 0 29 -13t12 -31v-681q0 -110 30 -150.5t121 -40.5q68 0 193 66v806q0 18 12 31t29 13h247q17 0 30 -13.5t13 -30.5v-1089
q0 -14 -4.5 -21t-17.5 -16l-98 -65q-30 -19 -42 -35t-12 -39q0 -43 58 -43q18 0 49 5t43 5q14 0 19 -5t5 -20v-153q0 -22 -22 -33q-68 -33 -182 -33q-75 0 -132.5 17t-97 63.5t-39.5 118.5q0 71 33 118.5t113 98.5z" />
    <glyph glyph-name="Wcircumflex" unicode="&#x174;" horiz-adv-x="1820" 
d="M1786 1495v-4l-191 -1341q-12 -86 -57.5 -121t-130.5 -35h-117q-152 0 -188 139l-162 612q-3 11 -6.5 14t-11.5 3t-11 -3t-6 -14l-162 -612q-36 -139 -188 -139h-117q-85 0 -130.5 35t-57.5 121l-191 1341v4q0 27 33 27h279q12 0 21.5 -11t10.5 -28l117 -1098
q3 -27 12 -27t15 27l147 563q25 99 127 99h203q102 0 127 -99l147 -563q6 -27 15 -27t12 27l117 1098q1 17 11 28t22 11h278q33 0 33 -27zM1329 1642q0 -14 -18 -14h-211q-19 0 -27 5t-22 20l-129 143l-131 -143q-13 -15 -22 -20t-28 -5h-211q-18 0 -18 14q0 10 8 21
l182 240q14 18 24.5 24t31.5 6h327q22 0 32 -5.5t24 -24.5l180 -240q8 -11 8 -21z" />
    <glyph glyph-name="wcircumflex" unicode="&#x175;" horiz-adv-x="1730" 
d="M1671 1139v-9l-182 -987q-16 -81 -61.5 -112t-118.5 -31h-125q-138 0 -172 131l-138 535q-1 7 -3 8.5t-7 1.5h-4t-2.5 -1t-2 -3l-1.5 -6l-137 -535q-34 -131 -172 -131h-125q-73 0 -118.5 31t-61.5 112l-183 987v9q0 14 9 24.5t22 10.5h248q21 0 30.5 -6.5t12.5 -28.5
l121 -779q3 -26 12 -26q10 0 16 26l138 541q13 53 38 72.5t76 19.5h168q51 0 76.5 -19.5t38.5 -72.5l137 -541q6 -26 17 -26q9 0 12 26l121 779q3 22 12.5 28.5t30.5 6.5h247q13 0 22 -10.5t9 -24.5zM1276 1305q0 -15 -19 -15h-210q-19 0 -28 5t-22 20l-129 143l-131 -143
q-10 -11 -14.5 -15t-13 -7t-21.5 -3h-211q-18 0 -18 15q0 9 8 20l182 240q14 18 24.5 24t31.5 6h327q22 0 31.5 -5.5t23.5 -24.5l181 -240q8 -11 8 -20z" />
    <glyph glyph-name="Ycircumflex" unicode="&#x176;" horiz-adv-x="1325" 
d="M1282 1491q0 -10 -2 -14l-309 -709q-55 -126 -133 -158v-569q0 -17 -12 -29t-29 -12h-269q-17 0 -29 12t-12 29v569q-80 33 -135 158l-309 709q-2 4 -2 14q0 13 9.5 22t23.5 9h295q29 0 41 -35l221 -578q7 -19 13.5 -24.5t17.5 -5.5t17 5.5t13 24.5l221 578q12 35 41 35
h295q15 0 24 -9t9 -22zM1075 1642q0 -14 -18 -14h-211q-19 0 -27 5t-22 20l-129 143l-131 -143q-13 -15 -22 -20t-28 -5h-211q-18 0 -18 14q0 10 8 21l183 240q14 18 24 24t31 6h327q22 0 32 -5.5t24 -24.5l180 -240q8 -11 8 -21z" />
    <glyph glyph-name="ycircumflex" unicode="&#x177;" horiz-adv-x="1212" 
d="M1167 1137q0 -2 -1 -5.5t-1 -5.5l-344 -1206q-20 -71 -42 -120t-56 -92.5t-80.5 -68.5t-113.5 -39t-156 -14q-56 0 -132.5 10.5t-115.5 22.5q-16 6 -22.5 8.5t-13.5 10t-7 18.5v166q0 17 12 28t29 11h4q10 -1 113 -9t143 -8q56 0 86.5 23t48.5 84l19 63h-31q-34 0 -56 5
t-48 23t-47.5 58.5t-39.5 104.5l-270 921q-2 6 -2 15q0 33 41 33h272q14 0 25 -11.5t14 -27.5l185 -770q8 -39 24 -39h2h8h9l190 809q3 16 15 27.5t28 11.5h272q15 0 27 -11t12 -26zM1016 1305q0 -15 -19 -15h-211q-19 0 -27 5t-22 20l-129 143l-131 -143q-10 -11 -14.5 -15
t-13 -7t-21.5 -3h-211q-18 0 -18 15q0 9 8 20l182 240q14 18 24 24t31 6h328q22 0 31.5 -5.5t23.5 -24.5l181 -240q8 -11 8 -20z" />
    <glyph glyph-name="Ydieresis" unicode="&#x178;" horiz-adv-x="1325" 
d="M1282 1491q0 -10 -2 -14l-309 -709q-55 -126 -133 -158v-569q0 -17 -12 -29t-29 -12h-269q-17 0 -29 12t-12 29v569q-80 33 -135 158l-309 709q-2 4 -2 14q0 13 9.5 22t23.5 9h295q29 0 41 -35l221 -578q7 -19 13.5 -24.5t17.5 -5.5t17 5.5t13 24.5l221 578q12 35 41 35
h295q15 0 24 -9t9 -22zM1024 1675q0 -17 -13.5 -29t-31.5 -12h-193q-17 0 -30 12t-13 29v191q0 17 13 29t30 12h193q18 0 31.5 -12t13.5 -29v-191zM580 1675q0 -17 -13 -29t-30 -12h-193q-18 0 -31.5 12t-13.5 29v191q0 17 13.5 29t31.5 12h193q17 0 30 -12t13 -29v-191z
" />
    <glyph glyph-name="Zacute" unicode="&#x179;" horiz-adv-x="1259" 
d="M1157 41q0 -17 -12 -29t-29 -12h-930q-84 0 -84 63v164q0 44 31 90l572 865q8 11 8 20q0 17 -23 17h-510q-18 0 -29.5 10.5t-11.5 27.5v226q0 17 12 28t29 11h883q35 0 58.5 -15t23.5 -43q2 -20 2 -49l-2 -137q0 -26 -17 -53l-577 -885q-10 -13 -10 -23q0 -14 22 -14h553
q18 0 29.5 -10t11.5 -27v-225zM1004 1917q0 -7 -9 -16l-250 -250q-2 -2 -4.5 -5t-4 -4t-4 -3.5t-4 -3.5t-4 -2.5t-4.5 -2.5t-4.5 -2t-5.5 -1t-6.5 -0.5t-7.5 -0.5h-219q-18 0 -18 14q0 10 8 21l190 240q14 18 24.5 24t31.5 6h268q23 0 23 -14z" />
    <glyph glyph-name="zacute" unicode="&#x17a;" horiz-adv-x="1054" 
d="M967 41q0 -17 -12 -29t-29 -12h-768q-28 0 -49 20t-21 48v131q0 35 29 77l444 607q6 9 6 14q0 10 -14 10h-412q-15 0 -25 9t-10 24v193q0 17 12 29t29 12h748q28 0 48 -21t20 -49v-152q0 -37 -23 -71l-424 -580q-6 -9 -6 -14q0 -8 14 -8h406q15 0 26 -9t11 -24v-205z
M913 1581q0 -8 -8 -16l-250 -250q-2 -2 -4.5 -5t-4 -4t-4 -3.5t-4 -3.5t-4 -2.5t-4.5 -2.5t-4.5 -2t-5.5 -1t-6.5 -0.5t-7.5 -0.5h-219q-18 0 -18 15q0 9 8 20l190 240q14 18 24.5 24t31.5 6h268q22 0 22 -14z" />
    <glyph glyph-name="Zdotaccent" unicode="&#x17b;" horiz-adv-x="1259" 
d="M1157 41q0 -17 -12 -29t-29 -12h-930q-84 0 -84 63v164q0 44 31 90l572 865q8 11 8 20q0 17 -23 17h-510q-18 0 -29.5 10.5t-11.5 27.5v226q0 17 12 28t29 11h883q35 0 58.5 -15t23.5 -43q2 -20 2 -49l-2 -137q0 -26 -17 -53l-577 -885q-10 -13 -10 -23q0 -14 22 -14h553
q18 0 29.5 -10t11.5 -27v-225zM803 1683q0 -17 -12 -29t-29 -12h-266q-17 0 -29 12t-12 29v191q0 17 12 29t29 12h266q17 0 29 -12t12 -29v-191z" />
    <glyph glyph-name="zdotaccent" unicode="&#x17c;" horiz-adv-x="1054" 
d="M967 41q0 -17 -12 -29t-29 -12h-768q-28 0 -49 20t-21 48v131q0 35 29 77l444 607q6 9 6 14q0 10 -14 10h-412q-15 0 -25 9t-10 24v193q0 17 12 29t29 12h748q28 0 48 -21t20 -49v-152q0 -37 -23 -71l-424 -580q-6 -9 -6 -14q0 -8 14 -8h406q15 0 26 -9t11 -24v-205z
M700 1348q0 -17 -12 -29t-29 -12h-266q-17 0 -29 12t-12 29v190q0 17 12 29t29 12h266q17 0 29 -12t12 -29v-190z" />
    <glyph glyph-name="Zcaron" unicode="&#x17d;" horiz-adv-x="1259" 
d="M1157 41q0 -17 -12 -29t-29 -12h-930q-84 0 -84 63v164q0 44 31 90l572 865q8 11 8 20q0 17 -23 17h-510q-18 0 -29.5 10.5t-11.5 27.5v226q0 17 12 28t29 11h883q35 0 58.5 -15t23.5 -43q2 -20 2 -49l-2 -137q0 -26 -17 -53l-577 -885q-10 -13 -10 -23q0 -14 22 -14h553
q18 0 29.5 -10t11.5 -27v-225zM1055 1917q0 -10 -8 -21l-183 -239q-15 -19 -24.5 -25t-30.5 -6h-328q-21 0 -31 6t-24 25l-180 239q-8 11 -8 21q0 14 18 14h211q19 0 27.5 -4.5t21.5 -19.5l129 -144l131 144q13 15 21.5 19.5t27.5 4.5h211q19 0 19 -14z" />
    <glyph glyph-name="zcaron" unicode="&#x17e;" horiz-adv-x="1054" 
d="M967 41q0 -17 -12 -29t-29 -12h-768q-28 0 -49 20t-21 48v131q0 35 29 77l444 607q6 9 6 14q0 10 -14 10h-412q-15 0 -25 9t-10 24v193q0 17 12 29t29 12h748q28 0 48 -21t20 -49v-152q0 -37 -23 -71l-424 -580q-6 -9 -6 -14q0 -8 14 -8h406q15 0 26 -9t11 -24v-205z
M958 1581q0 -9 -8 -20l-182 -240q-15 -19 -24.5 -25t-30.5 -6h-328q-21 0 -31 6t-24 25l-180 240q-9 12 -9 20q0 14 19 14h211q19 0 27.5 -4.5t21.5 -19.5l129 -144l131 144q13 15 21.5 19.5t27.5 4.5h211q18 0 18 -14z" />
    <glyph glyph-name="florin" unicode="&#x192;" 
d="M1253 1554v-8l-20 -153q-1 -17 -14.5 -27t-34.5 -10h-133q-74 0 -101 -21t-35 -80l-45 -325h275q17 0 27 -9.5t10 -23.5v-6l-25 -172q-3 -18 -16 -30.5t-31 -12.5h-274l-95 -666q-14 -99 -53 -168.5t-98.5 -108t-127.5 -55t-153 -16.5q-110 0 -203 19q-36 7 -36 30v8
l20 154q1 17 14.5 27t34.5 10h133q74 0 101 20.5t35 79.5l92 666h-258q-17 0 -27 10.5t-10 26.5v6l24 172q3 17 15.5 28t31.5 11h261l45 325q47 349 432 349q110 0 203 -19q36 -7 36 -31z" />
    <glyph glyph-name="Ohorn" unicode="&#x1a0;" horiz-adv-x="1429" 
d="M1321 639q0 -173 -46.5 -302t-130.5 -205.5t-191 -113t-238 -36.5t-238 36.5t-191 113t-130.5 205.5t-46.5 302v244q0 173 46.5 302t130.5 205.5t191 113t238 36.5q92 0 174 -18h61q63 0 106.5 44.5t43.5 119.5q0 16 10 28t27 12h186q17 0 27 -11t10 -29
q0 -106 -52.5 -189t-148.5 -125q162 -168 162 -489v-244zM969 639v244q0 183 -62 266.5t-192 83.5t-191 -83.5t-61 -266.5v-244q0 -183 61 -266.5t191 -83.5t192 83.5t62 266.5z" />
    <glyph glyph-name="ohorn" unicode="&#x1a1;" horiz-adv-x="1206" 
d="M1116 514q0 -248 -133 -390t-379 -142t-380 142t-134 390v143q0 248 134 390.5t380 142.5q77 0 152 -16h26q63 0 106.5 44t43.5 119q0 16 10.5 28.5t26.5 12.5h186q17 0 27 -11.5t10 -29.5q0 -105 -50 -186t-143 -123q117 -142 117 -371v-143zM786 514v143
q0 250 -182 250q-90 0 -137 -63t-47 -187v-143q0 -124 47 -188t137 -64q89 0 135.5 64t46.5 188z" />
    <glyph glyph-name="Uhorn" unicode="&#x1af;" horiz-adv-x="1456" 
d="M1319 571q0 -136 -31 -240t-83 -169.5t-129.5 -106.5t-161.5 -57t-187 -16t-187 16t-161 57t-129 106.5t-82.5 169.5t-30.5 240v912q0 17 12 28t29 11h268q17 0 29 -11t12 -28v-912q0 -161 52.5 -229t187.5 -68t188.5 68.5t53.5 228.5v912q0 17 12 28t29 11h86h10h31
q63 0 106 44.5t43 119.5q0 16 10 28t27 12h186q17 0 27 -11t10 -29q0 -115 -59.5 -200.5t-167.5 -123.5v-791z" />
    <glyph glyph-name="uhorn" unicode="&#x1b0;" horiz-adv-x="1253" 
d="M1130 41q0 -17 -11.5 -29t-28.5 -12h-230q-17 0 -29 12t-12 29v49q-83 -59 -158.5 -82.5t-175.5 -23.5q-87 0 -151.5 24t-104.5 64.5t-64 102t-33 126.5t-9 148v681q0 17 13 30.5t30 13.5h248q17 0 29 -13t12 -31v-681q0 -110 30 -150.5t121 -40.5q68 0 193 66v806
q0 18 12 31t29 13h65h10h31q63 0 106.5 44t43.5 119q0 16 10.5 28.5t26.5 12.5h186q17 0 27 -11.5t10 -29.5q0 -113 -59.5 -198t-166.5 -123v-975z" />
    <glyph glyph-name="AEacute" unicode="&#x1fc;" horiz-adv-x="1890" 
d="M1776 51q0 -20 -9.5 -30t-31.5 -13q-4 -1 -50 -8t-69.5 -9.5t-86 -5.5t-140.5 -3q-82 0 -147 8.5t-130 34t-109 68t-74 113.5t-36 167h-418l-74 -336q-3 -15 -14.5 -26t-26.5 -11h-286q-15 0 -25 9t-10 24q0 1 1 4.5t1 5.5l305 1270q14 57 41 97.5t57.5 61.5t75.5 33
t80 14.5t86 2.5h1049q41 0 41 -41v-199q0 -17 -12 -29t-29 -12h-496v-326h479q17 0 29 -12t12 -29v-194q0 -17 -12 -29t-29 -12h-479v-217q0 -79 29 -109t102 -30h365q17 0 29 -12t12 -29v-191zM891 653v596h-205q-23 0 -29 -30l-125 -566h359zM1423 1919q0 -8 -8 -16
l-250 -250q-2 -2 -4.5 -5t-4 -4t-4 -3.5t-4 -3.5t-4 -2.5t-4.5 -2.5t-4.5 -2t-5.5 -1t-6.5 -0.5t-7.5 -0.5h-219q-18 0 -18 14q0 10 8 21l190 240q14 18 24.5 24t31.5 6h268q22 0 22 -14z" />
    <glyph glyph-name="aeacute" unicode="&#x1fd;" horiz-adv-x="1804" 
d="M1710 543q0 -17 -13 -30t-30 -13h-635v-84q0 -85 60 -121.5t178 -36.5q198 0 354 16h10q33 0 33 -32v-148q0 -23 -8 -34.5t-31 -18.5q-174 -59 -405 -59q-178 0 -289 94q-174 -94 -399 -94q-72 0 -136 12.5t-122 40.5t-100 70t-66.5 105t-24.5 142v23q0 173 135 248
t395 75h86v19q0 112 -35 154t-124 42q-206 0 -334 -14h-6q-15 0 -25 10t-10 27v162q0 17 11 31t30 18q167 43 334 43q225 0 348 -123q129 123 323 123q127 0 223 -37.5t155 -107t88.5 -162.5t29.5 -209v-131zM1393 680v37q0 217 -181 217q-91 0 -135.5 -57t-44.5 -160v-37
h361zM713 244v274h-97q-111 0 -163 -33t-52 -110v-23q0 -70 46 -102.5t116 -32.5q89 0 150 27zM1307 1581q0 -7 -9 -16l-249 -250l-11 -11t-9 -7t-13.5 -6t-16.5 -1h-219q-18 0 -18 15q0 9 8 20l191 240q14 18 24 24t31 6h268q23 0 23 -14z" />
    <glyph glyph-name="Oslashacute" unicode="&#x1fe;" horiz-adv-x="1429" 
d="M1386 1513q0 -7 -6 -16l-153 -211q94 -159 94 -403v-244q0 -173 -46.5 -302t-130.5 -205.5t-191 -113t-238 -36.5q-208 0 -357 94l-39 -56q-29 -38 -53 -38h-198q-10 0 -16.5 6.5t-6.5 15.5q0 7 6 16l154 213q-96 163 -96 406v244q0 173 46.5 302t130.5 205.5t191 113
t238 36.5q218 0 360 -94l37 51q29 39 53 39h199q10 0 16 -7t6 -16zM883 1178q-61 55 -168 55q-130 0 -191 -83.5t-61 -266.5v-244q0 -7 1 -21.5t1 -21.5zM969 909v15l-418 -582q59 -53 164 -53q130 0 192 83.5t62 266.5v244v26zM1069 1919q0 -8 -8 -16l-250 -250
q-2 -2 -4.5 -5t-4 -4t-4 -3.5t-4 -3.5t-4 -2.5t-4.5 -2.5t-4.5 -2t-5.5 -1t-6.5 -0.5t-7.5 -0.5h-219q-19 0 -19 14q0 10 8 21l191 240q14 18 24 24t31 6h269q22 0 22 -14z" />
    <glyph glyph-name="oslashacute" unicode="&#x1ff;" horiz-adv-x="1206" 
d="M1145 1225q0 -15 -8 -23l-133 -178q112 -136 112 -367v-143q0 -248 -133 -390t-379 -142q-185 0 -307 81l-86 -114q-16 -21 -33 -21h-102q-17 0 -17 17q0 10 9 22l135 183q-113 137 -113 364v143q0 248 134 390.5t380 142.5q183 0 307 -82l82 113q16 20 33 20h102
q17 0 17 -16zM727 860q-47 47 -123 47q-90 0 -137 -63t-47 -187v-143q0 -25 4 -65zM786 514v143q0 26 -4 66l-303 -412q46 -49 125 -49q89 0 135.5 64t46.5 188zM983 1581q0 -8 -8 -16l-250 -250q-2 -2 -4.5 -5t-4 -4t-4 -3.5t-4 -3.5t-4 -2.5t-4.5 -2.5t-4.5 -2t-5.5 -1
t-6.5 -0.5t-7.5 -0.5h-219q-19 0 -19 15q0 9 8 20l191 240q14 18 24 24t31 6h269q22 0 22 -14z" />
    <glyph glyph-name="uni0218" unicode="&#x218;" horiz-adv-x="1204" 
d="M1118 430q0 -68 -17.5 -130t-59.5 -121t-105 -102t-159.5 -69t-217.5 -26q-214 0 -387 45q-41 12 -41 41v200q0 39 37 39h6q252 -24 389 -24q103 0 142.5 33.5t39.5 109.5q0 44 -28 76.5t-107 79.5l-282 168q-135 80 -188.5 174.5t-53.5 216.5q0 399 524 399
q107 0 239 -14.5t195 -30.5q31 -8 31 -37v-207q0 -34 -35 -34h-4q-313 22 -434 22q-86 0 -123 -26t-37 -83q0 -43 27 -71t111 -72l262 -141q152 -82 214 -182.5t62 -233.5zM700 -78q46 0 27 -39l-141 -241q-16 -26 -24.5 -33.5t-26.5 -7.5h-154q-14 0 -21.5 10t-1.5 31
l62 241q9 39 41 39h239z" />
    <glyph glyph-name="uni0219" unicode="&#x219;" horiz-adv-x="1030" 
d="M944 326q0 -153 -111.5 -248.5t-326.5 -95.5q-212 0 -373 45q-39 9 -39 47v166q0 16 10.5 27.5t28.5 11.5h8q230 -29 348 -29q70 0 95.5 19t25.5 61q0 24 -16.5 43t-58.5 43l-267 153q-88 50 -135 127.5t-47 175.5q0 318 420 318q183 0 364 -47q39 -9 39 -47v-166
q0 -18 -10 -28.5t-25 -10.5h-6q-199 27 -340 27q-61 0 -84.5 -12.5t-23.5 -47.5q0 -22 14 -36.5t49 -35.5l254 -145q118 -68 162.5 -144.5t44.5 -170.5zM631 -78q45 0 26 -39l-141 -241q-16 -26 -24.5 -33.5t-26.5 -7.5h-154q-33 0 -22 41l61 241q9 39 41 39h240z" />
    <glyph glyph-name="uni021A" unicode="&#x21a;" horiz-adv-x="1202" 
d="M1151 1272q0 -17 -12.5 -28t-30.5 -11h-332v-1192q0 -17 -12 -29t-29 -12h-268q-17 0 -29 12t-12 29v1192h-334q-17 0 -29 11t-12 28v211q0 17 12 28t29 11h1016q18 0 30.5 -11t12.5 -28v-211zM684 -78q46 0 27 -39l-142 -241q-16 -26 -24.5 -33.5t-26.5 -7.5h-153
q-14 0 -21.5 10t-1.5 31l61 241q9 39 41 39h240z" />
    <glyph glyph-name="uni021B" unicode="&#x21b;" horiz-adv-x="862" 
d="M799 39q0 -15 -10.5 -26.5t-28.5 -14.5q-98 -16 -162 -16q-90 0 -149.5 14t-106 51.5t-67.5 107.5t-21 177v594l-164 26q-18 3 -30.5 14.5t-12.5 28.5v135q0 17 13 30.5t30 13.5h164v167q0 34 41 41l250 43h6q15 0 26 -9.5t11 -24.5v-217h168q17 0 29 -12t12 -29v-166
q0 -17 -12 -29t-29 -12h-168v-596q0 -63 11 -80t56 -17h101q43 0 43 -34v-160zM551 -78q47 0 27 -39l-142 -241q-16 -26 -24.5 -33.5t-26.5 -7.5h-154q-33 0 -22 41l61 241q9 39 41 39h240z" />
    <glyph glyph-name="circumflex" unicode="&#x2c6;" horiz-adv-x="907" 
d="M862 1305q0 -15 -18 -15h-211q-19 0 -27 5t-22 20l-129 143l-131 -143q-13 -15 -22 -20t-28 -5h-211q-18 0 -18 15q0 9 8 20l183 240q14 18 24 24t31 6h327q22 0 32 -5.5t24 -24.5l180 -240q8 -11 8 -20z" />
    <glyph glyph-name="caron" unicode="&#x2c7;" horiz-adv-x="907" 
d="M862 1581q0 -9 -8 -20l-182 -240q-14 -18 -24.5 -24.5t-31.5 -6.5h-327q-21 0 -31.5 6t-24.5 25l-180 240q-8 11 -8 20q0 14 18 14h211q19 0 28 -4.5t22 -19.5l129 -144l131 144q13 15 21.5 19.5t27.5 4.5h211q18 0 18 -14z" />
    <glyph glyph-name="uni02C9" unicode="&#x2c9;" horiz-adv-x="907" 
d="M827 1376q0 -17 -12 -28t-29 -11h-663q-17 0 -29 11t-12 28v148q0 17 12 28t29 11h663q17 0 29 -11t12 -28v-148z" />
    <glyph glyph-name="breve" unicode="&#x2d8;" horiz-adv-x="907" 
d="M836 1581q0 -1 -1 -3.5t-1 -4.5q-32 -133 -127 -215t-252 -82t-252 82t-127 215q0 2 -1 4.5t-1 3.5q0 14 20 14h178q21 0 27 -24q31 -117 156 -117q124 0 155 117q3 14 8 19t19 5h178q21 0 21 -14z" />
    <glyph glyph-name="dotaccent" unicode="&#x2d9;" horiz-adv-x="907" 
d="M627 1348q0 -17 -12 -29t-29 -12h-267q-17 0 -28.5 12t-11.5 29v190q0 17 11.5 29t28.5 12h267q17 0 29 -12t12 -29v-190z" />
    <glyph glyph-name="ring" unicode="&#x2da;" horiz-adv-x="907" 
d="M694 1456q0 -100 -69.5 -169.5t-169.5 -69.5t-170 69.5t-70 169.5t70 170t170 70t169.5 -70t69.5 -170zM545 1456q0 37 -26.5 63.5t-63.5 26.5t-63.5 -26.5t-26.5 -63.5t26.5 -63.5t63.5 -26.5t63.5 26.5t26.5 63.5z" />
    <glyph glyph-name="ogonek" unicode="&#x2db;" horiz-adv-x="872" 
d="M682 -338v-2q0 -20 -23 -31q-32 -13 -99.5 -27t-141.5 -14q-55 0 -102.5 10t-88 32t-63.5 62t-23 95q0 72 33.5 121.5t112.5 95.5l98 57q22 15 59 15h201q17 0 19 -11t-11 -20l-159 -106q-18 -11 -27.5 -18.5t-18 -19t-8.5 -24.5q0 -30 19.5 -42.5t64.5 -12.5
q29 0 79.5 9t58.5 9q13 0 16.5 -4.5t3.5 -19.5v-154z" />
    <glyph glyph-name="tilde" unicode="&#x2dc;" horiz-adv-x="1017" 
d="M909 1528q0 -130 -64.5 -188t-185.5 -58q-78 0 -145 45l-86 59q-52 37 -84 37q-47 0 -47 -55v-39q0 -35 -31 -35h-145q-31 0 -31 35v39q0 244 252 244q79 0 143 -43l88 -58q55 -36 82 -36q24 0 35.5 12t11.5 43v39q0 33 33 33h144q30 0 30 -33v-41z" />
    <glyph glyph-name="hungarumlaut" unicode="&#x2dd;" horiz-adv-x="907" 
d="M997 1581q0 -8 -8 -16l-250 -250q-10 -10 -14.5 -14t-14 -7.5t-22.5 -3.5h-219q-18 0 -18 15q0 9 8 20l190 240q14 18 24.5 24t31.5 6h270q22 0 22 -14zM520 1581q0 -8 -8 -16l-250 -250q-10 -10 -14.5 -14t-14 -7.5t-22.5 -3.5h-219q-19 0 -19 15q0 8 9 20l190 240
q14 18 24 24t31 6h271q22 0 22 -14z" />
    <glyph glyph-name="uni03A9" unicode="&#x3a9;" horiz-adv-x="1466" 
d="M733 1546q145 0 259 -34t198 -105t129 -188t45 -275v-24q0 -79 -6 -138t-26 -126t-55.5 -116t-97 -94t-147.5 -73v-56h228q47 0 47 -41v-233q0 -43 -47 -43h-392q-43 0 -43 43v436q0 27 5.5 36t23.5 15q93 32 123.5 117t30.5 273v24q0 289 -275 289q-274 0 -274 -289v-24
q0 -188 30 -273t123 -117q18 -6 23.5 -15t5.5 -36v-436q0 -43 -43 -43h-391q-47 0 -47 43v233q0 41 47 41h227v56q-86 28 -147.5 73t-97 94t-55.5 116t-26 126t-6 138v24q0 158 45 275t129 188t198 105t259 34z" />
    <glyph glyph-name="uni03BC" unicode="&#x3bc;" horiz-adv-x="1253" 
d="M1130 100q0 -23 -13.5 -37t-49.5 -26q-163 -55 -432 -55q-103 0 -182 18v-350q0 -17 -12 -29t-29 -12h-250q-17 0 -29 12t-12 29v1478q0 18 13 32t30 14h248q17 0 30 -14t13 -32v-679q0 -105 42 -150t138 -45q107 0 164 14v860q0 18 12 32t29 14h247q17 0 30 -14t13 -32
v-1028z" />
    <glyph glyph-name="pi" unicode="&#x3c0;" horiz-adv-x="1376" 
d="M1303 930h-142v-656q0 -36 17 -43.5t86 -7.5h49q20 0 20 -22v-191v-7t-1 -5t-1.5 -4t-2 -3t-2.5 -2t-3 -1.5t-3.5 -1t-4 -1.5t-4.5 -1q-14 -3 -79.5 -6t-94.5 -3q-137 0 -191.5 67t-54.5 232v656h-406v-889q0 -41 -28 -41h-211q-31 0 -31 41v889h-141q-18 0 -24.5 6
t-6.5 25v161q0 20 6.5 26.5t24.5 6.5h1229q18 0 24 -6.5t6 -26.5v-161q0 -20 -6 -25.5t-24 -5.5z" />
    <glyph glyph-name="afii10023" unicode="&#x401;" horiz-adv-x="1187" 
d="M1073 51q0 -20 -9.5 -30t-31.5 -13q-187 -26 -397 -26q-61 0 -111.5 4.5t-102.5 17.5t-93 33.5t-78 54.5t-61 79.5t-38 109t-14 141.5v680q0 91 18 162t53.5 118t79 79t103 48.5t117.5 23.5t129 7q201 0 395 -27q22 -3 31.5 -11.5t9.5 -28.5v-191q0 -17 -12 -29t-29 -12
h-416q-73 0 -102 -30t-29 -109v-187h531q17 0 29 -12t12 -29v-194q0 -17 -12 -29t-29 -12h-531v-217q0 -79 29 -109t102 -30h416q17 0 29 -12t12 -29v-191zM963 1681q0 -17 -13.5 -29t-31.5 -12h-193q-17 0 -30 12t-13 29v191q0 17 13 29t30 12h193q18 0 31.5 -12t13.5 -29
v-191zM518 1681q0 -17 -13 -29t-30 -12h-192q-18 0 -31.5 12t-13.5 29v191q0 17 13.5 29t31.5 12h192q17 0 30 -12t13 -29v-191z" />
    <glyph glyph-name="afii10051" unicode="&#x402;" horiz-adv-x="1646" 
d="M1544 328q0 -82 -18.5 -144t-50.5 -101.5t-79 -64.5t-100 -35t-118 -10q-48 0 -131 9q-14 2 -22.5 11.5t-8.5 22.5v209q0 11 6 20t16 9h103q33 0 43 16t10 58v254q0 101 -43.5 138.5t-132.5 37.5q-117 0 -242 -66v-651q0 -17 -12 -29t-29 -12h-268q-17 0 -29 12t-12 29
v1192h-334q-17 0 -29 11t-12 28v211q0 17 12 28t29 11h1016q18 0 30.5 -11t12.5 -28v-211q0 -17 -12.5 -28t-30.5 -11h-332v-279q66 39 162.5 66t196.5 27q409 0 409 -465v-254z" />
    <glyph glyph-name="afii10052" unicode="&#x403;" horiz-adv-x="1134" 
d="M485 1100v-1059q0 -17 -12 -29t-29 -12h-266q-17 0 -29 12t-12 29v1059q0 91 18 162t53.5 118t79 79t103 48.5t117.5 23.5t129 7q201 0 395 -27q22 -3 31.5 -12t9.5 -29v-190q0 -17 -12 -29t-29 -12h-416q-73 0 -102 -30t-29 -109zM1018 1917q0 -8 -8 -16l-250 -250
q-2 -2 -4.5 -5t-4 -4t-4 -3.5t-4 -3.5t-4 -2.5t-4.5 -2.5t-4.5 -2t-5.5 -1t-6.5 -0.5t-7.5 -0.5h-219q-19 0 -19 14q0 10 8 21l191 240q14 18 24 24t31 6h268q23 0 23 -14z" />
    <glyph glyph-name="afii10053" unicode="&#x404;" horiz-adv-x="1269" 
d="M1157 63q0 -21 -10.5 -30.5t-34.5 -16.5q-38 -12 -123 -23t-182 -11q-171 0 -297.5 39.5t-218 125.5t-137 227.5t-45.5 340.5v94q0 383 176.5 557t521.5 174q97 0 181.5 -11t123.5 -24q24 -7 34.5 -16t10.5 -29v-198q0 -46 -45 -41q-208 16 -305 16q-164 0 -243.5 -73
t-96.5 -249h549q17 0 29 -12t12 -29v-194q0 -17 -12 -29t-29 -12h-553q9 -201 84 -276.5t260 -75.5q137 0 305 16q45 5 45 -41v-199z" />
    <glyph glyph-name="afii10054" unicode="&#x405;" horiz-adv-x="1204" 
d="M1118 430q0 -68 -17.5 -130t-59.5 -121t-105 -102t-159.5 -69t-217.5 -26q-214 0 -387 45q-41 12 -41 41v200q0 39 37 39h6q252 -24 389 -24q103 0 142.5 33.5t39.5 109.5q0 44 -28 76.5t-107 79.5l-282 168q-135 80 -188.5 174.5t-53.5 216.5q0 399 524 399
q107 0 239 -14.5t195 -30.5q31 -8 31 -37v-207q0 -34 -35 -34h-4q-313 22 -434 22q-86 0 -123 -26t-37 -83q0 -43 27 -71t111 -72l262 -141q152 -82 214 -182.5t62 -233.5z" />
    <glyph glyph-name="afii10055" unicode="&#x406;" horiz-adv-x="636" 
d="M494 41q0 -17 -11 -29t-28 -12h-275q-17 0 -27 11.5t-10 29.5v1442q0 17 10 28t27 11h275q17 0 28 -11t11 -28v-1442z" />
    <glyph glyph-name="afii10056" unicode="&#x407;" horiz-adv-x="636" 
d="M494 41q0 -17 -11 -29t-28 -12h-275q-17 0 -27 11.5t-10 29.5v1442q0 17 10 28t27 11h275q17 0 28 -11t11 -28v-1442zM680 1681q0 -17 -13.5 -29t-31.5 -12h-193q-17 0 -30 12t-13 29v191q0 17 13 29t30 12h193q18 0 31.5 -12t13.5 -29v-191zM236 1681q0 -17 -13 -29
t-30 -12h-193q-18 0 -31.5 12t-13.5 29v191q0 17 13.5 29t31.5 12h193q17 0 30 -12t13 -29v-191z" />
    <glyph glyph-name="afii10057" unicode="&#x408;" horiz-adv-x="636" 
d="M494 -12q0 -101 -27.5 -172.5t-79 -110t-115 -55.5t-145.5 -17q-48 0 -131 9q-14 2 -22.5 11.5t-8.5 22.5v209q0 11 6.5 20t16.5 9h102q33 0 43 16t10 58v1495q0 17 12 28t29 11h269q17 0 29 -11t12 -28v-1495z" />
    <glyph glyph-name="afii10058" unicode="&#x409;" horiz-adv-x="2095" 
d="M651 1200l-250 -1163q-3 -15 -14.5 -26t-26.5 -11h-286q-15 0 -25 9t-10 24q0 1 1 4.5t1 5.5l299 1251q14 57 40.5 99t58.5 66.5t74.5 39t81 19t85.5 4.5h518q17 0 29 -12t12 -29v-547q94 4 139 4q113 0 203.5 -12t175.5 -43.5t141.5 -83t90.5 -134.5t34 -194v-14
q0 -93 -23 -167t-66 -125t-100 -87.5t-132 -57t-153 -29.5t-171 -9q-237 0 -374 24q-63 11 -88 38.5t-25 94.5v1092h-211q-23 0 -29 -31zM1360 268q131 0 201.5 20.5t96 59.5t25.5 109v14q0 70 -26 107t-95.5 55t-201.5 18q-50 0 -81 -1t-40 -1v-379q10 0 40 -1t81 -1z" />
    <glyph glyph-name="afii10059" unicode="&#x40a;" horiz-adv-x="2234" 
d="M1468 268q131 0 202 20.5t96.5 59.5t25.5 109v14q0 70 -26 107t-96 55t-202 18q-50 0 -80.5 -1t-39.5 -1v-379q10 0 39.5 -1t80.5 -1zM999 139v494h-505v-592q0 -17 -12 -29t-29 -12h-269q-17 0 -29 12t-12 29v1442q0 17 12 28t29 11h269q17 0 29 -11t12 -28v-545h505
v545q0 17 12 28t29 11h267q17 0 29 -11t12 -28v-549q94 4 139 4q113 0 203.5 -12t175.5 -43.5t141.5 -83t90.5 -134.5t34 -194v-14q0 -93 -23 -167t-66 -125t-100 -87.5t-132 -57t-153 -29.5t-171 -9q-238 0 -375 24q-63 11 -88 38.5t-25 94.5z" />
    <glyph glyph-name="afii10060" unicode="&#x40b;" horiz-adv-x="1667" 
d="M1151 1272q0 -17 -12.5 -28t-30.5 -11h-332v-279q66 39 162.5 66t196.5 27q409 0 409 -465v-539q0 -17 -13 -30t-30 -13h-266q-17 0 -29 13t-12 30v539q0 101 -43.5 138.5t-132.5 37.5q-117 0 -242 -66v-651q0 -17 -12 -29t-29 -12h-268q-17 0 -29 12t-12 29v1192h-334
q-17 0 -29 11t-12 28v211q0 17 12 28t29 11h1016q18 0 30.5 -11t12.5 -28v-211z" />
    <glyph glyph-name="afii10061" unicode="&#x40c;" horiz-adv-x="1388" 
d="M1335 1499q0 -12 -10 -29l-487 -692l489 -735q8 -11 8 -23q0 -20 -28 -20h-353q-27 0 -45 29l-415 676v-664q0 -17 -12 -29t-29 -12h-269q-17 0 -29 12t-12 29v1442q0 17 12 28t29 11h269q17 0 29 -11t12 -28v-652l450 666q16 25 45 25h314q32 0 32 -23zM1094 1917
q0 -7 -9 -16l-249 -250l-11 -11t-9 -7t-13.5 -6t-16.5 -1h-219q-18 0 -18 14q0 10 8 21l191 240q14 18 24 24t31 6h268q23 0 23 -14z" />
    <glyph glyph-name="afii10062" unicode="&#x40e;" horiz-adv-x="1206" 
d="M1165 1485q0 -2 -1 -5t-1 -5l-344 -1158q-26 -90 -55 -146.5t-79 -101.5t-126.5 -65t-187.5 -20q-57 0 -133 10t-115 22q-16 6 -22.5 8.5t-13.5 10t-7 18.5v166q0 17 12 28t29 11h4q2 0 108.5 -8t147.5 -8q57 0 87 23t48 83l19 64h-31q-33 0 -55 5.5t-47.5 23.5t-47 57.5
t-41.5 103.5l-270 873q-2 6 -2 14q0 33 41 33h272q14 0 25 -11.5t14 -27.5l185 -721q7 -24 12.5 -31.5t19.5 -7.5h11l190 760q3 16 15 27.5t28 11.5h272q15 0 27 -11t12 -26zM975 1925q0 -1 -1 -3.5t-1 -4.5q-32 -133 -127 -215t-252 -82t-252 82t-127 215q0 2 -1 4.5
t-1 3.5q0 14 20 14h179q20 0 26 -24q31 -117 156 -117t156 117q2 10 4 14t7 7t15 3h178q21 0 21 -14z" />
    <glyph glyph-name="afii10145" unicode="&#x40f;" horiz-adv-x="1492" 
d="M143 412v1071q0 17 12 29t29 12h269q17 0 29 -12t12 -29v-1071q0 -24 0.5 -35t5 -27.5t14 -24t27 -13t43.5 -5.5h325q26 0 43.5 5.5t27 13t14 24t5 27.5t0.5 35v1071q0 17 12 29t29 12h269q17 0 29 -12t12 -29v-1071q0 -74 -10.5 -132t-38.5 -112t-75 -89t-124 -56
t-180 -21v-209q0 -17 -12 -29t-29 -12h-269q-17 0 -29 12t-12 29v209q-103 0 -180 21t-124 56t-75 89t-38.5 112t-10.5 132z" />
    <glyph glyph-name="afii10017" unicode="&#x410;" horiz-adv-x="1370" 
d="M1331 33q0 -15 -10 -24t-25 -9h-286q-15 0 -26.5 11t-14.5 26l-74 336h-420l-74 -336q-3 -15 -14.5 -26t-26.5 -11h-286q-15 0 -25 9t-10 24q0 1 1 4.5t1 5.5l305 1270q17 71 52 118t84 69.5t96.5 31t107.5 8.5t107 -8.5t96 -31t83.5 -69.5t51.5 -118l305 -1270
q0 -2 1 -5.5t1 -4.5zM838 653l-125 566q-3 16 -8.5 23t-18.5 7q-23 0 -29 -30l-125 -566h306z" />
    <glyph glyph-name="afii10018" unicode="&#x411;" horiz-adv-x="1347" 
d="M143 139v1342q0 17 12 29t29 12h856q18 0 30.5 -11t12.5 -28v-211q0 -17 -12.5 -28t-30.5 -11h-548v-299q94 4 139 4q113 0 203.5 -12t175.5 -43.5t141.5 -83t90.5 -134.5t34 -194v-14q0 -93 -23 -167t-66 -125t-100 -87.5t-132 -57t-153 -29.5t-171 -9q-238 0 -375 24
q-63 11 -88 38.5t-25 94.5zM612 268q131 0 202 20.5t96.5 59.5t25.5 109v14q0 70 -26 107t-96 55t-202 18q-50 0 -80.5 -1t-39.5 -1v-379q10 0 39.5 -1t80.5 -1z" />
    <glyph glyph-name="afii10019" unicode="&#x412;" horiz-adv-x="1370" 
d="M1276 440q0 -105 -33.5 -185.5t-91 -131.5t-141.5 -83t-175.5 -45t-203.5 -13q-238 0 -375 24q-63 11 -88 38.5t-25 94.5v1245q0 68 24 96.5t85 37.5q154 22 366 22q151 0 265.5 -21.5t202.5 -70t134 -133t46 -203.5v-37q0 -101 -45.5 -181.5t-126.5 -119.5
q84 -41 133 -120t49 -183v-31zM928 1059v31q0 86 -64 124.5t-219 38.5q-127 0 -156 -2v-354h230q209 0 209 162zM936 449v22q0 81 -51 131.5t-166 50.5h-230v-383q17 0 85.5 -1t82.5 -1q152 0 215.5 45t63.5 136z" />
    <glyph glyph-name="afii10020" unicode="&#x413;" horiz-adv-x="1134" 
d="M485 1100v-1059q0 -17 -12 -29t-29 -12h-266q-17 0 -29 12t-12 29v1059q0 91 18 162t53.5 118t79 79t103 48.5t117.5 23.5t129 7q201 0 395 -27q22 -3 31.5 -12t9.5 -29v-190q0 -17 -12 -29t-29 -12h-416q-73 0 -102 -30t-29 -109z" />
    <glyph glyph-name="afii10021" unicode="&#x414;" horiz-adv-x="1601" 
d="M51 -207v473q0 17 12 29t29 12h125l242 1006q17 71 52 118t84 69.5t96.5 31t107.5 8.5t107 -8.5t96 -31t83.5 -69.5t51.5 -118l241 -1006h131q17 0 29 -12t12 -29v-473q0 -17 -12 -29t-29 -12h-268q-17 0 -29 12t-12 29v207h-799v-207q0 -17 -12 -29t-29 -12h-268
q-17 0 -29 12t-12 29zM770 1219l-199 -912h451l-197 912q-3 17 -8 23.5t-18 6.5q-23 0 -29 -30z" />
    <glyph glyph-name="afii10022" unicode="&#x415;" horiz-adv-x="1187" 
d="M1073 51q0 -20 -9.5 -30t-31.5 -13q-187 -26 -397 -26q-61 0 -111.5 4.5t-102.5 17.5t-93 33.5t-78 54.5t-61 79.5t-38 109t-14 141.5v680q0 91 18 162t53.5 118t79 79t103 48.5t117.5 23.5t129 7q201 0 395 -27q22 -3 31.5 -11.5t9.5 -28.5v-191q0 -17 -12 -29t-29 -12
h-416q-73 0 -102 -30t-29 -109v-187h531q17 0 29 -12t12 -29v-194q0 -17 -12 -29t-29 -12h-531v-217q0 -79 29 -109t102 -30h416q17 0 29 -12t12 -29v-191z" />
    <glyph glyph-name="afii10024" unicode="&#x416;" horiz-adv-x="2140" 
d="M895 831v652q0 17 12 28t29 11h268q17 0 29 -11t12 -28v-652l451 666q16 25 45 25h313q33 0 33 -23q0 -12 -10 -29l-488 -692l490 -735q8 -11 8 -23q0 -20 -29 -20h-352q-27 0 -45 29l-416 676v-664q0 -17 -12 -29t-29 -12h-268q-17 0 -29 12t-12 29v664l-416 -676
q-18 -29 -45 -29h-352q-29 0 -29 20q0 12 8 23l490 735l-488 692q-10 17 -10 29q0 23 33 23h313q29 0 45 -25z" />
    <glyph glyph-name="afii10025" unicode="&#x417;" horiz-adv-x="1232" 
d="M1110 434q0 -153 -68.5 -255.5t-186.5 -149.5t-280 -47q-240 0 -423 57q-39 12 -39 39v164q0 17 10.5 27t26.5 10h4q226 -19 407 -19q106 0 154.5 43.5t48.5 130.5v37q0 176 -166 176h-360q-17 0 -28 12t-11 29v174q0 17 11 28t28 11h352q92 0 133 50.5t41 127.5v29
q0 75 -45 114.5t-158 39.5q-124 0 -403 -25h-4q-16 0 -26.5 10t-10.5 27v164q0 27 41 39q202 63 417 63q262 0 398.5 -99t136.5 -321v-28q0 -91 -50.5 -180t-131.5 -134q85 -44 133.5 -126t48.5 -181v-37z" />
    <glyph glyph-name="afii10026" unicode="&#x418;" horiz-adv-x="1492" 
d="M143 78v1405q0 17 12 28t29 11h242q17 0 29 -11t12 -28v-867q0 -18 10 -18q6 0 17 16l485 844q20 35 38.5 49.5t47.5 14.5h207q32 0 55 -23t23 -55v-1403q0 -17 -12 -29t-29 -12h-242q-17 0 -29 12t-12 29v829q0 17 -10 17q-8 0 -19 -17l-467 -807q-23 -38 -46.5 -50.5
t-59.5 -12.5h-201q-32 0 -56 23t-24 55z" />
    <glyph glyph-name="afii10027" unicode="&#x419;" horiz-adv-x="1492" 
d="M741 1626q-160 0 -259.5 83.5t-119.5 213.5q-2 12 1.5 17.5t17.5 5.5h178q21 0 27 -25q31 -117 155 -117q125 0 156 117q6 25 27 25h178q14 0 17 -5.5t1 -17.5q-20 -130 -119.5 -213.5t-259.5 -83.5zM143 78v1405q0 17 12 28t29 11h242q17 0 29 -11t12 -28v-867
q0 -18 10 -18q6 0 17 16l485 844q20 35 38.5 49.5t47.5 14.5h207q32 0 55 -23t23 -55v-1403q0 -17 -12 -29t-29 -12h-242q-17 0 -29 12t-12 29v829q0 17 -10 17q-8 0 -19 -17l-467 -807q-23 -38 -46.5 -50.5t-59.5 -12.5h-201q-32 0 -56 23t-24 55z" />
    <glyph glyph-name="afii10028" unicode="&#x41a;" horiz-adv-x="1376" 
d="M1335 1499q0 -12 -10 -29l-487 -692l489 -735q8 -11 8 -23q0 -20 -28 -20h-353q-27 0 -45 29l-415 676v-664q0 -17 -12 -29t-29 -12h-269q-17 0 -29 12t-12 29v1442q0 17 12 28t29 11h269q17 0 29 -11t12 -28v-652l450 666q16 25 45 25h314q32 0 32 -23z" />
    <glyph glyph-name="afii10029" unicode="&#x41b;" horiz-adv-x="1370" 
d="M969 37l-256 1182q-3 16 -8.5 23t-18.5 7q-23 0 -29 -30l-256 -1182q-3 -15 -14.5 -26t-26.5 -11h-286q-15 0 -25 9t-10 24q0 1 1 4.5t1 5.5l305 1270q17 71 52 118t84 69.5t96.5 31t107.5 8.5t107 -8.5t96 -31t83.5 -69.5t51.5 -118l305 -1270q0 -2 1 -5.5t1 -4.5
q0 -15 -10 -24t-25 -9h-286q-15 0 -26.5 11t-14.5 26z" />
    <glyph glyph-name="afii10030" unicode="&#x41c;" horiz-adv-x="1671" 
d="M1528 29q0 -29 -35 -29h-270q-14 0 -23.5 12t-9.5 29v854q0 16 -10 16q-9 0 -17 -14l-184 -338q-20 -35 -61 -35h-164q-42 0 -62 35l-184 338q-8 14 -16 14q-11 0 -11 -16v-854q0 -17 -9.5 -29t-22.5 -12h-271q-35 0 -35 29v1423q0 32 20.5 51t53.5 19h193q61 0 90 -56
l313 -583q13 -27 23 -27q8 0 22 27l313 583q29 56 91 56h192q32 0 53 -20t21 -52v-1421z" />
    <glyph glyph-name="afii10031" unicode="&#x41d;" horiz-adv-x="1492" 
d="M1350 41q0 -17 -12 -29t-29 -12h-269q-17 0 -29 12t-12 29v592h-505v-592q0 -17 -12 -29t-29 -12h-269q-17 0 -29 12t-12 29v1442q0 17 12 28t29 11h269q17 0 29 -11t12 -28v-545h505v545q0 17 12 28t29 11h269q17 0 29 -11t12 -28v-1442z" />
    <glyph glyph-name="afii10032" unicode="&#x41e;" horiz-adv-x="1429" 
d="M1321 639q0 -173 -46.5 -302t-130.5 -205.5t-191 -113t-238 -36.5t-238 36.5t-191 113t-130.5 205.5t-46.5 302v244q0 173 46.5 302t130.5 205.5t191 113t238 36.5t238 -36.5t191 -113t130.5 -205.5t46.5 -302v-244zM969 639v244q0 183 -62 266.5t-192 83.5t-191 -83.5
t-61 -266.5v-244q0 -183 61 -266.5t191 -83.5t192 83.5t62 266.5z" />
    <glyph glyph-name="afii10033" unicode="&#x41f;" horiz-adv-x="1492" 
d="M573 1522h347q104 0 181 -21t124 -56t75.5 -89t39 -112t10.5 -132v-1071q0 -17 -12 -29t-29 -12h-269q-17 0 -29 12t-12 29v1071q0 24 -0.5 35t-5 27.5t-14 24t-27 13t-43.5 5.5h-325q-26 0 -43.5 -5.5t-27 -13t-14 -24t-5 -27.5t-0.5 -35v-1071q0 -17 -12 -29t-29 -12
h-269q-17 0 -29 12t-12 29v1071q0 74 10.5 132t39 112t75.5 89t124 56t181 21z" />
    <glyph glyph-name="afii10034" unicode="&#x420;" horiz-adv-x="1333" 
d="M1266 1028q0 -111 -34.5 -198t-92 -142t-138 -91t-165.5 -50.5t-181 -14.5q-29 0 -94 3.5t-72 3.5v-498q0 -17 -11.5 -29t-28.5 -12h-265q-17 0 -29 11t-12 28v1376q0 50 21 70t72 28q176 27 415 27q98 0 183 -14t166.5 -49t138.5 -89.5t92 -141.5t35 -199v-19zM918 1028
v19q0 106 -65.5 154t-197.5 48q-91 0 -166 -6v-418q46 -4 166 -4q135 0 199 51t64 156z" />
    <glyph glyph-name="afii10035" unicode="&#x421;" horiz-adv-x="1148" 
d="M1065 63q0 -21 -10.5 -30.5t-34.5 -16.5q-38 -12 -122.5 -23t-182.5 -11q-97 0 -183 20.5t-164.5 69t-135 121.5t-90 185.5t-33.5 254.5v258q0 142 33.5 254t90 185t135.5 121t164.5 68.5t182.5 20.5t181.5 -11t123.5 -24q24 -7 34.5 -16t10.5 -29v-198q0 -41 -39 -41h-6
q-208 16 -303 16q-56 0 -99.5 -16.5t-79.5 -54t-55.5 -107t-19.5 -168.5v-258q0 -99 19.5 -168.5t55.5 -107t79.5 -54t99.5 -16.5q95 0 303 16h6q39 0 39 -41v-199z" />
    <glyph glyph-name="afii10036" unicode="&#x422;" horiz-adv-x="1202" 
d="M1151 1272q0 -17 -12.5 -28t-30.5 -11h-332v-1192q0 -17 -12 -29t-29 -12h-268q-17 0 -29 12t-12 29v1192h-334q-17 0 -29 11t-12 28v211q0 17 12 28t29 11h1016q18 0 30.5 -11t12.5 -28v-211z" />
    <glyph glyph-name="afii10037" unicode="&#x423;" horiz-adv-x="1206" 
d="M1165 1485q0 -2 -1 -5t-1 -5l-344 -1158q-26 -90 -55 -146.5t-79 -101.5t-126.5 -65t-187.5 -20q-57 0 -133 10t-115 22q-16 6 -22.5 8.5t-13.5 10t-7 18.5v166q0 17 12 28t29 11h4q2 0 108.5 -8t147.5 -8q57 0 87 23t48 83l19 64h-31q-33 0 -55 5.5t-47.5 23.5t-47 57.5
t-41.5 103.5l-270 873q-2 6 -2 14q0 33 41 33h272q14 0 25 -11.5t14 -27.5l185 -721q7 -24 12.5 -31.5t19.5 -7.5h11l190 760q3 16 15 27.5t28 11.5h272q15 0 27 -11t12 -26z" />
    <glyph glyph-name="afii10038" unicode="&#x424;" horiz-adv-x="2033" 
d="M1618 805v18q0 107 -65 155t-197 48q-91 0 -166 -6v-418q46 -4 166 -4q135 0 198.5 51t63.5 156zM844 39v276q-153 -6 -166 -6q-96 0 -181 14.5t-165 50.5t-137.5 91t-92 142t-34.5 198v18q0 112 34.5 199t92 141.5t138.5 90t166 49.5t183 14q56 0 162 -4v188q0 17 12 28
t29 11h264q17 0 29 -12t12 -29v-186q106 4 162 4q98 0 183 -14t166 -49.5t138.5 -90t92 -141.5t34.5 -199v-18q0 -111 -34.5 -198t-92 -142t-137.5 -91t-165 -50.5t-181 -14.5q-13 0 -166 6v-274q0 -17 -12 -29t-29 -12h-264q-17 0 -29 11t-12 28zM844 602v418q-75 6 -166 6
q-132 0 -197 -48t-65 -155v-18q0 -105 63.5 -156t198.5 -51q120 0 166 4z" />
    <glyph glyph-name="afii10039" unicode="&#x425;" horiz-adv-x="1423" 
d="M1362 20q0 -20 -27 -20h-325q-35 0 -54 31l-266 432l-239 -422q-23 -41 -52 -41h-303q-14 0 -22 8t-8 19q0 6 4 14l428 739l-432 703q-5 10 -5 12q0 10 9.5 18.5t21.5 8.5h330q25 0 51 -39l254 -414l229 414q22 39 52 39h303q12 0 21 -8t9 -19q0 -4 -4 -12l-422 -723
l441 -719q6 -12 6 -21z" />
    <glyph glyph-name="afii10040" unicode="&#x426;" horiz-adv-x="1570" 
d="M1169 -209v209h-596q-104 0 -181 21t-124 56.5t-75.5 90t-39 112.5t-10.5 132v1069q0 17 12 29t29 12h269q17 0 29 -12t12 -29v-1069q0 -24 0.5 -35t5 -27.5t14 -24t27 -13t43.5 -5.5h325q26 0 43.5 5.5t27 13t14 24t5 27.5t0.5 35v1069q0 17 12 29t29 12h269
q17 0 29 -12t12 -29v-1069q0 -31 -9 -105h138q17 0 29 -12t12 -29v-475q0 -17 -12 -29t-29 -12h-269q-17 0 -29 12t-12 29z" />
    <glyph glyph-name="afii10041" unicode="&#x427;" horiz-adv-x="1384" 
d="M891 41v526q-66 -39 -162 -65.5t-197 -26.5q-409 0 -409 465v539q0 17 13 30t30 13h266q17 0 29 -13t12 -30v-539q0 -101 43.5 -138.5t132.5 -37.5q119 0 242 65v652q0 17 12 29t29 12h268q17 0 29 -12t12 -29v-1440q0 -17 -12 -29t-29 -12h-268q-17 0 -29 12t-12 29z
" />
    <glyph glyph-name="afii10042" unicode="&#x428;" horiz-adv-x="2021" 
d="M1186 1483v-1176h252q26 0 43.5 5.5t27 13t14 24t5 27.5t0.5 35v1071q0 17 12 29t29 12h268q17 0 29 -12t12 -29v-1073q0 -74 -10.5 -132t-39 -112t-75.5 -89t-124 -56t-181 -21h-875q-104 0 -181 21t-124 56t-75.5 89t-39 112t-10.5 132v1073q0 17 12 29t29 12h269
q17 0 29 -12t12 -29v-1071q0 -24 0.5 -35t5 -27.5t14 -24t27 -13t43.5 -5.5h252v1176q0 17 12 29t29 12h268q17 0 29 -12t12 -29z" />
    <glyph glyph-name="afii10043" unicode="&#x429;" horiz-adv-x="2109" 
d="M1708 -207v207h-1135q-104 0 -181 21t-124 56t-75.5 89t-39 112t-10.5 132v1073q0 17 12 29t29 12h269q17 0 29 -12t12 -29v-1071q0 -24 0.5 -35t5 -27.5t14 -24t27 -13t43.5 -5.5h252v1176q0 17 12 29t29 12h268q17 0 29 -12t12 -29v-1176h252q26 0 43.5 5.5t27 13
t14 24t5 27.5t0.5 35v1071q0 17 12 29t29 12h268q17 0 29 -12t12 -29v-1073q0 -54 -6 -103h145q17 0 29 -12t12 -29v-473q0 -17 -12 -29t-29 -12h-268q-17 0 -29 12t-12 29z" />
    <glyph glyph-name="afii10044" unicode="&#x42a;" horiz-adv-x="1427" 
d="M223 1233h-182q-17 0 -29 11t-12 28v211q0 17 12 28t29 11h489q17 0 29 -12t12 -29v-547q94 4 140 4q113 0 203.5 -12t175.5 -43.5t141.5 -83t90.5 -134.5t34 -194v-14q0 -93 -23 -167t-66 -125t-100 -87.5t-132 -57t-153 -29.5t-171 -9q-238 0 -375 24q-63 11 -88 38.5
t-25 94.5v1094zM692 268q131 0 202 20.5t96.5 59.5t25.5 109v14q0 70 -26 107t-96 55t-202 18q-50 0 -81 -1t-40 -1v-379q10 0 40 -1t81 -1z" />
    <glyph glyph-name="afii10045" unicode="&#x42b;" horiz-adv-x="1916" 
d="M143 139v1342q0 17 12 29t29 12h267q17 0 29 -12t12 -29v-547q94 4 139 4q113 0 203.5 -12t175.5 -43.5t141.5 -83t90.5 -134.5t34 -194v-14q0 -93 -23 -167t-66 -125t-100 -87.5t-132 -57t-153 -29.5t-171 -9q-238 0 -375 24q-63 11 -88 38.5t-25 94.5zM612 268
q131 0 202 20.5t96.5 59.5t25.5 109v14q0 70 -26 107t-96 55t-202 18q-50 0 -80.5 -1t-39.5 -1v-379q10 0 39.5 -1t80.5 -1zM1774 41q0 -17 -11 -29t-28 -12h-275q-17 0 -27 11.5t-10 29.5v1442q0 17 10 28t27 11h275q17 0 28 -11t11 -28v-1442z" />
    <glyph glyph-name="afii10046" unicode="&#x42c;" horiz-adv-x="1370" 
d="M143 139v1342q0 17 12 29t29 12h267q17 0 29 -12t12 -29v-547q94 4 139 4q113 0 203.5 -12t175.5 -43.5t141.5 -83t90.5 -134.5t34 -194v-14q0 -93 -23 -167t-66 -125t-100 -87.5t-132 -57t-153 -29.5t-171 -9q-238 0 -375 24q-63 11 -88 38.5t-25 94.5zM612 268
q131 0 202 20.5t96.5 59.5t25.5 109v14q0 70 -26 107t-96 55t-202 18q-50 0 -80.5 -1t-39.5 -1v-379q10 0 39.5 -1t80.5 -1z" />
    <glyph glyph-name="afii10047" unicode="&#x42d;" horiz-adv-x="1269" 
d="M113 63v199q0 46 45 41q168 -16 305 -16q183 0 258 75.5t84 276.5h-551q-17 0 -29 12t-12 29v194q0 17 12 29t29 12h547q-15 175 -95 248.5t-243 73.5q-97 0 -305 -16q-45 -5 -45 41v198q0 20 10.5 29t34.5 16q39 13 123.5 24t181.5 11q345 0 521.5 -174t176.5 -557v-94
q0 -199 -45.5 -340.5t-137 -227.5t-218 -125.5t-297.5 -39.5q-97 0 -182 11t-123 23q-24 7 -34.5 16.5t-10.5 30.5z" />
    <glyph glyph-name="afii10048" unicode="&#x42e;" horiz-adv-x="2039" 
d="M494 41q0 -17 -11 -29t-28 -12h-275q-17 0 -27 11.5t-10 29.5v1442q0 17 10 28t27 11h275q17 0 28 -11t11 -28v-545h225q7 158 56.5 276.5t132.5 188t187 103.5t230 34q131 0 238 -36.5t191 -113t130.5 -205.5t46.5 -302v-244q0 -173 -46.5 -302t-130.5 -205.5t-191 -113
t-238 -36.5q-104 0 -193 22t-165.5 71.5t-130.5 124.5t-85 185t-32 248h-225v-592zM1579 639v244q0 183 -62 266.5t-192 83.5t-191 -83.5t-61 -266.5v-244q0 -183 61 -266.5t191 -83.5t192 83.5t62 266.5z" />
    <glyph glyph-name="afii10049" unicode="&#x42f;" horiz-adv-x="1392" 
d="M74 25q0 10 6 22l309 578q-120 47 -192 150.5t-72 258.5v27q0 479 616 479q235 0 416 -27q50 -8 71 -28t21 -70v-1374q0 -17 -12 -29t-29 -12h-266q-17 0 -29 12t-12 29v520q-19 0 -71 -2t-74 -2l-23 2l-274 -518l-3.5 -7t-3.5 -6.5t-3 -6t-3.5 -6t-4 -5t-5 -4.5t-5.5 -3
t-6 -2.5t-7 -0.5h-314q-30 0 -30 25zM473 1061v-27q0 -106 62 -150t221 -44q99 0 145 4v393q-75 6 -160 6q-268 0 -268 -182z" />
    <glyph glyph-name="afii10065" unicode="&#x430;" horiz-adv-x="1150" 
d="M1028 41q0 -17 -12 -29t-29 -12h-229q-17 0 -29 12t-12 29v33q-65 -46 -131.5 -69t-153.5 -23q-71 0 -130.5 18t-110.5 57.5t-80 110t-29 166.5v18q0 180 121 263t383 83h110v74q0 83 -37 112t-116 29q-193 0 -340 -14h-10q-37 0 -37 37v166q0 36 39 45q182 43 354 43
q479 0 479 -418v-731zM702 276v226h-116q-103 0 -141.5 -35.5t-38.5 -114.5v-18q0 -61 30 -82t99 -21q79 0 167 45z" />
    <glyph glyph-name="afii10066" unicode="&#x431;" horiz-adv-x="1206" 
d="M627 1153q-43 -9 -67.5 -15t-54.5 -18.5t-48 -27.5q67 22 147 22q246 0 379 -142t133 -390v-68q0 -248 -133 -390t-379 -142t-380 142t-134 390v68q0 85 0.5 128t4 118.5t11 116t21.5 102.5t35 97t53 80.5t73.5 72.5t98 52t125.5 40l104 22q98 21 132 42.5t40 59.5
q3 27 31 27h246q28 0 25 -27q-9 -136 -82.5 -216t-243.5 -115zM786 514v68q0 133 -45 191t-137 58t-138 -58t-46 -191v-68q0 -132 46 -192t138 -60q91 0 136.5 60t45.5 192z" />
    <glyph glyph-name="afii10067" unicode="&#x432;" horiz-adv-x="1169" 
d="M1079 352q0 -104 -41.5 -177.5t-118.5 -113.5t-169.5 -57.5t-210.5 -17.5q-194 0 -363 28q-33 6 -43 23.5t-10 60.5v1010q0 56 67 63q171 25 361 25q96 0 171 -9.5t142.5 -33.5t111.5 -63t69.5 -100.5t25.5 -143.5v-21q0 -154 -133 -225q69 -23 105 -83t36 -150v-15z
M758 358v17q0 58 -34 89.5t-116 31.5h-159v-254q4 0 15.5 -0.5t36 -1t58.5 -0.5q110 0 154.5 29t44.5 89zM752 819v17q0 60 -44.5 84t-158.5 24q-77 0 -100 -2v-233h159q79 0 111.5 29t32.5 81z" />
    <glyph glyph-name="afii10068" unicode="&#x433;" horiz-adv-x="864" 
d="M791 897h-246q-33 0 -52 -6.5t-27 -23.5t-9.5 -31t-1.5 -43v-752q0 -17 -12 -29t-29 -12h-250q-17 0 -29 12t-12 29v752q0 65 10 118t38.5 103.5t74 84.5t121 54.5t176.5 20.5h248q43 0 43 -44v-192q0 -41 -43 -41z" />
    <glyph glyph-name="afii10069" unicode="&#x434;" horiz-adv-x="1343" 
d="M985 -207v207h-627v-207q0 -17 -12 -29t-29 -12h-235q-17 0 -29 12t-12 29v445q0 17 12 29t29 12h104l189 729q47 188 297 188q52 0 93 -7t83.5 -26t73 -58t45.5 -97l190 -729h105q17 0 29 -12t12 -29v-445q0 -17 -12 -29t-29 -12h-236q-17 0 -29 12t-12 29zM662 897
l-142 -618h301l-143 618q-3 12 -8 12t-8 -12z" />
    <glyph glyph-name="afii10070" unicode="&#x435;" horiz-adv-x="1208" 
d="M1116 532q0 -49 -43 -49h-653v-4q0 -46 10.5 -84.5t34 -70.5t65.5 -50t101 -18q209 0 393 18h6q39 0 39 -32v-156q0 -26 -8.5 -37.5t-34.5 -17.5q-195 -49 -420 -49q-78 0 -149 16.5t-138.5 55.5t-117 98t-79.5 150.5t-30 205.5v143q0 249 137.5 394t380.5 145
q163 0 279 -71t171.5 -191t55.5 -277v-119zM793 688v8q0 112 -48.5 170t-136.5 58q-87 0 -137.5 -59t-50.5 -169v-8h373z" />
    <glyph glyph-name="afii10072" unicode="&#x436;" horiz-adv-x="1830" 
d="M750 674v459q0 17 13 29t30 12h247q17 0 29 -12t12 -29v-459l312 469q20 31 53 31h293q13 0 21.5 -7t8.5 -16q0 -10 -8 -21l-381 -518l379 -569q4 -4 4 -16q0 -11 -7 -19t-19 -8h-310q-18 0 -29 5.5t-22 23.5l-295 481v-467q0 -17 -12 -30t-29 -13h-247q-17 0 -30 13
t-13 30v467l-295 -481q-11 -18 -22 -23.5t-30 -5.5h-309q-12 0 -19 8t-7 19q0 12 4 16l379 569l-381 518q-9 12 -9 21t9 16t22 7h293q33 0 53 -31z" />
    <glyph glyph-name="afii10073" unicode="&#x437;" horiz-adv-x="1052" 
d="M514 483h-301q-43 0 -43 43v152q0 41 43 41h295q34 0 56.5 6t34.5 14.5t18 26t7 30.5t1 38v10q0 52 -28.5 74t-117.5 22q-175 0 -336 -14q-41 -4 -41 32v154q0 27 33 35q185 49 369 49q221 0 333.5 -79t112.5 -257v-14q0 -33 -4 -59.5t-16 -61.5t-41.5 -66.5t-73.5 -54.5
q67 -31 101 -94.5t34 -144.5v-19q0 -181 -121.5 -270.5t-332.5 -89.5q-176 0 -361 49q-33 8 -33 35v153q0 37 41 33q161 -14 336 -14q87 0 116.5 24.5t29.5 79.5v19q0 61 -21.5 89.5t-89.5 28.5z" />
    <glyph glyph-name="afii10074" unicode="&#x438;" horiz-adv-x="1253" 
d="M387 0h-221q-43 0 -43 43v1087q0 44 41 44h221q19 0 31 -11t12 -33v-552q0 -15 8 -15t15 12l342 549q16 27 31 38.5t38 11.5h228q17 0 28.5 -12t11.5 -29v-1090q0 -17 -13 -30t-30 -13h-221q-17 0 -29 13t-12 30v526q0 13 -8 13t-16 -13l-328 -520q-19 -30 -38 -39.5
t-48 -9.5z" />
    <glyph glyph-name="afii10075" unicode="&#x439;" horiz-adv-x="1253" 
d="M801 1595h178q24 0 18 -22q-30 -131 -126 -214t-253 -83t-252.5 83t-125.5 214q-6 22 18 22h178q21 0 27 -24q31 -117 155 -117q125 0 156 117q3 14 8 19t19 5zM166 0h221q29 0 48 9.5t38 39.5l328 520q8 13 16 13t8 -13v-526q0 -17 12 -30t29 -13h221q17 0 30 13t13 30
v1090q0 17 -11.5 29t-28.5 12h-228q-23 0 -38 -11.5t-31 -38.5l-342 -549q-7 -12 -15 -12t-8 15v552q0 22 -12 33t-31 11h-221q-41 0 -41 -44v-1087q0 -43 43 -43z" />
    <glyph glyph-name="afii10076" unicode="&#x43a;" horiz-adv-x="1204" 
d="M1143 1151q0 -10 -8 -21l-381 -518l379 -569q4 -4 4 -16q0 -11 -7.5 -19t-19.5 -8h-309q-18 0 -29 5.5t-22 23.5l-295 481v-467q0 -17 -12 -30t-29 -13h-248q-17 0 -30 13t-13 30v1090q0 17 13 29t30 12h248q17 0 29 -12t12 -29v-459l311 469q20 31 53 31h293q13 0 22 -7
t9 -16z" />
    <glyph glyph-name="afii10077" unicode="&#x43b;" horiz-adv-x="1175" 
d="M793 45l-199 852q-3 12 -8 12t-8 -12l-195 -852q-3 -19 -19 -32t-38 -13h-230q-22 0 -36.5 13.5t-14.5 33.5q0 1 1 6t1 8l244 947q47 188 297 188q52 0 93 -7t83.5 -26t73 -58t45.5 -97l247 -951v-10q0 -20 -15 -33.5t-38 -13.5h-229q-21 0 -36.5 13t-18.5 32z" />
    <glyph glyph-name="afii10078" unicode="&#x43c;" horiz-adv-x="1517" 
d="M1395 23q0 -23 -27 -23h-250q-10 0 -17 9.5t-7 21.5v659q0 12 -9 12q-7 0 -12 -10l-143 -260q-14 -29 -47 -29h-248q-33 0 -47 29l-144 260q-5 10 -12 10q-8 0 -8 -12v-659q0 -12 -7.5 -21.5t-17.5 -9.5h-249q-27 0 -27 23v1097q0 24 16 39t41 15h250q47 0 70 -44
l241 -450q11 -21 17 -21q8 0 18 21l242 450q23 44 69 44h250q25 0 41.5 -15.5t16.5 -40.5v-1095z" />
    <glyph glyph-name="afii10079" unicode="&#x43d;" horiz-adv-x="1261" 
d="M1139 1130v-1087q0 -43 -41 -43h-244q-43 0 -43 43v428h-358v-428q0 -43 -41 -43h-246q-43 0 -43 43v1087q0 44 43 44h246q41 0 41 -44v-382h358v382q0 44 43 44h244q41 0 41 -44z" />
    <glyph glyph-name="afii10080" unicode="&#x43e;" horiz-adv-x="1206" 
d="M1116 514q0 -248 -133 -390t-379 -142t-380 142t-134 390v143q0 248 134 390.5t380 142.5t379 -142.5t133 -390.5v-143zM786 514v143q0 250 -182 250q-90 0 -137 -63t-47 -187v-143q0 -124 47 -188t137 -64q89 0 135.5 64t46.5 188z" />
    <glyph glyph-name="afii10081" unicode="&#x43f;" horiz-adv-x="1253" 
d="M553 1174h147q104 0 181 -21t124 -56t75.5 -89t39 -112t10.5 -132v-723q0 -17 -11.5 -29t-28.5 -12h-250q-17 0 -29 12t-12 29v752q0 29 -1.5 43t-9.5 31t-27 23.5t-52 6.5h-164q-33 0 -52 -6.5t-27 -23.5t-9.5 -31t-1.5 -43v-752q0 -17 -12 -29t-29 -12h-250
q-17 0 -29 12t-12 29v723q0 74 10.5 132t39 112t75.5 89t124 56t181 21z" />
    <glyph glyph-name="afii10082" unicode="&#x440;" horiz-adv-x="1222" 
d="M1137 506q0 -247 -130 -385.5t-384 -138.5q-65 0 -168 14v-354q0 -17 -12 -29t-29 -12h-248q-17 0 -30 12t-13 29v1435q0 26 12 38.5t51 21.5q214 53 437 53q248 0 381 -137t133 -387v-160zM805 506v160q0 120 -40 184.5t-142 64.5q-103 0 -168 -10v-639q98 -12 168 -12
q101 0 141.5 66.5t40.5 185.5z" />
    <glyph glyph-name="afii10083" unicode="&#x441;" horiz-adv-x="970" 
d="M885 59q0 -22 -9 -31.5t-34 -15.5q-122 -30 -273 -30q-220 0 -348.5 135.5t-128.5 382.5v172q0 247 128.5 382.5t348.5 135.5q147 0 273 -31q25 -6 34 -15.5t9 -31.5v-182q0 -15 -12 -25t-27 -10h-4q-133 14 -250 14q-168 0 -168 -237v-172q0 -238 168 -238q117 0 250 14
h4q16 0 27.5 -9.5t11.5 -24.5v-183z" />
    <glyph glyph-name="afii10084" unicode="&#x442;" horiz-adv-x="1009" 
d="M926 911h-254v-868q0 -43 -43 -43h-248q-41 0 -41 43v868h-256q-43 0 -43 41v178q0 44 43 44h842q43 0 43 -44v-178q0 -41 -43 -41z" />
    <glyph glyph-name="afii10085" unicode="&#x443;" horiz-adv-x="1212" 
d="M856 1174h272q50 0 37 -48l-344 -1206q-20 -71 -42 -120t-56 -92.5t-80.5 -68.5t-113.5 -39t-156 -14q-56 0 -132.5 10.5t-115.5 22.5q-16 6 -22.5 8.5t-13.5 10t-7 18.5v166q0 17 12 28t29 11h4q10 -1 113 -9t143 -8q56 0 86.5 23t48.5 84l19 63h-31q-34 0 -56 5t-48 23
t-47.5 58.5t-39.5 104.5l-270 921q-2 6 -2 15q0 33 41 33h272q14 0 25 -11.5t14 -27.5l185 -770q8 -39 24 -39h2h8h9l190 809q3 16 15 27.5t28 11.5z" />
    </font>
</defs>
</svg>
