<?xml version="1.0" standalone="no"?>
<!DOCTYPE svg PUBLIC "-//W3C//DTD SVG 1.1//EN" "http://www.w3.org/Graphics/SVG/1.1/DTD/svg11.dtd" >
<svg xmlns="http://www.w3.org/2000/svg" xmlns:xlink="http://www.w3.org/1999/xlink" version="1.1">
<metadata>
Created by FontForge 20170731 at Mon Aug  2 07:04:53 2021
 By Aleksey,,,
Copyright 2004 Monotype Imaging Inc. All Rights Reserved. Neo Sans is designed by Sebastian Lester.
</metadata>
<defs>
<font id="SVN-NeoSansItalic" horiz-adv-x="1239" >
  <font-face 
    font-family="SVN-Neo Sans"
    font-weight="400"
    font-style="italic"
    font-stretch="normal"
    units-per-em="2048"
    panose-1="2 11 5 4 3 5 4 9 2 4"
    ascent="1567"
    descent="-481"
    x-height="1126"
    cap-height="1522"
    bbox="-410 -442 2988 2269"
    underline-thickness="116"
    underline-position="-274"
    slope="-12"
    unicode-range="U+0020-FB04"
  />
<missing-glyph horiz-adv-x="1024" 
d="M25 0v1362h972v-1362h-972zM180 1266l332 -498l330 498h-662zM123 1178v-992q0 -1 82.5 123t164.5 249l83 124zM901 1178l-332 -496l332 -498v994zM842 98l-330 496l-332 -496h662z" />
    <glyph glyph-name="f_f" unicode="ff" horiz-adv-x="1419" 
d="M817 1415q-77 0 -108 -25t-47 -116l-27 -148h481l27 148q13 74 35.5 126t49.5 83t68.5 48t82.5 22.5t100 5.5q47 0 118 -13q39 -5 33 -33l-12 -67q-3 -16 -11.5 -23.5t-29.5 -7.5h-98q-77 0 -108.5 -25t-47.5 -116l-27 -148h222q19 0 27 -7.5t5 -28.5l-12 -72
q-3 -19 -13.5 -27t-33.5 -8h-219l-182 -1032q-16 -89 -46.5 -147t-76.5 -87.5t-95 -40t-118 -10.5q-66 0 -121 10q-39 5 -33 33l12 68q3 19 13 24.5t30 5.5h97q73 0 107.5 30.5t49.5 113.5l183 1032h-482l-182 -1032q-16 -89 -46.5 -147t-76.5 -87.5t-95 -40t-118 -10.5
q-66 0 -121 10q-38 5 -32 33l12 68q3 19 13 24.5t30 5.5h96q74 0 108.5 30.5t49.5 113.5l182 1032l-190 14q-39 3 -33 35l10 58q7 36 45 36h193l26 148q13 74 35.5 126t49.5 83t68.5 48t82.5 22.5t100 5.5q47 0 119 -13q39 -5 33 -33l-13 -67q-3 -16 -11.5 -23.5t-29.5 -7.5
h-98z" />
    <glyph glyph-name="f_i" unicode="fi" horiz-adv-x="1263" 
d="M817 1415q-77 0 -108 -25t-47 -116l-27 -148h622q20 0 28.5 -9t4.5 -32l-182 -1044q-7 -41 -49 -41h-98q-20 0 -28 12t-5 29l164 942h-482l-182 -1032q-16 -89 -46.5 -147t-76.5 -87.5t-95 -40t-118 -10.5q-66 0 -121 10q-38 5 -32 33l12 68q3 19 13 24.5t30 5.5h96
q74 0 108.5 30.5t49.5 113.5l182 1032l-190 14q-39 3 -33 35l10 58q7 36 45 36h193l26 148q13 74 35.5 126t49.5 83t68.5 48t82.5 22.5t100 5.5q47 0 119 -13q39 -5 33 -33l-13 -67q-3 -16 -11.5 -23.5t-29.5 -7.5h-98zM1229 1532h104q21 0 28.5 -9.5t4.5 -31.5l-29 -164
q-5 -23 -15 -32t-34 -9h-104q-41 0 -33 41l29 164q7 41 49 41z" />
    <glyph glyph-name="f_l" unicode="fl" horiz-adv-x="1257" 
d="M817 1415q-77 0 -108 -25t-47 -116l-27 -148h221q19 0 27.5 -8t5.5 -28l-12 -72q-3 -19 -14 -27t-34 -8h-219l-182 -1032q-16 -89 -46.5 -147t-76.5 -87.5t-95 -40t-118 -10.5q-66 0 -121 10q-38 5 -32 33l12 68q3 19 13 24.5t30 5.5h96q74 0 108.5 30.5t49.5 113.5
l182 1032l-190 14q-39 3 -33 35l10 58q7 36 45 36h193l26 148q13 74 35.5 126t49.5 83t68.5 48t82.5 22.5t100 5.5q133 0 516 -19q37 0 29 -39l-256 -1460q-3 -20 -12.5 -30.5t-32.5 -10.5h-107q-16 0 -23.5 12.5t-4.5 28.5l239 1374h-348z" />
    <glyph glyph-name="f_f_i" unicode="ffi" horiz-adv-x="1925" 
d="M817 1415q-77 0 -108 -25t-47 -116l-27 -148h481l27 148q13 74 35.5 126t49.5 83t68.5 48t82.5 22.5t100 5.5q47 0 118 -13q39 -5 33 -33l-12 -67q-3 -16 -11.5 -23.5t-29.5 -7.5h-98q-77 0 -108.5 -25t-47.5 -116l-27 -148h623q20 0 28.5 -9t4.5 -32l-183 -1044
q-7 -41 -49 -41h-98q-20 0 -28 12t-5 29l164 942h-481l-182 -1032q-16 -89 -46.5 -147t-76.5 -87.5t-95 -40t-118 -10.5q-66 0 -121 10q-39 5 -33 33l12 68q3 19 13 24.5t30 5.5h97q73 0 107.5 30.5t49.5 113.5l183 1032h-482l-182 -1032q-16 -89 -46.5 -147t-76.5 -87.5
t-95 -40t-118 -10.5q-66 0 -121 10q-38 5 -32 33l12 68q3 19 13 24.5t30 5.5h96q74 0 108.5 30.5t49.5 113.5l182 1032l-190 14q-39 3 -33 35l10 58q7 36 45 36h193l26 148q13 74 35.5 126t49.5 83t68.5 48t82.5 22.5t100 5.5q47 0 119 -13q39 -5 33 -33l-13 -67
q-3 -16 -11.5 -23.5t-29.5 -7.5h-98zM1890 1532h105q21 0 28.5 -9.5t4.5 -31.5l-29 -164q-5 -23 -15 -32t-34 -9h-105q-41 0 -33 41l29 164q7 41 49 41z" />
    <glyph glyph-name="f_f_l" unicode="ffl" horiz-adv-x="1918" 
d="M1829 1415h-350q-77 0 -108.5 -25t-47.5 -116l-27 -148h222q19 0 27 -7.5t5 -28.5l-12 -72q-3 -19 -13.5 -27t-33.5 -8h-219l-182 -1032q-16 -89 -46.5 -147t-76.5 -87.5t-95 -40t-118 -10.5q-66 0 -121 10q-39 5 -33 33l12 68q3 19 13 24.5t30 5.5h97q73 0 107.5 30.5
t49.5 113.5l183 1032h-482l-182 -1032q-16 -89 -46.5 -147t-76.5 -87.5t-95 -40t-118 -10.5q-66 0 -121 10q-38 5 -32 33l12 68q3 19 13 24.5t30 5.5h96q74 0 108.5 30.5t49.5 113.5l182 1032l-190 14q-39 3 -33 35l10 58q7 36 45 36h193l26 148q13 74 35.5 126t49.5 83
t68.5 48t82.5 22.5t100 5.5q47 0 119 -13q39 -5 33 -33l-13 -67q-3 -16 -11.5 -23.5t-29.5 -7.5h-98q-77 0 -108 -25t-47 -116l-27 -148h481l27 148q13 74 35.5 126t49.5 83t68.5 48t82.5 22.5t100 5.5q29 0 228 -7.5t284 -11.5q37 0 32 -39l-256 -1460q-3 -20 -12.5 -30.5
t-32.5 -10.5h-106q-16 0 -24 12.5t-5 28.5z" />
    <glyph glyph-name="f_b" unicode="fb" horiz-adv-x="1865" 
d="M1165 1415h-348q-77 0 -108 -25t-47 -116l-27 -148h221q19 0 27.5 -8t5.5 -28l-12 -72q-3 -19 -14 -27t-34 -8h-219l-182 -1032q-16 -89 -46.5 -147t-76.5 -87.5t-95 -40t-118 -10.5q-66 0 -121 10q-38 5 -32 33l12 68q3 19 13 24.5t30 5.5h96q74 0 108.5 30.5
t49.5 113.5l182 1032l-190 14q-39 3 -33 35l10 58q7 36 45 36h193l26 148q13 74 35.5 126t49.5 83t68.5 48t82.5 22.5t100 5.5q133 0 516 -19q37 0 29 -39l-68 -381q123 21 244 21q183 0 277 -96.5t94 -270.5q0 -59 -13 -135l-26 -147q-45 -250 -175.5 -378t-359.5 -128
q-203 0 -370 34q-20 4 -28.5 10t-8.5 15.5t2 22.5zM1731 778q0 107 -52 156t-168 49q-161 0 -243 -14l-144 -813q147 -13 238 -13q264 0 328 349l26 147q15 79 15 139z" />
    <glyph glyph-name="f_f_b" unicode="ffb" horiz-adv-x="2527" 
d="M2392 778q0 107 -51.5 156t-167.5 49q-162 0 -244 -14l-143 -813q147 -13 237 -13q264 0 328 349l27 147q14 74 14 139zM1116 1126l27 148q13 74 35.5 126t49.5 83t68.5 48t82.5 22.5t100 5.5q133 0 516 -19q36 0 28 -39l-67 -381q123 21 244 21q183 0 276.5 -96.5
t93.5 -270.5q0 -64 -12 -135l-27 -147q-45 -250 -175.5 -378t-358.5 -128q-204 0 -371 34q-20 4 -28.5 10t-8.5 15.5t2 22.5l236 1347h-348q-77 0 -108.5 -25t-47.5 -116l-27 -148h222q19 0 27 -7.5t5 -28.5l-12 -72q-3 -19 -13.5 -27t-33.5 -8h-219l-182 -1032
q-16 -89 -46.5 -147t-76.5 -87.5t-95 -40t-118 -10.5q-66 0 -121 10q-39 5 -33 33l12 68q3 19 13 24.5t30 5.5h97q73 0 107.5 30.5t49.5 113.5l183 1032h-482l-182 -1032q-16 -89 -46.5 -147t-76.5 -87.5t-95 -40t-118 -10.5q-66 0 -121 10q-38 5 -32 33l12 68q3 19 13 24.5
t30 5.5h96q74 0 108.5 30.5t49.5 113.5l182 1032l-190 14q-39 3 -33 35l10 58q7 36 45 36h193l26 148q13 74 35.5 126t49.5 83t68.5 48t82.5 22.5t100 5.5q47 0 119 -13q39 -5 33 -33l-13 -67q-3 -16 -11.5 -23.5t-29.5 -7.5h-98q-77 0 -108 -25t-47 -116l-27 -148h481z" />
    <glyph glyph-name="f_f_h" unicode="ffh" horiz-adv-x="2560" 
d="M1116 1126l27 148q13 74 35.5 126t49.5 83t68.5 48t82.5 22.5t100 5.5q133 0 516 -19q36 0 28 -39l-67 -389q130 29 239 29q189 0 286 -91t97 -237q0 -26 -8 -84l-121 -688q-7 -41 -49 -41h-98q-39 0 -33 41l121 688q8 41 8 82q0 93 -54 134.5t-175 41.5q-128 0 -242 -31
l-160 -915q-2 -14 -5.5 -21.5t-14.5 -13.5t-29 -6h-98q-41 0 -33 41l240 1374h-348q-77 0 -108.5 -25t-47.5 -116l-27 -148h222q19 0 27 -7.5t5 -28.5l-12 -72q-3 -19 -13.5 -27t-33.5 -8h-219l-182 -1032q-16 -89 -46.5 -147t-76.5 -87.5t-95 -40t-118 -10.5q-66 0 -121 10
q-39 5 -33 33l12 68q3 19 13 24.5t30 5.5h97q73 0 107.5 30.5t49.5 113.5l183 1032h-482l-182 -1032q-16 -89 -46.5 -147t-76.5 -87.5t-95 -40t-118 -10.5q-66 0 -121 10q-38 5 -32 33l12 68q3 19 13 24.5t30 5.5h96q74 0 108.5 30.5t49.5 113.5l182 1032l-190 14
q-39 3 -33 35l10 58q7 36 45 36h193l26 148q13 74 35.5 126t49.5 83t68.5 48t82.5 22.5t100 5.5q47 0 119 -13q39 -5 33 -33l-13 -67q-3 -16 -11.5 -23.5t-29.5 -7.5h-98q-77 0 -108 -25t-47 -116l-27 -148h481z" />
    <glyph glyph-name="f_f_k" unicode="ffk" horiz-adv-x="2455" 
d="M1092 983h-482l-182 -1032q-16 -89 -46.5 -147t-76.5 -87.5t-95 -40t-118 -10.5q-66 0 -121 10q-38 5 -32 33l12 68q3 19 13 24.5t30 5.5h96q74 0 108.5 30.5t49.5 113.5l182 1032l-190 14q-39 3 -33 35l10 58q7 36 45 36h193l26 148q13 74 35.5 126t49.5 83t68.5 48
t82.5 22.5t100 5.5q47 0 119 -13q39 -5 33 -33l-13 -67q-3 -16 -11.5 -23.5t-29.5 -7.5h-98q-77 0 -108 -25t-47 -116l-27 -148h481l27 148q13 74 35.5 126t49.5 83t68.5 48t82.5 22.5t100 5.5q133 0 516 -19q36 0 28 -41l-147 -831l471 440q18 18 45 18h139q27 0 27 -20
q0 -15 -12 -27l-531 -487l371 -545q6 -9 6 -18q0 -11 -8 -20t-21 -9h-118q-36 0 -56 31l-336 504l-86 -494q-7 -41 -38 -41h-109q-18 0 -27 12.5t-6 28.5l240 1374h-348q-77 0 -108.5 -25t-47.5 -116l-27 -148h222q19 0 27 -7.5t5 -28.5l-12 -72q-3 -19 -13.5 -27t-33.5 -8
h-219l-182 -1032q-16 -89 -46.5 -147t-76.5 -87.5t-95 -40t-118 -10.5q-66 0 -121 10q-39 5 -33 33l12 68q3 19 13 24.5t30 5.5h97q73 0 107.5 30.5t49.5 113.5z" />
    <glyph glyph-name="f_h" unicode="fh" horiz-adv-x="1898" 
d="M1165 1415h-348q-77 0 -108 -25t-47 -116l-27 -148h221q19 0 27.5 -8t5.5 -28l-12 -72q-3 -19 -14 -27t-34 -8h-219l-182 -1032q-16 -89 -46.5 -147t-76.5 -87.5t-95 -40t-118 -10.5q-66 0 -121 10q-38 5 -32 33l12 68q3 19 13 24.5t30 5.5h96q74 0 108.5 30.5
t49.5 113.5l182 1032l-190 14q-39 3 -33 35l10 58q7 36 45 36h193l26 148q13 74 35.5 126t49.5 83t68.5 48t82.5 22.5t100 5.5q133 0 516 -19q37 0 29 -39l-68 -389q130 29 240 29q189 0 286 -91t97 -237q0 -26 -8 -84l-121 -688q-7 -41 -49 -41h-99q-38 0 -32 41l121 688
q8 41 8 82q0 93 -54.5 134.5t-175.5 41.5q-127 0 -241 -31l-160 -915q-2 -14 -5.5 -21.5t-14.5 -13.5t-29 -6h-99q-40 0 -32 41z" />
    <glyph glyph-name="f_j" unicode="fj" horiz-adv-x="1263" 
d="M817 1415q-77 0 -108 -25t-47 -116l-27 -148h622q20 0 28.5 -9t4.5 -32l-213 -1216q-26 -152 -101 -212t-206 -60q-56 0 -108 8q-34 5 -31 33l12 75q3 18 14 23.5t35 5.5h86q58 0 81.5 25t37.5 102l195 1114h-482l-182 -1032q-16 -89 -46.5 -147t-76.5 -87.5t-95 -40
t-118 -10.5q-66 0 -121 10q-38 5 -32 33l12 68q3 19 13 24.5t30 5.5h96q74 0 108.5 30.5t49.5 113.5l182 1032l-190 14q-39 3 -33 35l10 58q7 36 45 36h193l26 148q13 74 35.5 126t49.5 83t68.5 48t82.5 22.5t100 5.5q47 0 119 -13q39 -5 33 -33l-13 -67q-3 -16 -11.5 -23.5
t-29.5 -7.5h-98zM1229 1532h104q21 0 28.5 -9.5t4.5 -31.5l-29 -164q-5 -23 -15 -32t-34 -9h-104q-41 0 -33 41l29 164q7 41 49 41z" />
    <glyph glyph-name="f_f_j" unicode="ffj" horiz-adv-x="1925" 
d="M817 1415q-77 0 -108 -25t-47 -116l-27 -148h481l27 148q13 74 35.5 126t49.5 83t68.5 48t82.5 22.5t100 5.5q47 0 118 -13q39 -5 33 -33l-12 -67q-3 -16 -11.5 -23.5t-29.5 -7.5h-98q-77 0 -108.5 -25t-47.5 -116l-27 -148h623q20 0 28.5 -9t4.5 -32l-213 -1216
q-26 -152 -101 -212t-206 -60q-57 0 -109 8q-34 5 -31 33l13 75q3 18 14 23.5t35 5.5h86q58 0 81.5 25t37.5 102l194 1114h-481l-182 -1032q-16 -89 -46.5 -147t-76.5 -87.5t-95 -40t-118 -10.5q-66 0 -121 10q-39 5 -33 33l12 68q3 19 13 24.5t30 5.5h97q73 0 107.5 30.5
t49.5 113.5l183 1032h-482l-182 -1032q-16 -89 -46.5 -147t-76.5 -87.5t-95 -40t-118 -10.5q-66 0 -121 10q-38 5 -32 33l12 68q3 19 13 24.5t30 5.5h96q74 0 108.5 30.5t49.5 113.5l182 1032l-190 14q-39 3 -33 35l10 58q7 36 45 36h193l26 148q13 74 35.5 126t49.5 83
t68.5 48t82.5 22.5t100 5.5q47 0 119 -13q39 -5 33 -33l-13 -67q-3 -16 -11.5 -23.5t-29.5 -7.5h-98zM1890 1532h105q21 0 28.5 -9.5t4.5 -31.5l-29 -164q-5 -23 -15 -32t-34 -9h-105q-41 0 -33 41l29 164q7 41 49 41z" />
    <glyph glyph-name="f_k" unicode="fk" horiz-adv-x="1794" 
d="M1165 1415h-348q-77 0 -108 -25t-47 -116l-27 -148h221q19 0 27.5 -8t5.5 -28l-12 -72q-3 -19 -14 -27t-34 -8h-219l-182 -1032q-16 -89 -46.5 -147t-76.5 -87.5t-95 -40t-118 -10.5q-66 0 -121 10q-38 5 -32 33l12 68q3 19 13 24.5t30 5.5h96q74 0 108.5 30.5
t49.5 113.5l182 1032l-190 14q-39 3 -33 35l10 58q7 36 45 36h193l26 148q13 74 35.5 126t49.5 83t68.5 48t82.5 22.5t100 5.5q133 0 516 -19q37 0 29 -41l-148 -831l472 440q18 18 45 18h139q26 0 26 -20q0 -15 -12 -27l-530 -487l370 -545q7 -11 7 -18q0 -11 -8 -20
t-21 -9h-119q-35 0 -55 31l-336 504l-86 -494q-7 -41 -39 -41h-109q-18 0 -26.5 12.5t-5.5 28.5z" />
    <glyph glyph-name=".notdef" horiz-adv-x="1024" 
d="M25 0v1362h972v-1362h-972zM180 1266l332 -498l330 498h-662zM123 1178v-992q0 -1 82.5 123t164.5 249l83 124zM901 1178l-332 -496l332 -498v994zM842 98l-330 496l-332 -496h662z" />
    <glyph glyph-name=".null" horiz-adv-x="0" 
 />
    <glyph glyph-name="nonmarkingreturn" horiz-adv-x="682" 
 />
    <glyph glyph-name="space" unicode=" " horiz-adv-x="559" 
 />
    <glyph glyph-name="exclam" unicode="!" horiz-adv-x="444" 
d="M580 1507v-6l-203 -1065q-3 -16 -16.5 -27.5t-30.5 -11.5h-74q-14 0 -23.5 9.5t-9.5 23.5v6l172 1065q3 15 17.5 27t31.5 12h103q13 0 23 -10t10 -23zM352 238v-7l-35 -192q-3 -17 -15.5 -28t-29.5 -11h-98q-14 0 -23.5 9t-9.5 24v6l35 192q3 16 15.5 27.5t29.5 11.5h98
q14 0 23.5 -9.5t9.5 -22.5z" />
    <glyph glyph-name="quotedbl" unicode="&#x22;" horiz-adv-x="741" 
d="M950 1524q0 -8 -6 -23l-186 -387q-11 -22 -20.5 -30.5t-24.5 -8.5h-97q-16 0 -16 15q0 12 6 24l162 387q16 39 49 39h115q18 0 18 -16zM602 1524q0 -8 -6 -23l-186 -387q-11 -22 -20.5 -30.5t-24.5 -8.5h-97q-16 0 -16 15q0 12 6 24l162 387q16 39 49 39h115q18 0 18 -16
z" />
    <glyph glyph-name="numbersign" unicode="#" horiz-adv-x="1351" 
d="M1436 1059q0 -11 -2 -15l-13 -45q-10 -38 -47 -38h-198l-111 -414h201q26 0 26 -29q0 -10 -2 -14l-10 -43q-5 -17 -18.5 -28t-30.5 -11h-201l-100 -383q-12 -39 -43 -39h-90q-13 0 -21 8.5t-8 20.5q0 1 1 4.5t1 5.5l100 383h-317l-100 -383q-5 -16 -17 -27.5t-26 -11.5
h-93q-12 0 -20 8.5t-8 20.5q0 2 1 5t1 5l100 383h-190q-27 0 -27 29q0 10 2 14l12 43q5 17 18 28t30 11h190l111 414h-193q-13 0 -21 9t-8 21q0 9 2 13l13 45q4 17 18 27.5t31 10.5h190l105 396q5 16 17.5 27.5t27.5 11.5h92q12 0 19.5 -8.5t7.5 -20.5q0 -1 -1 -4.5t-1 -5.5
l-105 -396h318l104 396q12 39 45 39h90q13 0 20 -8t7 -19q0 -8 -2 -12l-105 -396h201q27 0 27 -28zM1016 961h-318l-110 -414h317z" />
    <glyph glyph-name="dollar" unicode="$" 
d="M1298 1477v-2l-16 -89q-6 -32 -39 -32h-4q-41 0 -164 9t-186 9q-58 0 -101.5 -4t-91 -18t-77.5 -39t-50 -69t-20 -105q0 -57 40.5 -99.5t143.5 -111.5l168 -113q144 -97 199 -179.5t55 -178.5q0 -128 -62.5 -228t-163 -157.5t-227.5 -75.5l-32 -193q-3 -17 -17.5 -29
t-31.5 -12h-97q-15 0 -23.5 9.5t-8.5 23.5v6v2l32 185q-146 2 -288 28q-35 5 -35 25q0 2 1 6t1 6l16 84q6 33 39 33h4h2q207 -18 336 -18q58 0 109 9t97.5 30.5t79.5 53.5t52.5 81t19.5 110q0 59 -44 110t-156 126l-178 121q-114 76 -167 155.5t-53 171.5q0 96 34 171.5
t95 124t138 77.5t170 39l28 176q3 17 17.5 29t31.5 12h97q15 0 24 -9.5t9 -23.5v-6v-2l-29 -170q154 -6 295 -27q28 -3 28 -28v-4z" />
    <glyph glyph-name="percent" unicode="%" horiz-adv-x="1626" 
d="M1632 602q0 -50 -8 -94l-35 -191q-31 -175 -113.5 -253t-218.5 -78q-104 0 -165.5 64t-61.5 179q0 47 8 88l35 191q31 173 114.5 251.5t219.5 78.5q107 0 166 -61t59 -175zM1597 1511q0 -11 -14 -28l-1112 -1450q-19 -24 -29 -32.5t-24 -8.5h-101q-16 0 -16 12
q0 14 12 29l1112 1450q18 23 29 31t25 8h104q14 0 14 -11zM864 1300q0 -50 -8 -94l-35 -190q-31 -175 -113.5 -253.5t-218.5 -78.5q-104 0 -165.5 64.5t-61.5 179.5q0 47 8 88l35 190q31 173 114.5 251.5t219.5 78.5q107 0 166 -61t59 -175zM1505 594q0 68 -30 98.5
t-89 30.5q-146 0 -186 -215l-35 -191q-8 -44 -8 -86q0 -69 30.5 -99t90.5 -30q145 0 184 215l35 191q8 44 8 86zM737 1292q0 68 -30 98.5t-89 30.5q-146 0 -186 -215l-35 -190q-8 -44 -8 -86q0 -69 30.5 -99t90.5 -30q145 0 184 215l35 190q8 44 8 86z" />
    <glyph glyph-name="ampersand" unicode="&#x26;" horiz-adv-x="1388" 
d="M1380 748v-9q-70 -324 -221 -499l154 -205q8 -11 8 -19q0 -16 -25 -16h-143q-21 0 -31 14l-82 111q-189 -139 -432 -139q-204 0 -322 79t-118 240q0 82 24 148.5t76 123t116 102.5t161 101l-21 29q-77 107 -110 178t-33 160q0 196 119.5 292.5t324.5 96.5q194 0 300 -75
t106 -204q0 -144 -87 -242t-302 -224l-70 -41l299 -398q101 139 154 387q3 19 9.5 26t22.5 7h93q30 0 30 -24zM1063 1257q0 72 -54 108t-184 36q-144 0 -210 -58t-66 -196q0 -65 26 -117t93 -141l18 -25l82 45q137 76 174 103q88 64 111 154q10 40 10 91zM961 231l-332 437
q-68 -38 -108.5 -66t-84 -71t-64 -97.5t-20.5 -122.5q0 -105 68.5 -144.5t212.5 -39.5q189 0 328 104z" />
    <glyph glyph-name="quotesingle" unicode="'" horiz-adv-x="393" 
d="M602 1524q0 -8 -6 -23l-186 -387q-11 -22 -20.5 -30.5t-24.5 -8.5h-97q-16 0 -16 15q0 12 6 24l162 387q16 39 49 39h115q18 0 18 -16z" />
    <glyph glyph-name="parenleft" unicode="(" horiz-adv-x="624" 
d="M850 1528q0 -9 -12 -25q-234 -273 -350.5 -608.5t-116.5 -704.5q0 -341 123 -581q4 -12 4 -17q0 -20 -25 -20h-86q-16 0 -24.5 4t-18.5 18q-149 228 -149 633q0 230 51.5 462t161.5 453.5t264 375.5q22 22 51 22h108q19 0 19 -12z" />
    <glyph glyph-name="parenright" unicode=")" horiz-adv-x="624" 
d="M655 885q0 -230 -51.5 -462t-161.5 -453.5t-264 -375.5q-22 -22 -51 -22h-109q-18 0 -18 14q0 10 10 23q235 275 352 609t117 704q0 341 -123 581q-4 8 -4 15q0 22 27 22h84q16 0 24.5 -4t18.5 -18q149 -228 149 -633z" />
    <glyph glyph-name="asterisk" unicode="*" horiz-adv-x="952" 
d="M1075 1225q0 -21 -28 -31l-256 -80l157 -217q10 -13 10 -27q0 -13 -12 -22l-49 -37q-9 -6 -16 -6q-18 0 -31 20l-156 217l-155 -217q-13 -20 -31 -20q-7 0 -16 6l-52 37q-12 9 -12 22q0 14 10 27l160 217l-254 80q-31 12 -31 31q0 2 1 5t1 5l19 59q6 21 26 21q7 0 19 -4
l256 -84l-2 268q0 39 31 39h61q31 0 31 -39l-2 -268l256 84q12 4 18 4q21 0 27 -21l18 -59q2 -4 2 -10z" />
    <glyph glyph-name="plus" unicode="+" horiz-adv-x="1218" 
d="M1221 760q0 -33 -41 -33h-353v-350q0 -41 -32 -41h-82q-33 0 -33 41v350h-350q-41 0 -41 33v82q0 32 41 32h350v353q0 41 33 41h82q32 0 32 -41v-353h353q41 0 41 -32v-82z" />
    <glyph glyph-name="comma" unicode="," horiz-adv-x="438" 
d="M387 248q0 -11 -6 -23l-221 -387q-12 -22 -20.5 -30.5t-24.5 -8.5h-84q-10 0 -16.5 5.5t-6.5 13.5t6 20l185 387q17 39 49 39h119q20 0 20 -16z" />
    <glyph glyph-name="hyphen" unicode="-" horiz-adv-x="681" 
d="M696 645v-6l-14 -80q-3 -15 -15.5 -25t-29.5 -10h-408q-32 0 -32 29v6l14 80q3 15 15.5 26t29.5 11h408q15 0 23.5 -8.5t8.5 -22.5z" />
    <glyph glyph-name="period" unicode="." horiz-adv-x="438" 
d="M348 240v-7l-33 -190q-3 -17 -16.5 -29t-30.5 -12h-98q-13 0 -22 9.5t-9 23.5v8l33 190q3 17 15.5 28t29.5 11h98q14 0 23.5 -9.5t9.5 -22.5z" />
    <glyph glyph-name="slash" unicode="/" horiz-adv-x="727" 
d="M944 1499q0 -6 -4 -18l-715 -1440q-21 -41 -45 -41h-104q-10 0 -16.5 7t-6.5 16q0 6 4 18l717 1440q20 41 43 41h105q10 0 16 -7t6 -16z" />
    <glyph glyph-name="zero" unicode="0" 
d="M1298 1098q0 -91 -18 -199l-47 -276q-58 -338 -211 -487.5t-404 -149.5q-193 0 -301 110.5t-108 333.5q0 88 18 193l47 276q30 173 85 297t135 198t177.5 108t219.5 34q196 0 301.5 -109t105.5 -329zM1112 1092q0 153 -62.5 219.5t-185.5 66.5q-146 0 -253 -119.5
t-148 -359.5l-47 -276q-19 -120 -19 -197q0 -152 61.5 -217.5t186.5 -65.5q145 0 253 119.5t149 360.5l47 276q18 111 18 193z" />
    <glyph glyph-name="one" unicode="1" 
d="M1024 0h-840q-18 0 -27.5 10t-6.5 27l14 90q6 35 47 35h326l206 1167l-346 -135q-13 -7 -29 -5t-12 21l19 105q2 15 24 26l396 168q29 13 47 13h84q15 0 24 -11t6 -28l-233 -1321h328q18 0 27.5 -9t6.5 -26l-14 -90q-3 -17 -16 -27t-31 -10z" />
    <glyph glyph-name="two" unicode="2" 
d="M1292 1227q0 -78 -24 -144t-72.5 -122t-106 -101t-139.5 -94l-221 -133q-96 -58 -158.5 -106.5t-102 -100t-60 -101.5t-33.5 -120l-8 -43h682q14 0 24 -8t10 -21v-6l-16 -90q-3 -17 -16 -27t-31 -10h-813q-15 0 -25 9t-10 24v6l31 166q34 184 127 309.5t280 237.5
l232 139q59 35 91.5 56t71.5 53.5t58.5 62t33 72t13.5 92.5q0 82 -63 117.5t-213 35.5t-369 -30q-22 -3 -31.5 4t-3.5 32l14 72q3 14 10.5 22t14.5 10t20 5q169 41 371 41q432 0 432 -309z" />
    <glyph glyph-name="three" unicode="3" 
d="M1276 1227q0 -141 -70 -261.5t-194 -177.5q139 -75 139 -258q0 -275 -156.5 -409.5t-439.5 -134.5q-172 0 -340 41q-18 4 -26 11.5t-5 27.5l13 69q6 40 47 35q219 -29 338 -29q381 0 381 383q0 83 -46.5 138t-152.5 55h-373q-38 0 -33 37l13 71q3 20 12.5 29.5t32.5 9.5
h372q141 0 218 96.5t77 239.5q0 102 -60 141t-216 39q-103 0 -356 -30h-7q-34 0 -28 34l12 72q6 31 47 39q209 41 352 41q212 0 330.5 -77t118.5 -232z" />
    <glyph glyph-name="four" unicode="4" 
d="M1044 561h179q21 0 28 -8t4 -29l-14 -82q-4 -22 -15 -29t-30 -7h-178l-64 -365q-6 -41 -43 -41h-118q-33 0 -27 41l63 365h-591q-39 0 -55.5 12t-16.5 41q0 16 2 26l12 78q5 40 39 76l756 850q29 33 65 33h121q30 0 40 -10.5t5 -34.5zM979 1239q0 8 -8 8q-7 0 -19 -12
l-571 -645q-10 -13 -10 -19q0 -10 14 -10h473l121 674v4z" />
    <glyph glyph-name="five" unicode="5" 
d="M553 1522h704q42 0 35 -35l-16 -90q-3 -18 -13.5 -25.5t-33.5 -7.5h-588l-111 -442h97q270 0 408.5 -85.5t138.5 -269.5q0 -282 -164.5 -431.5t-452.5 -149.5q-209 0 -354 37q-38 7 -33 40l14 76q6 40 47 31q158 -29 353 -29q193 0 296 111.5t103 304.5q0 122 -87 166.5
t-296 44.5h-240q-40 0 -32 37l178 682q4 15 18 25t29 10z" />
    <glyph glyph-name="six" unicode="6" 
d="M909 1536q190 0 346 -35q19 -4 31.5 -13t9.5 -26l-14 -80q-4 -25 -16.5 -32t-38.5 -2q-160 32 -344 32q-87 0 -154 -22.5t-111.5 -59.5t-77.5 -97t-52 -124t-35 -151l-4 -23q4 1 29 6t32 6.5t30.5 6t35 6t33.5 5t37.5 5t36 3.5t40.5 2.5t41 0.5q125 0 220 -34
t154.5 -112.5t59.5 -195.5q0 -277 -161 -446.5t-439 -169.5q-199 0 -302 100t-103 301q0 109 12 180l63 359q30 171 84.5 289t136 188.5t183.5 101.5t237 31zM1012 590q0 50 -15 87.5t-39.5 60.5t-61 37t-74 19t-83.5 5q-155 0 -315 -37l-35 -195q-16 -96 -16 -182
q0 -141 61.5 -194.5t190.5 -53.5q92 0 167 38t122 102t72.5 144.5t25.5 168.5z" />
    <glyph glyph-name="seven" unicode="7" 
d="M1331 1393q0 -65 -31 -113l-806 -1249q-22 -31 -52 -31h-129q-24 0 -24 23q0 13 10 30l844 1286q4 8 4 13q0 10 -12 10h-693q-20 0 -29 7t-5 28l16 86q8 39 47 39h664q103 0 149.5 -32t46.5 -97z" />
    <glyph glyph-name="eight" unicode="8" 
d="M1333 1217q0 -135 -71 -250.5t-193 -171.5q71 -43 108 -116.5t37 -156.5q0 -171 -76 -293.5t-206.5 -182.5t-302.5 -60h-21q-184 0 -306 98t-122 264q0 140 73 261.5t198 185.5q-71 39 -107.5 103.5t-36.5 145.5q0 123 46.5 219t126.5 154.5t182 88.5t219 30h20
q193 0 312.5 -83t119.5 -236zM1149 1186q0 105 -67.5 151.5t-207.5 46.5h-20q-153 0 -259 -87t-106 -236q0 -85 54 -139t168 -54h127q138 0 224.5 90.5t86.5 227.5zM1028 514q0 87 -52.5 147t-164.5 60h-127q-149 0 -232 -105.5t-83 -257.5q0 -114 66 -165.5t200 -51.5h20
q175 0 274 100.5t99 272.5z" />
    <glyph glyph-name="nine" unicode="9" 
d="M1292 1135q0 -110 -12 -181l-63 -358q-30 -170 -85 -288.5t-136.5 -189t-183.5 -101.5t-237 -31q-195 0 -346 34q-25 5 -34.5 13t-6.5 26l15 80q4 26 15.5 33t39.5 2q175 -33 344 -33q87 0 154 22.5t111.5 59.5t77.5 97.5t52 124.5t35 151l4 22q-196 -40 -315 -40
q-125 0 -220 34t-154.5 112.5t-59.5 195.5q0 277 161 446.5t439 169.5q199 0 302 -100t103 -301zM1112 1137q0 141 -61 194t-191 53q-92 0 -167 -38t-122 -101.5t-72.5 -144t-25.5 -168.5q0 -50 15 -87.5t39.5 -60.5t60.5 -37t73.5 -19t83.5 -5q156 0 316 37l35 194
q16 96 16 183z" />
    <glyph glyph-name="colon" unicode=":" horiz-adv-x="448" 
d="M504 1092v-7l-33 -190q-3 -17 -16.5 -28t-30.5 -11h-96q-14 0 -24.5 10t-10.5 23v6l33 190q3 17 17.5 29t31.5 12h96q13 0 23 -10t10 -24zM354 238v-7l-35 -192q-3 -17 -16.5 -28t-30.5 -11h-96q-14 0 -24.5 10t-10.5 23v6l35 192q3 16 16.5 27.5t30.5 11.5h96
q15 0 25 -9t10 -23z" />
    <glyph glyph-name="semicolon" unicode=";" horiz-adv-x="448" 
d="M504 1094v-9l-33 -190q-3 -17 -15.5 -28t-29.5 -11h-100q-14 0 -23.5 9t-9.5 24v6l33 190q3 17 16.5 29t30.5 12h100q13 0 22 -9t9 -23zM362 246q0 -11 -6 -23l-221 -387q-12 -22 -21.5 -31.5t-25.5 -9.5h-82q-20 0 -20 19q0 10 6 22l184 387q17 39 49 39h117
q20 0 20 -16z" />
    <glyph glyph-name="less" unicode="&#x3c;" horiz-adv-x="1218" 
d="M1096 307q0 -20 -25 -20h-119q-30 0 -63 26l-494 418q-37 30 -37 70q0 39 37 69l494 418q34 27 63 27h119q25 0 25 -21q0 -16 -21 -34l-536 -459l536 -459q21 -18 21 -35z" />
    <glyph glyph-name="equal" unicode="=" horiz-adv-x="1218" 
d="M1208 987q0 -33 -41 -33h-788q-41 0 -41 33v82q0 33 41 33h788q41 0 41 -33v-82zM1208 535q0 -33 -41 -33h-788q-41 0 -41 33v81q0 33 41 33h788q41 0 41 -33v-81z" />
    <glyph glyph-name="greater" unicode="&#x3e;" horiz-adv-x="1218" 
d="M1192 801q0 -40 -37 -70l-493 -418q-32 -26 -64 -26h-119q-24 0 -24 20q0 18 20 35l537 459l-537 459q-20 17 -20 34q0 21 24 21h119q30 0 64 -27l493 -418q37 -30 37 -69z" />
    <glyph glyph-name="question" unicode="?" horiz-adv-x="913" 
d="M1012 1284q0 -40 -8.5 -79t-18.5 -69t-33.5 -66t-39 -57t-50 -57.5t-51 -52.5t-57.5 -55l-111 -105q-82 -77 -100 -100q-35 -44 -45 -106l-17 -101q-3 -17 -17 -28t-32 -11h-90q-14 0 -22.5 8.5t-8.5 22.5v6v2l17 101q15 97 54 160.5t136 152.5l113 104q53 50 79.5 77.5
t53.5 66t37 77.5t10 89q0 61 -44 85.5t-144 24.5q-110 0 -279 -18h-6q-25 0 -25 24v6v5l13 71q3 21 11.5 32t31.5 15q148 27 286 27q160 0 258.5 -63t98.5 -189zM446 236v-7l-34 -190q-3 -17 -15.5 -28t-29.5 -11h-99q-15 0 -25 9.5t-10 23.5v6l35 190q3 16 16.5 28.5
t30.5 12.5h99q14 0 23 -10t9 -24z" />
    <glyph glyph-name="at" unicode="@" horiz-adv-x="1570" 
d="M1575 821q0 -159 -34 -280t-97.5 -202.5t-161 -132.5t-216.5 -73t-273 -22q-163 0 -250.5 60t-87.5 181q0 41 8 80l49 240q37 183 133 254t275 71q123 0 258 -30q41 -10 41 -39q0 -2 -1 -6.5t-1 -6.5l-130 -641q100 16 172 69t110 131.5t54.5 164t16.5 184.5
q0 197 -120 299.5t-339 102.5q-264 0 -433.5 -134t-221.5 -386l-64 -312q-14 -66 -14 -129q0 -185 122 -279t351 -94q134 0 295 15h4q16 0 16 -12v-3l-8 -65q-3 -26 -35 -29q-132 -16 -288 -16q-173 0 -305 54.5t-207.5 164.5t-75.5 262q0 64 12 131l64 320
q61 312 266.5 471t541.5 159q253 0 413.5 -143.5t160.5 -378.5zM1024 838q-86 12 -137 12q-90 0 -139 -43.5t-68 -138.5l-47 -234q-8 -39 -8 -76q0 -33 11.5 -54t35 -30.5t45.5 -12.5t55 -3h53h2h7q52 0 79 4z" />
    <glyph glyph-name="A" unicode="A" horiz-adv-x="1296" 
d="M1243 39q0 -39 -35 -39h-123q-24 0 -28 31l-51 471h-531l-213 -471q-12 -31 -43 -31h-125q-28 0 -28 27q0 12 4 20l614 1333q71 156 236 156q163 0 180 -154l143 -1335v-8zM995 664l-67 673q-3 37 -33 37q-31 0 -47 -37l-305 -673h452z" />
    <glyph glyph-name="B" unicode="B" horiz-adv-x="1261" 
d="M1354 1176q0 -23 -8 -68q-24 -126 -92.5 -203.5t-182.5 -118.5q82 -33 127 -105.5t45 -164.5q0 -41 -10 -96q-18 -102 -61 -178.5t-102 -125t-141.5 -78t-171 -41t-198.5 -11.5q-218 0 -332 18q-30 5 -42.5 17t-12.5 36q0 15 2 23l240 1364q11 66 80 76q140 16 327 16
q116 0 210 -18t168 -55t114.5 -101t40.5 -150v-36zM1167 1171v23q0 45 -17.5 77.5t-48 53t-79 32.5t-102 16.5t-125.5 4.5q-34 0 -205 -6l-90 -508h315q297 0 344 244q8 43 8 63zM1057 514q0 201 -266 201h-316l-100 -563q24 -1 97 -5t114 -4q101 0 175 12.5t135.5 43
t99 85.5t51.5 136q10 55 10 94z" />
    <glyph glyph-name="C" unicode="C" horiz-adv-x="1116" 
d="M934 1536q131 0 338 -33q10 -1 16 -3t10 -8t2 -15l-18 -105q-2 -14 -9.5 -18.5t-25.5 -3.5q-216 18 -340 18q-78 0 -145 -24.5t-126 -77.5t-102 -145t-65 -218l-51 -285q-15 -85 -15 -151q0 -163 77 -238t212 -75q52 0 115 3t140 7.5t87 5.5q24 1 31 -5.5t4 -27.5
l-14 -84q-3 -20 -12.5 -28.5t-36.5 -12.5q-143 -26 -344 -26q-65 0 -126 15t-120 50.5t-102.5 88t-70 133.5t-26.5 182q0 80 14 163l52 285q27 150 79.5 264.5t115 183.5t142.5 111.5t155 58t159 15.5z" />
    <glyph glyph-name="D" unicode="D" horiz-adv-x="1312" 
d="M1368 1057q0 -78 -14 -158l-47 -276q-110 -637 -734 -637q-250 0 -368 20q-24 4 -31 16t-4 35l248 1407q9 46 51 52q122 20 377 20q242 0 382 -121.5t140 -357.5zM1182 1047q0 93 -27 158.5t-78 102t-114.5 52.5t-145.5 16q-125 0 -227 -6l-215 -1220q82 -5 227 -5
q74 0 140.5 15.5t128.5 51t110.5 90t85 136.5t53.5 185l47 276q15 83 15 148z" />
    <glyph glyph-name="E" unicode="E" horiz-adv-x="1128" 
d="M840 1368q-82 0 -133.5 -10.5t-83.5 -38t-47.5 -64.5t-26.5 -100l-49 -285h628q38 0 33 -41l-12 -77q-7 -41 -49 -41h-629l-59 -344q-11 -60 -11 -84q0 -70 48.5 -99.5t175.5 -29.5h389q16 0 21.5 -5.5t2.5 -19.5l-18 -100q-4 -25 -25 -29q-45 -5 -178.5 -9.5
t-222.5 -4.5q-179 0 -278 74.5t-99 220.5q0 45 8 86l137 788q20 112 60 186.5t105 117t145.5 60t193.5 17.5q299 0 398 -18q21 -3 16 -29l-18 -96q-2 -25 -27 -25h-395z" />
    <glyph glyph-name="F" unicode="F" horiz-adv-x="1128" 
d="M840 1368q-82 0 -133.5 -10.5t-83.5 -38t-47.5 -64.5t-26.5 -100l-49 -285h628q40 0 33 -41l-12 -77q-2 -13 -6 -21t-14.5 -14t-28.5 -6h-629l-117 -670q-7 -41 -47 -41h-104q-42 0 -35 41l194 1114q20 113 60 188t105.5 117t145.5 59t193 17q291 0 387 -16
q19 -3 24.5 -10t2.5 -21l-18 -96q-4 -25 -27 -25h-395z" />
    <glyph glyph-name="G" unicode="G" horiz-adv-x="1253" 
d="M938 1536q201 0 385 -29q34 -4 29 -30l-19 -103q-1 -14 -9.5 -18t-27.5 -2q-167 14 -387 14q-74 0 -139 -22t-127.5 -72.5t-109.5 -146.5t-70 -230l-47 -274q-17 -104 -17 -162q0 -163 74.5 -236t202.5 -73q113 0 260 12l104 586q3 18 14.5 29.5t28.5 11.5h111
q14 0 23.5 -10.5t9.5 -24.5v-6l-123 -689q-7 -38 -45 -45q-191 -30 -412 -30q-84 0 -159.5 28t-137.5 83.5t-98.5 151t-36.5 218.5q0 79 14 156l47 274q110 639 662 639z" />
    <glyph glyph-name="H" unicode="H" horiz-adv-x="1392" 
d="M1356 1522h104q39 0 33 -41l-252 -1440q-3 -17 -17.5 -29t-31.5 -12h-105q-39 0 -32 41l119 680h-701l-119 -680q-2 -13 -6 -21t-14.5 -14t-28.5 -6h-104q-18 0 -27 12.5t-6 28.5l252 1440q2 13 6 21t14.5 14t28.5 6h104q39 0 33 -41l-104 -594h700l105 594
q2 14 5.5 21.5t14.5 13.5t29 6z" />
    <glyph glyph-name="I" unicode="I" horiz-adv-x="546" 
d="M485 1522h113q37 0 31 -39l-254 -1442q-3 -22 -13 -31.5t-32 -9.5h-113q-19 0 -25.5 12t-3.5 29l254 1442q8 39 43 39z" />
    <glyph glyph-name="J" unicode="J" horiz-adv-x="526" 
d="M487 1522h109q38 0 33 -39l-277 -1559q-27 -150 -114.5 -221.5t-253.5 -71.5q-64 0 -99 15q-17 6 -14 24l12 76q3 19 12.5 27t34.5 8h80q78 0 110 32t46 111l276 1559q8 39 45 39z" />
    <glyph glyph-name="K" unicode="K" horiz-adv-x="1243" 
d="M1415 1501q0 -12 -10 -22l-758 -697l490 -749q4 -8 4 -13q0 -9 -7 -14.5t-16 -5.5h-147q-30 0 -41 20l-455 709l-121 -688q-2 -14 -5.5 -21.5t-13 -13.5t-26.5 -6h-112q-16 0 -24 12.5t-5 28.5l254 1442q8 39 45 39h108q17 0 27 -9.5t6 -29.5l-112 -643l688 663
q22 19 45 19h160q13 0 19.5 -6.5t6.5 -14.5z" />
    <glyph glyph-name="L" unicode="L" horiz-adv-x="1052" 
d="M1036 129v-6l-14 -90q-1 -10 -3 -15t-7.5 -8.5t-16.5 -5.5q-124 -18 -401 -18q-83 0 -145.5 12t-117 42.5t-83.5 89.5t-29 146q0 61 10 115l191 1090q2 13 6 21t14.5 14t28.5 6h104q18 0 27 -12.5t6 -28.5l-194 -1114q-11 -60 -11 -91q0 -69 48 -95.5t176 -26.5h385
q12 0 19 -7t7 -18z" />
    <glyph glyph-name="M" unicode="M" horiz-adv-x="1558" 
d="M1470 1522h140q58 0 49 -60l-250 -1421q-2 -14 -5.5 -21.5t-14.5 -13.5t-29 -6h-100q-19 0 -27.5 11t-5.5 30l211 1204q2 12 -2 12l-6 -6l-396 -600q-21 -32 -43 -45.5t-59 -13.5h-94q-37 0 -55 13.5t-27 45.5l-181 598q-4 13 -8 13t-6 -17l-211 -1204q-7 -41 -49 -41
h-100q-18 0 -27 12.5t-6 28.5l250 1421q5 29 19.5 44.5t49.5 15.5h127q30 0 42 -7t18 -28l215 -703q4 -13 8 -17.5t12 -4.5q14 0 29 22l461 703q12 20 27.5 27.5t43.5 7.5z" />
    <glyph glyph-name="N" unicode="N" horiz-adv-x="1392" 
d="M1104 295l209 1188q8 39 43 39h108q14 0 22.5 -9t8.5 -22v-8l-252 -1424q-5 -29 -19 -44t-50 -15h-119q-30 0 -41.5 8t-18.5 25l-430 1202l-4 6q-4 0 -4 -6l-211 -1196q-3 -15 -15.5 -27t-27.5 -12h-119q-26 0 -20 25l254 1439q11 58 69 58h101q41 0 54.5 -8t21.5 -33
l426 -1186q5 -16 8 -16t6 16z" />
    <glyph glyph-name="O" unicode="O" horiz-adv-x="1353" 
d="M1405 1065q0 -74 -16 -172l-48 -264q-114 -643 -665 -643q-207 0 -333 119t-126 352q0 74 16 172l48 264q31 177 94 304t152 200t192 106t229 33q209 0 333 -122t124 -349zM1217 1063q0 161 -75.5 233t-221.5 72q-174 0 -291 -117t-160 -358l-47 -264q-14 -80 -14 -156
q0 -169 75.5 -244t221.5 -75q173 0 289 117t159 358l47 264q17 89 17 170z" />
    <glyph glyph-name="P" unicode="P" horiz-adv-x="1214" 
d="M1321 1176q0 -38 -6 -84l-4 -27q-17 -108 -59 -189t-100.5 -132t-140 -82.5t-166.5 -43.5t-190 -12q-75 0 -202 10l-101 -575q-8 -41 -45 -41h-110q-36 0 -29 41l250 1427q4 22 20 35.5t39 16.5q144 16 342 16q237 0 369.5 -89t132.5 -271zM1135 1163q0 117 -81.5 166
t-260.5 49q-109 0 -207 -8l-107 -600q188 -8 205 -8q206 0 311 75.5t129 227.5l4 27q7 47 7 71z" />
    <glyph glyph-name="Q" unicode="Q" horiz-adv-x="1353" 
d="M1405 1065q0 -74 -16 -172l-48 -264q-105 -590 -577 -639l-14 -88q-7 -40 -7 -56q0 -38 23.5 -50.5t87.5 -12.5h121q21 0 31.5 -7t7.5 -26l-13 -69q-9 -50 -174 -50q-137 0 -202.5 41t-65.5 146q0 41 8 82l17 92q-169 26 -268 143t-99 322q0 74 16 172l48 264
q31 177 94 304t152 200t192 106t229 33q209 0 333 -122t124 -349zM1217 1063q0 161 -75.5 233t-221.5 72q-174 0 -291 -117t-160 -358l-47 -264q-14 -80 -14 -156q0 -169 75.5 -244t221.5 -75q173 0 289 117t159 358l47 264q17 89 17 170z" />
    <glyph glyph-name="R" unicode="R" horiz-adv-x="1280" 
d="M1341 1171q0 -35 -6 -75l-2 -15q-26 -175 -129.5 -279t-265.5 -134l266 -629q4 -8 4 -19q0 -20 -22 -20h-142q-20 0 -26.5 4t-13.5 23l-259 610h-63q-72 0 -225 6l-105 -602q-8 -41 -45 -41h-110q-35 0 -29 41l252 1434q5 22 17.5 32t39.5 13q144 16 363 16
q151 0 261 -37.5t175 -120.5t65 -207zM1157 1163q0 117 -80.5 161t-265.5 44q-178 0 -227 -6l-99 -561q102 -4 226 -4q397 0 438 284l2 15q6 38 6 67z" />
    <glyph glyph-name="S" unicode="S" horiz-adv-x="1126" 
d="M831 1536q89 0 206.5 -8t176.5 -17q21 -3 26.5 -9.5t2.5 -24.5l-14 -88q-3 -21 -11.5 -28.5t-33.5 -4.5q-180 12 -353 12q-70 0 -124 -8t-106 -28.5t-80.5 -64.5t-28.5 -108q0 -71 38.5 -119t143.5 -118l168 -113q141 -94 199.5 -182.5t58.5 -202.5q0 -141 -75.5 -241
t-202.5 -148.5t-294 -48.5q-172 0 -348 28q-20 3 -28 11t-5 26l15 82q3 22 12 29t35 4q138 -12 336 -12q358 0 358 270q0 70 -41 119t-155 127l-179 121q-223 151 -223 358q0 83 28 149.5t76.5 110t116 73t143.5 42t162 12.5z" />
    <glyph glyph-name="T" unicode="T" horiz-adv-x="1208" 
d="M938 1362l-231 -1321q-3 -18 -15.5 -29.5t-29.5 -11.5h-113q-16 0 -24 12.5t-5 28.5l232 1321h-400q-19 0 -28.5 7t-6.5 26l17 90q8 37 47 37h985q41 0 33 -37l-17 -90q-3 -17 -12.5 -25t-32.5 -8h-399z" />
    <glyph glyph-name="U" unicode="U" horiz-adv-x="1355" 
d="M1321 1522h111q40 0 32 -39l-164 -930q-53 -298 -205 -432.5t-419 -134.5q-207 0 -322.5 106t-115.5 311q0 76 14 150l164 930q8 39 45 39h110q41 0 33 -39l-164 -930q-16 -88 -16 -147q0 -131 67 -196t214 -65q184 0 277 100.5t130 307.5l164 930q8 39 45 39z" />
    <glyph glyph-name="V" unicode="V" horiz-adv-x="1316" 
d="M1356 1522h125q44 0 24 -47l-612 -1334q-71 -155 -236 -155t-182 155l-143 1334q-3 28 8.5 37.5t34.5 9.5h114q18 0 23.5 -7.5t7.5 -23.5l127 -1305q3 -43 33 -43q29 0 47 43l588 1305q1 1 3 5.5t3 6t3 5t3.5 5t4.5 4t6.5 3t8 1.5t9.5 1z" />
    <glyph glyph-name="W" unicode="W" horiz-adv-x="1689" 
d="M1733 1522h120q40 0 27 -41l-471 -1385q-20 -59 -55.5 -81.5t-89.5 -22.5h-88q-42 0 -68 27.5t-31 74.5l-67 758q-3 18 -11 18q-3 0 -4.5 -0.5t-3.5 -2t-4.5 -5t-5.5 -10.5l-336 -758q-21 -46 -57 -74t-78 -28h-86q-55 0 -82 21.5t-27 80.5v2l17 1385q0 41 43 41h117
q28 0 28 -35l-31 -1305q0 -30 7 -30q5 0 18 30l334 758q37 82 110 82h132q75 0 81 -82l68 -758q0 -4 0.5 -10t1 -8.5t1 -6t2 -4.5t3.5 -1q8 0 17 30l428 1305q12 35 41 35z" />
    <glyph glyph-name="X" unicode="X" horiz-adv-x="1323" 
d="M1473 1497q0 -9 -11 -24l-571 -707l336 -715q4 -12 4 -16q0 -14 -10.5 -24.5t-28.5 -10.5h-102q-14 0 -21.5 6.5t-15.5 24.5l-277 590l-477 -590q-24 -31 -49 -31h-123q-29 0 -29 25q0 11 11 26l593 727l-325 695q-4 8 -4 14q0 14 10 24.5t27 10.5h104q24 0 33 -21
l272 -581l475 581q16 21 43 21h107q13 0 21 -7t8 -18z" />
    <glyph glyph-name="Y" unicode="Y" horiz-adv-x="1193" 
d="M1386 1497q0 -10 -10 -27l-444 -712q-68 -110 -133 -135l-103 -582q-8 -41 -45 -41h-112q-36 0 -29 41l102 582q-56 23 -88 135l-188 712q-7 27 1.5 39.5t35.5 12.5h119q24 0 32 -29l164 -664q14 -53 39 -53q12 0 23.5 10t31.5 43l404 664q9 17 19 23t32 6h119
q30 0 30 -25z" />
    <glyph glyph-name="Z" unicode="Z" horiz-adv-x="1222" 
d="M1321 1380q0 -80 -80 -174l-879 -1009q-8 -8 -8 -17q0 -12 17 -12h731q42 0 35 -35l-17 -96q-2 -10 -4 -15t-6.5 -11t-13.5 -8.5t-23 -2.5h-702q-103 0 -154 41.5t-51 114.5q0 83 59 151l871 1008q16 18 16 28q0 13 -18 13h-670q-40 0 -35 35l17 96q2 12 5.5 18.5
t13.5 11.5t28 5h675q105 0 149 -36.5t44 -105.5z" />
    <glyph glyph-name="bracketleft" unicode="[" horiz-adv-x="669" 
d="M881 1489v-8l-11 -68q-3 -17 -17.5 -29t-31.5 -12h-233l-285 -1620h234q15 0 23.5 -9.5t8.5 -23.5v-8l-12 -67q-3 -17 -16.5 -29t-30.5 -12h-381q-13 0 -21 9t-8 21v9l326 1841q3 16 14.5 27.5t26.5 11.5h381q15 0 24 -9.5t9 -23.5z" />
    <glyph glyph-name="backslash" unicode="\" horiz-adv-x="727" 
d="M653 0h-104q-25 0 -29 41l-211 1440v4q0 14 10 25.5t25 11.5h105q22 0 26 -41l207 -1399q6 -36 6 -47q0 -14 -10 -24.5t-25 -10.5z" />
    <glyph glyph-name="bracketright" unicode="]" horiz-adv-x="669" 
d="M768 1491v-8l-326 -1841q-3 -16 -14.5 -27.5t-26.5 -11.5h-381q-15 0 -24.5 10t-9.5 25v6l12 67q3 17 17.5 29t31.5 12h234l284 1620h-233q-15 0 -24 9.5t-9 23.5v8l10 68q3 17 17.5 29t31.5 12h381q13 0 21 -9t8 -22z" />
    <glyph glyph-name="asciicircum" unicode="^" horiz-adv-x="1218" 
d="M1184 1171q0 -18 -23 -18h-123q-20 0 -29.5 7t-27.5 30l-211 246l-211 -246q-13 -16 -18 -21.5t-15 -10.5t-24 -5h-123q-23 0 -23 18q0 11 9 23l235 305q18 23 29.5 30t32.5 7h217q21 0 32 -7t29 -30l236 -305q8 -11 8 -23z" />
    <glyph glyph-name="underscore" unicode="_" horiz-adv-x="1011" 
d="M1053 -127v-6l-11 -51q-6 -33 -47 -33h-1054q-35 0 -35 27v6l10 51q6 33 45 33h1055q37 0 37 -27z" />
    <glyph glyph-name="grave" unicode="`" horiz-adv-x="761" 
d="M725 1294q0 -18 -20 -18h-111q-16 0 -23 6t-20 25l-184 258q-7 11 -7 14q0 16 25 16h135q18 0 27 -6t20 -24l154 -254q4 -6 4 -17z" />
    <glyph glyph-name="a" unicode="a" horiz-adv-x="1079" 
d="M733 1141q178 0 359 -47q26 -6 31.5 -15.5t2.5 -31.5l-176 -1006q-7 -41 -47 -41h-82q-22 0 -27.5 10.5t-2.5 34.5l10 64q-97 -69 -164.5 -96t-165.5 -27q-67 0 -123.5 21.5t-101 64.5t-69.5 113.5t-25 162.5q0 58 12 123l37 203q23 128 74.5 221.5t124 145.5t154.5 76
t179 24zM932 969q-110 20 -199 20q-155 0 -240.5 -83.5t-115.5 -250.5l-37 -211q-8 -41 -8 -94q0 -111 49 -162t129 -51q68 0 137 29t160 90z" />
    <glyph glyph-name="b" unicode="b" horiz-adv-x="1107" 
d="M1130 774q0 -64 -12 -135l-26 -147q-45 -250 -175.5 -378t-359.5 -128q-204 0 -371 34q-28 5 -33 14.5t-1 33.5l251 1433q8 39 46 39h104q38 0 31 -39l-68 -381q123 21 244 21q183 0 276.5 -96.5t93.5 -270.5zM952 778q0 107 -51.5 156t-167.5 49q-162 0 -244 -14
l-143 -813q147 -13 238 -13q263 0 327 349l27 147q14 74 14 139z" />
    <glyph glyph-name="c" unicode="c" horiz-adv-x="925" 
d="M713 983q-123 0 -207.5 -90.5t-110.5 -249.5l-26 -160q-13 -76 -13 -123q0 -114 52 -165.5t155 -51.5q123 0 258 15q23 4 31.5 -4t5.5 -27l-12 -74q-3 -22 -13.5 -31t-35.5 -14q-125 -22 -260 -22q-174 0 -266.5 107t-92.5 278q0 47 10 112l27 160q41 246 176 372
t348 126q125 0 252 -23q26 -4 31 -13t2 -32l-12 -74q-3 -19 -13 -26.5t-36 -3.5q-123 14 -250 14z" />
    <glyph glyph-name="d" unicode="d" horiz-adv-x="1107" 
d="M1053 1501q8 39 47 39h104q34 0 29 -39l-252 -1433q-3 -22 -14 -33t-37 -15q-178 -34 -383 -34q-182 0 -276.5 101.5t-94.5 274.5q0 62 12 130l27 147q47 261 177.5 381.5t357.5 120.5q121 0 235 -21zM958 969q-77 14 -235 14q-264 0 -328 -344l-26 -147
q-15 -92 -15 -134q0 -107 52 -161t167 -54q86 0 242 13z" />
    <glyph glyph-name="e" unicode="e" horiz-adv-x="1114" 
d="M1137 760q0 -53 -13 -123l-16 -86q-5 -23 -14.5 -34t-30.5 -11h-690l-4 -25q-13 -76 -13 -125q0 -219 254 -219q156 0 355 29q24 3 33 -3t6 -26l-13 -69q-3 -23 -13.5 -33.5t-35.5 -14.5q-179 -34 -358 -34q-80 0 -149.5 21t-128 64.5t-92.5 118.5t-34 175q0 54 13 127
l26 143q46 245 185.5 375.5t357.5 130.5q183 0 279 -106t96 -275zM956 766q0 217 -221 217q-129 0 -217 -91.5t-117 -238.5l-2 -10h543l2 10q12 61 12 113z" />
    <glyph glyph-name="f" unicode="f" horiz-adv-x="757" 
d="M817 1415q-77 0 -108 -25t-47 -116l-27 -148h221q19 0 27.5 -8t5.5 -28l-12 -72q-3 -19 -14 -27t-34 -8h-219l-182 -1032q-16 -89 -46.5 -147t-76.5 -87.5t-95 -40t-118 -10.5q-66 0 -121 10q-38 5 -32 33l12 68q3 19 13 24.5t30 5.5h96q74 0 108.5 30.5t49.5 113.5
l182 1032l-190 14q-39 3 -33 35l10 58q7 36 45 36h193l26 148q13 74 35.5 126t49.5 83t68.5 48t82.5 22.5t100 5.5q47 0 119 -13q39 -5 33 -33l-13 -67q-3 -16 -11.5 -23.5t-29.5 -7.5h-98z" />
    <glyph glyph-name="g" unicode="g" horiz-adv-x="1107" 
d="M188 489l27 150q48 271 178.5 386.5t366.5 115.5q170 0 358 -47q27 -6 32.5 -15t2.5 -32l-184 -1045q-21 -119 -57.5 -197t-97 -124.5t-139.5 -65t-194 -18.5q-218 0 -342 36q-24 6 -30 14.5t-3 28.5l11 60q3 21 13.5 28.5t35.5 4.5q219 -25 342 -25q136 0 195.5 53
t82.5 193l5 24q-42 -10 -116 -19t-118 -9q-175 0 -278 90.5t-103 275.5q0 64 12 137zM958 967q-121 22 -225 22q-142 0 -224 -85t-114 -265l-26 -150q-15 -83 -15 -145q0 -114 55 -160.5t175 -46.5q125 0 233 23z" />
    <glyph glyph-name="h" unicode="h" horiz-adv-x="1140" 
d="M1139 813q0 -19 -9 -84l-120 -688q-7 -41 -49 -41h-99q-39 0 -33 41l121 688q8 41 8 82q0 93 -54 134.5t-175 41.5q-128 0 -242 -31l-159 -915q-2 -14 -5.5 -21.5t-14.5 -13.5t-29 -6h-99q-41 0 -33 41l256 1460q8 39 46 39h104q39 0 31 -39l-68 -389q130 29 240 29
q189 0 286 -91t97 -237z" />
    <glyph glyph-name="i" unicode="i" horiz-adv-x="505" 
d="M471 1532h104q21 0 28.5 -9.5t4.5 -31.5l-28 -164q-5 -22 -15.5 -31.5t-34.5 -9.5h-104q-41 0 -33 41l29 164q7 41 49 41zM401 1126h99q20 0 28 -9t4 -32l-182 -1044q-7 -41 -49 -41h-98q-20 0 -28 12t-5 29l182 1044q4 25 16 33t33 8z" />
    <glyph glyph-name="j" unicode="j" horiz-adv-x="505" 
d="M139 -131l213 1216q4 25 16 33t33 8h99q20 0 28 -9t4 -32l-213 -1216q-26 -152 -101 -212t-206 -60q-56 0 -108 8q-34 5 -31 33l12 75q3 18 14 23.5t35 5.5h86q58 0 81.5 25t37.5 102zM471 1532h104q21 0 28.5 -9.5t4.5 -31.5l-28 -164q-5 -22 -15.5 -31.5t-34.5 -9.5
h-104q-41 0 -33 41l29 164q7 41 49 41z" />
    <glyph glyph-name="k" unicode="k" horiz-adv-x="1015" 
d="M1118 1106q0 -15 -12 -27l-531 -487l371 -545q6 -9 6 -18q0 -11 -7.5 -20t-20.5 -9h-119q-35 0 -55 31l-336 504l-86 -494q-7 -41 -39 -41h-109q-18 0 -27 12.5t-6 28.5l256 1458q3 17 18 29t32 12h98q41 0 33 -41l-148 -831l471 440q18 18 45 18h140q26 0 26 -20z" />
    <glyph glyph-name="l" unicode="l" horiz-adv-x="499" 
d="M469 1540h106q37 0 29 -39l-256 -1460q-3 -20 -12.5 -30.5t-32.5 -10.5h-106q-16 0 -24 12.5t-5 28.5l256 1460q7 39 45 39z" />
    <glyph glyph-name="m" unicode="m" horiz-adv-x="1632" 
d="M1638 844q0 -33 -10 -88l-125 -715q-3 -17 -17.5 -29t-31.5 -12h-98q-18 0 -27 12.5t-6 28.5l125 715q8 44 8 86q0 79 -38.5 110t-123.5 31q-135 0 -250 -59q12 -66 -4 -164l-125 -719q-3 -16 -16 -28.5t-29 -12.5h-108q-17 0 -23.5 13t-3.5 28l125 719q14 79 14 110
q0 113 -122 113q-108 0 -273 -78l-151 -864q-3 -16 -16 -28.5t-29 -12.5h-109q-17 0 -23.5 12t-3.5 29l183 1044q7 41 47 41h98q39 0 31 -41l-6 -38q157 94 299 94q65 0 121 -25.5t84 -66.5q93 52 169.5 72t165.5 20q149 0 224 -79.5t75 -217.5z" />
    <glyph glyph-name="n" unicode="n" horiz-adv-x="1140" 
d="M1139 825q0 -46 -11 -110l-118 -674q-3 -17 -17.5 -29t-31.5 -12h-99q-18 0 -27 12.5t-6 28.5l119 674q10 65 10 112q0 79 -41.5 117.5t-148.5 38.5q-121 0 -289 -78l-151 -864q-3 -16 -17.5 -28.5t-31.5 -12.5h-101q-18 0 -26 13t-5 28l183 1044q7 41 53 41h86
q24 0 33 -9.5t6 -31.5l-6 -43q88 49 161 74t168 25q156 0 232 -87.5t76 -228.5z" />
    <glyph glyph-name="o" unicode="o" horiz-adv-x="1116" 
d="M1137 756q0 -44 -11 -115l-26 -156q-85 -499 -545 -499q-180 0 -278.5 106t-98.5 281q0 47 10 112l27 156q86 500 543 500q184 0 281.5 -105t97.5 -280zM956 758q0 113 -53.5 169t-171.5 56q-132 0 -220.5 -92t-115.5 -250l-26 -156q-13 -73 -13 -120q0 -111 54 -166.5
t172 -55.5q132 0 221.5 94t116.5 248l26 156q10 54 10 117z" />
    <glyph glyph-name="p" unicode="p" horiz-adv-x="1107" 
d="M1130 766q0 -64 -12 -131l-26 -148q-47 -262 -174 -381.5t-361 -119.5q-116 0 -235 22l-66 -370q-3 -16 -16.5 -27.5t-30.5 -11.5h-105q-28 0 -28 30v6v3l248 1409q3 22 13 31.5t38 15.5q197 47 385 47q182 0 276 -101t94 -274zM952 776q0 108 -51 160.5t-168 52.5
q-130 0 -244 -20l-141 -811q116 -21 236 -21q262 0 327 350l27 148q14 74 14 141z" />
    <glyph glyph-name="q" unicode="q" horiz-adv-x="1107" 
d="M750 1141q187 0 368 -47q27 -6 32.5 -15t2.5 -32l-248 -1409q-3 -17 -15.5 -28t-29.5 -11h-104q-37 0 -31 39l66 370q-129 -22 -244 -22q-178 0 -274.5 97.5t-96.5 272.5q0 60 12 131l27 148q45 256 173.5 381t361.5 125zM958 969q-110 20 -235 20q-135 0 -216.5 -96
t-111.5 -258l-26 -148q-17 -93 -17 -145q0 -107 52 -156t169 -49q121 0 244 21z" />
    <glyph glyph-name="r" unicode="r" horiz-adv-x="700" 
d="M477 899l-149 -858q-3 -17 -17.5 -29t-31.5 -12h-101q-17 0 -25.5 12.5t-5.5 28.5l183 1044q3 17 16.5 29t30.5 12h96q18 0 26 -12.5t5 -28.5l-8 -47q77 59 149.5 81t153.5 22h4q25 0 32.5 -9t4.5 -28l-15 -86q-6 -35 -49 -35h-6q-88 0 -153 -18.5t-140 -65.5z" />
    <glyph glyph-name="s" unicode="s" horiz-adv-x="954" 
d="M674 1141q110 0 168.5 -6t132.5 -21q23 -4 28.5 -11.5t2.5 -29.5l-11 -67q-6 -40 -47 -35q-140 16 -301 16q-39 0 -73.5 -6.5t-68.5 -21t-53.5 -45t-19.5 -72.5q0 -36 27.5 -67.5t83.5 -67.5l182 -121q103 -69 142.5 -130t39.5 -145q0 -87 -36.5 -152t-100 -101.5
t-139 -54t-164.5 -17.5q-203 0 -320 30q-16 3 -26.5 14t-7.5 27l12 72q5 21 15 27.5t36 3.5q184 -23 318 -23q101 0 166 41.5t65 132.5q0 37 -25.5 69.5t-93.5 76.5l-184 121q-87 57 -129.5 121t-42.5 145q0 66 24.5 118t65 85t96.5 54.5t114.5 30.5t123.5 9z" />
    <glyph glyph-name="t" unicode="t" horiz-adv-x="768" 
d="M647 1126h221q39 0 33 -41l-12 -69q-4 -25 -15.5 -33t-31.5 -8h-221l-127 -719q-7 -44 -7 -59q0 -42 20.5 -54t74.5 -12h125q18 0 24.5 -6t3.5 -23l-12 -71q-7 -30 -43 -35q-68 -10 -129 -10q-112 0 -179 47t-67 147q0 36 8 80l127 715l-194 22q-16 2 -26 12.5t-7 24.5
l10 56q7 36 45 36h199l33 201q7 34 45 41l108 16q20 3 27 -7t4 -27z" />
    <glyph glyph-name="u" unicode="u" horiz-adv-x="1140" 
d="M1061 1126h100q20 0 27.5 -12.5t3.5 -28.5l-182 -1044q-3 -17 -16.5 -29t-30.5 -12h-97q-18 0 -25.5 12.5t-4.5 28.5l6 37q-95 -49 -173 -70.5t-167 -21.5q-136 0 -217.5 83t-81.5 240q0 57 12 125l115 651q8 41 49 41h98q39 0 33 -41l-119 -673q-12 -68 -12 -117
q0 -85 43.5 -118.5t146.5 -33.5q126 0 291 76l152 866q7 41 49 41z" />
    <glyph glyph-name="v" unicode="v" horiz-adv-x="1085" 
d="M1200 1102q0 -13 -6 -25l-426 -930q-74 -161 -227 -161t-170 161l-99 930q-5 49 39 49h105q30 0 33 -39l71 -888q5 -64 39 -64q30 0 59 64l388 888q10 22 20.5 30.5t32.5 8.5h115q26 0 26 -24z" />
    <glyph glyph-name="w" unicode="w" horiz-adv-x="1609" 
d="M1577 1126h115q48 0 30 -49l-366 -950q-54 -141 -197 -141q-59 0 -96 39.5t-43 113.5l-59 690q-3 15 -9 15t-12 -15l-301 -690q-36 -79 -79.5 -116t-113.5 -37t-107 33.5t-40 107.5l-31 952q0 18 14.5 32.5t32.5 14.5h107q13 0 21 -9.5t8 -22.5l6 -928q0 -17 3 -21t9 -4
q9 0 20 25l338 780q28 62 95 62h114q33 0 50 -14.5t20 -47.5l63 -780q3 -25 13 -25q4 0 6.5 1t6 6.5t7.5 17.5l334 928q12 32 41 32z" />
    <glyph glyph-name="x" unicode="x" horiz-adv-x="1120" 
d="M1217 1106q0 -13 -15 -31l-438 -497l274 -531q6 -9 6 -20q0 -27 -32 -27h-115q-27 0 -41 29l-213 411l-371 -420q-12 -13 -18.5 -16.5t-20.5 -3.5h-118q-18 0 -25 8t-4 18.5t12 20.5l471 537l-254 491q-6 12 -6 21q0 13 10.5 21.5t24.5 8.5h113q22 0 37 -28l196 -379
l332 379q17 18 25 23t22 5h125q23 0 23 -20z" />
    <glyph glyph-name="y" unicode="y" horiz-adv-x="1093" 
d="M1212 1100q0 -11 -6 -23l-547 -1179q-79 -172 -167.5 -238t-260.5 -66q-90 0 -168 19q-21 5 -31 12t-7 21l14 75q3 22 13.5 29t37.5 4q129 -12 180 -12q91 0 141 35t93 139l35 84h-23q-56 0 -90 33t-45 127l-105 917q-3 30 7.5 39.5t35.5 9.5h107q12 0 18.5 -5.5t8 -10.5
t2.5 -16l86 -889q3 -28 10 -36.5t20 -8.5h33l414 936q7 16 16 23t29 7h121q28 0 28 -26z" />
    <glyph glyph-name="z" unicode="z" horiz-adv-x="954" 
d="M1010 985q0 -70 -56 -129l-641 -666q-14 -14 -14 -24q0 -14 20 -14h523q40 0 32 -41l-12 -70q-5 -25 -13.5 -33t-33.5 -8h-518q-88 0 -133 40.5t-45 102.5q0 74 47 121l653 678q12 12 12 23q0 10 -20 10h-504q-39 0 -33 41l13 69q7 41 47 41h512q83 0 123.5 -39.5
t40.5 -101.5z" />
    <glyph glyph-name="braceleft" unicode="{" horiz-adv-x="677" 
d="M881 1487v-6l-11 -68q-3 -17 -17.5 -29t-31.5 -12h-92q-89 0 -119.5 -26t-44.5 -107l-65 -365q-21 -113 -66 -186.5t-135 -128.5q98 -85 98 -227q0 -47 -8 -86l-63 -361q-7 -40 -7 -59q0 -44 26.5 -59t98.5 -15h95q15 0 23.5 -9.5t8.5 -23.5v-8l-12 -67q-3 -17 -16.5 -29
t-30.5 -12h-86q-148 0 -219.5 48.5t-71.5 147.5q0 45 8 86l64 361q10 58 10 90q0 53 -20.5 90.5t-67.5 75.5l21 119q81 50 115 103t52 150l66 365q16 91 40 145t69 85.5t104 42t158 10.5h94q14 0 23.5 -10.5t9.5 -24.5z" />
    <glyph glyph-name="bar" unicode="|" horiz-adv-x="509" 
d="M504 -358q0 -15 -11 -27t-26 -12h-107q-15 0 -26.5 12t-11.5 27v1841q0 15 11.5 27t26.5 12h107q15 0 26 -12t11 -27v-1841z" />
    <glyph glyph-name="braceright" unicode="}" horiz-adv-x="677" 
d="M745 621l-20 -119q-80 -50 -115 -104.5t-53 -151.5l-63 -361q-13 -71 -29.5 -117t-41.5 -80t-65 -51.5t-93.5 -25.5t-133.5 -8h-104q-15 0 -25 10.5t-10 24.5v4v2l12 67q3 17 17.5 29t31.5 12h94q90 0 120 25t44 108l64 361q19 111 64.5 184.5t135.5 128.5
q-100 94 -100 221q0 36 10 94l66 365q6 35 6 59q0 42 -27 58t-98 16h-92q-14 0 -23.5 10.5t-9.5 24.5v6l10 68q3 17 18 29t32 12h102q146 0 209 -47t63 -148q0 -44 -8 -88l-65 -365q-11 -64 -11 -90q0 -51 20.5 -88t67.5 -75z" />
    <glyph glyph-name="asciitilde" unicode="~" horiz-adv-x="1218" 
d="M1190 956q0 -132 -52 -197t-171 -65q-81 0 -156 58l-149 118q-66 52 -83 59q-13 5 -26 5q-54 0 -70 -28.5t-16 -92.5v-53q0 -17 -12 -29t-29 -12h-59q-17 0 -29 12t-12 29v53q0 131 58.5 198.5t168.5 67.5q84 0 154 -57l174 -139q20 -16 46 -28.5t40 -12.5q55 0 68.5 23
t13.5 91v58q0 17 12 29t29 12h59q17 0 29 -12t12 -29v-58z" />
    <glyph glyph-name="uni00A0" unicode="&#xa0;" horiz-adv-x="559" 
 />
    <glyph glyph-name="exclamdown" unicode="&#xa1;" horiz-adv-x="444" 
d="M506 1094v-7l-35 -192q-3 -16 -15.5 -27.5t-29.5 -11.5h-98q-14 0 -23.5 10t-9.5 23v6l35 192q3 17 15.5 28t29.5 11h98q14 0 23.5 -8.5t9.5 -23.5zM424 696v-6l-172 -1065q-3 -15 -17.5 -27t-31.5 -12h-103q-13 0 -22.5 9.5t-9.5 23.5v6l202 1065q3 16 16.5 27.5
t30.5 11.5h74q13 0 23 -9.5t10 -23.5z" />
    <glyph glyph-name="cent" unicode="&#xa2;" 
d="M1118 1087q0 -2 -1 -6.5t-1 -7.5l-12 -74q-6 -30 -43 -30h-6q-141 16 -250 16q-125 0 -207 -86t-111 -256l-26 -160q-10 -68 -10 -114q0 -228 204 -228q105 0 258 17h9q28 0 28 -25v-6l-12 -74q-3 -22 -13.5 -31t-35.5 -14q-97 -15 -197 -20l-33 -185q-3 -17 -16.5 -29
t-30.5 -12h-84q-15 0 -24.5 10t-9.5 25v6l34 193q-124 26 -191 128t-67 249q0 38 11 110l26 160q38 227 151 347t269 140l35 191q3 17 16.5 29t30.5 12h84q15 0 25 -10t10 -25v-6l-33 -182q90 -5 188 -21q35 -6 35 -31z" />
    <glyph glyph-name="sterling" unicode="&#xa3;" 
d="M1360 1468q0 -2 -1 -5t-1 -5l-17 -84q-6 -35 -38 -35h-9q-202 23 -311 23q-159 0 -226.5 -74.5t-103.5 -283.5l-22 -134h440q15 0 24 -8t9 -22v-6l-17 -86q-3 -15 -16.5 -26t-30.5 -11h-438l-55 -312q-21 -116 -115 -243h653q16 0 26.5 -6.5t10.5 -18.5v-6l-16 -90
q-6 -35 -47 -35h-817q-14 0 -21.5 7.5t-7.5 17.5v6l14 80q2 9 6.5 16.5t12.5 17.5t10 13q46 61 68.5 111.5t35.5 129.5l56 312h-107q-30 0 -30 28v9l16 86q3 15 16.5 25.5t30.5 10.5h102l23 134q45 274 167.5 395t377.5 121q151 0 313 -27q35 -5 35 -25z" />
    <glyph glyph-name="currency" unicode="&#xa4;" 
d="M1253 1176q0 -17 -14 -31l-168 -168q68 -95 68 -213q0 -119 -70 -217l168 -168q14 -14 14 -31q0 -14 -10 -24l-55 -56q-10 -10 -23 -10q-16 0 -30 14l-172 172q-94 -67 -209 -67q-119 0 -213 67l-168 -168q-16 -16 -33 -16q-11 0 -21 10l-55 58q-10 13 -10 22q0 17 14 31
l166 166q-70 94 -70 217q0 119 66 211l-166 166q-14 14 -14 30q0 17 10 25l57 55q11 11 23 11q14 0 31 -17l163 -164q98 70 218 70q119 0 217 -70l168 168q15 15 30 15q12 0 23 -11l55 -55q10 -10 10 -22zM993 764q0 101 -72 172.5t-173 71.5t-173.5 -71.5t-72.5 -172.5
t72.5 -173.5t173.5 -72.5t173 72.5t72 173.5z" />
    <glyph glyph-name="yen" unicode="&#xa5;" 
d="M1421 1499q0 -17 -10 -29l-330 -483h226q15 0 23.5 -9.5t8.5 -23.5v-8l-10 -61q-3 -17 -16.5 -29t-30.5 -12h-297l-154 -226l-6 -43h410q15 0 24 -9t9 -23v-8l-11 -62q-3 -17 -17.5 -29t-31.5 -12h-409l-68 -391q-3 -18 -15.5 -29.5t-29.5 -11.5h-117q-26 0 -26 31v10
l67 391h-411q-15 0 -24 9.5t-9 23.5v8l10 62q3 17 17.5 28.5t31.5 11.5h412l6 43l-72 226h-299q-15 0 -24.5 10t-9.5 25v6l10 61q3 17 17.5 29t31.5 12h227l-157 483q-5 15 -5 19q0 15 11 24t28 9h121q10 0 19 -9t12 -20l209 -694l455 694q17 29 38 29h136q30 0 30 -23z" />
    <glyph glyph-name="brokenbar" unicode="&#xa6;" horiz-adv-x="509" 
d="M469 741q0 -15 -11 -28t-26 -13h-108q-15 0 -26 13t-11 28v711q0 15 11 27t26 12h108q15 0 26 -12t11 -27v-711zM469 -391q0 -15 -11 -28t-26 -13h-108q-15 0 -26 13t-11 28v710q0 15 11 27t26 12h108q15 0 26 -12t11 -27v-710z" />
    <glyph glyph-name="section" unicode="&#xa7;" horiz-adv-x="1120" 
d="M1243 1477v-7l-16 -88q-3 -15 -15.5 -24.5t-27.5 -9.5h-2q-45 2 -165.5 10t-187.5 8q-57 0 -100 -4t-89 -18t-76 -38.5t-49 -67t-19 -101.5q0 -52 37.5 -95t132.5 -106l198 -131q128 -85 181 -162t53 -166q0 -168 -109 -303q35 -68 35 -143q0 -125 -47.5 -219
t-130.5 -148t-185 -80t-223 -26q-164 0 -340 28q-13 1 -21.5 11t-8.5 22v6l14 86q6 35 47 35h4q24 -2 100 -8t126.5 -9t101.5 -3q360 0 360 288q0 57 -38 102.5t-140 114.5l-205 138q-213 143 -213 319q0 141 115 279q-39 73 -39 153q0 96 31.5 170t82.5 120t125 75t151 40
t167 11q80 0 193 -9.5t161 -17.5q31 -8 31 -32zM907 442q0 57 -36.5 101.5t-131.5 109.5l-164 113q-113 80 -131 96q-41 -80 -41 -143q0 -56 36.5 -103.5t109.5 -95.5l203 -135q65 -44 120 -88q35 68 35 145z" />
    <glyph glyph-name="dieresis" unicode="&#xa8;" horiz-adv-x="763" 
d="M911 1524v-6l-30 -166q-3 -17 -17 -28t-30 -11h-80q-14 0 -24.5 9.5t-10.5 23.5v6l31 166q3 15 17.5 28t29.5 13h80q13 0 23.5 -10.5t10.5 -24.5zM553 1524v-6l-31 -166q-3 -17 -17 -28t-30 -11h-80q-14 0 -24.5 9.5t-10.5 23.5v6l31 166q3 15 17.5 28t29.5 13h80
q14 0 24.5 -10.5t10.5 -24.5z" />
    <glyph glyph-name="copyright" unicode="&#xa9;" horiz-adv-x="1536" 
d="M1577 766q0 -180 -90 -333t-243.5 -242t-334.5 -89q-180 0 -333 89t-241.5 241.5t-88.5 333.5t88.5 335t241.5 244.5t333 90.5t334 -90.5t244 -244.5t90 -335zM1487 766q0 157 -77.5 290.5t-210.5 211.5t-290 78t-289.5 -78t-209 -211.5t-76.5 -290.5q0 -118 45.5 -224
t122 -182.5t183 -121.5t224.5 -45q157 0 290 76t210.5 208t77.5 289zM1118 375q0 -14 -9.5 -21.5t-21.5 -9.5q-72 -14 -186 -14q-142 0 -227.5 91t-85.5 284v135q0 195 85.5 286t227.5 91q98 0 186 -17q31 -4 31 -29v-57q0 -24 -26 -24h-7q-107 10 -184 10q-84 0 -135 -60.5
t-51 -199.5v-135q0 -139 51 -199t135 -60q66 0 184 11h5q28 0 28 -27v-55z" />
    <glyph glyph-name="ordfeminine" unicode="&#xaa;" horiz-adv-x="618" 
d="M774 1362q0 -32 -6 -70l-66 -370q-3 -28 -24 -33q-115 -27 -207 -27q-118 0 -171.5 36.5t-53.5 113.5q0 15 4 51l2 14q13 99 92.5 144t230.5 45h66l4 26q4 36 4 49q0 43 -22 61.5t-70 18.5q-57 0 -174 -10h-4q-23 0 -23 21v6l6 43q3 24 37 28q107 19 179 19
q101 0 148.5 -41.5t47.5 -124.5zM629 1180h-47h-19q-99 -3 -142 -25.5t-50 -77.5l-2 -14q-4 -24 -4 -33q0 -38 28 -55t96 -17q38 0 101 11z" />
    <glyph glyph-name="guillemotleft" unicode="&#xab;" horiz-adv-x="1257" 
d="M1321 977q0 -18 -16 -31l-431 -379l285 -379q8 -12 8 -22q0 -23 -24 -23h-109q-21 0 -39 21l-284 346q-17 20 -17 51q0 43 25 64l407 346q25 20 52 20h125q18 0 18 -14zM788 977q0 -18 -16 -31l-430 -379l285 -379q8 -12 8 -22t-6.5 -16.5t-18.5 -6.5h-108q-21 0 -39 21
l-285 346q-16 19 -16 51q0 43 24 64l408 346q25 20 51 20h125q18 0 18 -14z" />
    <glyph glyph-name="logicalnot" unicode="&#xac;" horiz-adv-x="1218" 
d="M1198 506q0 -17 -12 -29t-29 -12h-65q-17 0 -29 12t-12 29v448h-682q-41 0 -41 33v82q0 33 41 33h794q15 0 25 -10t10 -25v-561z" />
    <glyph glyph-name="uni00AD" unicode="&#xad;" horiz-adv-x="681" 
d="M696 645v-6l-14 -80q-3 -15 -15.5 -25t-29.5 -10h-408q-32 0 -32 29v6l14 80q3 15 15.5 26t29.5 11h408q15 0 23.5 -8.5t8.5 -22.5z" />
    <glyph glyph-name="registered" unicode="&#xae;" horiz-adv-x="1224" 
d="M1341 991q0 -112 -44 -214t-118 -175.5t-176.5 -116.5t-214.5 -43q-150 0 -276.5 73t-200 199.5t-73.5 276.5t73.5 277t200 200.5t276.5 73.5q112 0 214.5 -43.5t176.5 -117t118 -176t44 -214.5zM1257 991q0 127 -63 235t-171 171t-235 63q-193 0 -328.5 -137.5
t-135.5 -331.5t135.5 -329.5t328.5 -135.5q194 0 331.5 136t137.5 329zM1047 678q0 -27 -25 -27h-57q-17 0 -25 17l-166 262l-20 6h-86v-254q0 -11 -8.5 -21t-20.5 -10h-51q-11 0 -19 10t-8 21v618q0 43 37 46q47 6 156 6q134 0 201 -47.5t67 -159.5v-8q0 -145 -137 -185
l157 -256q5 -10 5 -18zM920 1137v8q0 61 -37 85.5t-123 24.5h-66h-28v-229q12 0 49.5 -1t44.5 -1q86 0 123 26t37 87z" />
    <glyph glyph-name="macron" unicode="&#xaf;" horiz-adv-x="763" 
d="M981 1493v-6l-12 -70q-6 -35 -47 -35h-590q-15 0 -25 8t-10 21v6l12 70q6 35 47 35h590q15 0 25 -8t10 -21z" />
    <glyph glyph-name="degree" unicode="&#xb0;" horiz-adv-x="700" 
d="M864 1245q0 -120 -85.5 -205.5t-205.5 -85.5t-206 85.5t-86 205.5t86 205.5t206 85.5t205.5 -85.5t85.5 -205.5zM754 1245q0 73 -53.5 126.5t-127.5 53.5q-73 0 -126.5 -53.5t-53.5 -126.5t53.5 -126.5t126.5 -53.5q74 0 127.5 53.5t53.5 126.5z" />
    <glyph glyph-name="plusminus" unicode="&#xb1;" horiz-adv-x="1218" 
d="M1176 760q0 -33 -41 -33h-353v-350q0 -41 -32 -41h-82q-33 0 -33 41v350h-350q-41 0 -41 33v82q0 32 41 32h350v353q0 41 33 41h82q32 0 32 -41v-353h353q41 0 41 -32v-82zM1176 18q0 -32 -41 -32h-850q-41 0 -41 32v68q0 33 41 33h850q41 0 41 -33v-68z" />
    <glyph glyph-name="two.superior" unicode="&#xb2;" horiz-adv-x="698" 
d="M846 1358q0 -90 -49 -149t-144 -119l-118 -74q-49 -31 -80 -57t-48.5 -53.5t-25 -50t-14.5 -58.5l-2 -11h354q13 0 18 -4.5t4 -15.5l-12 -76q-3 -13 -9.5 -16.5t-21.5 -3.5h-460q-21 0 -21 24l14 82q20 112 72 190.5t164 145.5l125 76q77 47 100 76t23 79q0 39 -34 54.5
t-118 15.5q-99 0 -184 -14q-17 -3 -22.5 2t-2.5 18l13 64q2 14 28 20q110 25 199 25q119 0 185.5 -44t66.5 -126z" />
    <glyph glyph-name="three.superior" unicode="&#xb3;" horiz-adv-x="692" 
d="M381 1503q83 25 186 25q126 0 197.5 -52t71.5 -141q0 -148 -140 -223q39 -25 55.5 -68.5t16.5 -85.5q0 -151 -93.5 -223.5t-250.5 -72.5q-114 0 -191 24q-18 5 -16 23l10 59q5 23 25 23q4 0 9.5 -1t14.5 -2t15 -2q78 -8 125 -8q54 0 90 6t68.5 24t48.5 54t16 92
q0 51 -23 78t-81 27h-205q-26 0 -21 22l13 64q5 22 28 22h201q73 0 112 40.5t39 111.5q0 51 -40.5 71.5t-133.5 20.5q-63 0 -163 -14q-12 -1 -17.5 4.5t-3.5 17.5l10 62q2 14 27 22z" />
    <glyph glyph-name="acute" unicode="&#xb4;" horiz-adv-x="763" 
d="M961 1583q0 -7 -11 -18l-278 -258q-5 -4 -14 -12.5t-12 -11t-10 -5t-15 -2.5h-111q-16 0 -16 12q0 11 12 23l246 254q25 25 36 28q6 2 17 2h135q21 0 21 -12z" />
    <glyph glyph-name="mu" unicode="&#xb5;" horiz-adv-x="1140" 
d="M1192 1094v-9l-174 -995q-6 -35 -47 -47q-163 -57 -389 -57q-162 0 -254 59l-72 -405q-3 -17 -17.5 -29t-31.5 -12h-98q-15 0 -24 9t-9 23v9l254 1445q3 17 16.5 29t30.5 12h102q13 0 22 -9t9 -23v-9l-119 -673q-8 -41 -8 -86q0 -96 55 -141.5t170 -45.5q136 0 242 29
l162 917q3 16 17.5 28.5t31.5 12.5h100q13 0 22 -9t9 -23z" />
    <glyph glyph-name="paragraph" unicode="&#xb6;" horiz-adv-x="1273" 
d="M1405 1497q0 -2 -1 -7t-1 -7l-326 -1843q-3 -16 -15 -27.5t-26 -11.5h-47q-13 0 -20.5 8.5t-7.5 21.5v9l311 1771h-119l-311 -1771q-3 -16 -14.5 -27.5t-26.5 -11.5h-47q-13 0 -21 9t-8 21v9l158 899h-201q-190 0 -306 100t-116 268q0 47 8 88l13 70q37 216 191 336.5
t372 120.5h532q29 0 29 -25z" />
    <glyph glyph-name="periodcentered" unicode="&#xb7;" horiz-adv-x="438" 
d="M465 905v-8l-33 -190q-3 -17 -16.5 -29t-30.5 -12h-98q-13 0 -22 9t-9 23v9l33 190q3 17 16.5 28t30.5 11h98q13 0 22 -9.5t9 -21.5z" />
    <glyph glyph-name="cedilla" unicode="&#xb8;" horiz-adv-x="749" 
d="M506 -78q0 -8 -10 -18l-279 -258q-5 -4 -14 -12.5t-12 -11t-10 -5t-15 -2.5h-111q-16 0 -16 12q0 11 12 23l244 254q19 19 28 24.5t27 5.5h135q21 0 21 -12z" />
    <glyph glyph-name="one.superior" unicode="&#xb9;" horiz-adv-x="577" 
d="M573 1522h66q21 0 18 -21l-141 -809q0 -9 -7.5 -15.5t-16.5 -6.5h-93q-17 0 -14 22l123 699l-160 -64q-6 -4 -14.5 -1t-7.5 15l12 76q2 17 20 23l162 67q34 15 53 15z" />
    <glyph glyph-name="ordmasculine" unicode="&#xba;" horiz-adv-x="659" 
d="M821 1317q0 -45 -8 -86l-12 -72q-25 -143 -106.5 -220t-211.5 -77q-108 0 -164.5 55t-56.5 158q0 43 8 84l13 72q25 143 107 220t212 77q108 0 163.5 -54.5t55.5 -156.5zM694 1300q0 60 -26.5 89.5t-85.5 29.5q-146 0 -176 -188l-13 -72q-6 -37 -6 -67q0 -123 115 -123
q144 0 174 190l12 72q6 40 6 69z" />
    <glyph glyph-name="guillemotright" unicode="&#xbb;" horiz-adv-x="1257" 
d="M1300 573q0 -42 -24 -63l-408 -346q-26 -21 -51 -21h-125q-18 0 -18 15q0 17 16 30l430 379l-284 379q-9 13 -9 23q0 22 25 22h109q20 0 38 -20l285 -346q16 -19 16 -52zM768 573q0 -42 -25 -63l-407 -346q-26 -21 -51 -21h-125q-19 0 -19 15q0 16 17 30l430 379
l-285 379q-8 12 -8 23q0 22 24 22h109q22 0 39 -20l285 -346q16 -19 16 -52z" />
    <glyph glyph-name="onequarter" unicode="&#xbc;" horiz-adv-x="1509" 
d="M557 1522h66q21 0 18 -21l-141 -809q0 -9 -8 -15.5t-17 -6.5h-92q-17 0 -14 22l123 699l-160 -64q-6 -4 -15 -1t-8 15l13 76q2 17 20 23l162 67q35 15 53 15zM1513 1511q0 -11 -14 -28l-1112 -1450q-19 -24 -29 -32.5t-24 -8.5h-101q-16 0 -16 12q0 14 12 29l1112 1450
q18 23 29 31t25 8h104q14 0 14 -11zM1491 254q-3 -16 -16 -25.5t-29 -9.5h-78l-31 -180q-3 -15 -16 -27t-29 -12h-63q-16 0 -23 11.5t-4 27.5l31 180h-301q-35 0 -47 12t-6 45l6 41q7 32 26 54l414 458l4 4t4.5 5t4.5 4.5t6 4t7 3t8.5 2t10.5 0.5h64q45 0 39 -41l-84 -477
h77q16 0 26 -10t7 -25zM1255 334l58 332l-289 -332h231z" />
    <glyph glyph-name="onehalf" unicode="&#xbd;" horiz-adv-x="1617" 
d="M557 1522h66q21 0 18 -21l-141 -809q0 -9 -8 -15.5t-17 -6.5h-92q-17 0 -14 22l123 699l-160 -64q-6 -4 -15 -1t-8 15l13 76q2 17 20 23l162 67q35 15 53 15zM1513 1511q0 -11 -14 -28l-1112 -1450q-19 -24 -29 -32.5t-24 -8.5h-101q-16 0 -16 12q0 14 12 29l1112 1450
q18 23 29 31t25 8h104q14 0 14 -11zM1622 688q0 -48 -14.5 -88t-43.5 -72.5t-59 -55.5t-75 -52l-119 -74q-49 -31 -80 -57t-48.5 -53.5t-25 -50t-14.5 -58.5l-2 -10h354q13 0 18.5 -5t4.5 -16l-13 -76q-3 -13 -9 -16.5t-21 -3.5h-461q-21 0 -21 25l15 81q20 112 71.5 190.5
t163.5 145.5l125 76q77 47 100 76.5t23 79.5q0 39 -34 54t-118 15q-99 0 -184 -14q-17 -3 -22.5 2.5t-2.5 18.5l13 63q3 15 28 21q106 24 199 24q119 0 185.5 -44t66.5 -126z" />
    <glyph glyph-name="threequarters" unicode="&#xbe;" horiz-adv-x="1634" 
d="M1638 1511q0 -11 -14 -28l-1112 -1450q-19 -24 -29 -32.5t-24 -8.5h-101q-16 0 -16 12q0 14 12 29l1112 1450q18 23 29 31t25 8h104q14 0 14 -11zM1616 254q-3 -16 -16 -25.5t-29 -9.5h-78l-31 -180q-3 -15 -16 -27t-29 -12h-63q-16 0 -23 11.5t-4 27.5l31 180h-301
q-35 0 -47 12t-6 45l6 41q7 32 26 54l414 458l4 4t4.5 5t4.5 4.5t6 4t7 3t8.5 2t10.5 0.5h64q44 0 38 -41l-84 -477h78q15 0 25.5 -10t7.5 -25zM1380 334l58 332l-289 -332h231zM383 1503q83 25 186 25q126 0 197.5 -52t71.5 -141q0 -148 -140 -223q39 -25 55.5 -68.5
t16.5 -85.5q0 -151 -93.5 -223.5t-250.5 -72.5q-113 0 -190 24q-19 5 -17 23l10 59q5 23 25 23q4 0 9.5 -1t14.5 -2t15 -2q78 -8 125 -8q54 0 90 6t68.5 24t48.5 54t16 92q0 51 -23 78t-81 27h-205q-26 0 -21 22l13 64q5 22 28 22h201q73 0 112.5 40.5t39.5 111.5
q0 51 -41 71.5t-134 20.5q-63 0 -163 -14q-12 -1 -17.5 4.5t-3.5 17.5l10 62q2 14 27 22z" />
    <glyph glyph-name="questiondown" unicode="&#xbf;" horiz-adv-x="913" 
d="M864 1094v-7l-35 -190q-3 -16 -16.5 -28.5t-30.5 -12.5h-98q-14 0 -23.5 10.5t-9.5 24.5v6l35 190q3 17 15.5 28t29.5 11h98q15 0 25 -9t10 -23zM786 692v-2l-16 -100q-15 -97 -54 -161t-136 -153l-113 -104q-54 -50 -80 -77.5t-53 -66t-37 -77t-10 -88.5
q0 -62 44.5 -86.5t143.5 -24.5q100 0 279 19h6q24 0 24 -25v-6v-4l-12 -72q-3 -21 -11.5 -32t-31.5 -15q-149 -27 -287 -27q-160 0 -258 63t-98 189q0 47 8.5 89.5t30 83t39.5 69.5t55.5 69.5t58 61t66.5 64.5l111 104q82 77 101 102q34 44 44 105l16 100q3 17 17.5 28
t32.5 11h90q13 0 21.5 -8.5t8.5 -22.5v-6z" />
    <glyph glyph-name="Agrave" unicode="&#xc0;" horiz-adv-x="1296" 
d="M1243 39q0 -39 -35 -39h-123q-24 0 -28 31l-51 471h-531l-213 -471q-4 -12 -17.5 -21.5t-25.5 -9.5h-125q-28 0 -28 27q0 12 4 20l614 1333q39 85 102.5 120.5t133.5 35.5q69 0 119.5 -34.5t60.5 -119.5l143 -1335v-8zM995 664l-67 673q-3 37 -33 37q-31 0 -47 -37
l-305 -673h452zM1053 1663q0 -14 -21 -14h-112q-5 0 -8.5 0.5t-7 2.5t-5.5 2.5t-5.5 4.5t-4 5t-5 7t-5.5 8l-170 230q-7 10 -4 16q3 14 24 14h137q18 0 26 -6t19 -24l136 -226q10 -8 6 -20z" />
    <glyph glyph-name="Aacute" unicode="&#xc1;" horiz-adv-x="1296" 
d="M1243 39q0 -39 -35 -39h-123q-24 0 -28 31l-51 471h-531l-213 -471q-4 -12 -17.5 -21.5t-25.5 -9.5h-125q-28 0 -28 27q0 12 4 20l614 1333q39 85 102.5 120.5t133.5 35.5q69 0 119.5 -34.5t60.5 -119.5l143 -1335v-8zM995 664l-67 673q-3 37 -33 37q-31 0 -47 -37
l-305 -673h452zM836 1663q0 10 10 20l196 226q15 18 26.5 24t29.5 6h147q11 0 16.5 -3.5t4.5 -10.5q0 -5 -11 -16l-229 -230l-4 -4q-15 -15 -23.5 -20.5t-23.5 -5.5h-123q-16 0 -16 14z" />
    <glyph glyph-name="Acircumflex" unicode="&#xc2;" horiz-adv-x="1296" 
d="M1243 39q0 -39 -35 -39h-123q-24 0 -28 31l-51 471h-531l-213 -471q-4 -12 -17.5 -21.5t-25.5 -9.5h-125q-28 0 -28 27q0 12 4 20l614 1333q39 85 102.5 120.5t133.5 35.5q69 0 119.5 -34.5t60.5 -119.5l143 -1335v-8zM995 664l-67 673q-3 37 -33 37q-31 0 -47 -37
l-305 -673h452zM1247 1645q0 -17 -18 -17h-103q-5 0 -9 1t-6.5 2t-6.5 5t-5 5.5t-5.5 7.5t-6.5 8l-106 164l-168 -164l-5.5 -5.5l-5.5 -5.5l-4.5 -4.5t-5 -4t-4.5 -3t-5 -3t-5 -1.5t-6 -1.5t-6 -0.5h-123q-14 0 -14 10q0 11 10 21l221 231q2 2 5.5 6t5 5t4.5 4t4.5 4t4 3
t4 2.5t4 2t5 1.5t5 0.5t5.5 0.5h158q16 0 23.5 -6t19.5 -23l135 -231q4 -4 4 -14z" />
    <glyph glyph-name="Atilde" unicode="&#xc3;" horiz-adv-x="1296" 
d="M1243 39q0 -39 -35 -39h-123q-24 0 -28 31l-51 471h-531l-213 -471q-4 -12 -17.5 -21.5t-25.5 -9.5h-125q-28 0 -28 27q0 12 4 20l614 1333q39 85 102.5 120.5t133.5 35.5q69 0 119.5 -34.5t60.5 -119.5l143 -1335v-8zM995 664l-67 673q-3 37 -33 37q-31 0 -47 -37
l-305 -673h452zM1255 1819q-18 -88 -66 -131t-134 -39q-54 3 -103 37q-14 12 -37.5 32t-37.5 31q-31 27 -54 27q-37 0 -47 -50l-6 -32q-7 -33 -41 -33h-74q-35 0 -28 33l8 41q19 88 73 134.5t132 41.5q18 -1 36.5 -8t28 -13t29.5 -20l88 -76q16 -14 49 -14t41 47l6 35
q6 34 43 34h74q35 0 29 -34z" />
    <glyph glyph-name="Adieresis" unicode="&#xc4;" horiz-adv-x="1296" 
d="M1243 39q0 -39 -35 -39h-123q-24 0 -28 31l-51 471h-531l-213 -471q-4 -12 -17.5 -21.5t-25.5 -9.5h-125q-28 0 -28 27q0 12 4 20l614 1333q39 85 102.5 120.5t133.5 35.5q69 0 119.5 -34.5t60.5 -119.5l143 -1335v-8zM995 664l-67 673q-3 37 -33 37q-31 0 -47 -37
l-305 -673h452zM1251 1866v-6l-30 -166q-3 -17 -17 -28t-30 -11h-80q-14 0 -24.5 9.5t-10.5 23.5v6l31 166q3 15 17.5 28t29.5 13h80q13 0 23.5 -10.5t10.5 -24.5zM893 1866v-6l-31 -166q-3 -17 -17 -28t-30 -11h-80q-14 0 -24.5 9.5t-10.5 23.5v6l31 166q3 15 17.5 28
t29.5 13h80q14 0 24.5 -10.5t10.5 -24.5z" />
    <glyph glyph-name="Aring" unicode="&#xc5;" horiz-adv-x="1296" 
d="M1243 39q0 -39 -35 -39h-123q-24 0 -28 31l-51 471h-531l-213 -471q-4 -12 -17.5 -21.5t-25.5 -9.5h-125q-28 0 -28 27q0 12 4 20l614 1333q39 85 102.5 120.5t133.5 35.5q69 0 119.5 -34.5t60.5 -119.5l143 -1335v-8zM995 664l-67 673q-3 37 -33 37q-31 0 -47 -37
l-305 -673h452zM1161 1798q0 -86 -60.5 -146.5t-146.5 -60.5t-147.5 60.5t-61.5 146.5t61.5 147.5t147.5 61.5t146.5 -61.5t60.5 -147.5zM1063 1800q0 44 -32.5 75.5t-76.5 31.5t-75 -31.5t-31 -75.5t31 -76t75 -32t76.5 32t32.5 76z" />
    <glyph glyph-name="AE" unicode="&#xc6;" horiz-adv-x="1759" 
d="M1911 1499v-6l-19 -109q-3 -24 -26 -24h-586l-88 -490h567q15 0 24 -9t9 -23v-9l-12 -77q-3 -17 -17.5 -29t-31.5 -12h-568l-59 -344q-10 -62 -10 -93q0 -70 46.5 -95t176.5 -25h334q18 0 18 -19v-6l-18 -100q-2 -9 -9 -18.5t-16 -10.5q-138 -14 -340 -14
q-379 0 -379 286q0 34 11 95l22 135h-489l-213 -471q-4 -12 -17.5 -21.5t-25.5 -9.5h-121q-29 0 -29 27q0 14 4 20l613 1321q41 90 96.5 122t140.5 32h997q15 0 15 -23zM1094 1360h-228q-32 0 -47 -35l-301 -661h451z" />
    <glyph glyph-name="Ccedilla" unicode="&#xc7;" horiz-adv-x="1116" 
d="M1300 1481v-4l-18 -105q-3 -22 -29 -22h-6q-216 18 -340 18q-78 0 -145 -24.5t-126 -77.5t-102 -145t-65 -218l-51 -285q-15 -85 -15 -151q0 -163 77 -238t212 -75q145 0 342 16h8q27 0 27 -23v-10l-14 -84q-5 -33 -49 -41q-143 -26 -344 -26q-65 0 -126 15t-120 50.5
t-102.5 88t-70 133.5t-26.5 182q0 80 14 163l52 285q27 150 79.5 264.5t115 183.5t142.5 111.5t155 58t159 15.5q131 0 338 -33q28 -4 28 -22zM768 -78q0 -6 -12 -18l-279 -258l-6 -6l-6 -6l-5 -5t-5 -4.5t-5 -3.5t-5 -2.5t-5.5 -1.5t-6.5 -1.5t-7 -0.5h-111q-16 0 -16 12
q0 11 12 23l244 254q18 18 28.5 24t26.5 6h135q23 0 23 -12z" />
    <glyph glyph-name="Egrave" unicode="&#xc8;" horiz-adv-x="1128" 
d="M1280 1493v-4l-18 -96q-4 -25 -27 -25h-395q-82 0 -133.5 -10.5t-83.5 -38t-47.5 -64.5t-26.5 -100l-49 -285h628q15 0 24 -9.5t9 -24.5v-7l-12 -77q-3 -17 -17.5 -29t-31.5 -12h-629l-59 -344q-11 -60 -11 -84q0 -70 48.5 -99.5t175.5 -29.5h395q18 0 18 -19v-6
l-18 -100q-2 -9 -9 -18.5t-16 -10.5q-45 -5 -178.5 -9.5t-222.5 -4.5q-179 0 -278 74.5t-99 220.5q0 45 8 86l137 788q20 112 60 186.5t105 117t145.5 60t193.5 17.5q299 0 398 -18q16 -3 16 -25zM1034 1663q0 -14 -20 -14h-113q-5 0 -8.5 0.5t-7 2.5t-5.5 2.5t-5.5 4.5
t-4 5t-5 7t-5.5 8l-170 230q-7 10 -4 16q3 14 25 14h137q18 0 26 -6t19 -24l135 -226q10 -8 6 -20z" />
    <glyph glyph-name="Eacute" unicode="&#xc9;" horiz-adv-x="1128" 
d="M1280 1493v-4l-18 -96q-4 -25 -27 -25h-395q-82 0 -133.5 -10.5t-83.5 -38t-47.5 -64.5t-26.5 -100l-49 -285h628q15 0 24 -9.5t9 -24.5v-7l-12 -77q-3 -17 -17.5 -29t-31.5 -12h-629l-59 -344q-11 -60 -11 -84q0 -70 48.5 -99.5t175.5 -29.5h395q18 0 18 -19v-6
l-18 -100q-2 -9 -9 -18.5t-16 -10.5q-45 -5 -178.5 -9.5t-222.5 -4.5q-179 0 -278 74.5t-99 220.5q0 45 8 86l137 788q20 112 60 186.5t105 117t145.5 60t193.5 17.5q299 0 398 -18q16 -3 16 -25zM823 1663q0 9 11 20l196 226q16 18 26.5 24t28.5 6h148q11 0 16 -3.5
t4 -10.5q0 -6 -10 -16l-229 -230l-4 -4q-15 -15 -23.5 -20.5t-23.5 -5.5h-123q-17 0 -17 14z" />
    <glyph glyph-name="Ecircumflex" unicode="&#xca;" horiz-adv-x="1128" 
d="M1280 1493v-4l-18 -96q-4 -25 -27 -25h-395q-82 0 -133.5 -10.5t-83.5 -38t-47.5 -64.5t-26.5 -100l-49 -285h628q15 0 24 -9.5t9 -24.5v-7l-12 -77q-3 -17 -17.5 -29t-31.5 -12h-629l-59 -344q-11 -60 -11 -84q0 -70 48.5 -99.5t175.5 -29.5h395q18 0 18 -19v-6
l-18 -100q-2 -9 -9 -18.5t-16 -10.5q-45 -5 -178.5 -9.5t-222.5 -4.5q-179 0 -278 74.5t-99 220.5q0 45 8 86l137 788q20 112 60 186.5t105 117t145.5 60t193.5 17.5q299 0 398 -18q16 -3 16 -25zM1229 1645q0 -7 -5.5 -12t-13.5 -5h-102q-5 0 -9 1t-6.5 2t-6.5 5t-5 5.5
t-5.5 7.5t-6.5 8l-106 164l-168 -164l-5.5 -5.5l-5.5 -5.5l-4.5 -4.5t-5 -4t-4.5 -3t-5 -3t-5 -1.5t-6 -1.5t-6 -0.5h-123q-15 0 -15 10t11 21l221 231q2 2 5.5 6t5 5t4.5 4t4.5 4t4 3t4 2.5t4 2t5 1.5t5 0.5t5.5 0.5h158q16 0 23.5 -6t19.5 -23l135 -231q4 -4 4 -14z" />
    <glyph glyph-name="Edieresis" unicode="&#xcb;" horiz-adv-x="1128" 
d="M1280 1493v-4l-18 -96q-4 -25 -27 -25h-395q-82 0 -133.5 -10.5t-83.5 -38t-47.5 -64.5t-26.5 -100l-49 -285h628q15 0 24 -9.5t9 -24.5v-7l-12 -77q-3 -17 -17.5 -29t-31.5 -12h-629l-59 -344q-11 -60 -11 -84q0 -70 48.5 -99.5t175.5 -29.5h395q18 0 18 -19v-6
l-18 -100q-2 -9 -9 -18.5t-16 -10.5q-45 -5 -178.5 -9.5t-222.5 -4.5q-179 0 -278 74.5t-99 220.5q0 45 8 86l137 788q20 112 60 186.5t105 117t145.5 60t193.5 17.5q299 0 398 -18q16 -3 16 -25zM1198 1870v-6l-31 -166q-3 -17 -17 -28t-30 -11h-80q-14 0 -24 9t-10 24v6
l30 166q3 15 17.5 28t29.5 13h80q13 0 24 -10.5t11 -24.5zM840 1870v-6l-31 -166q-3 -17 -17 -28t-30 -11h-80q-14 0 -24.5 9.5t-10.5 23.5v6l31 166q3 15 17.5 28t29.5 13h80q13 0 24 -10.5t11 -24.5z" />
    <glyph glyph-name="Igrave" unicode="&#xcc;" horiz-adv-x="546" 
d="M629 1491v-8l-254 -1442q-3 -16 -16 -28.5t-29 -12.5h-113q-13 0 -21 9.5t-8 23.5v8l254 1442q3 16 15 27.5t28 11.5h113q13 0 22 -9.5t9 -21.5zM668 1663q0 -14 -21 -14h-112q-5 0 -8.5 0.5t-7 2.5t-5.5 2.5t-5.5 4.5t-4 5t-5 7t-5.5 8l-170 230q-7 11 -5 16q3 14 25 14
h137q18 0 26 -6t19 -24l136 -226q10 -8 6 -20z" />
    <glyph glyph-name="Iacute" unicode="&#xcd;" horiz-adv-x="546" 
d="M629 1491v-8l-254 -1442q-3 -16 -16 -28.5t-29 -12.5h-113q-13 0 -21 9.5t-8 23.5v8l254 1442q3 16 15 27.5t28 11.5h113q13 0 22 -9.5t9 -21.5zM451 1663q0 10 10 20l196 226q15 18 26.5 24t29.5 6h147q11 0 16.5 -3.5t4.5 -10.5q0 -5 -11 -16l-229 -230l-4 -4
q-15 -15 -23.5 -20.5t-23.5 -5.5h-123q-16 0 -16 14z" />
    <glyph glyph-name="Icircumflex" unicode="&#xce;" horiz-adv-x="546" 
d="M629 1491v-8l-254 -1442q-3 -16 -16 -28.5t-29 -12.5h-113q-13 0 -21 9.5t-8 23.5v8l254 1442q3 16 15 27.5t28 11.5h113q13 0 22 -9.5t9 -21.5zM897 1645q0 -19 -20 -19h-101q-16 0 -23 6t-20 25l-131 198l-207 -198l-6 -6l-6 -6l-5 -5t-5 -4.5t-5 -3.5t-5 -2.5
t-5.5 -1.5t-6.5 -1.5t-7 -0.5h-113q-16 0 -16 12q0 11 12 23l242 254l7.5 7.5l7 7l5.5 5.5t6 4.5t5.5 2.5t6 2.5t6.5 1t9 0.5h174q18 0 27 -6.5t20 -24.5l150 -254q4 -6 4 -16z" />
    <glyph glyph-name="Idieresis" unicode="&#xcf;" horiz-adv-x="546" 
d="M629 1491v-8l-254 -1442q-3 -16 -16 -28.5t-29 -12.5h-113q-13 0 -21 9.5t-8 23.5v8l254 1442q3 16 15 27.5t28 11.5h113q13 0 22 -9.5t9 -21.5zM854 1868v-6l-31 -166q-3 -17 -17 -28t-30 -11h-80q-14 0 -24 9t-10 24v6l30 166q3 15 17.5 28t29.5 13h80q13 0 24 -10.5
t11 -24.5zM496 1868v-6l-31 -166q-3 -17 -17 -28t-30 -11h-80q-14 0 -24.5 9.5t-10.5 23.5v6l31 166q3 15 17.5 28t29.5 13h80q13 0 24 -10.5t11 -24.5z" />
    <glyph glyph-name="Eth" unicode="&#xd0;" horiz-adv-x="1312" 
d="M1364 1057q0 -78 -14 -158l-47 -276q-110 -637 -734 -637q-250 0 -368 20q-37 6 -37 39q0 2 1 6t1 6l115 654h-76q-15 0 -24 9.5t-9 24.5v7l12 77q3 17 17.5 29t31.5 12h76l105 594q9 46 51 52q122 20 377 20q242 0 382 -121.5t140 -357.5zM682 711h-213l-98 -561
q83 -5 227 -5q74 0 140.5 15.5t128.5 51t110.5 90t85 136.5t53.5 185l47 276q15 83 15 148q0 93 -27 158.5t-78 102t-114.5 52.5t-145.5 16q-125 0 -227 -6l-88 -500h213q15 0 23.5 -9.5t8.5 -24.5v-7l-12 -77q-3 -17 -17.5 -29t-31.5 -12z" />
    <glyph glyph-name="Ntilde" unicode="&#xd1;" horiz-adv-x="1392" 
d="M1495 1491v-8l-252 -1424q-5 -25 -24.5 -42t-44.5 -17h-119q-47 0 -60 33l-430 1202l-4 6q-4 0 -4 -6l-211 -1196q-3 -15 -15.5 -27t-27.5 -12h-106q-33 0 -33 18v7l254 1439q4 25 24 41.5t45 16.5h101q41 0 54.5 -8t21.5 -33l430 -1196l2 -6h4l2 6l211 1198
q3 15 15.5 27t27.5 12h108q14 0 22.5 -9t8.5 -22zM1372 1880v-6l-8 -47q-20 -110 -67.5 -162.5t-141.5 -52.5q-101 0 -156 53l-96 90q-31 29 -44 37t-32 8q-70 0 -82 -94l-6 -43q-2 -14 -11.5 -24.5t-22.5 -10.5h-70q-12 0 -19.5 8.5t-7.5 20.5v6l6 43q31 223 213 223
q46 0 79 -14t73 -49l111 -101q31 -28 65 -28q32 0 50.5 20t27.5 70l8 47q3 14 12.5 24.5t22.5 10.5h70q12 0 19 -8.5t7 -20.5z" />
    <glyph glyph-name="Ograve" unicode="&#xd2;" horiz-adv-x="1353" 
d="M1405 1065q0 -74 -16 -172l-48 -264q-114 -643 -665 -643q-207 0 -333 119t-126 352q0 74 16 172l48 264q31 177 94 304t152 200t192 106t229 33q209 0 333 -122t124 -349zM1217 1063q0 161 -75.5 233t-221.5 72q-174 0 -291 -117t-160 -358l-47 -264q-14 -80 -14 -156
q0 -169 75.5 -244t221.5 -75q173 0 289 117t159 358l47 264q17 89 17 170zM1096 1663q0 -14 -21 -14h-112q-5 0 -8.5 0.5t-7 2.5t-5.5 2.5t-5.5 4.5t-4 5t-5 7t-5.5 8l-170 230q-7 10 -4 16q3 14 24 14h137q18 0 26 -6t19 -24l136 -226q10 -8 6 -20z" />
    <glyph glyph-name="Oacute" unicode="&#xd3;" horiz-adv-x="1353" 
d="M1405 1065q0 -74 -16 -172l-48 -264q-114 -643 -665 -643q-207 0 -333 119t-126 352q0 74 16 172l48 264q31 177 94 304t152 200t192 106t229 33q209 0 333 -122t124 -349zM1217 1063q0 161 -75.5 233t-221.5 72q-174 0 -291 -117t-160 -358l-47 -264q-14 -80 -14 -156
q0 -169 75.5 -244t221.5 -75q173 0 289 117t159 358l47 264q17 89 17 170zM850 1663q0 10 10 20l197 226q16 18 26.5 24t28.5 6h148q11 0 16 -3.5t4 -10.5q0 -6 -10 -16l-230 -230l-4 -4q-15 -15 -23.5 -20.5t-23.5 -5.5h-123q-16 0 -16 14z" />
    <glyph glyph-name="Ocircumflex" unicode="&#xd4;" horiz-adv-x="1353" 
d="M1405 1065q0 -74 -16 -172l-48 -264q-114 -643 -665 -643q-207 0 -333 119t-126 352q0 74 16 172l48 264q31 177 94 304t152 200t192 106t229 33q209 0 333 -122t124 -349zM1217 1063q0 161 -75.5 233t-221.5 72q-174 0 -291 -117t-160 -358l-47 -264q-14 -80 -14 -156
q0 -169 75.5 -244t221.5 -75q173 0 289 117t159 358l47 264q17 89 17 170zM1280 1645q0 -17 -18 -17h-103q-5 0 -9 1t-6.5 2t-6.5 5t-5 5.5t-5.5 7.5t-6.5 8l-106 164l-168 -164l-5.5 -5.5l-5.5 -5.5l-4.5 -4.5t-5 -4t-4.5 -3t-5 -3t-5 -1.5t-6 -1.5t-6 -0.5h-123
q-14 0 -14 10q0 11 10 21l221 231q2 2 5.5 6t5 5t4.5 4t4.5 4t4 3t4 2.5t4 2t5 1.5t5 0.5t5.5 0.5h158q16 0 23.5 -6t19.5 -23l135 -231q4 -4 4 -14z" />
    <glyph glyph-name="Otilde" unicode="&#xd5;" horiz-adv-x="1353" 
d="M1405 1065q0 -74 -16 -172l-48 -264q-114 -643 -665 -643q-207 0 -333 119t-126 352q0 74 16 172l48 264q31 177 94 304t152 200t192 106t229 33q209 0 333 -122t124 -349zM1217 1063q0 161 -75.5 233t-221.5 72q-174 0 -291 -117t-160 -358l-47 -264q-14 -80 -14 -156
q0 -169 75.5 -244t221.5 -75q173 0 289 117t159 358l47 264q17 89 17 170zM1300 1819q-18 -88 -66 -131t-134 -39q-54 3 -103 37q-14 12 -37.5 32t-37.5 31q-31 27 -54 27q-37 0 -47 -50l-6 -32q-7 -33 -41 -33h-74q-35 0 -28 33l8 41q19 88 73 134.5t132 41.5
q18 -1 36.5 -8t28 -13t29.5 -20l88 -76q16 -14 49 -14t41 47l6 35q6 34 43 34h74q35 0 29 -34z" />
    <glyph glyph-name="Odieresis" unicode="&#xd6;" horiz-adv-x="1353" 
d="M1405 1065q0 -74 -16 -172l-48 -264q-114 -643 -665 -643q-207 0 -333 119t-126 352q0 74 16 172l48 264q31 177 94 304t152 200t192 106t229 33q209 0 333 -122t124 -349zM1217 1063q0 161 -75.5 233t-221.5 72q-174 0 -291 -117t-160 -358l-47 -264q-14 -80 -14 -156
q0 -169 75.5 -244t221.5 -75q173 0 289 117t159 358l47 264q17 89 17 170zM1268 1870v-6l-31 -166q-3 -17 -17 -28t-30 -11h-80q-14 0 -24.5 9.5t-10.5 23.5v6l31 166q3 15 17.5 28t29.5 13h80q13 0 24 -10.5t11 -24.5zM909 1870v-6l-30 -166q-3 -17 -17.5 -28t-30.5 -11
h-79q-14 0 -24.5 9.5t-10.5 23.5v6l31 166q3 15 17.5 28t29.5 13h79q14 0 24.5 -10.5t10.5 -24.5z" />
    <glyph glyph-name="multiply" unicode="&#xd7;" horiz-adv-x="1218" 
d="M1163 498q0 -11 -10 -21l-57 -57q-10 -10 -21 -10q-17 0 -33 16l-30 31l-240 239l-268 -268q-16 -16 -33 -16q-10 0 -20 10q-9 9 -29 28.5t-29 28.5q-10 10 -10 21q0 16 16 32l269 269q-45 45 -134.5 135t-134.5 135q-16 16 -16 31q0 10 10 20l58 58q10 10 22 10
q17 0 31 -14q45 -45 134 -135.5t134 -135.5l270 271q16 16 33 16q11 0 21 -10l57 -58q10 -10 10 -20q0 -17 -16 -33l-270 -270l270 -271q16 -16 16 -32z" />
    <glyph glyph-name="Oslash" unicode="&#xd8;" horiz-adv-x="1353" 
d="M1569 1520q0 -13 -10 -23l-193 -215q39 -95 39 -217q0 -74 -16 -172l-48 -264q-114 -643 -665 -643q-225 0 -346 133l-103 -113q-11 -12 -18.5 -16t-22.5 -4h-108q-19 0 -19 18q0 12 9 21l188 211q-39 95 -39 221q0 74 16 172l48 264q31 177 94 304t152 200t192 106
t229 33q224 0 346 -137l105 117q17 20 45 20h106q19 0 19 -16zM1169 1260q-68 108 -249 108q-174 0 -291 -117t-160 -358l-47 -264q-14 -80 -14 -156q0 -23 4 -63zM1217 1063q0 25 -3 49l-757 -850q68 -108 248 -108q173 0 289 117t159 358l47 264q17 89 17 170z" />
    <glyph glyph-name="Ugrave" unicode="&#xd9;" horiz-adv-x="1355" 
d="M1464 1489v-6l-164 -930q-53 -298 -205 -432.5t-419 -134.5q-207 0 -322.5 106t-115.5 311q0 76 14 150l164 930q3 16 15.5 27.5t29.5 11.5h110q15 0 24 -9.5t9 -23.5v-6l-164 -930q-16 -88 -16 -147q0 -131 67 -196t214 -65q184 0 277 100.5t130 307.5l164 930
q3 16 15.5 27.5t29.5 11.5h111q15 0 23.5 -9.5t8.5 -23.5zM1061 1663q0 -14 -21 -14h-112q-5 0 -8.5 0.5t-7 2.5t-5.5 2.5t-5.5 4.5t-4 5t-5 7t-5.5 8l-170 230q-7 10 -4 16q3 14 24 14h137q18 0 26.5 -6t19.5 -24l135 -226q10 -8 6 -20z" />
    <glyph glyph-name="Uacute" unicode="&#xda;" horiz-adv-x="1355" 
d="M1464 1489v-6l-164 -930q-53 -298 -205 -432.5t-419 -134.5q-207 0 -322.5 106t-115.5 311q0 76 14 150l164 930q3 16 15.5 27.5t29.5 11.5h110q15 0 24 -9.5t9 -23.5v-6l-164 -930q-16 -88 -16 -147q0 -131 67 -196t214 -65q184 0 277 100.5t130 307.5l164 930
q3 16 15.5 27.5t29.5 11.5h111q15 0 23.5 -9.5t8.5 -23.5zM856 1663q0 10 10 20l197 226q16 18 26.5 24t28.5 6h148q11 0 16 -3.5t4 -10.5q0 -6 -10 -16l-229 -230q-13 -13 -18 -17.5t-14 -8.5t-20 -4h-123q-16 0 -16 14z" />
    <glyph glyph-name="Ucircumflex" unicode="&#xdb;" horiz-adv-x="1355" 
d="M1464 1489v-6l-164 -930q-53 -298 -205 -432.5t-419 -134.5q-207 0 -322.5 106t-115.5 311q0 76 14 150l164 930q3 16 15.5 27.5t29.5 11.5h110q15 0 24 -9.5t9 -23.5v-6l-164 -930q-16 -88 -16 -147q0 -131 67 -196t214 -65q184 0 277 100.5t130 307.5l164 930
q3 16 15.5 27.5t29.5 11.5h111q15 0 23.5 -9.5t8.5 -23.5zM1296 1645q0 -19 -20 -19h-100q-16 0 -23 6t-20 25l-132 198l-206 -198l-18 -18t-13.5 -8.5t-20.5 -4.5h-112q-17 0 -17 12q0 10 13 23l241 254q15 15 19.5 19t13.5 8t21 4h174q18 0 27 -6.5t20 -24.5l149 -254
q4 -6 4 -16z" />
    <glyph glyph-name="Udieresis" unicode="&#xdc;" horiz-adv-x="1355" 
d="M1464 1489v-6l-164 -930q-53 -298 -205 -432.5t-419 -134.5q-207 0 -322.5 106t-115.5 311q0 76 14 150l164 930q3 16 15.5 27.5t29.5 11.5h110q15 0 24 -9.5t9 -23.5v-6l-164 -930q-16 -88 -16 -147q0 -131 67 -196t214 -65q184 0 277 100.5t130 307.5l164 930
q3 16 15.5 27.5t29.5 11.5h111q15 0 23.5 -9.5t8.5 -23.5zM1253 1870v-6l-30 -166q-3 -17 -17 -28t-30 -11h-80q-14 0 -24.5 9.5t-10.5 23.5v6l31 166q3 15 17.5 28t29.5 13h80q13 0 23.5 -10.5t10.5 -24.5zM895 1870v-6l-31 -166q-3 -17 -17 -28t-30 -11h-80
q-14 0 -24.5 9.5t-10.5 23.5v6l31 166q3 15 17.5 28t29.5 13h80q14 0 24.5 -10.5t10.5 -24.5z" />
    <glyph glyph-name="Yacute" unicode="&#xdd;" horiz-adv-x="1193" 
d="M1386 1497q0 -10 -10 -27l-444 -712q-68 -110 -133 -135l-103 -582q-3 -15 -16.5 -28t-28.5 -13h-112q-13 0 -21 9.5t-8 23.5v8l102 582q-56 23 -88 135l-188 712q-2 6 -2 15q0 37 39 37h119q10 0 19.5 -9t12.5 -20l164 -664q14 -53 39 -53q12 0 23.5 10t31.5 43l404 664
q17 29 39 29h131q30 0 30 -25zM762 1663q0 10 10 20l197 226q16 18 26.5 24t28.5 6h147q11 0 16.5 -3.5t4.5 -10.5q0 -6 -10 -16l-230 -230l-4 -4q-15 -15 -23.5 -20.5t-23.5 -5.5h-123q-16 0 -16 14z" />
    <glyph glyph-name="Thorn" unicode="&#xde;" horiz-adv-x="1214" 
d="M1288 987q0 -94 -20.5 -176.5t-68.5 -157t-121 -128t-184.5 -84.5t-252.5 -31t-227 6l-66 -375q-3 -13 -6 -20.5t-12.5 -14t-24.5 -6.5h-115q-34 0 -28 41l254 1442q2 12 5.5 19.5t13 13.5t24.5 6h114q35 0 29 -39l-27 -142q107 7 199 7q514 0 514 -361zM1098 981
q0 113 -86.5 159t-261.5 46q-111 0 -201 -4l-107 -607q141 -6 203 -6q220 0 335 105t118 305v2z" />
    <glyph glyph-name="germandbls" unicode="&#xdf;" horiz-adv-x="1189" 
d="M1255 1227q0 -148 -72 -256.5t-210 -163.5q91 -37 141.5 -118t50.5 -175q0 -125 -44 -225.5t-121 -166.5t-181.5 -101t-226.5 -35q-36 0 -98 6q-15 2 -24 11t-9 22v4v2l14 84q3 22 27 22q14 0 46.5 -1t41.5 -1q190 0 291.5 95.5t101.5 285.5q0 100 -69 157.5t-205 57.5
h-76q-15 0 -25 9.5t-10 23.5v8l12 59q3 17 16.5 29t30.5 12h76q159 0 250.5 91.5t91.5 248.5q0 183 -231 183q-144 0 -228 -82.5t-114 -259.5l-178 -1010q-3 -18 -15.5 -30.5t-29.5 -12.5h-109q-29 0 -29 35v8l178 1010q46 262 185 380.5t368 118.5q171 0 277 -85t106 -240z
" />
    <glyph glyph-name="agrave" unicode="&#xe0;" horiz-adv-x="1079" 
d="M1128 1063q0 -10 -2 -16l-176 -1006q-3 -17 -16.5 -29t-30.5 -12h-82q-30 0 -30 33v8v4l10 64q-97 -69 -164.5 -96t-165.5 -27q-67 0 -123.5 21.5t-101 64.5t-69.5 113.5t-25 162.5q0 58 12 123l37 203q23 128 74.5 221.5t124 145.5t154.5 76t179 24q178 0 359 -47
q20 -5 28 -11.5t8 -19.5zM932 969q-110 20 -199 20q-155 0 -240.5 -83.5t-115.5 -250.5l-37 -211q-8 -41 -8 -94q0 -111 49 -162t129 -51q68 0 137 29t160 90zM874 1311q0 -15 -20 -15h-113q-5 0 -8.5 0.5t-7 2.5t-5.5 3t-5 4.5t-4.5 5.5t-5 7t-5.5 8l-170 229q-7 11 -4 17
q3 14 25 14h137q18 0 26 -6t19 -25l135 -225q10 -8 6 -20z" />
    <glyph glyph-name="aacute" unicode="&#xe1;" horiz-adv-x="1079" 
d="M1128 1063q0 -10 -2 -16l-176 -1006q-3 -17 -16.5 -29t-30.5 -12h-82q-30 0 -30 33v8v4l10 64q-97 -69 -164.5 -96t-165.5 -27q-67 0 -123.5 21.5t-101 64.5t-69.5 113.5t-25 162.5q0 58 12 123l37 203q23 128 74.5 221.5t124 145.5t154.5 76t179 24q178 0 359 -47
q20 -5 28 -11.5t8 -19.5zM932 969q-110 20 -199 20q-155 0 -240.5 -83.5t-115.5 -250.5l-37 -211q-8 -41 -8 -94q0 -111 49 -162t129 -51q68 0 137 29t160 90zM684 1311q0 10 10 20l197 225q16 18 26.5 24.5t28.5 6.5h148q11 0 16 -3.5t4 -10.5q0 -7 -10 -17l-230 -229
l-6 -6l-6 -6l-5 -5t-5 -4.5t-5 -3.5t-5 -2.5t-5.5 -1.5t-6.5 -1.5t-7 -0.5h-123q-16 0 -16 15z" />
    <glyph glyph-name="acircumflex" unicode="&#xe2;" horiz-adv-x="1079" 
d="M1128 1063q0 -10 -2 -16l-176 -1006q-3 -17 -16.5 -29t-30.5 -12h-82q-30 0 -30 33v8v4l10 64q-97 -69 -164.5 -96t-165.5 -27q-67 0 -123.5 21.5t-101 64.5t-69.5 113.5t-25 162.5q0 58 12 123l37 203q23 128 74.5 221.5t124 145.5t154.5 76t179 24q178 0 359 -47
q20 -5 28 -11.5t8 -19.5zM932 969q-110 20 -199 20q-155 0 -240.5 -83.5t-115.5 -250.5l-37 -211q-8 -41 -8 -94q0 -111 49 -162t129 -51q68 0 137 29t160 90zM1094 1292q0 -16 -19 -16h-102q-5 0 -9 1t-6.5 2t-6.5 5t-5 5.5t-5.5 7.5t-6.5 8l-107 163l-168 -163l-5.5 -5.5
l-5.5 -5.5l-4.5 -4.5t-5 -4t-4.5 -3t-5 -3t-5 -1.5t-6 -1.5t-6 -0.5h-123q-14 0 -14 10q0 11 10 21l222 231q2 2 5.5 6t5 5t4.5 4t4.5 4t4 3t4 2.5t4 2t5 1.5t5 0.5t5.5 0.5h157q16 0 23.5 -6t19.5 -23l136 -231q4 -4 4 -15z" />
    <glyph glyph-name="atilde" unicode="&#xe3;" horiz-adv-x="1079" 
d="M1128 1063q0 -10 -2 -16l-176 -1006q-3 -17 -16.5 -29t-30.5 -12h-82q-30 0 -30 33v8v4l10 64q-97 -69 -164.5 -96t-165.5 -27q-67 0 -123.5 21.5t-101 64.5t-69.5 113.5t-25 162.5q0 58 12 123l37 203q23 128 74.5 221.5t124 145.5t154.5 76t179 24q178 0 359 -47
q20 -5 28 -11.5t8 -19.5zM932 969q-110 20 -199 20q-155 0 -240.5 -83.5t-115.5 -250.5l-37 -211q-8 -41 -8 -94q0 -111 49 -162t129 -51q68 0 137 29t160 90zM1110 1466q-36 -178 -201 -170q-52 3 -102 37q-15 12 -38.5 32.5t-37.5 31.5q-30 26 -53 26q-38 0 -47 -49
l-6 -33q-6 -32 -41 -32h-74q-35 0 -29 32l8 41q19 88 73 134.5t132 42.5q18 -1 36.5 -8t28 -13t29.5 -20l89 -76q17 -15 49 -15q33 0 41 48l6 34q3 17 15 26t28 9h74q34 0 28 -35z" />
    <glyph glyph-name="adieresis" unicode="&#xe4;" horiz-adv-x="1079" 
d="M1128 1063q0 -10 -2 -16l-176 -1006q-3 -17 -16.5 -29t-30.5 -12h-82q-30 0 -30 33v8v4l10 64q-97 -69 -164.5 -96t-165.5 -27q-67 0 -123.5 21.5t-101 64.5t-69.5 113.5t-25 162.5q0 58 12 123l37 203q23 128 74.5 221.5t124 145.5t154.5 76t179 24q178 0 359 -47
q20 -5 28 -11.5t8 -19.5zM932 969q-110 20 -199 20q-155 0 -240.5 -83.5t-115.5 -250.5l-37 -211q-8 -41 -8 -94q0 -111 49 -162t129 -51q68 0 137 29t160 90zM1083 1524v-6l-30 -166q-3 -17 -17 -28t-30 -11h-80q-14 0 -24.5 9.5t-10.5 23.5v6l31 166q3 15 17.5 28t29.5 13
h80q13 0 23.5 -10.5t10.5 -24.5zM725 1524v-6l-31 -166q-3 -17 -17 -28t-30 -11h-80q-14 0 -24.5 9.5t-10.5 23.5v6l31 166q3 15 17.5 28t29.5 13h80q14 0 24.5 -10.5t10.5 -24.5z" />
    <glyph glyph-name="aring" unicode="&#xe5;" horiz-adv-x="1079" 
d="M1128 1063q0 -10 -2 -16l-176 -1006q-3 -17 -16.5 -29t-30.5 -12h-82q-30 0 -30 33v8v4l10 64q-97 -69 -164.5 -96t-165.5 -27q-67 0 -123.5 21.5t-101 64.5t-69.5 113.5t-25 162.5q0 58 12 123l37 203q23 128 74.5 221.5t124 145.5t154.5 76t179 24q178 0 359 -47
q20 -5 28 -11.5t8 -19.5zM932 969q-110 20 -199 20q-155 0 -240.5 -83.5t-115.5 -250.5l-37 -211q-8 -41 -8 -94q0 -111 49 -162t129 -51q68 0 137 29t160 90zM1030 1440q0 -86 -60.5 -146.5t-146.5 -60.5t-147.5 60.5t-61.5 146.5t61.5 147.5t147.5 61.5t146.5 -61.5
t60.5 -147.5zM932 1442q0 44 -32 75t-77 31q-44 0 -75 -31t-31 -75q0 -45 31 -77t75 -32t76.5 32.5t32.5 76.5z" />
    <glyph glyph-name="ae" unicode="&#xe6;" horiz-adv-x="1746" 
d="M1765 754q0 -39 -7.5 -102t-18.5 -101q-13 -45 -43 -45h-682l-13 -66q-10 -62 -10 -100q0 -117 61 -160t195 -43q156 0 355 29h4h6q28 0 28 -23v-4v-2l-12 -69q-3 -23 -13.5 -33.5t-35.5 -14.5q-179 -34 -369 -34q-220 0 -319 123q-75 -53 -186 -88t-220 -35
q-64 0 -121.5 16.5t-105.5 49t-76 89t-28 129.5v23q0 21 2 31l2 18q20 176 145 254t397 78h164l15 82q8 44 8 88q0 82 -42.5 112.5t-146.5 30.5q-147 0 -315 -16h-8q-35 0 -35 24v9l14 71q6 33 49 39q166 27 322 27q123 0 195 -36t108 -110q74 81 161 113.5t210 32.5
q181 0 273.5 -107.5t92.5 -279.5zM1593 770q0 113 -55 166t-166 53q-131 0 -217 -88.5t-117 -247.5l-2 -10h545q12 58 12 127zM842 543h-154q-183 0 -259.5 -45.5t-88.5 -155.5l-2 -18q-2 -10 -2 -29v-21q0 -79 48.5 -112t143.5 -33q69 0 140 18.5t112 45.5z" />
    <glyph glyph-name="ccedilla" unicode="&#xe7;" horiz-adv-x="925" 
d="M1020 1087q0 -2 -1 -6.5t-1 -7.5l-12 -74q-3 -14 -15.5 -22t-27.5 -8h-7q-123 14 -249 14q-123 0 -207.5 -90.5t-110.5 -249.5l-27 -160q-12 -71 -12 -123q0 -114 52 -165.5t155 -51.5q123 0 258 15h6q13 0 22 -7t9 -18v-6l-12 -74q-3 -22 -13.5 -31t-35.5 -14
q-128 -22 -261 -22q-174 0 -266 106.5t-92 278.5q0 47 10 112l27 160q41 246 176.5 372t347.5 126q125 0 252 -23q35 -6 35 -31zM639 -78q0 -8 -10 -18l-279 -258q-5 -4 -14 -12.5t-12 -11t-10 -5t-15 -2.5h-111q-16 0 -16 12q0 11 12 23l244 254q19 19 28 24.5t27 5.5h135
q21 0 21 -12z" />
    <glyph glyph-name="egrave" unicode="&#xe8;" horiz-adv-x="1114" 
d="M1137 760q0 -53 -13 -123l-16 -86q-5 -23 -14.5 -34t-30.5 -11h-686l-6 -25q-17 -67 -17 -125q0 -219 256 -219q156 0 355 29h4h8q27 0 27 -21v-6v-2l-13 -69q-3 -23 -13.5 -33.5t-35.5 -14.5q-179 -34 -358 -34q-80 0 -149.5 21t-128 64.5t-92.5 118.5t-34 175
q0 54 13 127l26 143q46 245 185.5 375.5t357.5 130.5q183 0 279 -106t96 -275zM956 766q0 217 -221 217q-129 0 -217 -91.5t-117 -238.5l-2 -10h543l2 10q12 61 12 113zM887 1311q0 -15 -21 -15h-112q-5 0 -8.5 0.5t-7 2.5t-5.5 3t-5 4.5t-4.5 5.5t-5 7t-5.5 8l-170 229
q-7 11 -4 17q3 14 24 14h137q18 0 26 -6t19 -25l136 -225q10 -8 6 -20z" />
    <glyph glyph-name="eacute" unicode="&#xe9;" horiz-adv-x="1114" 
d="M1137 760q0 -53 -13 -123l-16 -86q-5 -23 -14.5 -34t-30.5 -11h-686l-6 -25q-17 -67 -17 -125q0 -219 256 -219q156 0 355 29h4h8q27 0 27 -21v-6v-2l-13 -69q-3 -23 -13.5 -33.5t-35.5 -14.5q-179 -34 -358 -34q-80 0 -149.5 21t-128 64.5t-92.5 118.5t-34 175
q0 54 13 127l26 143q46 245 185.5 375.5t357.5 130.5q183 0 279 -106t96 -275zM956 766q0 217 -221 217q-129 0 -217 -91.5t-117 -238.5l-2 -10h543l2 10q12 61 12 113zM696 1311q0 9 11 20l196 225q16 18 26.5 24.5t28.5 6.5h148q11 0 16 -3.5t4 -10.5q0 -7 -10 -17
l-229 -229l-6 -6l-6 -6l-5 -5t-5 -4.5t-5 -3.5t-5 -2.5t-5.5 -1.5t-6.5 -1.5t-7 -0.5h-123q-17 0 -17 15z" />
    <glyph glyph-name="ecircumflex" unicode="&#xea;" horiz-adv-x="1114" 
d="M1137 760q0 -53 -13 -123l-16 -86q-5 -23 -14.5 -34t-30.5 -11h-686l-6 -25q-17 -67 -17 -125q0 -219 256 -219q156 0 355 29h4h8q27 0 27 -21v-6v-2l-13 -69q-3 -23 -13.5 -33.5t-35.5 -14.5q-179 -34 -358 -34q-80 0 -149.5 21t-128 64.5t-92.5 118.5t-34 175
q0 54 13 127l26 143q46 245 185.5 375.5t357.5 130.5q183 0 279 -106t96 -275zM956 766q0 217 -221 217q-129 0 -217 -91.5t-117 -238.5l-2 -10h543l2 10q12 61 12 113zM1116 1292q0 -16 -18 -16h-103q-5 0 -9 1t-6.5 2t-6.5 5t-5 5.5t-5.5 7.5t-6.5 8l-106 163l-168 -163
l-5.5 -5.5l-5.5 -5.5l-4.5 -4.5t-5 -4t-4.5 -3t-5 -3t-5 -1.5t-6 -1.5t-6 -0.5h-123q-14 0 -14 10q0 11 10 21l221 231q2 2 5.5 6t5 5t4.5 4t4.5 4t4 3t4 2.5t4 2t5 1.5t5 0.5t5.5 0.5h158q16 0 23.5 -6t19.5 -23l135 -231q4 -4 4 -15z" />
    <glyph glyph-name="edieresis" unicode="&#xeb;" horiz-adv-x="1114" 
d="M1137 760q0 -53 -13 -123l-16 -86q-5 -23 -14.5 -34t-30.5 -11h-686l-6 -25q-17 -67 -17 -125q0 -219 256 -219q156 0 355 29h4h8q27 0 27 -21v-6v-2l-13 -69q-3 -23 -13.5 -33.5t-35.5 -14.5q-179 -34 -358 -34q-80 0 -149.5 21t-128 64.5t-92.5 118.5t-34 175
q0 54 13 127l26 143q46 245 185.5 375.5t357.5 130.5q183 0 279 -106t96 -275zM956 766q0 217 -221 217q-129 0 -217 -91.5t-117 -238.5l-2 -10h543l2 10q12 61 12 113zM1094 1524v-6l-31 -166q-3 -17 -17 -28t-30 -11h-80q-14 0 -24.5 9.5t-10.5 23.5v6l31 166
q3 15 17.5 28t29.5 13h80q13 0 24 -10.5t11 -24.5zM735 1524v-6l-30 -166q-3 -17 -17.5 -28t-30.5 -11h-79q-14 0 -24.5 9.5t-10.5 23.5v6l30 166q3 15 18 28t30 13h79q14 0 24.5 -10.5t10.5 -24.5z" />
    <glyph glyph-name="igrave" unicode="&#xec;" horiz-adv-x="505" 
d="M532 1094v-9l-182 -1044q-3 -17 -17.5 -29t-31.5 -12h-98q-15 0 -24 9.5t-9 23.5v8l182 1044q3 17 17.5 29t31.5 12h99q15 0 23.5 -9t8.5 -23zM580 1311q0 -15 -21 -15h-113q-7 0 -11.5 1t-9 5t-6 5t-6.5 9.5t-7 10.5l-170 229q-8 12 -5 17q3 14 25 14h137q18 0 26 -6
t19 -25l135 -225q11 -8 7 -20z" />
    <glyph glyph-name="iacute" unicode="&#xed;" horiz-adv-x="505" 
d="M532 1094v-9l-182 -1044q-3 -17 -17.5 -29t-31.5 -12h-98q-15 0 -24 9.5t-9 23.5v8l182 1044q3 17 17.5 29t31.5 12h99q15 0 23.5 -9t8.5 -23zM356 1311q0 9 11 20l196 225q16 18 26.5 24.5t28.5 6.5h148q11 0 16 -3.5t4 -10.5q0 -7 -10 -17l-229 -229l-6 -6l-6 -6l-5 -5
t-5 -4.5t-5 -3.5t-5 -2.5t-5.5 -1.5t-6.5 -1.5t-7 -0.5h-123q-17 0 -17 15z" />
    <glyph glyph-name="icircumflex" unicode="&#xee;" horiz-adv-x="505" 
d="M532 1094v-9l-182 -1044q-3 -17 -17.5 -29t-31.5 -12h-98q-15 0 -24 9.5t-9 23.5v8l182 1044q3 17 17.5 29t31.5 12h99q15 0 23.5 -9t8.5 -23zM819 1294q0 -18 -20 -18h-101q-16 0 -23 6t-20 25l-131 198l-207 -198l-6 -6l-6 -6l-5 -5t-5 -4.5t-5 -3.5t-5 -2.5t-5.5 -1.5
t-6.5 -1.5t-7 -0.5h-112q-17 0 -17 12q0 10 13 23l241 254q25 25 36 28q6 2 17 2h174q18 0 27.5 -6t20.5 -24l149 -254q4 -6 4 -17z" />
    <glyph glyph-name="idieresis" unicode="&#xef;" horiz-adv-x="505" 
d="M532 1094v-9l-182 -1044q-3 -17 -17.5 -29t-31.5 -12h-98q-15 0 -24 9.5t-9 23.5v8l182 1044q3 17 17.5 29t31.5 12h99q15 0 23.5 -9t8.5 -23zM780 1524v-6l-30 -166q-3 -17 -17.5 -28t-30.5 -11h-79q-14 0 -24.5 9.5t-10.5 23.5v6l30 166q3 15 18 28t30 13h79
q13 0 24 -10.5t11 -24.5zM422 1524v-6l-31 -166q-3 -17 -17 -28t-30 -11h-80q-14 0 -24.5 9.5t-10.5 23.5v6l31 166q3 15 17.5 28t29.5 13h80q13 0 24 -10.5t11 -24.5z" />
    <glyph glyph-name="eth" unicode="&#xf0;" horiz-adv-x="1116" 
d="M1149 885q0 -139 -25 -275q-3 -19 -10 -56.5t-10 -55.5q-46 -252 -177.5 -382t-367.5 -130q-185 0 -283 103.5t-98 279.5q0 61 12 129q3 19 10.5 56.5t10.5 55.5q49 265 184.5 388.5t362.5 123.5q60 0 121 -21t98 -59q-18 84 -81 160t-171 131q-34 -24 -101.5 -70
t-101.5 -69q-20 -12 -28 -12q-12 0 -21 12q-5 6 -14.5 19.5t-14.5 19.5q-4 8 -4 12q0 15 27 37q24 16 73 49.5t74 50.5q-95 32 -155 45q-29 7 -29 27q0 2 4 14q5 10 16.5 30t16.5 30q12 24 27 24q6 0 22 -4q161 -41 238 -73q37 24 111.5 74t111.5 75q13 10 29 10
q13 0 22 -12q4 -6 13.5 -18.5t13.5 -18.5q6 -6 6 -14q0 -14 -25 -31q-29 -19 -87.5 -59.5t-86.5 -59.5q153 -96 220 -225t67 -311zM958 748q0 114 -54.5 167.5t-174.5 53.5q-138 0 -222.5 -97t-113.5 -262q-3 -18 -10 -56t-10 -56q-15 -80 -15 -142q0 -110 54 -162.5
t174 -52.5q138 0 222 93.5t116 263.5q3 18 10 55.5t10 56.5q14 71 14 138z" />
    <glyph glyph-name="ntilde" unicode="&#xf1;" horiz-adv-x="1140" 
d="M1139 825q0 -46 -11 -110l-118 -674q-3 -17 -17.5 -29t-31.5 -12h-99q-15 0 -24 9.5t-9 23.5v8l119 674q10 65 10 112q0 79 -41.5 117.5t-148.5 38.5q-121 0 -289 -78l-151 -864q-3 -16 -17.5 -28.5t-31.5 -12.5h-101q-14 0 -22.5 10t-8.5 23v8l183 1044q3 17 16.5 29
t30.5 12h100q14 0 22.5 -9.5t8.5 -22.5v-9l-6 -43q88 49 161 74t168 25q156 0 232 -87.5t76 -228.5zM1217 1550v-6l-9 -47q-20 -110 -67.5 -162.5t-141.5 -52.5q-100 0 -155 53l-96 90q-31 29 -44 37t-32 8q-70 0 -82 -94l-6 -43q-2 -14 -12 -24.5t-23 -10.5h-70
q-12 0 -19 8.5t-7 20.5v6l6 43q31 223 213 223q45 0 78 -14t73 -49l111 -100q33 -29 65 -29t50.5 20t27.5 70l8 47q3 14 12.5 24.5t22.5 10.5h70q12 0 19.5 -8.5t7.5 -20.5z" />
    <glyph glyph-name="ograve" unicode="&#xf2;" horiz-adv-x="1116" 
d="M1137 756q0 -44 -11 -115l-26 -156q-85 -499 -545 -499q-180 0 -278.5 106t-98.5 281q0 47 10 112l27 156q86 500 543 500q184 0 281.5 -105t97.5 -280zM956 758q0 113 -53.5 169t-171.5 56q-132 0 -220.5 -92t-115.5 -250l-26 -156q-13 -73 -13 -120q0 -111 54 -166.5
t172 -55.5q132 0 221.5 94t116.5 248l26 156q10 54 10 117zM893 1311q0 -15 -21 -15h-112q-5 0 -8.5 0.5t-7 2.5t-5.5 3t-5 4.5t-4.5 5.5t-5 7t-5.5 8l-170 229q-7 11 -4 17q3 14 24 14h138q18 0 26 -6t19 -25l135 -225q10 -8 6 -20z" />
    <glyph glyph-name="oacute" unicode="&#xf3;" horiz-adv-x="1116" 
d="M1137 756q0 -44 -11 -115l-26 -156q-85 -499 -545 -499q-180 0 -278.5 106t-98.5 281q0 47 10 112l27 156q86 500 543 500q184 0 281.5 -105t97.5 -280zM956 758q0 113 -53.5 169t-171.5 56q-132 0 -220.5 -92t-115.5 -250l-26 -156q-13 -73 -13 -120q0 -111 54 -166.5
t172 -55.5q132 0 221.5 94t116.5 248l26 156q10 54 10 117zM676 1311q0 10 10 20l197 225q16 18 26.5 24.5t28.5 6.5h147q11 0 16.5 -3.5t4.5 -10.5q0 -7 -10 -17l-230 -229l-6 -6l-6 -6l-5 -5t-5 -4.5t-5 -3.5t-5 -2.5t-5.5 -1.5t-6.5 -1.5t-7 -0.5h-123q-16 0 -16 15z" />
    <glyph glyph-name="ocircumflex" unicode="&#xf4;" horiz-adv-x="1116" 
d="M1137 756q0 -44 -11 -115l-26 -156q-85 -499 -545 -499q-180 0 -278.5 106t-98.5 281q0 47 10 112l27 156q86 500 543 500q184 0 281.5 -105t97.5 -280zM956 758q0 113 -53.5 169t-171.5 56q-132 0 -220.5 -92t-115.5 -250l-26 -156q-13 -73 -13 -120q0 -111 54 -166.5
t172 -55.5q132 0 221.5 94t116.5 248l26 156q10 54 10 117zM1096 1292q0 -16 -19 -16h-102q-5 0 -9 1t-6.5 2t-6.5 5t-5 5.5t-5.5 7.5t-6.5 8l-107 163l-167 -163q-12 -12 -16.5 -16t-13 -8.5t-18.5 -4.5h-122q-15 0 -15 10q0 11 10 21l222 231q2 2 5.5 6t5 5t4.5 4t4.5 4
t4 3t4 2.5t4 2t5 1.5t5 0.5t5.5 0.5h157q16 0 23.5 -6t19.5 -23l136 -231q4 -4 4 -15z" />
    <glyph glyph-name="otilde" unicode="&#xf5;" horiz-adv-x="1116" 
d="M1137 756q0 -44 -11 -115l-26 -156q-85 -499 -545 -499q-180 0 -278.5 106t-98.5 281q0 47 10 112l27 156q86 500 543 500q184 0 281.5 -105t97.5 -280zM956 758q0 113 -53.5 169t-171.5 56q-132 0 -220.5 -92t-115.5 -250l-26 -156q-13 -73 -13 -120q0 -111 54 -166.5
t172 -55.5q132 0 221.5 94t116.5 248l26 156q10 54 10 117zM1108 1466q-36 -178 -201 -170q-52 3 -102 37q-14 12 -37.5 32.5t-38.5 31.5q-30 26 -53 26q-38 0 -47 -49l-6 -33q-6 -32 -41 -32h-74q-35 0 -29 32l8 41q19 88 73 134.5t132 42.5q18 -1 36.5 -8t28 -13t29.5 -20
l88 -76q17 -15 50 -15t41 48l6 34q3 17 15 26t28 9h73q35 0 29 -35z" />
    <glyph glyph-name="odieresis" unicode="&#xf6;" horiz-adv-x="1116" 
d="M1137 756q0 -44 -11 -115l-26 -156q-85 -499 -545 -499q-180 0 -278.5 106t-98.5 281q0 47 10 112l27 156q86 500 543 500q184 0 281.5 -105t97.5 -280zM956 758q0 113 -53.5 169t-171.5 56q-132 0 -220.5 -92t-115.5 -250l-26 -156q-13 -73 -13 -120q0 -111 54 -166.5
t172 -55.5q132 0 221.5 94t116.5 248l26 156q10 54 10 117zM1090 1524v-6l-31 -166q-3 -17 -17 -28t-30 -11h-80q-14 0 -24.5 9.5t-10.5 23.5v6l31 166q3 15 17.5 28t29.5 13h80q13 0 24 -10.5t11 -24.5zM731 1524v-6l-31 -166q-3 -17 -17 -28t-30 -11h-80q-14 0 -24 9
t-10 24v6l30 166q3 15 17.5 28t29.5 13h80q14 0 24.5 -10.5t10.5 -24.5z" />
    <glyph glyph-name="divide" unicode="&#xf7;" horiz-adv-x="1218" 
d="M846 1079q0 -17 -12 -29t-27 -12h-98q-16 0 -28.5 12t-12.5 29v181q0 15 13 26.5t28 11.5h98q15 0 27 -11.5t12 -26.5v-181zM1194 760q0 -33 -41 -33h-788q-41 0 -41 33v82q0 32 41 32h788q41 0 41 -32v-82zM846 332q0 -17 -11.5 -28t-27.5 -11h-98q-16 0 -28.5 11
t-12.5 28v182q0 15 13 27t28 12h98q15 0 27 -12t12 -27v-182z" />
    <glyph glyph-name="oslash" unicode="&#xf8;" horiz-adv-x="1116" 
d="M1290 1182q0 -13 -14 -27l-176 -192q39 -77 39 -191q0 -55 -13 -131l-26 -156q-39 -230 -181 -364.5t-364 -134.5q-171 0 -270 86l-111 -123q-19 -21 -37 -21h-100q-14 0 -14 13q0 14 12 26l180 197q-39 77 -39 190q0 60 12 131l27 156q39 231 180.5 365.5t362.5 134.5
q173 0 272 -86l107 119q18 20 37 20h102q14 0 14 -12zM903 920q-57 63 -172 63q-141 0 -224 -89t-112 -253l-26 -156q-11 -75 -11 -112q0 -35 2 -49zM956 745q0 20 -4 56l-542 -594q58 -64 172 -64q141 0 225 89.5t113 252.5l26 156q10 62 10 104z" />
    <glyph glyph-name="ugrave" unicode="&#xf9;" horiz-adv-x="1140" 
d="M1192 1094v-9l-182 -1044q-3 -17 -16.5 -29t-30.5 -12h-97q-30 0 -30 33v8l6 37q-95 -49 -173 -70.5t-167 -21.5q-136 0 -217.5 83t-81.5 240q0 57 12 125l115 651q3 17 17.5 29t31.5 12h98q15 0 24 -9t9 -23v-9l-119 -673q-12 -68 -12 -117q0 -85 43.5 -118.5
t146.5 -33.5q126 0 291 76l152 866q3 17 17.5 29t31.5 12h100q14 0 22.5 -9.5t8.5 -22.5zM868 1311q0 -15 -20 -15h-113q-5 0 -8.5 0.5t-7 2.5t-5.5 3t-5 4.5t-4.5 5.5t-5 7t-5.5 8l-170 229q-7 11 -4 17q3 14 25 14h137q18 0 26 -6t19 -25l135 -225q10 -8 6 -20z" />
    <glyph glyph-name="uacute" unicode="&#xfa;" horiz-adv-x="1140" 
d="M1192 1094v-9l-182 -1044q-3 -17 -16.5 -29t-30.5 -12h-97q-30 0 -30 33v8l6 37q-95 -49 -173 -70.5t-167 -21.5q-136 0 -217.5 83t-81.5 240q0 57 12 125l115 651q3 17 17.5 29t31.5 12h98q15 0 24 -9t9 -23v-9l-119 -673q-12 -68 -12 -117q0 -85 43.5 -118.5
t146.5 -33.5q126 0 291 76l152 866q3 17 17.5 29t31.5 12h100q14 0 22.5 -9.5t8.5 -22.5zM698 1311q0 9 11 20l196 225q16 18 27 24.5t29 6.5h147q11 0 16 -3.5t4 -10.5q0 -7 -10 -17l-229 -229l-6 -6l-6 -6l-5 -5t-5 -4.5t-5 -3.5t-5 -2.5t-5.5 -1.5t-6.5 -1.5t-7 -0.5
h-123q-17 0 -17 15z" />
    <glyph glyph-name="ucircumflex" unicode="&#xfb;" horiz-adv-x="1140" 
d="M1192 1094v-9l-182 -1044q-3 -17 -16.5 -29t-30.5 -12h-97q-30 0 -30 33v8l6 37q-95 -49 -173 -70.5t-167 -21.5q-136 0 -217.5 83t-81.5 240q0 57 12 125l115 651q3 17 17.5 29t31.5 12h98q15 0 24 -9t9 -23v-9l-119 -673q-12 -68 -12 -117q0 -85 43.5 -118.5
t146.5 -33.5q126 0 291 76l152 866q3 17 17.5 29t31.5 12h100q14 0 22.5 -9.5t8.5 -22.5zM1137 1294q0 -18 -21 -18h-100q-16 0 -23 6t-20 25l-131 198l-207 -198l-6 -6l-6 -6l-5 -5t-5 -4.5t-5 -3.5t-5 -2.5t-5.5 -1.5t-6.5 -1.5t-7 -0.5h-113q-16 0 -16 12q0 11 12 23
l242 254q25 25 36 28q6 2 17 2h174q18 0 27 -6t20 -24l150 -254q4 -6 4 -17z" />
    <glyph glyph-name="udieresis" unicode="&#xfc;" horiz-adv-x="1140" 
d="M1192 1094v-9l-182 -1044q-3 -17 -16.5 -29t-30.5 -12h-97q-30 0 -30 33v8l6 37q-95 -49 -173 -70.5t-167 -21.5q-136 0 -217.5 83t-81.5 240q0 57 12 125l115 651q3 17 17.5 29t31.5 12h98q15 0 24 -9t9 -23v-9l-119 -673q-12 -68 -12 -117q0 -85 43.5 -118.5
t146.5 -33.5q126 0 291 76l152 866q3 17 17.5 29t31.5 12h100q14 0 22.5 -9.5t8.5 -22.5zM1100 1524v-6l-31 -166q-3 -17 -17 -28t-30 -11h-80q-14 0 -24.5 9.5t-10.5 23.5v6l31 166q3 15 17.5 28t29.5 13h80q13 0 24 -10.5t11 -24.5zM741 1524v-6l-30 -166q-3 -17 -17 -28
t-30 -11h-80q-14 0 -24.5 9.5t-10.5 23.5v6l31 166q3 15 17.5 28t29.5 13h80q13 0 23.5 -10.5t10.5 -24.5z" />
    <glyph glyph-name="yacute" unicode="&#xfd;" horiz-adv-x="1093" 
d="M1212 1100q0 -11 -6 -23l-547 -1179q-79 -172 -167.5 -238t-260.5 -66q-90 0 -168 19q-38 11 -38 29v4l14 75q6 33 45 33h6q129 -12 180 -12q91 0 141 35t93 139l35 84h-23q-56 0 -90 33t-45 127l-105 917v6q0 19 11.5 31t31.5 12h107q11 0 19 -9.5t10 -22.5l86 -889
q3 -28 10 -36.5t20 -8.5h33l414 936q4 12 18 21t27 9h121q13 0 20.5 -7.5t7.5 -18.5zM662 1311q0 10 10 20l196 225q16 18 27 24.5t29 6.5h147q11 0 16.5 -3.5t4.5 -10.5q0 -6 -11 -17l-229 -229l-6 -6l-6 -6l-5 -5t-5 -4.5t-5 -3.5t-5 -2.5t-5.5 -1.5t-6.5 -1.5t-7 -0.5
h-123q-16 0 -16 15z" />
    <glyph glyph-name="thorn" unicode="&#xfe;" horiz-adv-x="1107" 
d="M1130 770q0 -64 -12 -135l-26 -148q-45 -255 -172.5 -378t-362.5 -123q-116 0 -235 22l-66 -370q-3 -22 -13 -30.5t-34 -8.5h-105q-15 0 -23 10t-5 29l327 1861q7 41 50 41h98q21 0 29 -8.5t4 -32.5l-68 -379q144 21 244 21q185 0 277.5 -99.5t92.5 -271.5zM952 772
q0 109 -51.5 163t-167.5 54q-130 0 -244 -20l-141 -811q116 -21 236 -21q139 0 217.5 90.5t109.5 259.5l27 148q14 71 14 137z" />
    <glyph glyph-name="ydieresis" unicode="&#xff;" horiz-adv-x="1093" 
d="M1212 1100q0 -11 -6 -23l-547 -1179q-79 -172 -167.5 -238t-260.5 -66q-90 0 -168 19q-38 11 -38 29v4l14 75q6 33 45 33h6q129 -12 180 -12q91 0 141 35t93 139l35 84h-23q-56 0 -90 33t-45 127l-105 917v6q0 19 11.5 31t31.5 12h107q11 0 19 -9.5t10 -22.5l86 -889
q3 -28 10 -36.5t20 -8.5h33l414 936q4 12 18 21t27 9h121q13 0 20.5 -7.5t7.5 -18.5zM1096 1524v-6l-31 -166q-3 -17 -17 -28t-30 -11h-80q-14 0 -24.5 9.5t-10.5 23.5v6l31 166q3 15 17.5 28t29.5 13h80q13 0 24 -10.5t11 -24.5zM737 1524v-6l-30 -166q-3 -17 -17.5 -28
t-30.5 -11h-79q-14 0 -24.5 9.5t-10.5 23.5v6l30 166q3 15 18 28t30 13h79q14 0 24.5 -10.5t10.5 -24.5z" />
    <glyph glyph-name="Amacron" unicode="&#x100;" horiz-adv-x="1296" 
d="M1243 39q0 -39 -35 -39h-123q-24 0 -28 31l-51 471h-531l-213 -471q-4 -12 -17.5 -21.5t-25.5 -9.5h-125q-28 0 -28 27q0 12 4 20l614 1333q39 85 102.5 120.5t133.5 35.5q69 0 119.5 -34.5t60.5 -119.5l143 -1335v-8zM995 664l-67 673q-3 37 -33 37q-31 0 -47 -37
l-305 -673h452zM1323 1790v-6l-12 -70q-6 -35 -47 -35h-590q-15 0 -25 8t-10 21v6l12 70q6 35 47 35h590q15 0 25 -8t10 -21z" />
    <glyph glyph-name="amacron" unicode="&#x101;" horiz-adv-x="1079" 
d="M733 1141q178 0 359 -47q26 -6 31.5 -15.5t2.5 -31.5l-176 -1006q-7 -41 -47 -41h-82q-22 0 -27.5 10.5t-2.5 34.5l10 64q-97 -69 -164.5 -96t-165.5 -27q-67 0 -123.5 21.5t-101 64.5t-69.5 113.5t-25 162.5q0 58 12 123l37 203q23 128 74.5 221.5t124 145.5t154.5 76
t179 24zM932 969q-110 20 -199 20q-155 0 -240.5 -83.5t-115.5 -250.5l-37 -211q-8 -41 -8 -94q0 -111 49 -162t129 -51q68 0 137 29t160 90zM1135 1440v-6l-13 -70q-6 -35 -47 -35h-590q-15 0 -24.5 8t-9.5 21v6l12 70q6 34 47 34h590q35 0 35 -28z" />
    <glyph glyph-name="Abreve" unicode="&#x102;" horiz-adv-x="1296" 
d="M1243 39q0 -39 -35 -39h-123q-24 0 -28 31l-51 471h-531l-213 -471q-4 -12 -17.5 -21.5t-25.5 -9.5h-125q-28 0 -28 27q0 12 4 20l614 1333q39 85 102.5 120.5t133.5 35.5q69 0 119.5 -34.5t60.5 -119.5l143 -1335v-8zM995 664l-67 673q-3 37 -33 37q-31 0 -47 -37
l-305 -673h452zM1276 1874q-2 -2 -2 -8q-26 -121 -115 -179.5t-215 -58.5t-196.5 58t-61.5 180q0 6 2 8q4 24 25 24h92q26 0 20 -30q0 -62 34.5 -83.5t105.5 -21.5q129 0 159 105q6 30 33 30h103q20 0 16 -24z" />
    <glyph glyph-name="abreve" unicode="&#x103;" horiz-adv-x="1079" 
d="M733 1141q178 0 359 -47q26 -6 31.5 -15.5t2.5 -31.5l-176 -1006q-7 -41 -47 -41h-82q-22 0 -27.5 10.5t-2.5 34.5l10 64q-97 -69 -164.5 -96t-165.5 -27q-67 0 -123.5 21.5t-101 64.5t-69.5 113.5t-25 162.5q0 58 12 123l37 203q23 128 74.5 221.5t124 145.5t154.5 76
t179 24zM932 969q-110 20 -199 20q-155 0 -240.5 -83.5t-115.5 -250.5l-37 -211q-8 -41 -8 -94q0 -111 49 -162t129 -51q68 0 137 29t160 90zM1118 1522q-2 -2 -2 -9q-26 -121 -114.5 -179t-215.5 -58q-126 0 -196.5 57.5t-61.5 179.5q0 7 2 9q4 24 25 24h92q27 0 21 -30
q0 -62 34 -83.5t105 -21.5q130 0 160 105q6 30 32 30h103q20 0 16 -24z" />
    <glyph glyph-name="Aogonek" unicode="&#x104;" horiz-adv-x="1296" 
d="M1100 1382l135 -1265q8 -68 8 -86q0 -17 -18 -27l-146 -90q-85 -53 -110 -77.5t-25 -63.5q0 -64 129 -64q29 0 63.5 5.5t59 10.5t27.5 5q11 0 8 -17l-14 -80q-2 -16 -27 -22q-63 -21 -160 -21q-237 0 -237 156q0 138 168 227l96 54l-51 475h-531l-213 -471
q-4 -12 -17.5 -21.5t-25.5 -9.5h-125q-28 0 -28 27q0 12 4 20l614 1333q39 85 102.5 120.5t133.5 35.5q69 0 119.5 -34.5t60.5 -119.5zM995 664l-67 673q-3 37 -33 37q-31 0 -47 -37l-305 -673h452z" />
    <glyph glyph-name="aogonek" unicode="&#x105;" horiz-adv-x="1079" 
d="M1126 1047l-170 -971q-6 -34 -13.5 -48t-27.5 -26l-143 -88q-82 -50 -108.5 -76.5t-26.5 -64.5q0 -64 129 -64q29 0 63.5 5.5t58.5 10.5t27 5q12 0 9 -17l-15 -80q-1 -5 -2.5 -8t-6 -6t-6.5 -4t-11 -4q-63 -21 -160 -21q-238 0 -238 156q0 44 13 79.5t39 62.5t51.5 45
t64.5 40l138 76l10 60q-97 -69 -164.5 -96t-165.5 -27q-67 0 -123.5 21.5t-101 64.5t-69.5 113.5t-25 162.5q0 58 12 123l37 203q23 128 74.5 221.5t124 145.5t154.5 76t179 24q178 0 359 -47q20 -5 28 -11.5t8 -19.5q0 -10 -2 -16zM932 969q-110 20 -199 20
q-155 0 -240.5 -83.5t-115.5 -250.5l-37 -211q-8 -41 -8 -94q0 -111 49 -162t129 -51q68 0 137 29t160 90z" />
    <glyph glyph-name="Cacute" unicode="&#x106;" horiz-adv-x="1116" 
d="M934 1536q131 0 338 -33q10 -1 16 -3t10 -8t2 -15l-18 -105q-2 -14 -9.5 -18.5t-25.5 -3.5q-216 18 -340 18q-78 0 -145 -24.5t-126 -77.5t-102 -145t-65 -218l-51 -285q-15 -85 -15 -151q0 -163 77 -238t212 -75q52 0 115 3t140 7.5t87 5.5q24 1 31 -5.5t4 -27.5
l-14 -84q-3 -20 -12.5 -28.5t-36.5 -12.5q-143 -26 -344 -26q-65 0 -126 15t-120 50.5t-102.5 88t-70 133.5t-26.5 182q0 80 14 163l52 285q27 150 79.5 264.5t115 183.5t142.5 111.5t155 58t159 15.5zM1300 1933q0 -8 -10 -18l-278 -258q-5 -4 -14 -12.5t-12 -11t-10 -5
t-15 -2.5h-111q-16 0 -16 12q0 11 12 23l246 254l7.5 7.5l7 7l5.5 5.5t6 4.5t5.5 2.5t6 2.5t6.5 1t9 0.5h135q20 0 20 -13z" />
    <glyph glyph-name="cacute" unicode="&#x107;" horiz-adv-x="925" 
d="M713 983q-123 0 -207.5 -90.5t-110.5 -249.5l-26 -160q-13 -76 -13 -123q0 -114 52 -165.5t155 -51.5q123 0 258 15q23 4 31.5 -4t5.5 -27l-12 -74q-3 -22 -13.5 -31t-35.5 -14q-125 -22 -260 -22q-174 0 -266.5 107t-92.5 278q0 47 10 112l27 160q41 246 176 372
t348 126q125 0 252 -23q26 -4 31 -13t2 -32l-12 -74q-3 -19 -13 -26.5t-36 -3.5q-123 14 -250 14zM1057 1583q0 -8 -10 -18l-279 -258q-5 -4 -14 -12.5t-12 -11t-10 -5t-15 -2.5h-111q-16 0 -16 12q0 11 12 23l246 254q25 25 36 28q6 2 17 2h135q21 0 21 -12z" />
    <glyph glyph-name="Ccircumflex" unicode="&#x108;" horiz-adv-x="1116" 
d="M934 1536q131 0 338 -33q10 -1 16 -3t10 -8t2 -15l-18 -105q-2 -14 -9.5 -18.5t-25.5 -3.5q-216 18 -340 18q-78 0 -145 -24.5t-126 -77.5t-102 -145t-65 -218l-51 -285q-15 -85 -15 -151q0 -163 77 -238t212 -75q52 0 115 3t140 7.5t87 5.5q24 1 31 -5.5t4 -27.5
l-14 -84q-3 -20 -12.5 -28.5t-36.5 -12.5q-143 -26 -344 -26q-65 0 -126 15t-120 50.5t-102.5 88t-70 133.5t-26.5 182q0 80 14 163l52 285q27 150 79.5 264.5t115 183.5t142.5 111.5t155 58t159 15.5zM1272 1645q0 -19 -21 -19h-100q-16 0 -23 6t-20 25l-131 198l-207 -198
l-6 -6l-6 -6l-5 -5t-5 -4.5t-5 -3.5t-5 -2.5t-5.5 -1.5t-6.5 -1.5t-7 -0.5h-113q-16 0 -16 12q0 11 12 23l242 254l7.5 7.5l7 7l5.5 5.5t6 4.5t5.5 2.5t6 2.5t6.5 1t9 0.5h174q18 0 27 -6.5t20 -24.5l150 -254q4 -6 4 -16z" />
    <glyph glyph-name="ccircumflex" unicode="&#x109;" horiz-adv-x="925" 
d="M713 983q-123 0 -207.5 -90.5t-110.5 -249.5l-26 -160q-13 -76 -13 -123q0 -114 52 -165.5t155 -51.5q123 0 258 15q23 4 31.5 -4t5.5 -27l-12 -74q-3 -22 -13.5 -31t-35.5 -14q-125 -22 -260 -22q-174 0 -266.5 107t-92.5 278q0 47 10 112l27 160q41 246 176 372
t348 126q125 0 252 -23q26 -4 31 -13t2 -32l-12 -74q-3 -19 -13 -26.5t-36 -3.5q-123 14 -250 14zM1063 1294q0 -18 -21 -18h-100q-16 0 -23 6t-20 25l-131 198l-207 -198l-6 -6l-6 -6l-5 -5t-5 -4.5t-5 -3.5t-5 -2.5t-5.5 -1.5t-6.5 -1.5t-7 -0.5h-113q-16 0 -16 12
q0 11 12 23l242 254q25 25 36 28q6 2 17 2h174q18 0 27 -6t20 -24l150 -254q4 -6 4 -17z" />
    <glyph glyph-name="Cdotaccent" unicode="&#x10a;" horiz-adv-x="1116" 
d="M934 1536q131 0 338 -33q10 -1 16 -3t10 -8t2 -15l-18 -105q-2 -14 -9.5 -18.5t-25.5 -3.5q-216 18 -340 18q-78 0 -145 -24.5t-126 -77.5t-102 -145t-65 -218l-51 -285q-15 -85 -15 -151q0 -163 77 -238t212 -75q52 0 115 3t140 7.5t87 5.5q24 1 31 -5.5t4 -27.5
l-14 -84q-3 -20 -12.5 -28.5t-36.5 -12.5q-143 -26 -344 -26q-65 0 -126 15t-120 50.5t-102.5 88t-70 133.5t-26.5 182q0 80 14 163l52 285q27 150 79.5 264.5t115 183.5t142.5 111.5t155 58t159 15.5zM1126 1898v-6l-30 -172q-3 -17 -17.5 -29t-29.5 -12h-99q-14 0 -23 10
t-9 25v6l30 172q3 15 17.5 27t29.5 12h99q13 0 22.5 -9.5t9.5 -23.5z" />
    <glyph glyph-name="cdotaccent" unicode="&#x10b;" horiz-adv-x="925" 
d="M713 983q-123 0 -207.5 -90.5t-110.5 -249.5l-26 -160q-13 -76 -13 -123q0 -114 52 -165.5t155 -51.5q123 0 258 15q23 4 31.5 -4t5.5 -27l-12 -74q-3 -22 -13.5 -31t-35.5 -14q-125 -22 -260 -22q-174 0 -266.5 107t-92.5 278q0 47 10 112l27 160q41 246 176 372
t348 126q125 0 252 -23q26 -4 31 -13t2 -32l-12 -74q-3 -19 -13 -26.5t-36 -3.5q-123 14 -250 14zM901 1526v-6l-31 -172q-3 -17 -17.5 -29t-29.5 -12h-98q-14 0 -23.5 9.5t-9.5 24.5v7l31 172q3 15 17.5 27t29.5 12h98q14 0 23.5 -9.5t9.5 -23.5z" />
    <glyph glyph-name="Ccaron" unicode="&#x10c;" horiz-adv-x="1116" 
d="M934 1536q131 0 338 -33q10 -1 16 -3t10 -8t2 -15l-18 -105q-2 -14 -9.5 -18.5t-25.5 -3.5q-216 18 -340 18q-78 0 -145 -24.5t-126 -77.5t-102 -145t-65 -218l-51 -285q-15 -85 -15 -151q0 -163 77 -238t212 -75q52 0 115 3t140 7.5t87 5.5q24 1 31 -5.5t4 -27.5
l-14 -84q-3 -20 -12.5 -28.5t-36.5 -12.5q-143 -26 -344 -26q-65 0 -126 15t-120 50.5t-102.5 88t-70 133.5t-26.5 182q0 80 14 163l52 285q27 150 79.5 264.5t115 183.5t142.5 111.5t155 58t159 15.5zM1352 1933q0 -9 -13 -22l-243 -254q-19 -19 -29 -25t-27 -6h-174
q-18 0 -26 6t-19 25l-155 254q-4 6 -4 16q0 19 20 19h96q5 0 9 -0.5t7.5 -2.5t5.5 -3.5t5.5 -5.5t4.5 -5.5t5.5 -7.5t5.5 -8l135 -197l203 197q3 3 7.5 8t7 7.5t6.5 6t6.5 5t6.5 3.5t8 2.5t9 0.5h125q17 0 17 -13z" />
    <glyph glyph-name="ccaron" unicode="&#x10d;" horiz-adv-x="925" 
d="M713 983q-123 0 -207.5 -90.5t-110.5 -249.5l-26 -160q-13 -76 -13 -123q0 -114 52 -165.5t155 -51.5q123 0 258 15q23 4 31.5 -4t5.5 -27l-12 -74q-3 -22 -13.5 -31t-35.5 -14q-125 -22 -260 -22q-174 0 -266.5 107t-92.5 278q0 47 10 112l27 160q41 246 176 372
t348 126q125 0 252 -23q26 -4 31 -13t2 -32l-12 -74q-3 -19 -13 -26.5t-36 -3.5q-123 14 -250 14zM1159 1583q0 -10 -12 -22l-244 -254q-14 -14 -19.5 -19t-14.5 -8.5t-21 -3.5h-174q-18 0 -26 6t-19 25l-156 254q-4 6 -4 16q0 18 20 18h97q11 0 19 -5t11 -8.5t13 -18.5
l135 -197l203 197q2 2 8.5 9t8.5 8.5t7 5.5t8 5.5t8 2.5t11 1h125q16 0 16 -12z" />
    <glyph glyph-name="Dcaron" unicode="&#x10e;" horiz-adv-x="1312" 
d="M1368 1057q0 -78 -14 -158l-47 -276q-110 -637 -734 -637q-250 0 -368 20q-24 4 -31 16t-4 35l248 1407q9 46 51 52q122 20 377 20q242 0 382 -121.5t140 -357.5zM1182 1047q0 93 -27 158.5t-78 102t-114.5 52.5t-145.5 16q-125 0 -227 -6l-215 -1220q82 -5 227 -5
q74 0 140.5 15.5t128.5 51t110.5 90t85 136.5t53.5 185l47 276q15 83 15 148zM1305 1933q0 -9 -13 -22l-243 -254q-19 -19 -29 -25t-27 -6h-174q-18 0 -26 6t-19 25l-156 254q-4 6 -4 16q0 19 21 19h96q5 0 9 -0.5t7.5 -2.5t5.5 -3.5t5.5 -5.5t4.5 -5.5t5.5 -7.5t5.5 -8
l135 -197l203 197q3 3 7.5 8t7 7.5t6.5 6t6.5 5t6.5 3.5t8 2.5t9 0.5h125q17 0 17 -13z" />
    <glyph glyph-name="dcaron" unicode="&#x10f;" horiz-adv-x="1331" 
d="M1233 1503v-2l-252 -1433q-3 -22 -14 -33t-37 -15q-178 -34 -383 -34q-182 0 -276.5 101.5t-94.5 274.5q0 62 12 130l27 147q47 261 177.5 381.5t357.5 120.5q121 0 235 -21l68 381q3 16 16.5 27.5t30.5 11.5h104q13 0 21 -8.5t8 -22.5v-6zM958 969q-77 14 -235 14
q-264 0 -328 -344l-26 -147q-15 -92 -15 -134q0 -107 52 -161t167 -54q86 0 242 13zM1595 1518q0 -5 -4 -17l-153 -387q-8 -22 -15.5 -30.5t-23.5 -8.5h-84q-25 0 -25 25q0 10 2 14l117 387q6 21 15 30t26 9h119q26 0 26 -22z" />
    <glyph glyph-name="Dcroat" unicode="&#x110;" horiz-adv-x="1312" 
d="M1364 1057q0 -78 -14 -158l-47 -276q-110 -637 -734 -637q-250 0 -368 20q-37 6 -37 39q0 2 1 6t1 6l110 629h-96q-35 0 -35 31v6l17 88q3 16 16 27.5t31 11.5h96l109 614q9 46 51 52q122 20 377 20q242 0 382 -121.5t140 -357.5zM809 817v-6l-16 -88q-3 -15 -17.5 -26
t-32.5 -11h-278l-94 -536q83 -5 227 -5q74 0 140.5 15.5t128.5 51t110.5 90t85 136.5t53.5 185l47 276q15 83 15 148q0 93 -27 158.5t-78 102t-114.5 52.5t-145.5 16q-125 0 -227 -6l-92 -520h278q17 0 27 -9t10 -24z" />
    <glyph glyph-name="dcroat" unicode="&#x111;" horiz-adv-x="1107" 
d="M1325 1380v-4l-14 -71q-2 -12 -13 -21.5t-26 -9.5h-80l-211 -1206q-3 -22 -14 -33t-37 -15q-178 -34 -383 -34q-182 0 -276.5 101.5t-94.5 274.5q0 62 12 130l27 147q47 261 177.5 381.5t357.5 120.5q121 0 235 -21l27 154h-283q-29 0 -29 24v7l15 71q2 12 13 21.5
t24 9.5h284l17 94q3 16 16.5 27.5t30.5 11.5h104q13 0 21 -8.5t8 -22.5v-8l-16 -94h77q31 0 31 -27zM958 969q-77 14 -235 14q-264 0 -328 -344l-26 -147q-15 -92 -15 -134q0 -107 52 -161t167 -54q86 0 242 13z" />
    <glyph glyph-name="Emacron" unicode="&#x112;" horiz-adv-x="1128" 
d="M840 1368q-82 0 -133.5 -10.5t-83.5 -38t-47.5 -64.5t-26.5 -100l-49 -285h628q38 0 33 -41l-12 -77q-7 -41 -49 -41h-629l-59 -344q-11 -60 -11 -84q0 -70 48.5 -99.5t175.5 -29.5h389q16 0 21.5 -5.5t2.5 -19.5l-18 -100q-4 -25 -25 -29q-45 -5 -178.5 -9.5
t-222.5 -4.5q-179 0 -278 74.5t-99 220.5q0 45 8 86l137 788q20 112 60 186.5t105 117t145.5 60t193.5 17.5q299 0 398 -18q21 -3 16 -29l-18 -96q-2 -25 -27 -25h-395zM1253 1790v-6l-12 -70q-6 -35 -47 -35h-590q-15 0 -25 8t-10 21v6l13 70q6 35 47 35h590q15 0 24.5 -8
t9.5 -21z" />
    <glyph glyph-name="emacron" unicode="&#x113;" horiz-adv-x="1114" 
d="M1137 760q0 -53 -13 -123l-16 -86q-5 -23 -14.5 -34t-30.5 -11h-690l-4 -25q-13 -76 -13 -125q0 -219 254 -219q156 0 355 29q24 3 33 -3t6 -26l-13 -69q-3 -23 -13.5 -33.5t-35.5 -14.5q-179 -34 -358 -34q-80 0 -149.5 21t-128 64.5t-92.5 118.5t-34 175q0 54 13 127
l26 143q46 245 185.5 375.5t357.5 130.5q183 0 279 -106t96 -275zM956 766q0 217 -221 217q-129 0 -217 -91.5t-117 -238.5l-2 -10h543l2 10q12 61 12 113zM1171 1440v-6l-12 -70q-6 -35 -47 -35h-590q-15 0 -25 8t-10 21v6l13 70q6 34 47 34h590q34 0 34 -28z" />
    <glyph glyph-name="Ebreve" unicode="&#x114;" horiz-adv-x="1128" 
d="M840 1368q-82 0 -133.5 -10.5t-83.5 -38t-47.5 -64.5t-26.5 -100l-49 -285h628q38 0 33 -41l-12 -77q-7 -41 -49 -41h-629l-59 -344q-11 -60 -11 -84q0 -70 48.5 -99.5t175.5 -29.5h389q16 0 21.5 -5.5t2.5 -19.5l-18 -100q-4 -25 -25 -29q-45 -5 -178.5 -9.5
t-222.5 -4.5q-179 0 -278 74.5t-99 220.5q0 45 8 86l137 788q20 112 60 186.5t105 117t145.5 60t193.5 17.5q299 0 398 -18q21 -3 16 -29l-18 -96q-2 -25 -27 -25h-395zM1296 1927q0 -10 -2 -16q-29 -140 -131 -214.5t-231 -74.5q-130 0 -217.5 73.5t-87.5 215.5q0 35 28 35
h72q16 0 21.5 -7.5t5.5 -25.5q0 -164 178 -164q92 0 150.5 43t80.5 121q5 19 12 26t23 7h80q18 0 18 -19z" />
    <glyph glyph-name="ebreve" unicode="&#x115;" horiz-adv-x="1114" 
d="M1137 760q0 -53 -13 -123l-16 -86q-5 -23 -14.5 -34t-30.5 -11h-690l-4 -25q-13 -76 -13 -125q0 -219 254 -219q156 0 355 29q24 3 33 -3t6 -26l-13 -69q-3 -23 -13.5 -33.5t-35.5 -14.5q-179 -34 -358 -34q-80 0 -149.5 21t-128 64.5t-92.5 118.5t-34 175q0 54 13 127
l26 143q46 245 185.5 375.5t357.5 130.5q183 0 279 -106t96 -275zM956 766q0 217 -221 217q-129 0 -217 -91.5t-117 -238.5l-2 -10h543l2 10q12 61 12 113zM1188 1577q0 -10 -2 -16q-29 -140 -131.5 -214.5t-231.5 -74.5q-130 0 -217.5 73.5t-87.5 215.5q0 34 29 34h71
q17 0 22 -7t5 -25q0 -164 178 -164q92 0 151 43t81 121q5 18 12 25t23 7h79q19 0 19 -18z" />
    <glyph glyph-name="Edotaccent" unicode="&#x116;" horiz-adv-x="1128" 
d="M840 1368q-82 0 -133.5 -10.5t-83.5 -38t-47.5 -64.5t-26.5 -100l-49 -285h628q38 0 33 -41l-12 -77q-7 -41 -49 -41h-629l-59 -344q-11 -60 -11 -84q0 -70 48.5 -99.5t175.5 -29.5h389q16 0 21.5 -5.5t2.5 -19.5l-18 -100q-4 -25 -25 -29q-45 -5 -178.5 -9.5
t-222.5 -4.5q-179 0 -278 74.5t-99 220.5q0 45 8 86l137 788q20 112 60 186.5t105 117t145.5 60t193.5 17.5q299 0 398 -18q21 -3 16 -29l-18 -96q-2 -25 -27 -25h-395zM1044 1876v-6l-30 -172q-3 -17 -17.5 -29t-29.5 -12h-99q-14 0 -23 10t-9 25v6l30 172q3 15 17.5 27
t29.5 12h99q13 0 22.5 -9.5t9.5 -23.5z" />
    <glyph glyph-name="edotaccent" unicode="&#x117;" horiz-adv-x="1114" 
d="M1137 760q0 -53 -13 -123l-16 -86q-5 -23 -14.5 -34t-30.5 -11h-690l-4 -25q-13 -76 -13 -125q0 -219 254 -219q156 0 355 29q24 3 33 -3t6 -26l-13 -69q-3 -23 -13.5 -33.5t-35.5 -14.5q-179 -34 -358 -34q-80 0 -149.5 21t-128 64.5t-92.5 118.5t-34 175q0 54 13 127
l26 143q46 245 185.5 375.5t357.5 130.5q183 0 279 -106t96 -275zM956 766q0 217 -221 217q-129 0 -217 -91.5t-117 -238.5l-2 -10h543l2 10q12 61 12 113zM950 1526v-6l-30 -172q-3 -17 -17.5 -29t-30.5 -12h-98q-14 0 -23.5 9.5t-9.5 24.5v7l31 172q3 15 17.5 27t29.5 12
h99q13 0 22.5 -9.5t9.5 -23.5z" />
    <glyph glyph-name="Eogonek" unicode="&#x118;" horiz-adv-x="1128" 
d="M1280 1493v-4l-18 -96q-4 -25 -27 -25h-395q-82 0 -133.5 -10.5t-83.5 -38t-47.5 -64.5t-26.5 -100l-49 -285h628q15 0 24 -9.5t9 -24.5v-7l-12 -77q-3 -17 -17.5 -29t-31.5 -12h-629l-59 -344q-11 -60 -11 -84q0 -70 48.5 -99.5t175.5 -29.5h395q18 0 18 -19v-6
l-18 -100q-2 -9 -9 -18.5t-16 -10.5q-9 0 -67 -4l-131 -82q-87 -54 -111 -77.5t-24 -65.5q0 -21 9.5 -34.5t30 -19t39 -7t50.5 -1.5q29 0 63.5 5.5t58 10.5t27.5 5q11 0 8 -17l-14 -80q-2 -16 -27 -22q-63 -21 -159 -21q-118 0 -178 42.5t-60 113.5q0 58 26 104t59 71.5
t83 51.5l29 15q-41 -2 -113 -2q-179 0 -278 74.5t-99 220.5q0 45 8 86l137 788q20 112 60 186.5t105 117t145.5 60t193.5 17.5q299 0 398 -18q16 -3 16 -25z" />
    <glyph glyph-name="eogonek" unicode="&#x119;" horiz-adv-x="1114" 
d="M1137 760q0 -53 -13 -123l-16 -86q-5 -23 -14.5 -34t-30.5 -11h-686l-6 -25q-17 -67 -17 -125q0 -219 256 -219q156 0 355 29l18 2q14 0 19 -6.5t2 -24.5l-13 -69q-5 -30 -28 -43l-183 -111q-84 -51 -104 -71q-31 -32 -31 -70q0 -64 129 -64q29 0 63.5 5.5t58.5 10.5
t28 5q11 0 8 -17l-14 -80q-2 -16 -27 -22q-63 -21 -160 -21q-235 0 -235 164q0 77 46.5 128.5t119.5 90.5l26 15q-33 -2 -104 -2q-80 0 -149.5 21t-128 64.5t-92.5 118.5t-34 175q0 54 13 127l26 143q46 245 185.5 375.5t357.5 130.5q183 0 279 -106t96 -275zM956 766
q0 217 -221 217q-129 0 -217 -91.5t-117 -238.5l-2 -10h543l2 10q12 61 12 113z" />
    <glyph glyph-name="Ecaron" unicode="&#x11a;" horiz-adv-x="1128" 
d="M840 1368q-82 0 -133.5 -10.5t-83.5 -38t-47.5 -64.5t-26.5 -100l-49 -285h628q38 0 33 -41l-12 -77q-7 -41 -49 -41h-629l-59 -344q-11 -60 -11 -84q0 -70 48.5 -99.5t175.5 -29.5h389q16 0 21.5 -5.5t2.5 -19.5l-18 -100q-4 -25 -25 -29q-45 -5 -178.5 -9.5
t-222.5 -4.5q-179 0 -278 74.5t-99 220.5q0 45 8 86l137 788q20 112 60 186.5t105 117t145.5 60t193.5 17.5q299 0 398 -18q21 -3 16 -29l-18 -96q-2 -25 -27 -25h-395zM1331 1933q0 -10 -12 -22l-244 -254q-14 -14 -19.5 -19t-14.5 -8.5t-21 -3.5h-174q-18 0 -26 6t-19 25
l-156 254q-4 6 -4 16q0 19 21 19h96q5 0 9 -0.5t7.5 -2.5t5.5 -3.5t5.5 -5.5t4.5 -5.5t5.5 -7.5t5.5 -8l135 -197l203 197q3 3 7.5 8t7 7.5t6.5 6t6.5 5t6.5 3.5t8 2.5t9 0.5h125q16 0 16 -13z" />
    <glyph glyph-name="ecaron" unicode="&#x11b;" horiz-adv-x="1114" 
d="M1137 760q0 -53 -13 -123l-16 -86q-5 -23 -14.5 -34t-30.5 -11h-690l-4 -25q-13 -76 -13 -125q0 -219 254 -219q156 0 355 29q24 3 33 -3t6 -26l-13 -69q-3 -23 -13.5 -33.5t-35.5 -14.5q-179 -34 -358 -34q-80 0 -149.5 21t-128 64.5t-92.5 118.5t-34 175q0 54 13 127
l26 143q46 245 185.5 375.5t357.5 130.5q183 0 279 -106t96 -275zM956 766q0 217 -221 217q-129 0 -217 -91.5t-117 -238.5l-2 -10h543l2 10q12 61 12 113zM1217 1583q0 -9 -13 -22l-243 -254q-19 -19 -29 -25t-27 -6h-174q-18 0 -26 6t-19 25l-156 254q-4 6 -4 16
q0 18 21 18h96q11 0 19 -5t11 -8.5t13 -18.5l135 -197l203 197q2 2 8.5 9t8.5 8.5t7 5.5t8 5.5t8 2.5t11 1h125q17 0 17 -12z" />
    <glyph glyph-name="Gcircumflex" unicode="&#x11c;" horiz-adv-x="1253" 
d="M938 1536q201 0 385 -29q34 -4 29 -30l-19 -103q-1 -14 -9.5 -18t-27.5 -2q-167 14 -387 14q-74 0 -139 -22t-127.5 -72.5t-109.5 -146.5t-70 -230l-47 -274q-17 -104 -17 -162q0 -163 74.5 -236t202.5 -73q113 0 260 12l104 586q3 18 14.5 29.5t28.5 11.5h111
q14 0 23.5 -10.5t9.5 -24.5v-6l-123 -689q-7 -38 -45 -45q-191 -30 -412 -30q-84 0 -159.5 28t-137.5 83.5t-98.5 151t-36.5 218.5q0 79 14 156l47 274q110 639 662 639zM1311 1642q0 -18 -21 -18h-100q-16 0 -23 6t-20 25l-131 198l-207 -198l-6 -6l-6 -6l-5 -5t-5 -4.5
t-5 -3.5t-5 -2.5t-5.5 -1.5t-6.5 -1.5t-7 -0.5h-113q-16 0 -16 12q0 11 12 23l242 254l7.5 7.5l7 7l5.5 5.5t6 4.5t5.5 2.5t6 2.5t6.5 1t9 0.5h174q18 0 27 -6.5t20 -24.5l150 -254q4 -6 4 -17z" />
    <glyph glyph-name="gcircumflex" unicode="&#x11d;" horiz-adv-x="1107" 
d="M188 489l27 150q48 271 178.5 386.5t366.5 115.5q170 0 358 -47q27 -6 32.5 -15t2.5 -32l-184 -1045q-21 -119 -57.5 -197t-97 -124.5t-139.5 -65t-194 -18.5q-218 0 -342 36q-24 6 -30 14.5t-3 28.5l11 60q3 21 13.5 28.5t35.5 4.5q219 -25 342 -25q136 0 195.5 53
t82.5 193l5 24q-42 -10 -116 -19t-118 -9q-175 0 -278 90.5t-103 275.5q0 64 12 137zM958 967q-121 22 -225 22q-142 0 -224 -85t-114 -265l-26 -150q-15 -83 -15 -145q0 -114 55 -160.5t175 -46.5q125 0 233 23zM1126 1294q0 -18 -20 -18h-100q-16 0 -23 6t-20 25l-132 198
l-206 -198l-18 -18t-13.5 -8.5t-20.5 -4.5h-112q-17 0 -17 12q0 10 13 23l241 254q14 14 19.5 18.5t14 8t20.5 3.5h174q18 0 27 -6t20 -24l149 -254q4 -6 4 -17z" />
    <glyph glyph-name="Gbreve" unicode="&#x11e;" horiz-adv-x="1253" 
d="M938 1536q201 0 385 -29q34 -4 29 -30l-19 -103q-1 -14 -9.5 -18t-27.5 -2q-167 14 -387 14q-74 0 -139 -22t-127.5 -72.5t-109.5 -146.5t-70 -230l-47 -274q-17 -104 -17 -162q0 -163 74.5 -236t202.5 -73q113 0 260 12l104 586q3 18 14.5 29.5t28.5 11.5h111
q14 0 23.5 -10.5t9.5 -24.5v-6l-123 -689q-7 -38 -45 -45q-191 -30 -412 -30q-84 0 -159.5 28t-137.5 83.5t-98.5 151t-36.5 218.5q0 79 14 156l47 274q110 639 662 639zM1337 1931q0 -10 -2 -16q-29 -140 -131 -214.5t-231 -74.5q-130 0 -217.5 73.5t-87.5 215.5
q0 35 28 35h72q16 0 21.5 -7.5t5.5 -25.5q0 -164 178 -164q92 0 150.5 43t80.5 121q5 19 12 26t23 7h80q18 0 18 -19z" />
    <glyph glyph-name="gbreve" unicode="&#x11f;" horiz-adv-x="1107" 
d="M188 489l27 150q48 271 178.5 386.5t366.5 115.5q170 0 358 -47q27 -6 32.5 -15t2.5 -32l-184 -1045q-21 -119 -57.5 -197t-97 -124.5t-139.5 -65t-194 -18.5q-218 0 -342 36q-24 6 -30 14.5t-3 28.5l11 60q3 21 13.5 28.5t35.5 4.5q219 -25 342 -25q136 0 195.5 53
t82.5 193l5 24q-42 -10 -116 -19t-118 -9q-175 0 -278 90.5t-103 275.5q0 64 12 137zM958 967q-121 22 -225 22q-142 0 -224 -85t-114 -265l-26 -150q-15 -83 -15 -145q0 -114 55 -160.5t175 -46.5q125 0 233 23zM1182 1579q0 -10 -2 -16q-29 -140 -131.5 -214.5
t-231.5 -74.5q-130 0 -217.5 73.5t-87.5 215.5q0 34 29 34h71q17 0 22 -7t5 -25q0 -164 178 -164q92 0 151 43t81 121q5 19 11.5 25.5t22.5 6.5h80q19 0 19 -18z" />
    <glyph glyph-name="Gdotaccent" unicode="&#x120;" horiz-adv-x="1253" 
d="M938 1536q201 0 385 -29q34 -4 29 -30l-19 -103q-1 -14 -9.5 -18t-27.5 -2q-167 14 -387 14q-74 0 -139 -22t-127.5 -72.5t-109.5 -146.5t-70 -230l-47 -274q-17 -104 -17 -162q0 -163 74.5 -236t202.5 -73q113 0 260 12l104 586q3 18 14.5 29.5t28.5 11.5h111
q14 0 23.5 -10.5t9.5 -24.5v-6l-123 -689q-7 -38 -45 -45q-191 -30 -412 -30q-84 0 -159.5 28t-137.5 83.5t-98.5 151t-36.5 218.5q0 79 14 156l47 274q110 639 662 639zM1110 1843v-6l-31 -172q-3 -17 -17.5 -29t-29.5 -12h-98q-14 0 -23.5 10t-9.5 25v6l31 172
q3 15 17.5 27t29.5 12h98q13 0 23 -10t10 -23z" />
    <glyph glyph-name="gdotaccent" unicode="&#x121;" horiz-adv-x="1107" 
d="M188 489l27 150q48 271 178.5 386.5t366.5 115.5q170 0 358 -47q27 -6 32.5 -15t2.5 -32l-184 -1045q-21 -119 -57.5 -197t-97 -124.5t-139.5 -65t-194 -18.5q-218 0 -342 36q-24 6 -30 14.5t-3 28.5l11 60q3 21 13.5 28.5t35.5 4.5q219 -25 342 -25q136 0 195.5 53
t82.5 193l5 24q-42 -10 -116 -19t-118 -9q-175 0 -278 90.5t-103 275.5q0 64 12 137zM958 967q-121 22 -225 22q-142 0 -224 -85t-114 -265l-26 -150q-15 -83 -15 -145q0 -114 55 -160.5t175 -46.5q125 0 233 23zM938 1526v-6l-31 -172q-3 -17 -17.5 -29t-29.5 -12h-98
q-14 0 -23.5 9.5t-9.5 24.5v7l31 172q3 15 17.5 27t29.5 12h98q13 0 23 -9.5t10 -23.5z" />
    <glyph glyph-name="Gcommaaccent" unicode="&#x122;" horiz-adv-x="1253" 
d="M938 1536q201 0 385 -29q34 -4 29 -30l-19 -103q-1 -14 -9.5 -18t-27.5 -2q-167 14 -387 14q-74 0 -139 -22t-127.5 -72.5t-109.5 -146.5t-70 -230l-47 -274q-17 -104 -17 -162q0 -163 74.5 -236t202.5 -73q113 0 260 12l104 586q3 18 14.5 29.5t28.5 11.5h111
q14 0 23.5 -10.5t9.5 -24.5v-6l-123 -689q-7 -38 -45 -45q-191 -30 -412 -30q-84 0 -159.5 28t-137.5 83.5t-98.5 151t-36.5 218.5q0 79 14 156l47 274q110 639 662 639zM578 -100h141q21 0 18 -23l-4 -16l-151 -223q-13 -23 -23.5 -31t-32.5 -8h-84q-19 0 -16 16q1 1 2.5 6
t3.5 10l98 230q13 39 48 39z" />
    <glyph glyph-name="gcommaaccent" unicode="&#x123;" horiz-adv-x="1107" 
d="M188 489l27 150q48 271 178.5 386.5t366.5 115.5q170 0 358 -47q27 -6 32.5 -15t2.5 -32l-184 -1045q-21 -119 -57.5 -197t-97 -124.5t-139.5 -65t-194 -18.5q-218 0 -342 36q-24 6 -30 14.5t-3 28.5l11 60q3 21 13.5 28.5t35.5 4.5q219 -25 342 -25q136 0 195.5 53
t82.5 193l5 24q-42 -10 -116 -19t-118 -9q-175 0 -278 90.5t-103 275.5q0 64 12 137zM958 967q-121 22 -225 22q-142 0 -224 -85t-114 -265l-26 -150q-15 -83 -15 -145q0 -114 55 -160.5t175 -46.5q125 0 233 23zM854 1276h-141q-8 0 -15 6t-6 16q0 9 8 17l150 223
q14 23 23.5 31t31.5 8h84q7 0 12.5 -4t4.5 -12q-1 -1 -3 -7t-4 -10l-96 -229q-16 -39 -49 -39z" />
    <glyph glyph-name="Hcircumflex" unicode="&#x124;" horiz-adv-x="1392" 
d="M1356 1522h104q39 0 33 -41l-252 -1440q-3 -17 -17.5 -29t-31.5 -12h-105q-39 0 -32 41l119 680h-701l-119 -680q-2 -13 -6 -21t-14.5 -14t-28.5 -6h-104q-18 0 -27 12.5t-6 28.5l252 1440q2 13 6 21t14.5 14t28.5 6h104q39 0 33 -41l-104 -594h700l105 594
q2 14 5.5 21.5t14.5 13.5t29 6zM1317 1642q0 -18 -21 -18h-100q-16 0 -23 6t-20 25l-131 198l-207 -198l-6 -6l-6 -6l-5 -5t-5 -4.5t-5 -3.5t-5 -2.5t-5.5 -1.5t-6.5 -1.5t-7 -0.5h-113q-16 0 -16 12q0 11 12 23l242 254l7.5 7.5l7 7l5.5 5.5t6 4.5t5.5 2.5t6 2.5t6.5 1
t9 0.5h174q18 0 27 -6.5t20 -24.5l150 -254q4 -6 4 -17z" />
    <glyph glyph-name="hcircumflex" unicode="&#x125;" horiz-adv-x="1140" 
d="M1139 813q0 -19 -9 -84l-120 -688q-7 -41 -49 -41h-99q-39 0 -33 41l121 688q8 41 8 82q0 93 -54 134.5t-175 41.5q-128 0 -242 -31l-159 -915q-2 -14 -5.5 -21.5t-14.5 -13.5t-29 -6h-99q-41 0 -33 41l256 1460q8 39 46 39h104q39 0 31 -39l-68 -389q130 29 240 29
q189 0 286 -91t97 -237zM1225 1642q0 -18 -21 -18h-100q-16 0 -23 6t-20 25l-131 198l-207 -198l-6 -6l-6 -6l-5 -5t-5 -4.5t-5 -3.5t-5 -2.5t-5.5 -1.5t-6.5 -1.5t-7 -0.5h-113q-16 0 -16 12q0 11 12 23l242 254l7.5 7.5l7 7l5.5 5.5t6 4.5t5.5 2.5t6 2.5t6.5 1t9 0.5h174
q18 0 27 -6.5t20 -24.5l150 -254q4 -6 4 -17z" />
    <glyph glyph-name="Hbar" unicode="&#x126;" horiz-adv-x="1392" 
d="M1554 1151q-3 -17 -17.5 -29t-31.5 -12h-78l-188 -1069q-3 -17 -16.5 -29t-30.5 -12h-105q-17 0 -27 12t-7 29l121 680h-701l-121 -680q-3 -17 -16.5 -29t-30.5 -12h-104q-17 0 -27.5 12t-7.5 29l188 1069h-78q-17 0 -26 12t-6 29l14 84q3 17 16.5 29t30.5 12h78l37 205
q3 17 17.5 29t31.5 12h104q17 0 26.5 -12t6.5 -29l-37 -205h701l37 205q3 17 17.5 29t31.5 12h104q17 0 26.5 -12t6.5 -29l-37 -205h78q17 0 27.5 -12t7.5 -29zM502 887h700l39 223h-700z" />
    <glyph glyph-name="hbar" unicode="&#x127;" horiz-adv-x="1140" 
d="M319 1427h70l14 74q3 16 16 27.5t30 11.5h104q13 0 22 -9t9 -22v-8l-13 -74h328q19 0 29 -10t6 -31l-12 -69q-7 -41 -50 -41h-327l-29 -164q130 29 240 29q189 0 286 -91t97 -237q0 -19 -9 -84l-120 -688q-3 -17 -17.5 -29t-31.5 -12h-99q-15 0 -24 9.5t-9 23.5v8
l121 688q8 41 8 82q0 93 -54 134.5t-175 41.5q-128 0 -242 -31l-159 -915q-3 -17 -17.5 -29t-31.5 -12h-99q-15 0 -24 9.5t-9 23.5v8l215 1235h-69q-41 0 -33 41l12 69q7 41 47 41z" />
    <glyph glyph-name="Itilde" unicode="&#x128;" horiz-adv-x="546" 
d="M485 1522h113q37 0 31 -39l-254 -1442q-3 -22 -13 -31.5t-32 -9.5h-113q-19 0 -25.5 12t-3.5 29l254 1442q8 39 43 39zM887 1819q-36 -178 -201 -170q-52 3 -102 37q-14 12 -38 32t-38 31q-31 27 -53 27q-37 0 -47 -50l-7 -32q-7 -33 -41 -33h-73q-36 0 -29 33l8 41
q19 88 73 134.5t132 41.5q18 -1 36.5 -8t28 -13t29.5 -20l88 -76q16 -14 49 -14t41 47l7 35q6 34 43 34h73q35 0 29 -34z" />
    <glyph glyph-name="itilde" unicode="&#x129;" horiz-adv-x="505" 
d="M532 1094v-9l-182 -1044q-3 -17 -17.5 -29t-31.5 -12h-98q-15 0 -24 9.5t-9 23.5v8l182 1044q3 17 17.5 29t31.5 12h99q15 0 23.5 -9t8.5 -23zM805 1466q-36 -178 -201 -170q-52 3 -102 37q-14 12 -37.5 32.5t-38.5 31.5q-30 26 -53 26q-38 0 -47 -49l-7 -33
q-6 -32 -40 -32h-74q-35 0 -29 32l8 41q19 88 73 134.5t132 42.5q18 -1 36.5 -8t28 -13t29.5 -20l88 -76q17 -15 50 -15t41 48l6 34q3 17 15 26t28 9h73q35 0 29 -35z" />
    <glyph glyph-name="Imacron" unicode="&#x12a;" horiz-adv-x="546" 
d="M485 1522h113q37 0 31 -39l-254 -1442q-3 -22 -13 -31.5t-32 -9.5h-113q-19 0 -25.5 12t-3.5 29l254 1442q8 39 43 39zM924 1788v-6l-13 -70q-6 -35 -47 -35h-590q-15 0 -24.5 8t-9.5 21v6l12 70q6 35 47 35h590q15 0 25 -8t10 -21z" />
    <glyph glyph-name="imacron" unicode="&#x12b;" horiz-adv-x="505" 
d="M532 1094v-9l-182 -1044q-3 -17 -17.5 -29t-31.5 -12h-98q-15 0 -24 9.5t-9 23.5v8l182 1044q3 17 17.5 29t31.5 12h99q15 0 23.5 -9t8.5 -23zM838 1440v-6l-13 -70q-6 -35 -47 -35h-590q-15 0 -24.5 8t-9.5 21v6l12 70q6 34 47 34h590q35 0 35 -28z" />
    <glyph glyph-name="Ibreve" unicode="&#x12c;" horiz-adv-x="546" 
d="M485 1522h113q37 0 31 -39l-254 -1442q-3 -22 -13 -31.5t-32 -9.5h-113q-19 0 -25.5 12t-3.5 29l254 1442q8 39 43 39zM936 1929q0 -10 -2 -16q-29 -140 -131.5 -214.5t-231.5 -74.5q-130 0 -217.5 73.5t-87.5 215.5q0 35 29 35h72q16 0 21 -7t5 -26q0 -164 178 -164
q92 0 151 43t81 121q5 19 12 26t23 7h80q18 0 18 -19z" />
    <glyph glyph-name="ibreve" unicode="&#x12d;" horiz-adv-x="505" 
d="M532 1094v-9l-182 -1044q-3 -17 -17.5 -29t-31.5 -12h-98q-15 0 -24 9.5t-9 23.5v8l182 1044q3 17 17.5 29t31.5 12h99q15 0 23.5 -9t8.5 -23zM854 1577q0 -10 -2 -16q-29 -140 -131.5 -214.5t-231.5 -74.5q-130 0 -217.5 73.5t-87.5 215.5q0 34 29 34h72q16 0 21 -7
t5 -25q0 -164 178 -164q92 0 151 43t81 121q5 18 12 25t23 7h80q18 0 18 -18z" />
    <glyph glyph-name="Iogonek" unicode="&#x12e;" horiz-adv-x="546" 
d="M629 1483l-254 -1444q-3 -24 -27 -37l-145 -88q-84 -51 -104 -71q-31 -32 -31 -70q0 -64 129 -64q29 0 63.5 5.5t58.5 10.5t27 5q11 0 8 -17l-14 -80q-2 -16 -27 -22q-63 -21 -159 -21q-238 0 -238 156q0 44 14 80.5t41 64t52.5 45.5t60.5 37l102 56l256 1454
q3 16 15 27.5t28 11.5h113q13 0 22 -9.5t9 -21.5v-8z" />
    <glyph glyph-name="iogonek" unicode="&#x12f;" horiz-adv-x="505" 
d="M532 1085l-176 -1009q-5 -32 -13 -48t-26 -26l-145 -88q-88 -53 -111.5 -77t-23.5 -64q0 -64 129 -64q29 0 63.5 5.5t58.5 10.5t27 5q12 0 9 -17l-15 -80q-2 -16 -26 -22q-63 -21 -160 -21q-238 0 -238 156q0 44 13.5 80t41 63.5t51.5 44.5t62 39l117 68l182 1044
q3 17 17.5 29t31.5 12h99q15 0 23.5 -9t8.5 -23v-9zM612 1520v-9l-28 -163q-3 -17 -17.5 -29t-31.5 -12h-105q-15 0 -24 9t-9 23v9l29 163q3 17 17.5 29t31.5 12h105q15 0 23.5 -9t8.5 -23z" />
    <glyph glyph-name="Idotaccent" unicode="&#x130;" horiz-adv-x="546" 
d="M485 1522h113q37 0 31 -39l-254 -1442q-3 -22 -13 -31.5t-32 -9.5h-113q-19 0 -25.5 12t-3.5 29l254 1442q8 39 43 39zM702 1876v-6l-30 -172q-3 -17 -17.5 -29t-29.5 -12h-99q-14 0 -23 10t-9 25v6l30 172q3 15 17.5 27t29.5 12h99q13 0 22.5 -9.5t9.5 -23.5z" />
    <glyph glyph-name="dotlessi" unicode="&#x131;" horiz-adv-x="505" 
d="M532 1094v-9l-182 -1044q-3 -17 -17.5 -29t-31.5 -12h-98q-15 0 -24 9.5t-9 23.5v8l182 1044q3 17 17.5 29t31.5 12h99q15 0 23.5 -9t8.5 -23z" />
    <glyph glyph-name="IJ" unicode="&#x132;" horiz-adv-x="1073" 
d="M629 1491v-8l-254 -1442q-3 -16 -16 -28.5t-29 -12.5h-113q-13 0 -21 9.5t-8 23.5v8l254 1442q3 16 15 27.5t28 11.5h113q13 0 22 -9.5t9 -21.5zM1176 1489v-6l-277 -1559q-27 -150 -114.5 -221.5t-254.5 -71.5q-31 0 -63 6t-41 11q-8 5 -8 16v6l12 76q6 35 47 35h80
q78 0 110 32t46 111l276 1559q3 15 16.5 27t28.5 12h109q13 0 23 -10t10 -23z" />
    <glyph glyph-name="ij" unicode="&#x133;" horiz-adv-x="1011" 
d="M612 1520v-9l-28 -163q-3 -17 -17.5 -29t-31.5 -12h-105q-15 0 -24 9t-9 23v9l29 163q3 17 17.5 29t31.5 12h105q15 0 23.5 -9t8.5 -23zM532 1094v-9l-182 -1044q-3 -17 -17.5 -29t-31.5 -12h-98q-15 0 -24 9.5t-9 23.5v8l182 1044q3 17 17.5 29t31.5 12h99q15 0 23.5 -9
t8.5 -23zM1118 1520v-7l-28 -165q-3 -17 -18 -29t-32 -12h-106q-13 0 -22 9t-9 23v9l29 165q3 17 16.5 28t30.5 11h106q14 0 23.5 -9.5t9.5 -22.5zM1038 1094v-9l-213 -1216q-26 -152 -101 -212t-206 -60q-56 0 -108 8q-31 5 -31 24v9l12 75q6 29 49 29h86q58 0 81.5 25
t37.5 102l213 1216q3 17 17.5 29t31.5 12h99q15 0 23.5 -9t8.5 -23z" />
    <glyph glyph-name="Jcircumflex" unicode="&#x134;" horiz-adv-x="526" 
d="M487 1522h109q38 0 33 -39l-277 -1559q-27 -150 -114.5 -221.5t-253.5 -71.5q-64 0 -99 15q-17 6 -14 24l12 76q3 19 12.5 27t34.5 8h80q78 0 110 32t46 111l276 1559q8 39 45 39zM891 1642q0 -18 -21 -18h-100q-16 0 -23 6t-20 25l-131 198l-207 -198l-6 -6l-6 -6l-5 -5
t-5 -4.5t-5 -3.5t-5 -2.5t-5.5 -1.5t-6.5 -1.5t-7 -0.5h-113q-16 0 -16 12q0 11 12 23l242 254l7.5 7.5l7 7l5.5 5.5t6 4.5t5.5 2.5t6 2.5t6.5 1t9 0.5h174q18 0 27 -6.5t20 -24.5l150 -254q4 -6 4 -17z" />
    <glyph glyph-name="jcircumflex" unicode="&#x135;" horiz-adv-x="505" 
d="M532 1094v-9l-213 -1216q-26 -152 -101 -212t-206 -60q-56 0 -108 8q-31 5 -31 24v9l12 75q6 29 49 29h86q58 0 81.5 25t37.5 102l213 1216q3 17 17.5 29t31.5 12h99q15 0 23.5 -9t8.5 -23zM809 1294q0 -18 -21 -18h-100q-16 0 -23 6t-20 25l-131 198l-207 -198l-6 -6
l-6 -6l-5 -5t-5 -4.5t-5 -3.5t-5 -2.5t-5.5 -1.5t-6.5 -1.5t-7 -0.5h-113q-16 0 -16 12q0 11 12 23l242 254q25 25 36 28q6 2 17 2h174q18 0 27 -6t20 -24l150 -254q4 -6 4 -17z" />
    <glyph glyph-name="Kcommaaccent" unicode="&#x136;" horiz-adv-x="1243" 
d="M1415 1501q0 -12 -10 -22l-758 -697l490 -749q4 -8 4 -13q0 -9 -7 -14.5t-16 -5.5h-147q-30 0 -41 20l-455 709l-121 -688q-2 -14 -5.5 -21.5t-13 -13.5t-26.5 -6h-112q-16 0 -24 12.5t-5 28.5l254 1442q8 39 45 39h108q17 0 27 -9.5t6 -29.5l-112 -643l688 663
q22 19 45 19h160q13 0 19.5 -6.5t6.5 -14.5zM571 -100h142q21 0 18 -23l-4 -16l-152 -223q-14 -23 -23.5 -31t-31.5 -8h-84q-19 0 -16 16q1 1 2.5 6t3.5 10l98 230q13 39 47 39z" />
    <glyph glyph-name="kcommaaccent" unicode="&#x137;" horiz-adv-x="1015" 
d="M1118 1106q0 -15 -12 -27l-531 -487l371 -545q6 -9 6 -18q0 -11 -7.5 -20t-20.5 -9h-119q-35 0 -55 31l-336 504l-86 -494q-7 -41 -39 -41h-109q-18 0 -27 12.5t-6 28.5l256 1458q3 17 18 29t32 12h98q41 0 33 -41l-148 -831l471 440q18 18 45 18h140q26 0 26 -20z
M459 -100h141q21 0 18 -23l-4 -16l-151 -223q-14 -23 -23.5 -31t-31.5 -8h-84q-7 0 -12.5 4t-4.5 12q1 1 2.5 6t3.5 10l99 230q13 39 47 39z" />
    <glyph glyph-name="kgreenlandic" unicode="&#x138;" horiz-adv-x="1015" 
d="M1118 1106q0 -15 -12 -27l-531 -487l371 -545q6 -9 6 -18q0 -11 -7.5 -20t-20.5 -9h-119q-35 0 -55 31l-336 504l-86 -494q-7 -41 -39 -41h-109q-15 0 -24 9.5t-9 23.5v8l183 1044q3 17 17.5 29t31.5 12h98q15 0 24 -9t9 -23v-9l-74 -417l471 440q18 18 45 18h140
q26 0 26 -20z" />
    <glyph glyph-name="Lacute" unicode="&#x139;" horiz-adv-x="1052" 
d="M1036 129v-6l-14 -90q-1 -10 -3 -15t-7.5 -8.5t-16.5 -5.5q-124 -18 -401 -18q-83 0 -145.5 12t-117 42.5t-83.5 89.5t-29 146q0 61 10 115l191 1090q2 13 6 21t14.5 14t28.5 6h104q18 0 27 -12.5t6 -28.5l-194 -1114q-11 -60 -11 -91q0 -69 48 -95.5t176 -26.5h385
q12 0 19 -7t7 -18zM1128 1933q0 -8 -10 -18l-278 -258q-5 -4 -12 -10.5t-10 -9t-8 -6t-10 -4.5t-12 -1h-110q-16 0 -16 12q0 11 12 23l246 254l7.5 7.5l7 7l5.5 5.5t6 4.5t5.5 2.5t6 2.5t6.5 1t9 0.5h135q20 0 20 -13z" />
    <glyph glyph-name="lacute" unicode="&#x13a;" horiz-adv-x="499" 
d="M469 1540h106q37 0 29 -39l-256 -1460q-3 -20 -12.5 -30.5t-32.5 -10.5h-106q-16 0 -24 12.5t-5 28.5l256 1460q7 39 45 39zM864 1933q0 -8 -10 -18l-279 -258q-5 -4 -14 -12.5t-12 -11t-10 -5t-15 -2.5h-110q-17 0 -17 12q0 10 13 23l245 254q15 15 19.5 19t13.5 8t21 4
h135q20 0 20 -13z" />
    <glyph glyph-name="Lcommaaccent" unicode="&#x13b;" horiz-adv-x="1052" 
d="M1036 129v-6l-14 -90q-1 -10 -3 -15t-7.5 -8.5t-16.5 -5.5q-124 -18 -401 -18q-83 0 -145.5 12t-117 42.5t-83.5 89.5t-29 146q0 61 10 115l191 1090q2 13 6 21t14.5 14t28.5 6h104q18 0 27 -12.5t6 -28.5l-194 -1114q-11 -60 -11 -91q0 -69 48 -95.5t176 -26.5h385
q12 0 19 -7t7 -18zM504 -100h141q22 0 19 -23l-5 -16l-151 -223q-14 -23 -23.5 -31t-31.5 -8h-84q-7 0 -12.5 4t-4.5 12q1 1 2.5 6t3.5 10l99 230q13 39 47 39z" />
    <glyph glyph-name="lcommaaccent" unicode="&#x13c;" horiz-adv-x="499" 
d="M469 1540h106q37 0 29 -39l-256 -1460q-3 -20 -12.5 -30.5t-32.5 -10.5h-106q-16 0 -24 12.5t-5 28.5l256 1460q7 39 45 39zM160 -100h141q21 0 18 -23l-4 -16l-151 -223q-14 -23 -23.5 -31t-31.5 -8h-84q-7 0 -12.5 4t-4.5 12q1 1 2.5 6t3.5 10l99 230q13 39 47 39z" />
    <glyph glyph-name="Lcaron" unicode="&#x13d;" horiz-adv-x="1052" 
d="M1036 129v-6l-14 -90q-1 -10 -3 -15t-7.5 -8.5t-16.5 -5.5q-124 -18 -401 -18q-83 0 -145.5 12t-117 42.5t-83.5 89.5t-29 146q0 61 10 115l191 1090q2 13 6 21t14.5 14t28.5 6h104q18 0 27 -12.5t6 -28.5l-194 -1114q-11 -60 -11 -91q0 -69 48 -95.5t176 -26.5h385
q12 0 19 -7t7 -18zM1083 1499q0 -2 -2.5 -8t-3.5 -8l-223 -387q-12 -22 -20.5 -30.5t-24.5 -8.5h-84q-23 0 -20 24q1 2 2 7.5t2 7.5l186 387q17 39 47 39h119q25 0 22 -23z" />
    <glyph glyph-name="lcaron" unicode="&#x13e;" horiz-adv-x="696" 
d="M604 1509v-8l-256 -1460q-3 -18 -15.5 -29.5t-29.5 -11.5h-106q-13 0 -21 9.5t-8 23.5v8l256 1460q3 17 15.5 28t29.5 11h106q13 0 21 -8.5t8 -22.5zM961 1518q0 -2 -5 -17l-153 -387q-8 -22 -15.5 -30.5t-23.5 -8.5h-84q-25 0 -25 25q0 10 2 14l117 387q6 21 15 30t26 9
h119q27 0 27 -22z" />
    <glyph glyph-name="Ldot" unicode="&#x13f;" horiz-adv-x="1052" 
d="M1036 129v-6l-14 -90q-1 -10 -3 -15t-7.5 -8.5t-16.5 -5.5q-124 -18 -401 -18q-83 0 -145.5 12t-117 42.5t-83.5 89.5t-29 146q0 61 10 115l191 1090q2 13 6 21t14.5 14t28.5 6h104q18 0 27 -12.5t6 -28.5l-194 -1114q-11 -60 -11 -91q0 -69 48 -95.5t176 -26.5h385
q12 0 19 -7t7 -18zM963 842v-6l-31 -172q-3 -17 -17.5 -29t-29.5 -12h-99q-14 0 -23 9.5t-9 24.5v7l30 172q3 15 17.5 26.5t29.5 11.5h99q14 0 23.5 -9.5t9.5 -22.5z" />
    <glyph glyph-name="ldot" unicode="&#x140;" horiz-adv-x="794" 
d="M604 1509v-8l-256 -1460q-3 -18 -15.5 -29.5t-29.5 -11.5h-106q-13 0 -21 9.5t-8 23.5v8l256 1460q3 17 15.5 28t29.5 11h106q13 0 21 -8.5t8 -22.5zM862 842v-6l-31 -172q-3 -17 -17.5 -29t-29.5 -12h-98q-14 0 -23.5 9.5t-9.5 24.5v7l31 172q3 15 17.5 26.5t29.5 11.5
h98q14 0 23.5 -9.5t9.5 -22.5z" />
    <glyph glyph-name="Lslash" unicode="&#x141;" horiz-adv-x="1052" 
d="M1038 135v-6q-3 -16 -8 -47.5t-8 -48.5q0 -4 -10 -19q-4 -6 -17 -10q-4 -1 -13.5 -2t-14.5 -2q-123 -14 -373 -14q-184 0 -280.5 72.5t-96.5 217.5q0 47 8 91q7 40 20.5 119.5t20.5 119.5q-75 -75 -112 -114l-39 -39q-7 -7 -15 -11q-4 -2 -10 -2t-8 2q-4 4 -4 9v2
q4 21 11 64t11 65q4 28 23 47q30 31 90 91.5t90 90.5q2 9 5 27.5t5 27.5q17 102 53 307t54 308q3 17 17.5 29t31.5 12h104q14 0 25 -11q8 -8 8 -24v-6q-14 -74 -39.5 -221.5t-38.5 -221.5q28 29 84.5 86.5t85.5 85.5q7 7 15 11t10 4q8 0 10 -2t2 -11v-2q-4 -23 -11 -66.5
t-11 -66.5q-3 -25 -25 -47q-33 -33 -97 -98t-97 -98q-2 -10 -5.5 -30t-5.5 -28q-29 -160 -71 -409q-11 -60 -11 -86q0 -70 48.5 -98.5t175.5 -28.5h395q18 0 18 -19z" />
    <glyph glyph-name="lslash" unicode="&#x142;" horiz-adv-x="499" 
d="M721 1204v-2q-4 -22 -12.5 -66.5t-12.5 -66.5q-2 -17 -18 -33q-31 -32 -94 -96.5t-95 -95.5q-24 -134 -71 -401.5t-70 -401.5q-3 -18 -15.5 -29.5t-29.5 -11.5h-106q-13 0 -21 9.5t-8 23.5v8q17 98 51 291t51 291l-135 -136q-6 -6 -17.5 -17t-17.5 -17t-12 -9
q-4 -2 -10 -2t-10.5 4.5t-4.5 10.5v2q4 20 11.5 61t11.5 62q4 28 23 47q33 33 98 99t98 99q2 9 5 28t5 28q83 467 109 618q3 16 15.5 27.5t29.5 11.5h106q13 0 21 -8.5t8 -22.5v-8q-14 -76 -40.5 -226t-39.5 -226q27 27 80.5 81t79.5 80q11 11 21 11q16 0 16 -17z" />
    <glyph glyph-name="Nacute" unicode="&#x143;" horiz-adv-x="1392" 
d="M1313 1483l-209 -1188q-3 -16 -6 -16t-8 16l-426 1186q-8 25 -21.5 33t-54.5 8h-101q-58 0 -69 -58l-254 -1439q-6 -25 20 -25h119q15 0 27.5 12t15.5 27l211 1196q0 6 4 6l4 -6l430 -1202q7 -17 18.5 -25t41.5 -8h119q36 0 50 15t19 44l252 1424v8q0 13 -8.5 22t-22.5 9
h-108q-35 0 -43 -39zM1292 1933q0 -8 -10 -18l-278 -258q-5 -4 -12 -10.5t-10 -9t-8 -6t-10 -4.5t-12 -1h-110q-17 0 -17 12q0 10 13 23l245 254q15 15 19.5 19t13.5 8t21 4h135q20 0 20 -13z" />
    <glyph glyph-name="nacute" unicode="&#x144;" horiz-adv-x="1140" 
d="M1139 825q0 -46 -11 -110l-118 -674q-3 -17 -17.5 -29t-31.5 -12h-99q-18 0 -27 12.5t-6 28.5l119 674q10 65 10 112q0 79 -41.5 117.5t-148.5 38.5q-121 0 -289 -78l-151 -864q-3 -16 -17.5 -28.5t-31.5 -12.5h-101q-18 0 -26 13t-5 28l183 1044q7 41 53 41h86
q24 0 33 -9.5t6 -31.5l-6 -43q88 49 161 74t168 25q156 0 232 -87.5t76 -228.5zM1096 1583q0 -7 -11 -18l-278 -258q-5 -4 -14 -12.5t-12 -11t-10 -5t-15 -2.5h-111q-16 0 -16 12q0 11 12 23l246 254q25 25 36 28q6 2 17 2h135q21 0 21 -12z" />
    <glyph glyph-name="Ncommaaccent" unicode="&#x145;" horiz-adv-x="1392" 
d="M1104 295l209 1188q8 39 43 39h108q14 0 22.5 -9t8.5 -22v-8l-252 -1424q-5 -29 -19 -44t-50 -15h-119q-30 0 -41.5 8t-18.5 25l-430 1202l-4 6q-4 0 -4 -6l-211 -1196q-3 -15 -15.5 -27t-27.5 -12h-119q-26 0 -20 25l254 1439q11 58 69 58h101q41 0 54.5 -8t21.5 -33
l426 -1186q5 -16 8 -16t6 16zM647 -100h141q22 0 19 -23l-4 -16l-152 -223q-14 -23 -23.5 -31t-31.5 -8h-84q-19 0 -16 16q1 1 2.5 6t3.5 10l98 230q13 39 47 39z" />
    <glyph glyph-name="ncommaaccent" unicode="&#x146;" horiz-adv-x="1140" 
d="M1139 825q0 -46 -11 -110l-118 -674q-3 -17 -17.5 -29t-31.5 -12h-99q-18 0 -27 12.5t-6 28.5l119 674q10 65 10 112q0 79 -41.5 117.5t-148.5 38.5q-121 0 -289 -78l-151 -864q-3 -16 -17.5 -28.5t-31.5 -12.5h-101q-18 0 -26 13t-5 28l183 1044q7 41 53 41h86
q24 0 33 -9.5t6 -31.5l-6 -43q88 49 161 74t168 25q156 0 232 -87.5t76 -228.5zM498 -100h141q21 0 18 -23l-4 -16l-151 -223q-13 -23 -23.5 -31t-32.5 -8h-84q-19 0 -16 16q1 1 2.5 6t3.5 10l99 230q13 39 47 39z" />
    <glyph glyph-name="Ncaron" unicode="&#x147;" horiz-adv-x="1392" 
d="M1313 1483l-209 -1188q-3 -16 -6 -16t-8 16l-426 1186q-8 25 -21.5 33t-54.5 8h-101q-58 0 -69 -58l-254 -1439q-6 -25 20 -25h119q15 0 27.5 12t15.5 27l211 1196q0 6 4 6l4 -6l430 -1202q7 -17 18.5 -25t41.5 -8h119q36 0 50 15t19 44l252 1424v8q0 13 -8.5 22t-22.5 9
h-108q-35 0 -43 -39zM1360 1933q0 -10 -12 -22l-244 -254q-14 -14 -19.5 -19t-14.5 -8.5t-21 -3.5h-175q-18 0 -26 6t-19 25l-155 254q-4 6 -4 16q0 19 20 19h96q5 0 9 -0.5t7.5 -2.5t5.5 -3.5t5.5 -5.5t4.5 -5.5t5.5 -7.5t5.5 -8l136 -197l202 197l9 9t8.5 9t7 6t8.5 5
t8 2.5t11 1.5h124q17 0 17 -13z" />
    <glyph glyph-name="ncaron" unicode="&#x148;" horiz-adv-x="1140" 
d="M1139 825q0 -46 -11 -110l-118 -674q-3 -17 -17.5 -29t-31.5 -12h-99q-18 0 -27 12.5t-6 28.5l119 674q10 65 10 112q0 79 -41.5 117.5t-148.5 38.5q-121 0 -289 -78l-151 -864q-3 -16 -17.5 -28.5t-31.5 -12.5h-101q-18 0 -26 13t-5 28l183 1044q7 41 53 41h86
q24 0 33 -9.5t6 -31.5l-6 -43q88 49 161 74t168 25q156 0 232 -87.5t76 -228.5zM1182 1583q0 -9 -13 -22l-243 -254q-19 -19 -29 -25t-27 -6h-174q-18 0 -26 6t-19 25l-155 254q-4 6 -4 16q0 18 20 18h96q11 0 19 -5t11 -8.5t13 -18.5l135 -197l203 197q2 2 8.5 9t8.5 8.5
t7 5.5t8 5.5t8 2.5t11 1h125q17 0 17 -12z" />
    <glyph glyph-name="napostrophe" unicode="&#x149;" horiz-adv-x="1368" 
d="M537 1524q0 -9 -7 -23l-192 -387q-11 -22 -20.5 -30.5t-24.5 -8.5h-78q-16 0 -16 15q0 9 6 24l143 387q13 39 49 39h121q19 0 19 -16zM1366 825q0 -52 -10 -110l-119 -674q-7 -41 -49 -41h-98q-18 0 -27 12.5t-6 28.5l119 674q10 65 10 112q0 79 -42 117.5t-149 38.5
q-120 0 -288 -78l-152 -864q-8 -41 -49 -41h-100q-18 0 -26 13t-5 28l182 1044q7 41 47 41h101q37 0 30 -41l-6 -43q88 49 161.5 74t168.5 25q156 0 231.5 -87t75.5 -229z" />
    <glyph glyph-name="Eng" unicode="&#x14a;" horiz-adv-x="1392" 
d="M1495 1491v-8q-272 -1537 -276 -1559q-27 -150 -114.5 -221.5t-254.5 -71.5q-31 0 -63.5 6t-41.5 11q-8 5 -8 16v6l13 76q6 35 47 35h80q78 0 109.5 32t45.5 111l12 76q-39 3 -49 33l-430 1202l-4 6q-4 0 -4 -6l-211 -1196q-3 -15 -15.5 -27t-27.5 -12h-106q-33 0 -33 18
v7l254 1439q4 25 24 41.5t45 16.5h101q41 0 54.5 -8t21.5 -33l430 -1196l2 -6h4l2 6l211 1198q3 15 15.5 27t27.5 12h108q14 0 22.5 -9t8.5 -22z" />
    <glyph glyph-name="eng" unicode="&#x14b;" horiz-adv-x="1140" 
d="M799 -131l149 846q10 65 10 112q0 79 -41.5 117.5t-148.5 38.5q-121 0 -289 -78l-151 -864q-3 -16 -17.5 -28.5t-31.5 -12.5h-101q-14 0 -22.5 10t-8.5 23v8l183 1044q3 17 16.5 29t30.5 12h100q14 0 22.5 -9.5t8.5 -22.5v-9l-6 -43q88 49 161 74t168 25q156 0 232 -87.5
t76 -228.5q0 -46 -11 -110l-149 -846q-26 -152 -101 -212t-206 -60q-57 0 -109 8q-31 5 -31 24v9l13 75q6 29 49 29h86q58 0 81.5 25t37.5 102z" />
    <glyph glyph-name="Omacron" unicode="&#x14c;" horiz-adv-x="1353" 
d="M1405 1065q0 -74 -16 -172l-48 -264q-114 -643 -665 -643q-207 0 -333 119t-126 352q0 74 16 172l48 264q31 177 94 304t152 200t192 106t229 33q209 0 333 -122t124 -349zM1217 1063q0 161 -75.5 233t-221.5 72q-174 0 -291 -117t-160 -358l-47 -264q-14 -80 -14 -156
q0 -169 75.5 -244t221.5 -75q173 0 289 117t159 358l47 264q17 89 17 170zM1346 1790v-6l-13 -70q-6 -35 -47 -35h-590q-15 0 -24.5 8t-9.5 21v6l12 70q6 35 47 35h590q15 0 25 -8t10 -21z" />
    <glyph glyph-name="omacron" unicode="&#x14d;" horiz-adv-x="1116" 
d="M1137 756q0 -44 -11 -115l-26 -156q-85 -499 -545 -499q-180 0 -278.5 106t-98.5 281q0 47 10 112l27 156q86 500 543 500q184 0 281.5 -105t97.5 -280zM956 758q0 113 -53.5 169t-171.5 56q-132 0 -220.5 -92t-115.5 -250l-26 -156q-13 -73 -13 -120q0 -111 54 -166.5
t172 -55.5q132 0 221.5 94t116.5 248l26 156q10 54 10 117zM1163 1440v-6l-12 -70q-6 -35 -47 -35h-590q-15 0 -25 8t-10 21v6l13 70q6 34 47 34h589q35 0 35 -28z" />
    <glyph glyph-name="Obreve" unicode="&#x14e;" horiz-adv-x="1353" 
d="M1405 1065q0 -74 -16 -172l-48 -264q-114 -643 -665 -643q-207 0 -333 119t-126 352q0 74 16 172l48 264q31 177 94 304t152 200t192 106t229 33q209 0 333 -122t124 -349zM1217 1063q0 161 -75.5 233t-221.5 72q-174 0 -291 -117t-160 -358l-47 -264q-14 -80 -14 -156
q0 -169 75.5 -244t221.5 -75q173 0 289 117t159 358l47 264q17 89 17 170zM1395 1929q0 -10 -2 -16q-29 -140 -131.5 -214.5t-231.5 -74.5q-130 0 -217.5 73.5t-87.5 215.5q0 35 29 35h71q16 0 21.5 -7.5t5.5 -25.5q0 -164 178 -164q92 0 151 43t81 121q5 19 11.5 26t22.5 7
h80q19 0 19 -19z" />
    <glyph glyph-name="obreve" unicode="&#x14f;" horiz-adv-x="1116" 
d="M1137 756q0 -44 -11 -115l-26 -156q-85 -499 -545 -499q-180 0 -278.5 106t-98.5 281q0 47 10 112l27 156q86 500 543 500q184 0 281.5 -105t97.5 -280zM956 758q0 113 -53.5 169t-171.5 56q-132 0 -220.5 -92t-115.5 -250l-26 -156q-13 -73 -13 -120q0 -111 54 -166.5
t172 -55.5q132 0 221.5 94t116.5 248l26 156q10 54 10 117zM1186 1577q0 -10 -2 -16q-29 -140 -131.5 -214.5t-231.5 -74.5q-130 0 -217.5 73.5t-87.5 215.5q0 34 29 34h71q17 0 22 -7t5 -25q0 -164 178 -164q92 0 151 43t81 121q5 19 11.5 25.5t22.5 6.5h80q19 0 19 -18z
" />
    <glyph glyph-name="Ohungarumlaut" unicode="&#x150;" horiz-adv-x="1353" 
d="M1405 1065q0 -74 -16 -172l-48 -264q-114 -643 -665 -643q-207 0 -333 119t-126 352q0 74 16 172l48 264q31 177 94 304t152 200t192 106t229 33q209 0 333 -122t124 -349zM1217 1063q0 161 -75.5 233t-221.5 72q-174 0 -291 -117t-160 -358l-47 -264q-14 -80 -14 -156
q0 -169 75.5 -244t221.5 -75q173 0 289 117t159 358l47 264q17 89 17 170zM1485 1933q0 -8 -10 -18l-277 -258q-5 -4 -14 -12.5t-12 -11t-10 -5t-15 -2.5h-111q-16 0 -16 12q0 11 12 23l244 254q14 14 19.5 19t14.5 8.5t21 3.5h133q21 0 21 -13zM1126 1933q0 -8 -10 -18
l-276 -258q-5 -4 -12 -10.5t-10 -9t-8 -6t-10 -4.5t-12 -1h-110q-16 0 -16 12q0 11 12 23l244 254q14 14 19.5 19t14.5 8.5t21 3.5h133q20 0 20 -13z" />
    <glyph glyph-name="ohungarumlaut" unicode="&#x151;" horiz-adv-x="1116" 
d="M1137 756q0 -44 -11 -115l-26 -156q-85 -499 -545 -499q-180 0 -278.5 106t-98.5 281q0 47 10 112l27 156q86 500 543 500q184 0 281.5 -105t97.5 -280zM956 758q0 113 -53.5 169t-171.5 56q-132 0 -220.5 -92t-115.5 -250l-26 -156q-13 -73 -13 -120q0 -111 54 -166.5
t172 -55.5q132 0 221.5 94t116.5 248l26 156q10 54 10 117zM1305 1583q0 -7 -11 -18l-276 -258q-5 -4 -14 -12.5t-12 -11t-10 -5t-15 -2.5h-111q-16 0 -16 12q0 11 12 23l244 254q19 19 28 24.5t27 5.5h133q21 0 21 -12zM946 1583q0 -8 -10 -18l-277 -258q-5 -4 -14 -12.5
t-12 -11t-10 -5t-15 -2.5h-110q-17 0 -17 12q0 10 13 23l243 254q19 19 28.5 24.5t27.5 5.5h133q20 0 20 -12z" />
    <glyph glyph-name="OE" unicode="&#x152;" horiz-adv-x="2013" 
d="M2163 1495v-6l-17 -96q-4 -25 -26 -25h-396q-108 0 -166.5 -22t-84 -64.5t-39.5 -126.5l-50 -285h629q15 0 24 -9.5t9 -24.5v-7l-12 -77q-3 -17 -17.5 -29t-31.5 -12h-629l-62 -346q-8 -44 -8 -84q0 -71 48.5 -100t174.5 -29h396q18 0 18 -19v-6l-16 -96q-2 -9 -10 -18.5
t-17 -10.5q-124 -18 -401 -18q-147 0 -230.5 40t-124.5 130q-91 -88 -195.5 -128t-252.5 -40q-207 0 -333 122.5t-126 352.5q0 70 16 168l48 264q32 175 94 301t150 200t192 108t231 34q246 0 367 -168q70 94 171.5 131t264.5 37q282 0 397 -18q15 -3 15 -23zM1221 1061
q0 307 -301 307q-367 0 -451 -475l-47 -264q-16 -84 -16 -170q0 -162 76 -233.5t223 -71.5q366 0 450 473l49 274q17 93 17 160z" />
    <glyph glyph-name="oe" unicode="&#x153;" horiz-adv-x="1845" 
d="M1864 756q0 -17 -2.5 -36.5t-7.5 -44.5t-7 -38l-14 -86q-7 -45 -45 -45h-686q-19 -101 -19 -144q0 -111 61.5 -168t196.5 -57q156 0 355 29h10q29 0 29 -23v-6l-13 -69q-3 -23 -13.5 -33.5t-35.5 -14.5q-179 -34 -358 -34q-137 0 -224.5 39t-142.5 133
q-74 -87 -168.5 -129.5t-220.5 -42.5q-182 0 -279.5 105.5t-97.5 277.5q0 44 11 116l26 156q84 500 543 500q84 0 146 -21.5t103 -58t79 -96.5q143 176 395 176q182 0 280.5 -107.5t98.5 -277.5zM1688 766q0 109 -56.5 165t-165.5 56q-75 0 -134.5 -27.5t-99 -77.5
t-64.5 -108.5t-40 -130.5h545l2 10q13 67 13 113zM963 745q0 114 -56.5 176t-171.5 62q-140 0 -224.5 -91t-111.5 -251l-26 -156q-11 -59 -11 -116q0 -226 224 -226q141 0 226 90t114 252l26 156q11 68 11 104z" />
    <glyph glyph-name="Racute" unicode="&#x154;" horiz-adv-x="1280" 
d="M1341 1171q0 -35 -6 -75l-2 -15q-26 -175 -129.5 -279t-265.5 -134l266 -629q4 -8 4 -19q0 -20 -22 -20h-142q-20 0 -26.5 4t-13.5 23l-259 610h-63q-72 0 -225 6l-105 -602q-8 -41 -45 -41h-110q-35 0 -29 41l252 1434q5 22 17.5 32t39.5 13q144 16 363 16
q151 0 261 -37.5t175 -120.5t65 -207zM1157 1163q0 117 -80.5 161t-265.5 44q-178 0 -227 -6l-99 -561q102 -4 226 -4q397 0 438 284l2 15q6 38 6 67zM1188 1933q0 -8 -10 -18l-279 -258q-5 -4 -14 -12.5t-12 -11t-10 -5t-15 -2.5h-111q-16 0 -16 12q0 11 12 23l246 254
l7.5 7.5l7 7l5.5 5.5t6 4.5t5.5 2.5t6 2.5t6.5 1t9 0.5h135q21 0 21 -13z" />
    <glyph glyph-name="racute" unicode="&#x155;" horiz-adv-x="700" 
d="M477 899l-149 -858q-3 -17 -17.5 -29t-31.5 -12h-101q-17 0 -25.5 12.5t-5.5 28.5l183 1044q3 17 16.5 29t30.5 12h96q18 0 26 -12.5t5 -28.5l-8 -47q77 59 149.5 81t153.5 22h4q25 0 32.5 -9t4.5 -28l-15 -86q-6 -35 -49 -35h-6q-88 0 -153 -18.5t-140 -65.5zM913 1583
q0 -8 -10 -18l-278 -258q-5 -4 -12 -10.5t-10 -9t-8 -6t-10 -4.5t-12 -1h-110q-17 0 -17 12q0 10 13 23l246 254q25 25 36 28q6 2 17 2h135q20 0 20 -12z" />
    <glyph glyph-name="Rcommaaccent" unicode="&#x156;" horiz-adv-x="1280" 
d="M1341 1171q0 -35 -6 -75l-2 -15q-26 -175 -129.5 -279t-265.5 -134l266 -629q4 -8 4 -19q0 -20 -22 -20h-142q-20 0 -26.5 4t-13.5 23l-259 610h-63q-72 0 -225 6l-105 -602q-8 -41 -45 -41h-110q-35 0 -29 41l252 1434q5 22 17.5 32t39.5 13q144 16 363 16
q151 0 261 -37.5t175 -120.5t65 -207zM1157 1163q0 117 -80.5 161t-265.5 44q-178 0 -227 -6l-99 -561q102 -4 226 -4q397 0 438 284l2 15q6 38 6 67zM590 -100h141q22 0 19 -23l-5 -16l-151 -223q-14 -23 -23.5 -31t-31.5 -8h-84q-7 0 -12.5 4t-4.5 12q1 1 2.5 6t3.5 10
l99 230q13 39 47 39z" />
    <glyph glyph-name="rcommaaccent" unicode="&#x157;" horiz-adv-x="700" 
d="M477 899l-149 -858q-3 -17 -17.5 -29t-31.5 -12h-101q-17 0 -25.5 12.5t-5.5 28.5l183 1044q3 17 16.5 29t30.5 12h96q18 0 26 -12.5t5 -28.5l-8 -47q77 59 149.5 81t153.5 22h4q25 0 32.5 -9t4.5 -28l-15 -86q-6 -35 -49 -35h-6q-88 0 -153 -18.5t-140 -65.5zM299 -100
h141q22 0 19 -23l-4 -16l-152 -223q-14 -23 -23.5 -31t-31.5 -8h-84q-7 0 -12.5 4t-4.5 12q1 1 3 6l4 10l98 230q13 39 47 39z" />
    <glyph glyph-name="Rcaron" unicode="&#x158;" horiz-adv-x="1280" 
d="M1341 1171q0 -35 -6 -75l-2 -15q-26 -175 -129.5 -279t-265.5 -134l266 -629q4 -8 4 -19q0 -20 -22 -20h-142q-20 0 -26.5 4t-13.5 23l-259 610h-63q-72 0 -225 6l-105 -602q-8 -41 -45 -41h-110q-35 0 -29 41l252 1434q5 22 17.5 32t39.5 13q144 16 363 16
q151 0 261 -37.5t175 -120.5t65 -207zM1157 1163q0 117 -80.5 161t-265.5 44q-178 0 -227 -6l-99 -561q102 -4 226 -4q397 0 438 284l2 15q6 38 6 67zM1276 1933q0 -10 -12 -22l-244 -254q-14 -14 -19.5 -19t-14.5 -8.5t-21 -3.5h-174q-18 0 -26.5 6t-19.5 25l-155 254
q-4 6 -4 16q0 19 20 19h96q5 0 9 -0.5t7.5 -2.5t5.5 -3.5t5.5 -5.5t4.5 -5.5t5.5 -7.5t5.5 -8l136 -197l202 197l9 9t8.5 9t7 6t8.5 5t8 2.5t11 1.5h125q16 0 16 -13z" />
    <glyph glyph-name="rcaron" unicode="&#x159;" horiz-adv-x="700" 
d="M477 899l-149 -858q-3 -17 -17.5 -29t-31.5 -12h-101q-17 0 -25.5 12.5t-5.5 28.5l183 1044q3 17 16.5 29t30.5 12h96q18 0 26 -12.5t5 -28.5l-8 -47q77 59 149.5 81t153.5 22h4q25 0 32.5 -9t4.5 -28l-15 -86q-6 -35 -49 -35h-6q-88 0 -153 -18.5t-140 -65.5zM1028 1583
q0 -10 -12 -22l-244 -254q-14 -14 -19.5 -19t-14.5 -8.5t-21 -3.5h-174q-18 0 -26 6t-19 25l-156 254q-4 6 -4 16q0 18 20 18h97q11 0 19 -5t11 -8.5t13 -18.5l135 -197l203 197q2 2 8.5 9t8.5 8.5t7 5.5t8 5.5t8 2.5t11 1h125q16 0 16 -12z" />
    <glyph glyph-name="Sacute" unicode="&#x15a;" horiz-adv-x="1126" 
d="M831 1536q89 0 206.5 -8t176.5 -17q21 -3 26.5 -9.5t2.5 -24.5l-14 -88q-3 -21 -11.5 -28.5t-33.5 -4.5q-180 12 -353 12q-70 0 -124 -8t-106 -28.5t-80.5 -64.5t-28.5 -108q0 -71 38.5 -119t143.5 -118l168 -113q141 -94 199.5 -182.5t58.5 -202.5q0 -141 -75.5 -241
t-202.5 -148.5t-294 -48.5q-172 0 -348 28q-20 3 -28 11t-5 26l15 82q3 22 12 29t35 4q138 -12 336 -12q358 0 358 270q0 70 -41 119t-155 127l-179 121q-223 151 -223 358q0 83 28 149.5t76.5 110t116 73t143.5 42t162 12.5zM1171 1933q0 -8 -10 -18l-278 -258
q-5 -4 -12 -10.5t-10 -9t-8 -6t-10 -4.5t-12 -1h-110q-16 0 -16 12q0 11 12 23l246 254l7.5 7.5l7 7l5.5 5.5t6 4.5t5.5 2.5t6 2.5t6.5 1t9 0.5h135q20 0 20 -13z" />
    <glyph glyph-name="sacute" unicode="&#x15b;" horiz-adv-x="954" 
d="M674 1141q110 0 168.5 -6t132.5 -21q23 -4 28.5 -11.5t2.5 -29.5l-11 -67q-6 -40 -47 -35q-140 16 -301 16q-39 0 -73.5 -6.5t-68.5 -21t-53.5 -45t-19.5 -72.5q0 -36 27.5 -67.5t83.5 -67.5l182 -121q103 -69 142.5 -130t39.5 -145q0 -87 -36.5 -152t-100 -101.5
t-139 -54t-164.5 -17.5q-203 0 -320 30q-16 3 -26.5 14t-7.5 27l12 72q5 21 15 27.5t36 3.5q184 -23 318 -23q101 0 166 41.5t65 132.5q0 37 -25.5 69.5t-93.5 76.5l-184 121q-87 57 -129.5 121t-42.5 145q0 66 24.5 118t65 85t96.5 54.5t114.5 30.5t123.5 9zM985 1583
q0 -8 -10 -18l-279 -258q-5 -4 -14 -12.5t-12 -11t-10 -5t-15 -2.5h-110q-17 0 -17 12q0 11 12 23l246 254q25 25 36 28q6 2 17 2h136q20 0 20 -12z" />
    <glyph glyph-name="Scircumflex" unicode="&#x15c;" horiz-adv-x="1126" 
d="M831 1536q89 0 206.5 -8t176.5 -17q21 -3 26.5 -9.5t2.5 -24.5l-14 -88q-3 -21 -11.5 -28.5t-33.5 -4.5q-180 12 -353 12q-70 0 -124 -8t-106 -28.5t-80.5 -64.5t-28.5 -108q0 -71 38.5 -119t143.5 -118l168 -113q141 -94 199.5 -182.5t58.5 -202.5q0 -141 -75.5 -241
t-202.5 -148.5t-294 -48.5q-172 0 -348 28q-20 3 -28 11t-5 26l15 82q3 22 12 29t35 4q138 -12 336 -12q358 0 358 270q0 70 -41 119t-155 127l-179 121q-223 151 -223 358q0 83 28 149.5t76.5 110t116 73t143.5 42t162 12.5zM1169 1640q0 -18 -20 -18h-100q-16 0 -23 6
t-20 25l-132 198l-206 -198l-18 -18t-13.5 -8.5t-20.5 -4.5h-112q-17 0 -17 12q0 10 13 23l241 254q15 15 19.5 19t13.5 8t21 4h174q18 0 27 -6.5t20 -24.5l149 -254q4 -6 4 -17z" />
    <glyph glyph-name="scircumflex" unicode="&#x15d;" horiz-adv-x="954" 
d="M674 1141q110 0 168.5 -6t132.5 -21q23 -4 28.5 -11.5t2.5 -29.5l-11 -67q-6 -40 -47 -35q-140 16 -301 16q-39 0 -73.5 -6.5t-68.5 -21t-53.5 -45t-19.5 -72.5q0 -36 27.5 -67.5t83.5 -67.5l182 -121q103 -69 142.5 -130t39.5 -145q0 -87 -36.5 -152t-100 -101.5
t-139 -54t-164.5 -17.5q-203 0 -320 30q-16 3 -26.5 14t-7.5 27l12 72q5 21 15 27.5t36 3.5q184 -23 318 -23q101 0 166 41.5t65 132.5q0 37 -25.5 69.5t-93.5 76.5l-184 121q-87 57 -129.5 121t-42.5 145q0 66 24.5 118t65 85t96.5 54.5t114.5 30.5t123.5 9zM1010 1294
q0 -18 -21 -18h-100q-16 0 -23 6t-20 25l-131 198l-207 -198l-6 -6l-6 -6l-5 -5t-5 -4.5t-5 -3.5t-5 -2.5t-5.5 -1.5t-6.5 -1.5t-7 -0.5h-113q-16 0 -16 12q0 11 12 23l242 254q25 25 36 28q6 2 17 2h174q18 0 27 -6t20 -24l150 -254q4 -6 4 -17z" />
    <glyph glyph-name="uni015E" unicode="&#x15e;" horiz-adv-x="1126" 
d="M831 1536q89 0 206.5 -8t176.5 -17q21 -3 26.5 -9.5t2.5 -24.5l-14 -88q-3 -21 -11.5 -28.5t-33.5 -4.5q-180 12 -353 12q-70 0 -124 -8t-106 -28.5t-80.5 -64.5t-28.5 -108q0 -71 38.5 -119t143.5 -118l168 -113q141 -94 199.5 -182.5t58.5 -202.5q0 -141 -75.5 -241
t-202.5 -148.5t-294 -48.5q-172 0 -348 28q-20 3 -28 11t-5 26l15 82q3 22 12 29t35 4q138 -12 336 -12q358 0 358 270q0 70 -41 119t-155 127l-179 121q-223 151 -223 358q0 83 28 149.5t76.5 110t116 73t143.5 42t162 12.5zM666 -78q0 -7 -11 -18l-278 -258
q-5 -4 -14 -12.5t-12 -11t-10 -5t-15 -2.5h-111q-16 0 -16 12q0 11 12 23l244 254q19 19 28 24.5t27 5.5h135q21 0 21 -12z" />
    <glyph glyph-name="uni015F" unicode="&#x15f;" horiz-adv-x="954" 
d="M674 1141q110 0 168.5 -6t132.5 -21q23 -4 28.5 -11.5t2.5 -29.5l-11 -67q-6 -40 -47 -35q-140 16 -301 16q-39 0 -73.5 -6.5t-68.5 -21t-53.5 -45t-19.5 -72.5q0 -36 27.5 -67.5t83.5 -67.5l182 -121q103 -69 142.5 -130t39.5 -145q0 -87 -36.5 -152t-100 -101.5
t-139 -54t-164.5 -17.5q-203 0 -320 30q-16 3 -26.5 14t-7.5 27l12 72q5 21 15 27.5t36 3.5q184 -23 318 -23q101 0 166 41.5t65 132.5q0 37 -25.5 69.5t-93.5 76.5l-184 121q-87 57 -129.5 121t-42.5 145q0 66 24.5 118t65 85t96.5 54.5t114.5 30.5t123.5 9zM551 -78
q0 -8 -10 -18l-279 -258q-5 -4 -14 -12.5t-12 -11t-10 -5t-15 -2.5h-111q-16 0 -16 12q0 11 12 23l244 254q19 19 28 24.5t27 5.5h135q21 0 21 -12z" />
    <glyph glyph-name="Scaron" unicode="&#x160;" horiz-adv-x="1126" 
d="M1243 1483v-6l-14 -88q-6 -33 -41 -33h-4q-180 12 -353 12q-56 0 -99.5 -4.5t-90.5 -19t-78 -39t-51 -68t-20 -102.5q0 -54 39 -99t143 -114l168 -113q140 -93 199 -180.5t59 -190.5q0 -111 -43 -198t-120 -142t-181 -83.5t-228 -28.5q-172 0 -348 28q-19 3 -27 8.5
t-8 18.5q0 1 1 4.5t1 5.5l15 82q6 33 41 33h6q138 -12 336 -12q174 0 266 66.5t92 217.5q0 60 -41.5 107.5t-154.5 124.5l-179 121q-106 72 -164.5 157t-58.5 176q0 90 29.5 161.5t79 117.5t118.5 76.5t142.5 43.5t156.5 13q89 0 206.5 -8t176.5 -17q29 -4 29 -28z
M1274 1933q0 -10 -12 -22l-244 -254q-14 -14 -19.5 -19t-14.5 -8.5t-21 -3.5h-175q-18 0 -26 6t-19 25l-155 254q-4 6 -4 16q0 19 20 19h96q5 0 9 -0.5t7.5 -2.5t5.5 -3.5t5.5 -5.5t4.5 -5.5t5.5 -7.5t5.5 -8l136 -197l202 197l9 9t8.5 9t7 6t8.5 5t8 2.5t11 1.5h124
q17 0 17 -13z" />
    <glyph glyph-name="scaron" unicode="&#x161;" horiz-adv-x="954" 
d="M1006 1081v-8l-11 -67q-6 -35 -41 -35h-6q-140 16 -301 16q-39 0 -73.5 -6.5t-68.5 -21t-53.5 -45t-19.5 -72.5q0 -36 27.5 -67.5t83.5 -67.5l182 -121q102 -68 142 -127t40 -129q0 -94 -36.5 -163t-100 -107t-139 -56t-164.5 -18q-203 0 -320 30q-34 8 -34 35v6l12 72
q6 31 39 31h12q184 -23 318 -23q101 0 166 41.5t65 132.5q0 37 -25.5 69.5t-93.5 76.5l-184 121q-172 113 -172 247q0 71 24.5 127t65 91t97 57.5t114.5 31.5t123 9q110 0 168.5 -6t132.5 -21q31 -6 31 -33zM1090 1583q0 -9 -13 -22l-243 -254q-19 -19 -29 -25t-27 -6h-174
q-18 0 -26 6t-19 25l-156 254q-4 6 -4 16q0 18 21 18h96q11 0 19 -5t11 -8.5t13 -18.5l135 -197l203 197q2 2 8.5 9t8.5 8.5t7 5.5t8 5.5t8 2.5t11 1h125q17 0 17 -12z" />
    <glyph glyph-name="Tcommaaccent" unicode="&#x162;" horiz-adv-x="1208" 
d="M938 1362l-231 -1321q-3 -18 -15.5 -29.5t-29.5 -11.5h-113q-16 0 -24 12.5t-5 28.5l232 1321h-400q-19 0 -28.5 7t-6.5 26l17 90q8 37 47 37h985q41 0 33 -37l-17 -90q-3 -17 -12.5 -25t-32.5 -8h-399zM524 -100h142q21 0 18 -23l-4 -16l-152 -223q-14 -23 -23.5 -31
t-31.5 -8h-84q-19 0 -16 16q1 1 2.5 6t3.5 10l98 230q13 39 47 39z" />
    <glyph glyph-name="tcommaaccent" unicode="&#x163;" horiz-adv-x="768" 
d="M647 1126h221q39 0 33 -41l-12 -69q-4 -25 -15.5 -33t-31.5 -8h-221l-127 -719q-7 -44 -7 -59q0 -42 20.5 -54t74.5 -12h125q18 0 24.5 -6t3.5 -23l-12 -71q-7 -30 -43 -35q-68 -10 -129 -10q-112 0 -179 47t-67 147q0 36 8 80l127 715l-194 22q-16 2 -26 12.5t-7 24.5
l10 56q7 36 45 36h199l33 201q7 34 45 41l108 16q20 3 27 -7t4 -27zM334 -100h141q22 0 19 -23l-5 -16l-151 -223q-14 -23 -23.5 -31t-31.5 -8h-84q-7 0 -12.5 4t-4.5 12q1 1 2.5 6t3.5 10l99 230q13 39 47 39z" />
    <glyph glyph-name="Tcaron" unicode="&#x164;" horiz-adv-x="1208" 
d="M938 1362l-231 -1321q-3 -18 -15.5 -29.5t-29.5 -11.5h-113q-16 0 -24 12.5t-5 28.5l232 1321h-400q-19 0 -28.5 7t-6.5 26l17 90q8 37 47 37h985q41 0 33 -37l-17 -90q-3 -17 -12.5 -25t-32.5 -8h-399zM1286 1933q0 -10 -12 -22l-244 -254q-14 -14 -19.5 -19t-14.5 -8.5
t-21 -3.5h-174q-18 0 -26 6t-19 25l-156 254q-4 6 -4 16q0 19 20 19h97q5 0 9 -0.5t7.5 -2.5t5.5 -3.5t5.5 -5.5t4.5 -5.5t5.5 -7.5t5.5 -8l135 -197l203 197q3 3 7.5 8t7 7.5t6.5 6t6.5 5t6.5 3.5t8 2.5t9 0.5h125q16 0 16 -13z" />
    <glyph glyph-name="tcaron" unicode="&#x165;" horiz-adv-x="1038" 
d="M901 1094v-9l-12 -69q-3 -17 -16.5 -29t-30.5 -12h-221l-127 -719q-7 -44 -7 -59q0 -42 20.5 -54t74.5 -12h125q28 0 28 -20v-9l-12 -71q-7 -30 -43 -35q-68 -10 -129 -10q-112 0 -179 47t-67 147q0 36 8 80l127 715l-194 22q-33 4 -33 31v6l10 56q3 15 15.5 25.5
t29.5 10.5h199l33 201q7 34 45 41l108 16h6q25 0 25 -28v-6l-37 -224h221q15 0 24 -9t9 -23zM1303 1518q0 -2 -5 -17l-153 -387q-8 -22 -15.5 -30.5t-23.5 -8.5h-84q-25 0 -25 25q0 10 2 14l117 387q6 21 15 30t26 9h119q27 0 27 -22z" />
    <glyph glyph-name="Tbar" unicode="&#x166;" horiz-adv-x="1208" 
d="M1266 965h-398l-161 -924q-3 -18 -15.5 -29.5t-29.5 -11.5h-113q-13 0 -21 9.5t-8 23.5v8l162 924h-401q-35 0 -35 26v6l16 90q3 15 16.5 26t30.5 11h400l43 238h-400q-35 0 -35 27v6l17 90q3 15 16.5 26t30.5 11h985q15 0 24 -8.5t9 -22.5v-6l-17 -90q-7 -33 -45 -33
h-399l-43 -238h399q15 0 24 -8t9 -22v-7l-16 -90q-6 -32 -45 -32z" />
    <glyph glyph-name="tbar" unicode="&#x167;" horiz-adv-x="768" 
d="M901 1094v-9l-12 -69q-3 -17 -16.5 -29t-30.5 -12h-221l-39 -213h223q15 0 24 -9.5t9 -23.5v-8l-13 -70q-3 -17 -16.5 -29t-30.5 -12h-223l-61 -354q-7 -44 -7 -59q0 -42 20.5 -54t74.5 -12h125q28 0 28 -20v-9l-12 -71q-7 -30 -43 -35q-68 -10 -129 -10q-112 0 -179 47
t-67 147q0 36 8 80l62 350l-193 23q-32 4 -32 31v6l10 55q3 15 15.5 26t29.5 11h196l39 213l-194 22q-33 4 -33 31v6l10 56q3 15 15.5 25.5t29.5 10.5h199l33 201q7 34 45 41l108 16h6q25 0 25 -28v-6l-37 -224h221q15 0 24 -9t9 -23z" />
    <glyph glyph-name="Utilde" unicode="&#x168;" horiz-adv-x="1355" 
d="M1321 1522h111q40 0 32 -39l-164 -930q-53 -298 -205 -432.5t-419 -134.5q-207 0 -322.5 106t-115.5 311q0 76 14 150l164 930q8 39 45 39h110q41 0 33 -39l-164 -930q-16 -88 -16 -147q0 -131 67 -196t214 -65q184 0 277 100.5t130 307.5l164 930q8 39 45 39zM1294 1819
q-18 -88 -66 -131t-134 -39q-54 3 -103 37q-15 12 -38.5 32t-37.5 31q-31 27 -53 27q-37 0 -47 -50l-6 -32q-7 -33 -41 -33h-74q-35 0 -28 33l8 41q19 88 73 134.5t132 41.5q18 -1 36.5 -8t28 -13t29.5 -20l88 -76q16 -14 49 -14t41 47l6 35q6 34 43 34h74q35 0 29 -34z" />
    <glyph glyph-name="utilde" unicode="&#x169;" horiz-adv-x="1140" 
d="M1061 1126h100q20 0 27.5 -12.5t3.5 -28.5l-182 -1044q-3 -17 -16.5 -29t-30.5 -12h-97q-18 0 -25.5 12.5t-4.5 28.5l6 37q-95 -49 -173 -70.5t-167 -21.5q-136 0 -217.5 83t-81.5 240q0 57 12 125l115 651q8 41 49 41h98q39 0 33 -41l-119 -673q-12 -68 -12 -117
q0 -85 43.5 -118.5t146.5 -33.5q126 0 291 76l152 866q7 41 49 41zM1116 1466q-36 -178 -201 -170q-52 3 -102 37q-14 12 -37.5 32.5t-38.5 31.5q-30 26 -53 26q-38 0 -47 -49l-6 -33q-6 -32 -41 -32h-74q-35 0 -29 32l9 41q19 88 72.5 134.5t131.5 42.5q38 -2 95 -41
l88 -76q17 -15 49 -15q33 0 41 48l6 34q3 17 15 26t28 9h74q34 0 28 -35z" />
    <glyph glyph-name="Umacron" unicode="&#x16a;" horiz-adv-x="1355" 
d="M1321 1522h111q40 0 32 -39l-164 -930q-53 -298 -205 -432.5t-419 -134.5q-207 0 -322.5 106t-115.5 311q0 76 14 150l164 930q8 39 45 39h110q41 0 33 -39l-164 -930q-16 -88 -16 -147q0 -131 67 -196t214 -65q184 0 277 100.5t130 307.5l164 930q8 39 45 39zM1335 1790
v-6l-12 -70q-6 -35 -47 -35h-590q-15 0 -25 8t-10 21v6l13 70q6 35 47 35h589q15 0 25 -8t10 -21z" />
    <glyph glyph-name="umacron" unicode="&#x16b;" horiz-adv-x="1140" 
d="M1061 1126h100q20 0 27.5 -12.5t3.5 -28.5l-182 -1044q-3 -17 -16.5 -29t-30.5 -12h-97q-18 0 -25.5 12.5t-4.5 28.5l6 37q-95 -49 -173 -70.5t-167 -21.5q-136 0 -217.5 83t-81.5 240q0 57 12 125l115 651q8 41 49 41h98q39 0 33 -41l-119 -673q-12 -68 -12 -117
q0 -85 43.5 -118.5t146.5 -33.5q126 0 291 76l152 866q7 41 49 41zM1159 1440v-6l-12 -70q-6 -35 -47 -35h-590q-15 0 -25 8t-10 21v6l12 70q6 34 48 34h589q35 0 35 -28z" />
    <glyph glyph-name="Ubreve" unicode="&#x16c;" horiz-adv-x="1355" 
d="M1321 1522h111q40 0 32 -39l-164 -930q-53 -298 -205 -432.5t-419 -134.5q-207 0 -322.5 106t-115.5 311q0 76 14 150l164 930q8 39 45 39h110q41 0 33 -39l-164 -930q-16 -88 -16 -147q0 -131 67 -196t214 -65q184 0 277 100.5t130 307.5l164 930q8 39 45 39zM1343 1923
q0 -10 -2 -16q-29 -140 -131 -214.5t-231 -74.5q-130 0 -217.5 73.5t-87.5 215.5q0 35 28 35h72q16 0 21.5 -7.5t5.5 -25.5q0 -164 178 -164q92 0 150.5 43t80.5 121q5 19 12 26t23 7h80q18 0 18 -19z" />
    <glyph glyph-name="ubreve" unicode="&#x16d;" horiz-adv-x="1140" 
d="M1061 1126h100q20 0 27.5 -12.5t3.5 -28.5l-182 -1044q-3 -17 -16.5 -29t-30.5 -12h-97q-18 0 -25.5 12.5t-4.5 28.5l6 37q-95 -49 -173 -70.5t-167 -21.5q-136 0 -217.5 83t-81.5 240q0 57 12 125l115 651q8 41 49 41h98q39 0 33 -41l-119 -673q-12 -68 -12 -117
q0 -85 43.5 -118.5t146.5 -33.5q126 0 291 76l152 866q7 41 49 41zM1174 1577q0 -7 -3 -16q-29 -140 -131 -214.5t-231 -74.5q-130 0 -217.5 73.5t-87.5 215.5q0 34 28 34h72q17 0 22 -7t5 -25q0 -164 178 -164q92 0 150.5 43t80.5 121q5 18 11.5 25t23.5 7h80q19 0 19 -18z
" />
    <glyph glyph-name="Uring" unicode="&#x16e;" horiz-adv-x="1355" 
d="M1321 1522h111q40 0 32 -39l-164 -930q-53 -298 -205 -432.5t-419 -134.5q-207 0 -322.5 106t-115.5 311q0 76 14 150l164 930q8 39 45 39h110q41 0 33 -39l-164 -930q-16 -88 -16 -147q0 -131 67 -196t214 -65q184 0 277 100.5t130 307.5l164 930q8 39 45 39zM1165 1790
q0 -86 -60.5 -146.5t-146.5 -60.5t-147 60.5t-61 146.5t61 147.5t147 61.5t146.5 -61.5t60.5 -147.5zM1067 1792q0 44 -32 75t-77 31q-44 0 -75 -31t-31 -75q0 -45 31 -77t75 -32t76.5 32.5t32.5 76.5z" />
    <glyph glyph-name="uring" unicode="&#x16f;" horiz-adv-x="1140" 
d="M1061 1126h100q20 0 27.5 -12.5t3.5 -28.5l-182 -1044q-3 -17 -16.5 -29t-30.5 -12h-97q-18 0 -25.5 12.5t-4.5 28.5l6 37q-95 -49 -173 -70.5t-167 -21.5q-136 0 -217.5 83t-81.5 240q0 57 12 125l115 651q8 41 49 41h98q39 0 33 -41l-119 -673q-12 -68 -12 -117
q0 -85 43.5 -118.5t146.5 -33.5q126 0 291 76l152 866q7 41 49 41zM995 1440q0 -86 -60.5 -146.5t-146.5 -60.5t-147 60.5t-61 146.5t61 147.5t147 61.5t146.5 -61.5t60.5 -147.5zM897 1442q0 44 -32 75t-77 31q-44 0 -75 -31t-31 -75q0 -45 31 -77t75 -32t76.5 32.5
t32.5 76.5z" />
    <glyph glyph-name="Uhungarumlaut" unicode="&#x170;" horiz-adv-x="1355" 
d="M1321 1522h111q40 0 32 -39l-164 -930q-53 -298 -205 -432.5t-419 -134.5q-207 0 -322.5 106t-115.5 311q0 76 14 150l164 930q8 39 45 39h110q41 0 33 -39l-164 -930q-16 -88 -16 -147q0 -131 67 -196t214 -65q184 0 277 100.5t130 307.5l164 930q8 39 45 39zM1489 1933
q0 -8 -10 -18l-277 -258q-5 -4 -14 -12.5t-12 -11t-10 -5t-15 -2.5h-111q-16 0 -16 12q0 11 12 23l244 254q14 14 19.5 19t14.5 8.5t21 3.5h133q21 0 21 -13zM1130 1933q0 -8 -10 -18l-276 -258q-5 -4 -14 -12.5t-12 -11t-10 -5t-15 -2.5h-111q-16 0 -16 12q0 11 12 23
l244 254q14 14 19.5 19t14.5 8.5t21 3.5h133q20 0 20 -13z" />
    <glyph glyph-name="uhungarumlaut" unicode="&#x171;" horiz-adv-x="1140" 
d="M1061 1126h100q20 0 27.5 -12.5t3.5 -28.5l-182 -1044q-3 -17 -16.5 -29t-30.5 -12h-97q-18 0 -25.5 12.5t-4.5 28.5l6 37q-95 -49 -173 -70.5t-167 -21.5q-136 0 -217.5 83t-81.5 240q0 57 12 125l115 651q8 41 49 41h98q39 0 33 -41l-119 -673q-12 -68 -12 -117
q0 -85 43.5 -118.5t146.5 -33.5q126 0 291 76l152 866q7 41 49 41zM1319 1583q0 -8 -10 -18l-277 -258q-5 -4 -14 -12.5t-12 -11t-10 -5t-15 -2.5h-111q-16 0 -16 12q0 11 12 23l244 254q19 19 28 24.5t27 5.5h133q21 0 21 -12zM961 1583q0 -7 -11 -18l-276 -258
q-5 -4 -14 -12.5t-12 -11t-10 -5t-15 -2.5h-111q-16 0 -16 12q0 11 12 23l244 254q19 19 28 24.5t27 5.5h133q21 0 21 -12z" />
    <glyph glyph-name="Uogonek" unicode="&#x172;" horiz-adv-x="1355" 
d="M1464 1489l-164 -936q-26 -146 -68 -241.5t-97 -153t-146 -111.5l-221 -133q-8 -5 -27.5 -16.5t-26.5 -15.5t-22 -14.5t-20.5 -16t-14.5 -15.5t-12.5 -18.5t-6.5 -20t-3 -24.5q0 -64 127 -64q29 0 63.5 5.5t58.5 10.5t27 5q11 0 9 -17l-15 -80q-2 -16 -26 -22
q-63 -21 -160 -21q-238 0 -238 156q0 83 47 135.5t121 91.5l23 13q-206 2 -320 107t-114 310q0 76 14 150l164 930q3 16 15.5 27.5t29.5 11.5h110q15 0 24 -9.5t9 -23.5v-6l-164 -930q-16 -88 -16 -147q0 -131 67 -196t214 -65q184 0 277 100.5t130 307.5l164 930
q3 16 15.5 27.5t29.5 11.5h111q15 0 23.5 -9.5t8.5 -23.5z" />
    <glyph glyph-name="uogonek" unicode="&#x173;" horiz-adv-x="1140" 
d="M836 39l6 39q-95 -49 -173 -70.5t-167 -21.5q-136 0 -217.5 83t-81.5 240q0 57 12 125l115 651q3 17 17.5 29t31.5 12h98q15 0 24 -9t9 -23v-9l-119 -673q-12 -68 -12 -117q0 -85 43.5 -118.5t146.5 -33.5q126 0 291 76l152 866q3 17 17.5 29t31.5 12h100q14 0 22.5 -9.5
t8.5 -22.5v-9l-176 -1009q-7 -40 -19 -55.5t-41 -32.5l-122 -74q-86 -52 -111 -77.5t-25 -63.5q0 -35 29.5 -49.5t99.5 -14.5q29 0 63.5 5.5t59 10.5t27.5 5q11 0 8 -17l-14 -80q-2 -16 -27 -22q-63 -21 -160 -21q-237 0 -237 156q0 84 43 133t125 94z" />
    <glyph glyph-name="Wcircumflex" unicode="&#x174;" horiz-adv-x="1689" 
d="M1733 1522h120q40 0 27 -41l-471 -1385q-20 -59 -55.5 -81.5t-89.5 -22.5h-88q-42 0 -68 27.5t-31 74.5l-67 758q-3 18 -11 18q-3 0 -4.5 -0.5t-3.5 -2t-4.5 -5t-5.5 -10.5l-336 -758q-21 -46 -57 -74t-78 -28h-86q-55 0 -82 21.5t-27 80.5v2l17 1385q0 41 43 41h117
q28 0 28 -35l-31 -1305q0 -30 7 -30q5 0 18 30l334 758q37 82 110 82h132q75 0 81 -82l68 -758q0 -4 0.5 -10t1 -8.5t1 -6t2 -4.5t3.5 -1q8 0 17 30l428 1305q12 35 41 35zM1442 1642q0 -18 -21 -18h-100q-16 0 -23 6t-20 25l-131 198l-207 -198l-6 -6l-6 -6l-5 -5t-5 -4.5
t-5 -3.5t-5 -2.5t-5.5 -1.5t-6.5 -1.5t-7 -0.5h-113q-16 0 -16 12q0 11 12 23l242 254l7.5 7.5l7 7l5.5 5.5t6 4.5t5.5 2.5t6 2.5t6.5 1t9 0.5h174q18 0 27 -6.5t20 -24.5l150 -254q4 -6 4 -17z" />
    <glyph glyph-name="wcircumflex" unicode="&#x175;" horiz-adv-x="1609" 
d="M1577 1126h115q48 0 30 -49l-366 -950q-54 -141 -197 -141q-59 0 -96 39.5t-43 113.5l-59 690q-3 15 -9 15t-12 -15l-301 -690q-36 -79 -79.5 -116t-113.5 -37t-107 33.5t-40 107.5l-31 952q0 18 14.5 32.5t32.5 14.5h107q13 0 21 -9.5t8 -22.5l6 -928q0 -17 3 -21t9 -4
q9 0 20 25l338 780q28 62 95 62h114q33 0 50 -14.5t20 -47.5l63 -780q3 -25 13 -25q4 0 6.5 1t6 6.5t7.5 17.5l334 928q12 32 41 32zM1343 1294q0 -18 -20 -18h-100q-16 0 -23 6t-20 25l-131 198l-207 -198l-6 -6l-6 -6l-5 -5t-5 -4.5t-5 -3.5t-5 -2.5t-5.5 -1.5t-6.5 -1.5
t-7 -0.5h-113q-16 0 -16 12q0 11 12 23l241 254q14 14 19.5 18.5t14 8t20.5 3.5h174q18 0 27 -6t20 -24l149 -254q4 -6 4 -17z" />
    <glyph glyph-name="Ycircumflex" unicode="&#x176;" horiz-adv-x="1193" 
d="M1386 1497q0 -10 -10 -27l-444 -712q-68 -110 -133 -135l-103 -582q-8 -41 -45 -41h-112q-36 0 -29 41l102 582q-56 23 -88 135l-188 712q-7 27 1.5 39.5t35.5 12.5h119q24 0 32 -29l164 -664q14 -53 39 -53q12 0 23.5 10t31.5 43l404 664q9 17 19 23t32 6h119
q30 0 30 -25zM1212 1640q0 -18 -20 -18h-100q-16 0 -23 6t-20 25l-131 198l-207 -198l-18 -18t-13.5 -8.5t-20.5 -4.5h-112q-17 0 -17 12q0 10 13 23l241 254q15 15 19.5 19t13.5 8t21 4h174q18 0 27 -6.5t20 -24.5l149 -254q4 -6 4 -17z" />
    <glyph glyph-name="ycircumflex" unicode="&#x177;" horiz-adv-x="1093" 
d="M1212 1100q0 -11 -6 -23l-547 -1179q-79 -172 -167.5 -238t-260.5 -66q-90 0 -168 19q-21 5 -31 12t-7 21l14 75q3 22 13.5 29t37.5 4q129 -12 180 -12q91 0 141 35t93 139l35 84h-23q-56 0 -90 33t-45 127l-105 917q-3 30 7.5 39.5t35.5 9.5h107q12 0 18.5 -5.5t8 -10.5
t2.5 -16l86 -889q3 -28 10 -36.5t20 -8.5h33l414 936q7 16 16 23t29 7h121q28 0 28 -26zM1087 1294q0 -18 -20 -18h-100q-16 0 -23 6t-20 25l-131 198l-207 -198l-6 -6l-6 -6l-5 -5t-5 -4.5t-5 -3.5t-5 -2.5t-5.5 -1.5t-6.5 -1.5t-7 -0.5h-113q-16 0 -16 12q0 11 12 23
l241 254q14 14 19.5 18.5t14 8t20.5 3.5h174q18 0 27 -6t20 -24l149 -254q4 -6 4 -17z" />
    <glyph glyph-name="Ydieresis" unicode="&#x178;" horiz-adv-x="1193" 
d="M1386 1497q0 -10 -10 -27l-444 -712q-68 -110 -133 -135l-103 -582q-3 -15 -16.5 -28t-28.5 -13h-112q-13 0 -21 9.5t-8 23.5v8l102 582q-56 23 -88 135l-188 712q-2 6 -2 15q0 37 39 37h119q10 0 19.5 -9t12.5 -20l164 -664q14 -53 39 -53q12 0 23.5 10t31.5 43l404 664
q17 29 39 29h131q30 0 30 -25zM1196 1853v-6l-31 -166q-3 -17 -17 -28t-30 -11h-80q-14 0 -24 9t-10 24v6l30 166q3 15 17.5 28t29.5 13h80q13 0 24 -11t11 -24zM838 1853v-6l-31 -166q-3 -17 -17 -28t-30 -11h-80q-14 0 -24.5 9.5t-10.5 23.5v6l31 166q3 15 17.5 28
t29.5 13h80q13 0 24 -11t11 -24z" />
    <glyph glyph-name="Zacute" unicode="&#x179;" horiz-adv-x="1222" 
d="M1321 1380q0 -80 -80 -174l-879 -1009q-8 -8 -8 -17q0 -12 17 -12h731q42 0 35 -35l-17 -96q-2 -10 -4 -15t-6.5 -11t-13.5 -8.5t-23 -2.5h-702q-103 0 -154 41.5t-51 114.5q0 83 59 151l871 1008q16 18 16 28q0 13 -18 13h-670q-40 0 -35 35l17 96q2 12 5.5 18.5
t13.5 11.5t28 5h675q105 0 149 -36.5t44 -105.5zM1217 1933q0 -7 -11 -18l-278 -258q-5 -4 -14 -12.5t-12 -11t-10 -5t-15 -2.5h-111q-16 0 -16 12q0 11 12 23l246 254l7.5 7.5l7 7l5.5 5.5t6 4.5t5.5 2.5t6 2.5t6.5 1t9 0.5h135q21 0 21 -13z" />
    <glyph glyph-name="zacute" unicode="&#x17a;" horiz-adv-x="954" 
d="M1010 985q0 -70 -56 -129l-641 -666q-14 -14 -14 -24q0 -14 20 -14h523q40 0 32 -41l-12 -70q-5 -25 -13.5 -33t-33.5 -8h-518q-88 0 -133 40.5t-45 102.5q0 74 47 121l653 678q12 12 12 23q0 10 -20 10h-504q-39 0 -33 41l13 69q7 41 47 41h512q83 0 123.5 -39.5
t40.5 -101.5zM1018 1583q0 -8 -10 -18l-279 -258q-5 -4 -14 -12.5t-12 -11t-10 -5t-15 -2.5h-111q-16 0 -16 12q0 11 12 23l246 254q25 25 36 28q6 2 17 2h135q21 0 21 -12z" />
    <glyph glyph-name="Zdotaccent" unicode="&#x17b;" horiz-adv-x="1222" 
d="M1321 1380q0 -80 -80 -174l-879 -1009q-8 -8 -8 -17q0 -12 17 -12h731q42 0 35 -35l-17 -96q-2 -10 -4 -15t-6.5 -11t-13.5 -8.5t-23 -2.5h-702q-103 0 -154 41.5t-51 114.5q0 83 59 151l871 1008q16 18 16 28q0 13 -18 13h-670q-40 0 -35 35l17 96q2 12 5.5 18.5
t13.5 11.5t28 5h675q105 0 149 -36.5t44 -105.5zM1014 1876v-6l-31 -172q-3 -17 -17.5 -29t-29.5 -12h-98q-14 0 -23.5 10t-9.5 25v6l31 172q3 15 17.5 27t29.5 12h98q13 0 23 -9.5t10 -23.5z" />
    <glyph glyph-name="zdotaccent" unicode="&#x17c;" horiz-adv-x="954" 
d="M1010 985q0 -70 -56 -129l-641 -666q-14 -14 -14 -24q0 -14 20 -14h523q40 0 32 -41l-12 -70q-5 -25 -13.5 -33t-33.5 -8h-518q-88 0 -133 40.5t-45 102.5q0 74 47 121l653 678q12 12 12 23q0 10 -20 10h-504q-39 0 -33 41l13 69q7 41 47 41h512q83 0 123.5 -39.5
t40.5 -101.5zM799 1526v-6l-31 -172q-3 -17 -17.5 -29t-29.5 -12h-98q-14 0 -23.5 9.5t-9.5 24.5v7l31 172q3 15 17.5 27t29.5 12h98q14 0 23.5 -9.5t9.5 -23.5z" />
    <glyph glyph-name="Zcaron" unicode="&#x17d;" horiz-adv-x="1222" 
d="M1321 1370q0 -71 -55 -135l-904 -1038q-8 -8 -8 -17q0 -12 17 -12h731q14 0 24.5 -8t10.5 -21v-6l-17 -96q-3 -15 -16.5 -26t-30.5 -11h-733q-80 0 -127 45t-47 111q0 83 59 151l879 1018q8 8 8 18q0 13 -18 13h-670q-14 0 -24.5 7.5t-10.5 20.5v7l17 96q3 15 16.5 25
t30.5 10h690q83 0 130.5 -43t47.5 -109zM1303 1933q0 -9 -13 -22l-243 -254q-19 -19 -29 -25t-27 -6h-174q-18 0 -26 6t-19 25l-156 254q-4 6 -4 16q0 19 21 19h96q5 0 9 -0.5t7.5 -2.5t5.5 -3.5t5.5 -5.5t4.5 -5.5t5.5 -7.5t5.5 -8l135 -197l203 197q3 3 7.5 8t7 7.5t6.5 6
t6.5 5t6.5 3.5t8 2.5t9 0.5h125q17 0 17 -13z" />
    <glyph glyph-name="zcaron" unicode="&#x17e;" horiz-adv-x="954" 
d="M1010 985q0 -70 -56 -129l-641 -666q-14 -14 -14 -24q0 -14 20 -14h523q32 0 32 -33v-8l-12 -70q-3 -17 -16.5 -29t-30.5 -12h-518q-88 0 -133 40.5t-45 102.5q0 74 47 121l653 678q12 12 12 21q0 12 -20 12h-504q-14 0 -23.5 10.5t-9.5 24.5v6l13 69q3 17 16.5 29
t30.5 12h512q83 0 123.5 -39.5t40.5 -101.5zM1124 1583q0 -10 -12 -22l-244 -254q-14 -14 -19.5 -19t-14.5 -8.5t-21 -3.5h-174q-18 0 -26 6t-19 25l-156 254q-4 6 -4 16q0 18 21 18h96q11 0 19 -5t11 -8.5t13 -18.5l135 -197l203 197q2 2 8.5 9t8.5 8.5t7 5.5t8 5.5t8 2.5
t11 1h125q16 0 16 -12z" />
    <glyph glyph-name="florin" unicode="&#x192;" 
d="M1257 1522q0 -1 -1 -4t-1 -5l-14 -65q-6 -31 -51 -31h-113q-74 0 -109.5 -30t-54.5 -109l-92 -401h293q15 0 24 -8.5t9 -20.5v-8l-17 -76q-3 -15 -17.5 -26t-31.5 -11h-293l-165 -731q-35 -151 -125.5 -216t-227.5 -65q-56 0 -141 11q-33 5 -33 24q0 2 1 5t1 5l15 66
q6 31 51 31h112q74 0 109.5 30t54.5 109l166 731h-262q-15 0 -24 8.5t-9 20.5v8l17 76q3 15 17.5 26t31.5 11h262l92 401q35 151 125 216t227 65q55 0 140 -11q34 -5 34 -26z" />
    <glyph glyph-name="Ohorn" unicode="&#x1a0;" horiz-adv-x="1353" 
d="M1405 1065q0 -74 -16 -172l-48 -264q-114 -643 -665 -643q-207 0 -333 119t-126 352q0 74 16 172l48 264q31 177 94 304t152 200t192 106t229 33q66 0 125 -12l94 -2q63 0 107 35t57 108q3 16 16 28.5t29 12.5h86q17 0 24.5 -11.5t4.5 -29.5q-19 -99 -75.5 -161
t-135.5 -89q125 -125 125 -350zM1217 1063q0 161 -75.5 233t-221.5 72q-174 0 -291 -117t-160 -358l-47 -264q-14 -80 -14 -156q0 -169 75.5 -244t221.5 -75q173 0 289 117t159 358l47 264q17 89 17 170z" />
    <glyph glyph-name="ohorn" unicode="&#x1a1;" horiz-adv-x="1116" 
d="M1137 756q0 -44 -11 -115l-26 -156q-85 -499 -545 -499q-180 0 -278.5 106t-98.5 281q0 47 10 112l27 156q86 500 543 500q52 0 121 -15h67q62 0 106.5 35.5t57.5 108.5q3 16 16 28.5t29 12.5h86q17 0 24.5 -11.5t4.5 -29.5q-19 -100 -77.5 -162.5t-139.5 -89.5
q84 -101 84 -262zM956 758q0 113 -53.5 169t-171.5 56q-132 0 -220.5 -92t-115.5 -250l-26 -156q-13 -73 -13 -120q0 -111 54 -166.5t172 -55.5q132 0 221.5 94t116.5 248l26 156q10 54 10 117z" />
    <glyph glyph-name="Uhorn" unicode="&#x1af;" horiz-adv-x="1355" 
d="M1321 1522h59q59 3 100 38t54 105q3 16 16 28.5t29 12.5h86q17 0 24.5 -11.5t4.5 -29.5q-22 -109 -88 -173.5t-156 -86.5l-150 -852q-53 -298 -205 -432.5t-419 -134.5q-207 0 -322.5 106t-115.5 311q0 76 14 150l164 930q8 39 45 39h110q41 0 33 -39l-164 -930
q-16 -88 -16 -147q0 -131 67 -196t214 -65q184 0 277 100.5t130 307.5l164 930q8 39 45 39z" />
    <glyph glyph-name="uhorn" unicode="&#x1b0;" horiz-adv-x="1140" 
d="M1061 1126h4h8h31q62 0 106.5 35.5t57.5 108.5q3 16 16 28.5t29 12.5h86q17 0 24 -11.5t4 -29.5q-22 -112 -88.5 -176t-160.5 -84l-168 -969q-3 -17 -16.5 -29t-30.5 -12h-97q-18 0 -25.5 12.5t-4.5 28.5l6 37q-95 -49 -173 -70.5t-167 -21.5q-136 0 -217.5 83t-81.5 240
q0 57 12 125l115 651q8 41 49 41h98q39 0 33 -41l-119 -673q-12 -68 -12 -117q0 -85 43.5 -118.5t146.5 -33.5q126 0 291 76l152 866q7 41 49 41z" />
    <glyph glyph-name="AEacute" unicode="&#x1fc;" horiz-adv-x="1759" 
d="M1911 1499v-6l-19 -109q-3 -24 -26 -24h-586l-88 -490h567q15 0 24 -9t9 -23v-9l-12 -77q-3 -17 -17.5 -29t-31.5 -12h-568l-59 -344q-10 -62 -10 -93q0 -70 46.5 -95t176.5 -25h334q18 0 18 -19v-6l-18 -100q-2 -9 -9 -18.5t-16 -10.5q-138 -14 -340 -14
q-379 0 -379 286q0 34 11 95l22 135h-489l-213 -471q-4 -12 -17.5 -21.5t-25.5 -9.5h-121q-29 0 -29 27q0 14 4 20l613 1321q41 90 96.5 122t140.5 32h997q15 0 15 -23zM1094 1360h-228q-32 0 -47 -35l-301 -661h451zM1638 1931q0 -8 -10 -18l-278 -258q-5 -4 -12 -10.5
t-10 -9t-8 -6t-10 -4.5t-12 -1h-110q-17 0 -17 12q0 10 13 23l246 254l7.5 7.5l7 7l5.5 5.5t6 4.5t5.5 2.5t6 2.5t6.5 1t9 0.5h135q20 0 20 -13z" />
    <glyph glyph-name="aeacute" unicode="&#x1fd;" horiz-adv-x="1746" 
d="M1765 754q0 -39 -7.5 -102t-18.5 -101q-13 -45 -43 -45h-682l-13 -66q-10 -62 -10 -100q0 -117 61 -160t195 -43q156 0 355 29h4h6q28 0 28 -23v-4v-2l-12 -69q-3 -23 -13.5 -33.5t-35.5 -14.5q-179 -34 -369 -34q-220 0 -319 123q-75 -53 -186 -88t-220 -35
q-64 0 -121.5 16.5t-105.5 49t-76 89t-28 129.5v23q0 21 2 31l2 18q20 176 145 254t397 78h164l15 82q8 44 8 88q0 82 -42.5 112.5t-146.5 30.5q-147 0 -315 -16h-8q-35 0 -35 24v9l14 71q6 33 49 39q166 27 322 27q123 0 195 -36t108 -110q74 81 161 113.5t210 32.5
q181 0 273.5 -107.5t92.5 -279.5zM1593 770q0 113 -55 166t-166 53q-131 0 -217 -88.5t-117 -247.5l-2 -10h545q12 58 12 127zM842 543h-154q-183 0 -259.5 -45.5t-88.5 -155.5l-2 -18q-2 -10 -2 -29v-21q0 -79 48.5 -112t143.5 -33q69 0 140 18.5t112 45.5zM1454 1583
q0 -8 -10 -18l-279 -258q-5 -4 -14 -12.5t-12 -11t-10 -5t-15 -2.5h-110q-17 0 -17 12q0 11 12 23l246 254q25 25 36 28q6 2 17 2h136q20 0 20 -12z" />
    <glyph glyph-name="Oslashacute" unicode="&#x1fe;" horiz-adv-x="1353" 
d="M1569 1520q0 -13 -10 -23l-193 -215q39 -95 39 -217q0 -74 -16 -172l-48 -264q-114 -643 -665 -643q-225 0 -346 133l-103 -113q-11 -12 -18.5 -16t-22.5 -4h-108q-19 0 -19 18q0 12 9 21l188 211q-39 95 -39 221q0 74 16 172l48 264q31 177 94 304t152 200t192 106
t229 33q224 0 346 -137l105 117q17 20 45 20h106q19 0 19 -16zM1169 1260q-68 108 -249 108q-174 0 -291 -117t-160 -358l-47 -264q-14 -80 -14 -156q0 -23 4 -63zM1217 1063q0 25 -3 49l-757 -850q68 -108 248 -108q173 0 289 117t159 358l47 264q17 89 17 170zM1339 1931
q0 -8 -10 -18l-278 -258q-5 -4 -12 -10.5t-10 -9t-8 -6t-10 -4.5t-12 -1h-110q-17 0 -17 12q0 10 13 23l245 254q15 15 19.5 19t13.5 8t21 4h135q20 0 20 -13z" />
    <glyph glyph-name="oslashacute" unicode="&#x1ff;" horiz-adv-x="1116" 
d="M1290 1182q0 -13 -14 -27l-176 -192q39 -77 39 -191q0 -55 -13 -131l-26 -156q-39 -230 -181 -364.5t-364 -134.5q-171 0 -270 86l-111 -123q-19 -21 -37 -21h-100q-14 0 -14 13q0 14 12 26l180 197q-39 77 -39 190q0 60 12 131l27 156q39 231 180.5 365.5t362.5 134.5
q173 0 272 -86l107 119q18 20 37 20h102q14 0 14 -12zM903 920q-57 63 -172 63q-141 0 -224 -89t-112 -253l-26 -156q-11 -75 -11 -112q0 -35 2 -49zM956 745q0 20 -4 56l-542 -594q58 -64 172 -64q141 0 225 89.5t113 252.5l26 156q10 62 10 104zM1165 1583q0 -8 -10 -18
l-278 -258q-5 -4 -12 -10.5t-10 -9t-8 -6t-10 -4.5t-12 -1h-110q-17 0 -17 12q0 10 13 23l245 254q14 14 19.5 18.5t14 8t20.5 3.5h135q20 0 20 -12z" />
    <glyph glyph-name="uni0218" unicode="&#x218;" horiz-adv-x="1126" 
d="M831 1536q89 0 206.5 -8t176.5 -17q21 -3 26.5 -9.5t2.5 -24.5l-14 -88q-3 -21 -11.5 -28.5t-33.5 -4.5q-180 12 -353 12q-70 0 -124 -8t-106 -28.5t-80.5 -64.5t-28.5 -108q0 -71 38.5 -119t143.5 -118l168 -113q141 -94 199.5 -182.5t58.5 -202.5q0 -141 -75.5 -241
t-202.5 -148.5t-294 -48.5q-172 0 -348 28q-20 3 -28 11t-5 26l15 82q3 22 12 29t35 4q138 -12 336 -12q358 0 358 270q0 70 -41 119t-155 127l-179 121q-223 151 -223 358q0 83 28 149.5t76.5 110t116 73t143.5 42t162 12.5zM514 -100h141q22 0 19 -23l-4 -16l-152 -223
q-14 -23 -23.5 -31t-31.5 -8h-84q-7 0 -12.5 4t-4.5 12q1 1 3 6l4 10l98 230q13 39 47 39z" />
    <glyph glyph-name="uni0219" unicode="&#x219;" horiz-adv-x="954" 
d="M674 1141q110 0 168.5 -6t132.5 -21q23 -4 28.5 -11.5t2.5 -29.5l-11 -67q-6 -40 -47 -35q-140 16 -301 16q-39 0 -73.5 -6.5t-68.5 -21t-53.5 -45t-19.5 -72.5q0 -36 27.5 -67.5t83.5 -67.5l182 -121q103 -69 142.5 -130t39.5 -145q0 -87 -36.5 -152t-100 -101.5
t-139 -54t-164.5 -17.5q-203 0 -320 30q-16 3 -26.5 14t-7.5 27l12 72q5 21 15 27.5t36 3.5q184 -23 318 -23q101 0 166 41.5t65 132.5q0 37 -25.5 69.5t-93.5 76.5l-184 121q-87 57 -129.5 121t-42.5 145q0 66 24.5 118t65 85t96.5 54.5t114.5 30.5t123.5 9zM428 -100h141
q22 0 19 -23l-4 -16l-152 -223q-14 -23 -23.5 -31t-31.5 -8h-84q-7 0 -12.5 4t-4.5 12q1 1 3 6l4 10l98 230q13 39 47 39z" />
    <glyph glyph-name="uni021A" unicode="&#x21a;" horiz-adv-x="1208" 
d="M938 1362l-231 -1321q-3 -18 -15.5 -29.5t-29.5 -11.5h-113q-16 0 -24 12.5t-5 28.5l232 1321h-400q-19 0 -28.5 7t-6.5 26l17 90q8 37 47 37h985q41 0 33 -37l-17 -90q-3 -17 -12.5 -25t-32.5 -8h-399zM524 -100h142q21 0 18 -23l-4 -16l-152 -223q-14 -23 -23.5 -31
t-31.5 -8h-84q-19 0 -16 16q1 1 2.5 6t3.5 10l98 230q13 39 47 39z" />
    <glyph glyph-name="uni021B" unicode="&#x21b;" horiz-adv-x="768" 
d="M647 1126h221q39 0 33 -41l-12 -69q-4 -25 -15.5 -33t-31.5 -8h-221l-127 -719q-7 -44 -7 -59q0 -42 20.5 -54t74.5 -12h125q18 0 24.5 -6t3.5 -23l-12 -71q-7 -30 -43 -35q-68 -10 -129 -10q-112 0 -179 47t-67 147q0 36 8 80l127 715l-194 22q-16 2 -26 12.5t-7 24.5
l10 56q7 36 45 36h199l33 201q7 34 45 41l108 16q20 3 27 -7t4 -27zM334 -100h141q22 0 19 -23l-5 -16l-151 -223q-14 -23 -23.5 -31t-31.5 -8h-84q-7 0 -12.5 4t-4.5 12q1 1 2.5 6t3.5 10l99 230q13 39 47 39z" />
    <glyph glyph-name="circumflex" unicode="&#x2c6;" horiz-adv-x="763" 
d="M950 1294q0 -18 -20 -18h-101q-16 0 -23 6t-20 25l-131 198l-206 -198l-18 -18t-13.5 -8.5t-20.5 -4.5h-112q-17 0 -17 12q0 10 13 23l241 254q25 25 36 28q6 2 17 2h175q18 0 27 -6t20 -24l149 -254q4 -6 4 -17z" />
    <glyph glyph-name="caron" unicode="&#x2c7;" horiz-adv-x="763" 
d="M1006 1583q0 -9 -13 -22l-243 -254q-19 -19 -29 -25t-27 -6h-174q-18 0 -26 6t-19 25l-156 254q-4 6 -4 16q0 18 21 18h96q11 0 19 -5t11 -8.5t13 -18.5l135 -197l203 197q2 2 8.5 9t8.5 8.5t7 5.5t8 5.5t8 2.5t11 1h125q17 0 17 -12z" />
    <glyph glyph-name="uni02C9" unicode="&#x2c9;" horiz-adv-x="763" 
d="M719 1417q0 -17 -11.5 -26t-29.5 -9h-590q-18 0 -29.5 9t-11.5 26v70q0 17 11.5 26t29.5 9h590q18 0 29.5 -9t11.5 -26v-70z" />
    <glyph glyph-name="breve" unicode="&#x2d8;" horiz-adv-x="763" 
d="M993 1577q0 -10 -2 -16q-29 -140 -131 -214.5t-231 -74.5q-130 0 -217.5 73.5t-87.5 215.5q0 34 28 34h72q17 0 22 -7t5 -25q0 -164 178 -164q92 0 150.5 43t80.5 121q5 18 11.5 25t23.5 7h80q18 0 18 -18z" />
    <glyph glyph-name="dotaccent" unicode="&#x2d9;" horiz-adv-x="763" 
d="M739 1526v-6l-30 -172q-3 -17 -17.5 -29t-29.5 -12h-99q-14 0 -23.5 9.5t-9.5 24.5v7l31 172q3 15 17.5 27t29.5 12h99q13 0 22.5 -9.5t9.5 -23.5z" />
    <glyph glyph-name="ring" unicode="&#x2da;" horiz-adv-x="763" 
d="M827 1440q0 -86 -60 -146.5t-146 -60.5t-147.5 60.5t-61.5 146.5t61.5 147.5t147.5 61.5t146 -61t60 -148zM729 1442q0 44 -32 75t-76 31t-75.5 -31t-31.5 -75t31.5 -76.5t75.5 -32.5t76 32.5t32 76.5z" />
    <glyph glyph-name="ogonek" unicode="&#x2db;" horiz-adv-x="749" 
d="M543 -367q-2 -16 -27 -22q-63 -21 -160 -21q-237 0 -237 156q0 84 43 133t125 94l149 82q34 21 56 21h106q13 0 18 -7t2 -16.5t-12 -15.5l-200 -123q-86 -52 -111 -77.5t-25 -63.5q0 -35 29.5 -49.5t99.5 -14.5q29 0 63.5 5.5t59 10.5t27.5 5q11 0 8 -17z" />
    <glyph glyph-name="tilde" unicode="&#x2dc;" horiz-adv-x="1009" 
d="M1130 1550v-6l-8 -47q-20 -110 -67.5 -162.5t-141.5 -52.5q-100 0 -155 53l-96 90q-31 29 -44 37t-32 8q-70 0 -82 -94l-6 -43q-2 -14 -12 -24.5t-23 -10.5h-70q-12 0 -19 8.5t-7 20.5v6l6 43q31 223 213 223q45 0 78 -14t73 -49l111 -100q33 -29 65 -29t50.5 20t27.5 70
l8 47q3 14 12.5 24.5t22.5 10.5h70q12 0 19 -8.5t7 -20.5z" />
    <glyph glyph-name="hungarumlaut" unicode="&#x2dd;" horiz-adv-x="763" 
d="M1122 1583q0 -8 -10 -18l-276 -258q-5 -4 -12 -10.5t-10 -9t-8 -6t-10 -4.5t-12 -1h-110q-17 0 -17 12q0 10 13 23l243 254q19 19 28.5 24.5t27.5 5.5h133q20 0 20 -12zM764 1583q0 -8 -10 -18l-277 -258q-5 -4 -14 -12.5t-12 -11t-10 -5t-15 -2.5h-111q-16 0 -16 12
q0 11 12 23l244 254q19 19 28 24.5t27 5.5h133q21 0 21 -12z" />
    <glyph glyph-name="uni03A9" unicode="&#x3a9;" horiz-adv-x="1212" 
d="M1145 43q-8 -43 -53 -43h-371q-43 0 -37 43l41 231q4 27 11.5 36.5t27.5 15.5q145 48 223.5 156t108.5 282l32 180q15 80 15 141q0 159 -75.5 227t-219.5 68q-355 0 -432 -436l-33 -180q-14 -89 -14 -143q0 -224 194 -295q16 -6 19.5 -15t-0.5 -37l-41 -231
q-6 -43 -49 -43h-371q-49 0 -41 43l12 70q7 41 55 41h248l13 75q-115 53 -168.5 158.5t-53.5 239.5q0 64 13 137l32 180q54 299 212 450.5t411 151.5q232 0 352.5 -117t120.5 -335q0 -57 -14 -150l-33 -180q-38 -211 -130 -340t-267 -195l-13 -75h248q22 0 32.5 -9t6.5 -32z
" />
    <glyph glyph-name="uni03BC" unicode="&#x3bc;" horiz-adv-x="1140" 
d="M1192 1094v-9l-174 -995q-6 -35 -47 -47q-163 -57 -389 -57q-162 0 -254 59l-72 -405q-3 -17 -17.5 -29t-31.5 -12h-98q-15 0 -24 9t-9 23v9l254 1445q3 17 16.5 29t30.5 12h102q13 0 22 -9t9 -23v-9l-119 -673q-8 -41 -8 -86q0 -96 55 -141.5t170 -45.5q136 0 242 29
l162 917q3 16 17.5 28.5t31.5 12.5h100q13 0 22 -9t9 -23z" />
    <glyph glyph-name="pi" unicode="&#x3c0;" horiz-adv-x="1130" 
d="M1225 961h-142l-120 -687q-18 -94 -3.5 -123.5t78.5 -29.5h49q20 0 17 -23l-17 -88q-1 -6 -2.5 -10t-2.5 -6t-4.5 -4t-4 -2.5t-6 -2t-6.5 -1.5q-45 -9 -84 -9q-245 0 -193 299l121 687h-340l-162 -920q-7 -31 -18 -37q-7 -4 -16 -4h-123q-32 0 -25 41l162 920h-141
q-18 0 -23 5t-2 25l19 103q3 20 9.5 26t24.5 6h983q18 0 24 -6t3 -26l-18 -103q-3 -19 -10.5 -24.5t-26.5 -5.5z" />
    <glyph glyph-name="afii10023" unicode="&#x401;" horiz-adv-x="1128" 
d="M1280 1493v-4l-18 -96q-4 -25 -27 -25h-395q-82 0 -133.5 -10.5t-83.5 -38t-47.5 -64.5t-26.5 -100l-49 -285h628q15 0 24 -9.5t9 -24.5v-7l-12 -77q-3 -17 -17.5 -29t-31.5 -12h-629l-59 -344q-11 -60 -11 -84q0 -70 48.5 -99.5t175.5 -29.5h395q18 0 18 -19v-6
l-18 -100q-2 -9 -9 -18.5t-14 -10.5q-47 -5 -180.5 -9.5t-222.5 -4.5q-179 0 -278 74.5t-99 220.5q0 45 8 86l137 788q20 112 60 186.5t105 117t145.5 60t193.5 17.5q299 0 398 -18q16 -3 16 -25zM1198 1870v-6l-31 -166q-3 -17 -17 -28t-30 -11h-80q-14 0 -24 9t-10 24v6
l30 166q3 15 17.5 28t29.5 13h80q13 0 24 -10.5t11 -24.5zM840 1870v-6l-31 -166q-3 -17 -17 -28t-30 -11h-80q-14 0 -24.5 9.5t-10.5 23.5v6l31 166q3 15 17.5 28t29.5 13h80q13 0 24 -10.5t11 -24.5z" />
    <glyph glyph-name="afii10051" unicode="&#x402;" horiz-adv-x="1665" 
d="M1612 291q-33 -189 -135 -263.5t-306 -74.5q-75 0 -104 16q-11 6 -8 23l12 76q6 34 47 34h80q43 0 78 9.5t66 32t52.5 63.5t32.5 100l33 187q8 41 8 79q0 56 -19 92.5t-59.5 56t-91.5 27t-127 7.5q-60 0 -173.5 -12.5t-176.5 -32.5l-119 -670q-3 -13 -5.5 -20t-11.5 -14
t-23 -7h-113q-16 0 -26 11.5t-7 29.5l234 1321h-398q-22 0 -30 8t-5 25l15 90q7 37 49 37h983q37 0 31 -37l-15 -90q-7 -33 -45 -33h-399l-88 -498q177 56 387 56q420 0 420 -330q0 -62 -10 -113z" />
    <glyph glyph-name="afii10052" unicode="&#x403;" horiz-adv-x="1077" 
d="M1200 1915l-276 -258q-5 -4 -12 -10.5t-10 -9t-8 -6t-10 -4.5t-12 -1h-110q-10 0 -14 5t-1.5 13t11.5 17l243 254q19 19 29 25t27 6h135q16 0 19 -9t-11 -22zM549 1155l-195 -1114q-3 -20 -12.5 -30.5t-32.5 -10.5h-104q-44 0 -37 41l194 1114q20 113 60 188t105.5 117
t145.5 59t193 17q291 0 387 -16q19 -3 24.5 -10t2.5 -21l-18 -96q-4 -25 -27 -25h-395q-82 0 -133.5 -10.5t-83.5 -38t-47.5 -64.5t-26.5 -100z" />
    <glyph glyph-name="afii10053" unicode="&#x404;" horiz-adv-x="1224" 
d="M463 870h676q42 0 35 -41l-15 -77q-7 -41 -47 -41h-676l-6 -27q-16 -101 -16 -172q0 -106 29.5 -179t84 -110.5t117 -53t143.5 -15.5q137 0 314 14q21 2 29.5 -5.5t5.5 -27.5l-15 -82q-5 -34 -47 -41q-57 -10 -87 -14.5t-89.5 -8t-142.5 -3.5q-80 0 -154 17t-143 57.5
t-119.5 100t-81 151.5t-29.5 206q0 91 21 199l29 153q124 666 751 666q82 0 141.5 -4t85.5 -8t80 -15q40 -7 35 -41l-14 -82q-5 -35 -47 -32q-168 14 -310 14q-72 0 -136 -14.5t-128 -50t-115.5 -91t-93.5 -142.5t-65 -200z" />
    <glyph glyph-name="afii10054" unicode="&#x405;" horiz-adv-x="1126" 
d="M881 1536q89 0 206.5 -8t176.5 -17q20 -3 25.5 -9t2.5 -25l-14 -88q-3 -21 -11.5 -28.5t-33.5 -4.5q-180 12 -352 12q-55 0 -99.5 -4.5t-91.5 -17.5t-78 -35.5t-51 -61t-20 -90.5q0 -71 38.5 -119t143.5 -118l168 -113q141 -94 199.5 -182.5t58.5 -202.5q0 -141 -75 -241
t-202.5 -148.5t-293.5 -48.5q-169 0 -349 28q-20 3 -27.5 11t-4.5 26l14 82q3 22 12 29t35 4q138 -12 336 -12q358 0 358 270q0 70 -41 119t-155 127l-178 121q-224 151 -224 358q0 103 42.5 180t117.5 121t166.5 65t200.5 21z" />
    <glyph glyph-name="afii10055" unicode="&#x406;" horiz-adv-x="546" 
d="M483 1522h113q37 0 31 -39l-254 -1442q-3 -22 -12.5 -31.5t-30.5 -9.5h-113q-19 0 -26.5 12t-4.5 29l254 1442q8 39 43 39z" />
    <glyph glyph-name="afii10056" unicode="&#x407;" horiz-adv-x="546" 
d="M635 1491v-8l-254 -1442q-3 -16 -15 -28.5t-28 -12.5h-113q-13 0 -21.5 9.5t-8.5 23.5v8l254 1442q3 16 15 27.5t28 11.5h112q13 0 22 -9.5t9 -21.5zM860 1868v-6l-31 -166q-3 -17 -17 -28t-30 -11h-80q-14 0 -24 9t-10 24v6l30 166q3 15 17.5 28t29.5 13h80
q13 0 24 -10.5t11 -24.5zM504 1868v-6l-31 -166q-3 -17 -17 -28t-30 -11h-80q-14 0 -24.5 9.5t-10.5 23.5v6l31 166q3 15 17.5 28t29.5 13h80q13 0 24 -10.5t11 -24.5z" />
    <glyph glyph-name="afii10057" unicode="&#x408;" horiz-adv-x="526" 
d="M485 1522h109q38 0 33 -39l-277 -1559q-27 -150 -114 -221.5t-252 -71.5q-64 0 -99 15q-15 6 -12 24l12 76q3 19 12.5 27t32.5 8h78q78 0 110 32t46 111l276 1559q8 39 45 39z" />
    <glyph glyph-name="afii10058" unicode="&#x409;" horiz-adv-x="1894" 
d="M1710 420q12 82 12 102q0 119 -92 165t-276 46q-77 0 -217 -8l-101 -573q21 -1 96.5 -5t116.5 -4q101 0 175 12.5t136 43t99 85.5t51 136zM895 1522h342q17 0 26.5 -12t6.5 -29l-107 -598q126 8 217 8q90 0 166.5 -11t144.5 -37t115.5 -66t75 -101.5t27.5 -140.5
q0 -57 -15 -129q-15 -84 -48.5 -150.5t-83 -111.5t-108 -76.5t-131.5 -49t-145 -25t-157 -7.5q-216 0 -330 18q-36 5 -48.5 21.5t-6.5 54.5l225 1274h-197q-31 0 -47 -37l-577 -1286q-4 -10 -7 -15.5t-11 -10.5t-21 -5h-121q-20 0 -28 11t1 36l604 1319q39 85 103.5 120.5
t134.5 35.5z" />
    <glyph glyph-name="afii10059" unicode="&#x40a;" horiz-adv-x="2117" 
d="M2116 403q-18 -100 -63.5 -175t-106.5 -120.5t-145.5 -73.5t-169 -38t-187.5 -10q-190 0 -354 14q-45 4 -37 41l121 680h-701l-121 -680q-7 -41 -45 -41h-104q-44 0 -37 41l254 1440q7 41 49 41h104q40 0 33 -41l-104 -594h700l105 594q7 41 49 41h104q19 0 27.5 -11.5
t5.5 -29.5l-107 -598q126 8 218 8q90 0 166 -11t143.5 -37.5t114.5 -67t74.5 -102.5t27.5 -141q0 -50 -8 -94zM1933 420l6 37q7 44 7 65q0 119 -92.5 165t-276.5 46q-77 0 -217 -8l-100 -573q97 -9 213 -9q101 0 175 12.5t135.5 43t98.5 85.5t51 136z" />
    <glyph glyph-name="afii10060" unicode="&#x40b;" horiz-adv-x="1646" 
d="M1532 41q-7 -41 -45 -41h-105q-43 0 -36 41l79 453q9 53 9 92q0 55 -16 89.5t-52 52t-78.5 23t-109.5 5.5q-179 0 -336 -43l-119 -672q-3 -13 -5.5 -20.5t-12 -14t-23.5 -6.5h-113q-39 0 -32 41l233 1321h-397q-21 0 -29.5 8t-5.5 25l14 90q7 37 49 37h983q37 0 31 -37
l-14 -90q-7 -33 -45 -33h-400l-88 -494q180 52 367 52q91 0 158 -14.5t120.5 -49t81 -98t27.5 -154.5q0 -50 -14 -139z" />
    <glyph glyph-name="afii10061" unicode="&#x40c;" horiz-adv-x="1243" 
d="M1225 1915l-277 -258q-5 -4 -14 -12.5t-12 -11t-10 -5t-15 -2.5h-111q-10 0 -14 5t-1.5 13t11.5 17l244 254q14 14 19.5 19t14.5 8.5t21 3.5h136q16 0 19 -9t-11 -22zM1413 1501q0 -12 -10 -22l-758 -697l490 -749q4 -8 4 -13q0 -20 -21 -20h-147q-32 0 -43 20l-455 709
l-121 -688q-2 -14 -5 -21.5t-12 -13.5t-26 -6h-112q-17 0 -25.5 12.5t-5.5 28.5l254 1442q8 39 45 39h108q17 0 27 -9.5t6 -29.5l-112 -643l688 663q22 19 45 19h159q13 0 20 -6.5t7 -14.5z" />
    <glyph glyph-name="afii10062" unicode="&#x40e;" horiz-adv-x="1204" 
d="M1397 1470l-662 -1173q-49 -88 -86.5 -140t-89 -94t-115.5 -59.5t-153 -17.5q-81 0 -135 12q-21 5 -30.5 12t-6.5 21l16 94q6 36 51 33q63 -6 127 -6q87 0 128.5 31.5t103.5 142.5l106 192h-10q-56 0 -79 25.5t-38 99.5l-164 827q-9 52 39 52h109q14 0 23 -5t11 -9.5
t5 -14.5l153 -768q4 -26 10.5 -32.5t24.5 -6.5h13l454 807q17 29 41 29h131q22 0 29 -14.5t-6 -37.5zM1262 1911q-35 -140 -131.5 -214.5t-235.5 -74.5q-130 0 -215.5 72.5t-85.5 216.5q0 35 37 35h67q16 0 20.5 -7t4.5 -26q-3 -81 43.5 -122.5t132.5 -41.5q85 0 148.5 42
t85.5 122q5 18 12 25.5t24 7.5h76q26 0 17 -35z" />
    <glyph glyph-name="afii10145" unicode="&#x40f;" horiz-adv-x="1392" 
d="M793 0l-39 -205q-7 -41 -45 -41h-113q-17 0 -24.5 11.5t-4.5 29.5l39 205h-166q-239 0 -239 203q0 41 8 82l211 1196q3 17 17.5 29t31.5 12h104q17 0 26.5 -12t6.5 -29l-215 -1225q-4 -32 -4 -41q0 -26 17 -36.5t63 -10.5h516q61 0 81 19t28 69l215 1225q3 17 17.5 29
t31.5 12h104q17 0 26.5 -12t6.5 -29l-219 -1252q-10 -55 -29 -96.5t-47.5 -65.5t-54 -38.5t-64 -20.5t-59 -7t-56.5 -1h-4h-4h-163z" />
    <glyph glyph-name="afii10017" unicode="&#x410;" horiz-adv-x="1296" 
d="M1243 39q0 -39 -33 -39h-123q-26 0 -30 31l-51 471h-531l-213 -471q-12 -31 -41 -31h-125q-13 0 -21.5 7.5t-8.5 19.5t4 20l614 1333q71 156 236 156q163 0 180 -154l143 -1335v-8zM995 664l-67 673q-3 37 -33 37q-31 0 -47 -37l-305 -673h452z" />
    <glyph glyph-name="afii10018" unicode="&#x411;" horiz-adv-x="1261" 
d="M1229 401q-18 -100 -63.5 -175t-106.5 -120t-146 -72.5t-169 -37.5t-187 -10q-216 0 -330 18q-36 5 -48.5 21.5t-6.5 54.5l248 1403q8 39 45 39h782q40 0 33 -41l-14 -84q-2 -13 -6 -21t-14.5 -14t-28.5 -6h-633l-84 -473q126 8 217 8q90 0 166 -11.5t143.5 -38
t115 -67.5t74.5 -103t27 -141q0 -50 -8 -94zM1047 420l6 37q6 37 6 65q0 119 -92.5 165t-276.5 46q-77 0 -217 -8l-100 -573q21 -1 96.5 -5t116.5 -4q101 0 175 12.5t136 43t99 85.5t51 136z" />
    <glyph glyph-name="afii10019" unicode="&#x412;" horiz-adv-x="1261" 
d="M1354 1176q0 -23 -8 -68q-24 -126 -92.5 -203.5t-182.5 -118.5q82 -33 127 -105.5t45 -164.5q0 -41 -10 -96q-18 -102 -61 -178.5t-102 -125t-141.5 -78t-171 -41t-198.5 -11.5q-218 0 -332 18q-30 5 -42.5 17t-12.5 36q0 15 2 23l240 1364q11 66 80 76q140 16 327 16
q116 0 210 -18t168 -55t114.5 -101t40.5 -150v-36zM1167 1171v23q0 45 -17.5 77.5t-48 53t-79 32.5t-102 16.5t-125.5 4.5q-34 0 -205 -6l-90 -508h315q297 0 344 244q8 43 8 63zM1057 514q0 201 -266 201h-316l-100 -563q24 -1 97 -5t114 -4q101 0 175 12.5t135.5 43
t99 85.5t51.5 136q10 55 10 94z" />
    <glyph glyph-name="afii10020" unicode="&#x413;" horiz-adv-x="1077" 
d="M549 1155l-195 -1114q-3 -20 -12.5 -30.5t-32.5 -10.5h-104q-44 0 -37 41l194 1114q20 113 60 188t105.5 117t145.5 59t193 17q291 0 387 -16q19 -3 24.5 -10t2.5 -21l-18 -96q-4 -25 -27 -25h-395q-82 0 -133.5 -10.5t-83.5 -38t-47.5 -64.5t-26.5 -100z" />
    <glyph glyph-name="afii10021" unicode="&#x414;" horiz-adv-x="1402" 
d="M117 166h63l559 1214q39 85 103.5 120.5t134.5 35.5q69 0 119.5 -34.5t60.5 -119.5l129 -1216h57q36 0 29 -39l-57 -332q-8 -41 -45 -41h-113q-36 0 -29 41l39 205h-927l-39 -205q-8 -41 -45 -41h-113q-36 0 -29 41l58 332q8 39 45 39zM907 1337l-526 -1171h721
l-115 1171q-3 37 -33 37q-31 0 -47 -37z" />
    <glyph glyph-name="afii10022" unicode="&#x415;" horiz-adv-x="1128" 
d="M840 1368q-82 0 -133.5 -10.5t-83.5 -38t-47.5 -64.5t-26.5 -100l-49 -285h628q38 0 33 -41l-12 -77q-7 -41 -49 -41h-629l-59 -344q-11 -60 -11 -84q0 -70 48.5 -99.5t175.5 -29.5h389q16 0 21.5 -5.5t2.5 -19.5l-18 -100q-4 -25 -23 -29q-47 -5 -180.5 -9.5
t-222.5 -4.5q-179 0 -278 74.5t-99 220.5q0 45 8 86l137 788q20 112 60 186.5t105 117t145.5 60t193.5 17.5q299 0 398 -18q21 -3 16 -29l-18 -96q-2 -25 -27 -25h-395z" />
    <glyph glyph-name="afii10024" unicode="&#x416;" horiz-adv-x="1980" 
d="M580 1503l469 -680l116 660q8 39 45 39h109q17 0 27 -9.5t6 -29.5l-113 -643l688 663q22 19 45 19h160q13 0 20 -6.5t7 -14.5q0 -11 -11 -22l-757 -697l489 -749q4 -8 4 -13q0 -20 -20 -20h-148q-32 0 -43 20l-454 709l-121 -688q-2 -14 -5 -21.5t-12 -13.5t-26 -6h-113
q-17 0 -25.5 12.5t-5.5 28.5l119 678l-700 -699q-20 -20 -45 -20h-160q-22 0 -28 19.5t9 31.5l756 746l-483 682q-13 23 -4.5 33t26.5 10h142q21 0 37 -19z" />
    <glyph glyph-name="afii10025" unicode="&#x417;" horiz-adv-x="1099" 
d="M1206 1227q0 -141 -70 -261.5t-194 -177.5q139 -75 139 -258q0 -275 -156.5 -409.5t-439.5 -134.5q-172 0 -340 41q-18 4 -25.5 11.5t-4.5 27.5l12 69q6 40 47 35q219 -29 338 -29q381 0 381 383q0 83 -46.5 138t-152.5 55h-372q-38 0 -33 37l12 71q3 20 12.5 29.5
t32.5 9.5h373q141 0 218 96.5t77 239.5q0 102 -60.5 141t-216.5 39q-103 0 -356 -30h-6q-35 0 -29 34l12 72q6 31 48 39q209 41 352 41q212 0 330 -77t118 -232z" />
    <glyph glyph-name="afii10026" unicode="&#x418;" horiz-adv-x="1392" 
d="M170 59l250 1424q8 39 45 39h108q18 0 25 -11.5t4 -27.5l-211 -1198q0 -6 6 0l840 1196q18 25 34.5 33t57.5 8h113q26 0 39.5 -15.5t9.5 -42.5l-254 -1439q-5 -25 -39 -25h-106q-18 0 -27 11.5t-6 27.5l211 1196q1 7 -1 7q-2 -1 -7 -7l-840 -1194q-17 -23 -33 -32t-41 -9
h-127q-25 0 -40 17t-11 42z" />
    <glyph glyph-name="afii10027" unicode="&#x419;" horiz-adv-x="1392" 
d="M1360 1911q-35 -140 -131.5 -214.5t-235.5 -74.5q-130 0 -215.5 72.5t-85.5 216.5q0 35 37 35h68q16 0 20 -7t4 -26q-3 -81 43.5 -122.5t132.5 -41.5q85 0 148.5 42t85.5 122q5 18 12.5 25.5t24.5 7.5h75q26 0 17 -35zM170 59q-4 -25 11 -42t40 -17h127q25 0 41 9t33 32
l840 1194q9 12 8 3v-3l-211 -1196q-3 -16 6 -27.5t27 -11.5h106q34 0 39 25l254 1439q4 27 -9.5 42.5t-39.5 15.5h-113q-41 0 -57.5 -8t-34.5 -33l-840 -1196q-6 -6 -6 0l211 1198q3 16 -4 27.5t-25 11.5h-108q-37 0 -45 -39z" />
    <glyph glyph-name="afii10028" unicode="&#x41a;" horiz-adv-x="1243" 
d="M1413 1501q0 -12 -10 -22l-758 -697l490 -749q4 -8 4 -13q0 -20 -21 -20h-147q-32 0 -43 20l-455 709l-121 -688q-2 -14 -5 -21.5t-12 -13.5t-26 -6h-112q-17 0 -25.5 12.5t-5.5 28.5l254 1442q8 39 45 39h108q17 0 27 -9.5t6 -29.5l-112 -643l688 663q22 19 45 19h159
q13 0 20 -6.5t7 -14.5z" />
    <glyph glyph-name="afii10029" unicode="&#x41b;" horiz-adv-x="1296" 
d="M1057 31l-129 1306q-3 37 -33 37q-31 0 -47 -37l-586 -1306q-12 -31 -41 -31h-125q-13 0 -21.5 7.5t-8.5 19.5t4 20l614 1333q71 156 236 156q163 0 180 -154l143 -1335v-8q0 -39 -33 -39h-123q-26 0 -30 31z" />
    <glyph glyph-name="afii10030" unicode="&#x41c;" horiz-adv-x="1558" 
d="M1468 1522h140q58 0 49 -60l-250 -1421q-3 -14 -5.5 -21.5t-13 -13.5t-28.5 -6h-100q-19 0 -28.5 11t-6.5 30l211 1204q2 12 -2 12q-1 0 -7 -6l-395 -600q-21 -32 -43 -45.5t-59 -13.5h-94q-37 0 -55 13.5t-27 45.5l-181 598q-4 13 -8 13t-6 -17l-211 -1204
q-4 -20 -13.5 -30.5t-33.5 -10.5h-100q-18 0 -28 12.5t-7 28.5l250 1421q5 29 19.5 44.5t49.5 15.5h127q30 0 42 -7t18 -28l215 -703q4 -13 8 -17.5t12 -4.5q14 0 29 22l461 703q12 20 27.5 27.5t43.5 7.5z" />
    <glyph glyph-name="afii10031" unicode="&#x41d;" horiz-adv-x="1392" 
d="M1356 1522h104q39 0 33 -41l-252 -1440q-3 -17 -16.5 -29t-30.5 -12h-104q-19 0 -28.5 11t-6.5 30l119 680h-701l-119 -680q-2 -14 -5.5 -21.5t-13.5 -13.5t-28 -6h-104q-18 0 -28 12.5t-7 28.5l252 1440q2 13 6 21t14.5 14t28.5 6h104q39 0 33 -41l-104 -594h700
l105 594q2 14 5.5 21.5t14.5 13.5t29 6z" />
    <glyph glyph-name="afii10032" unicode="&#x41e;" horiz-adv-x="1353" 
d="M1405 1065q0 -74 -16 -172l-48 -264q-114 -643 -665 -643q-207 0 -333 119t-126 352q0 74 16 172l48 264q31 177 94 304t152 200t192 106t229 33q209 0 333 -122t124 -349zM1217 1063q0 161 -75.5 233t-221.5 72q-174 0 -291 -117t-160 -358l-47 -264q-14 -80 -14 -156
q0 -169 75.5 -244t221.5 -75q173 0 289 117t159 358l47 264q17 89 17 170z" />
    <glyph glyph-name="afii10033" unicode="&#x41f;" horiz-adv-x="1392" 
d="M1055 41l215 1225q4 32 4 41q0 26 -17 36.5t-63 10.5h-516q-61 0 -81 -19t-28 -69l-215 -1225q-3 -18 -15.5 -29.5t-29.5 -11.5h-104q-18 0 -29 12t-8 29l215 1225q12 68 36 117t51.5 75.5t68.5 41t75 18.5t82 4h516q248 0 248 -205q0 -39 -8 -78l-211 -1198
q-3 -18 -15.5 -29.5t-29.5 -11.5h-104q-18 0 -29 12t-8 29z" />
    <glyph glyph-name="afii10034" unicode="&#x420;" horiz-adv-x="1204" 
d="M1321 1176q0 -38 -6 -84l-4 -27q-17 -108 -59 -189t-100.5 -132t-140 -82.5t-166.5 -43.5t-190 -12q-75 0 -202 10l-101 -575q-3 -13 -6 -20.5t-12.5 -14t-24.5 -6.5h-110q-17 0 -25.5 11t-5.5 30l250 1427q4 22 20 35.5t39 16.5q144 16 342 16q237 0 369.5 -89
t132.5 -271zM1135 1163q0 117 -81.5 166t-260.5 49q-109 0 -207 -8l-107 -600q188 -8 205 -8q206 0 311 75.5t129 227.5l4 27q7 47 7 71z" />
    <glyph glyph-name="afii10035" unicode="&#x421;" horiz-adv-x="1116" 
d="M934 1536q131 0 338 -33q10 -1 16 -3t10 -8t2 -15l-18 -105q-2 -14 -9.5 -18.5t-25.5 -3.5q-216 18 -340 18q-78 0 -145 -24.5t-126 -77.5t-102 -145t-65 -218l-51 -285q-15 -85 -15 -151q0 -163 77 -238t212 -75q52 0 115 3t140 7.5t87 5.5q24 1 31 -5.5t4 -27.5
l-14 -84q-3 -20 -12.5 -28.5t-36.5 -12.5q-143 -26 -344 -26q-65 0 -126 15t-120 50.5t-102.5 88t-70 133.5t-26.5 182q0 80 14 163l52 285q27 150 79.5 264.5t115 183.5t142.5 111.5t155 58t159 15.5z" />
    <glyph glyph-name="afii10036" unicode="&#x422;" horiz-adv-x="1208" 
d="M936 1362l-231 -1321q-3 -18 -14.5 -29.5t-28.5 -11.5h-113q-17 0 -25.5 12.5t-5.5 28.5l232 1321h-398q-19 0 -28.5 7t-6.5 26l17 90q8 37 47 37h983q41 0 33 -37l-17 -90q-3 -17 -12.5 -25t-32.5 -8h-399z" />
    <glyph glyph-name="afii10037" unicode="&#x423;" horiz-adv-x="1204" 
d="M1397 1470l-662 -1173q-49 -88 -86.5 -140t-89 -94t-115.5 -59.5t-153 -17.5q-81 0 -135 12q-21 5 -30.5 12t-6.5 21l16 94q6 36 51 33q63 -6 127 -6q87 0 128.5 31.5t103.5 142.5l106 192h-10q-56 0 -79 25.5t-38 99.5l-164 827q-9 52 39 52h109q14 0 23 -5t11 -9.5
t5 -14.5l153 -768q4 -26 10.5 -32.5t24.5 -6.5h13l454 807q17 29 41 29h131q22 0 29 -14.5t-6 -37.5z" />
    <glyph glyph-name="afii10038" unicode="&#x424;" horiz-adv-x="1617" 
d="M1159 1495l-33 -192h78q229 0 363.5 -97t134.5 -286q0 -41 -10 -103l-13 -67q-82 -459 -653 -459q-51 0 -78 2l-45 -252q-8 -41 -41 -41h-110q-18 0 -27 11.5t-6 29.5l45 252q-29 -2 -78 -2q-227 0 -359 100.5t-132 294.5q0 48 10 113l12 67q75 437 647 437h78l33 192
q7 41 45 41h110q19 0 25.5 -12t3.5 -29zM1176 1145h-78l-123 -696q44 -3 78 -3q206 0 310 80t134 244l12 68q7 47 7 71q0 119 -83.5 177.5t-256.5 58.5zM713 446q31 0 78 3l122 696h-77q-198 0 -306.5 -76t-134.5 -231l-12 -68q-8 -41 -8 -88q0 -119 80.5 -177.5
t257.5 -58.5z" />
    <glyph glyph-name="afii10039" unicode="&#x425;" horiz-adv-x="1323" 
d="M1464 1497q0 -11 -10 -24l-571 -707l336 -715q4 -12 4 -16q0 -15 -9.5 -25t-27.5 -10h-103q-26 0 -39 31l-276 590l-477 -590q-24 -31 -47 -31h-123q-31 0 -31 25q0 13 10 26l594 727l-325 695q-4 8 -4 14q0 14 10 24.5t26 10.5h105q24 0 33 -21l272 -581l475 581
q16 21 43 21h107q28 0 28 -25z" />
    </font>
</defs>
</svg>
